<?xml version="1.0" encoding="UTF-8" standalone="no"?>
<!DOCTYPE svg PUBLIC "-//W3C//DTD SVG 1.1//EN"
 "http://www.w3.org/Graphics/SVG/1.1/DTD/svg11.dtd">
<!-- Generated by graphviz version 2.26.3 (20100126.1600)
 -->
<!-- Title: g Pages: 1 -->
<svg width="414pt" height="506pt"
 viewBox="0.00 0.00 414.00 506.00" xmlns="http://www.w3.org/2000/svg" xmlns:xlink="http://www.w3.org/1999/xlink">
<g id="graph1" class="graph" transform="scale(1 1) rotate(0) translate(4 502)">
<title>g</title>
<polygon fill="white" stroke="white" points="-4,5 -4,-502 411,-502 411,5 -4,5"/>
<g id="graph2" class="cluster"><title>cluster_option</title>
<polygon fill="#f4f4f4" stroke="black" points="8,-8 8,-490 398,-490 398,-8 8,-8"/>
<text text-anchor="middle" x="203" y="-475.2" font-family="Arial" font-size="12.00" fill="#005a9c">option ballfollowing</text>
</g>
<g id="graph3" class="cluster"><title>cluster_states</title>
<polygon fill="#f4f4f4" stroke="#f4f4f4" points="16,-16 16,-112 390,-112 390,-16 16,-16"/>
</g>
<g id="graph10" class="cluster"><title>cluster_decision_tree</title>
<polygon fill="#ffffff" stroke="black" points="99,-156 99,-459 241,-459 241,-156 99,-156"/>
<text text-anchor="middle" x="170" y="-444.2" font-family="Arial" font-size="12.00" fill="#005a9c">state preparekick</text>
</g>
<!-- state_ballnotfound -->
<g id="node4" class="node"><title>state_ballnotfound</title>
<a xlink:href="option.ballfollowing.html#state_ballnotfound" xlink:title="ballnotfound">
<ellipse fill="#ffffff" stroke="black" cx="342" cy="-64" rx="40.0291" ry="40.0291"/>
<polyline fill="none" stroke="black" points="368.456,-94 315.544,-94 "/>
<polyline fill="none" stroke="black" points="368.456,-34 315.544,-34 "/>
<text text-anchor="middle" x="342" y="-61.4" font-family="Arial" font-size="9.00" fill="#005a9c">ballnotfound</text>
</a>
</g>
<!-- state_preparekick -->
<g id="node6" class="node"><title>state_preparekick</title>
<ellipse fill="none" stroke="black" stroke-dasharray="5,2" cx="174" cy="-64" rx="37.7662" ry="38.2631"/>
<text text-anchor="middle" x="174" y="-61.4" font-family="Arial" font-size="9.00" fill="#005a9c">preparekick</text>
</g>
<!-- state_forward -->
<g id="node8" class="node"><title>state_forward</title>
<a xlink:href="option.ballfollowing.html#state_forward" xlink:title="forward">
<ellipse fill="#ffffff" stroke="black" cx="257" cy="-64" rx="27.1641" ry="27.6672"/>
<text text-anchor="middle" x="257" y="-61.4" font-family="Arial" font-size="9.00" fill="#005a9c">forward</text>
</a>
</g>
<!-- state_left -->
<g id="node10" class="node"><title>state_left</title>
<a xlink:href="option.ballfollowing.html#state_left" xlink:title="left">
<ellipse fill="#ffffff" stroke="black" cx="100" cy="-64" rx="18" ry="18"/>
<text text-anchor="middle" x="100" y="-61.4" font-family="Arial" font-size="9.00" fill="#005a9c">left</text>
</a>
</g>
<!-- state_right -->
<g id="node12" class="node"><title>state_right</title>
<a xlink:href="option.ballfollowing.html#state_right" xlink:title="right">
<ellipse fill="#ffffff" stroke="black" cx="44" cy="-64" rx="20.1007" ry="20.6032"/>
<text text-anchor="middle" x="44" y="-61.4" font-family="Arial" font-size="9.00" fill="#005a9c">right</text>
</a>
</g>
<!-- start -->
<g id="node16" class="node"><title>start</title>
<ellipse fill="black" stroke="black" cx="206" cy="-426" rx="1.8" ry="1.8"/>
</g>
<!-- _0 -->
<g id="node18" class="node"><title>_0</title>
<a xlink:href="option.ballfollowing.html#state_preparekick_pseudo-code_0" xlink:title="Ball not\nfound">
<polygon fill="#ffffff" stroke="black" points="233,-395 179,-395 179,-359 233,-359 233,-395"/>
<text text-anchor="middle" x="206" y="-379.9" font-family="Arial Italic" font-size="9.00">Ball not</text>
<text text-anchor="middle" x="206" y="-368.9" font-family="Arial Italic" font-size="9.00">found</text>
</a>
</g>
<!-- start&#45;&gt;_0 -->
<g id="edge15" class="edge"><title>start&#45;&gt;_0</title>
<path fill="none" stroke="black" stroke-dasharray="5,2" d="M206,-423.895C206,-420.481 206,-413.341 206,-405.638"/>
<polygon fill="black" stroke="black" points="209.5,-405.455 206,-395.455 202.5,-405.455 209.5,-405.455"/>
</g>
<!-- _0&#45;&gt;state_ballnotfound -->
<g id="edge13" class="edge"><title>_0&#45;&gt;state_ballnotfound</title>
<path fill="none" stroke="black" stroke-dasharray="5,2" d="M222.379,-358.844C229.208,-350.524 236.755,-340.247 242,-330 259.554,-295.706 267,-285.526 267,-247 267,-247 267,-247 267,-182 267,-150.436 286.35,-120.494 305.393,-98.6683"/>
<polygon fill="black" stroke="black" points="308.221,-100.76 312.358,-91.0068 303.041,-96.0516 308.221,-100.76"/>
<text text-anchor="middle" x="224.799" y="-347.041" font-family="Times Roman,serif" font-size="9.00">1</text>
</g>
<!-- _1_0 -->
<g id="node22" class="node"><title>_1_0</title>
<a xlink:href="option.ballfollowing.html#state_preparekick_pseudo-code_1_0" xlink:title="Ball is\nin front">
<polygon fill="#ffffff" stroke="black" points="233,-330 179,-330 179,-294 233,-294 233,-330"/>
<text text-anchor="middle" x="206" y="-314.9" font-family="Arial Italic" font-size="9.00">Ball is</text>
<text text-anchor="middle" x="206" y="-303.9" font-family="Arial Italic" font-size="9.00">in front</text>
</a>
</g>
<!-- _0&#45;&gt;_1_0 -->
<g id="edge25" class="edge"><title>_0&#45;&gt;_1_0</title>
<path fill="none" stroke="black" stroke-dasharray="5,2" d="M206,-358.894C206,-353.118 206,-346.583 206,-340.265"/>
<polygon fill="black" stroke="black" points="209.5,-340.009 206,-330.009 202.5,-340.009 209.5,-340.009"/>
<text text-anchor="middle" x="201.774" y="-347.231" font-family="Arial Bold Italic" font-size="9.00">0</text>
</g>
<!-- _1_0_0 -->
<g id="node24" class="node"><title>_1_0_0</title>
<a xlink:href="option.ballfollowing.html#state_preparekick_pseudo-code_1_0_0" xlink:title="Ball is\nnear">
<polygon fill="#ffffff" stroke="black" points="233,-265 179,-265 179,-229 233,-229 233,-265"/>
<text text-anchor="middle" x="206" y="-249.9" font-family="Arial Italic" font-size="9.00">Ball is</text>
<text text-anchor="middle" x="206" y="-238.9" font-family="Arial Italic" font-size="9.00">near</text>
</a>
</g>
<!-- _1_0&#45;&gt;_1_0_0 -->
<g id="edge21" class="edge"><title>_1_0&#45;&gt;_1_0_0</title>
<path fill="none" stroke="black" stroke-dasharray="5,2" d="M206,-293.894C206,-288.118 206,-281.583 206,-275.265"/>
<polygon fill="black" stroke="black" points="209.5,-275.009 206,-265.009 202.5,-275.009 209.5,-275.009"/>
<text text-anchor="middle" x="201.774" y="-282.231" font-family="Arial Bold Italic" font-size="9.00">1</text>
</g>
<!-- _1_1_0 -->
<g id="node30" class="node"><title>_1_1_0</title>
<a xlink:href="option.ballfollowing.html#state_preparekick_pseudo-code_1_1_0" xlink:title="Ball is\nleft">
<polygon fill="#ffffff" stroke="black" points="161,-265 107,-265 107,-229 161,-229 161,-265"/>
<text text-anchor="middle" x="134" y="-249.9" font-family="Arial Italic" font-size="9.00">Ball is</text>
<text text-anchor="middle" x="134" y="-238.9" font-family="Arial Italic" font-size="9.00">left</text>
</a>
</g>
<!-- _1_0&#45;&gt;_1_1_0 -->
<g id="edge30" class="edge"><title>_1_0&#45;&gt;_1_1_0</title>
<path fill="none" stroke="black" stroke-dasharray="5,2" d="M185.944,-293.894C178.376,-287.062 169.63,-279.166 161.498,-271.825"/>
<polygon fill="black" stroke="black" points="163.717,-269.112 153.948,-265.009 159.026,-274.308 163.717,-269.112"/>
<text text-anchor="middle" x="176.385" y="-288.358" font-family="Arial Bold Italic" font-size="9.00">0</text>
</g>
<!-- _1_0_0&#45;&gt;state_preparekick -->
<g id="edge19" class="edge"><title>_1_0_0&#45;&gt;state_preparekick</title>
<path fill="none" stroke="black" stroke-dasharray="5,2" d="M202.815,-228.784C198.098,-201.813 189.095,-150.324 182.402,-112.047"/>
<polygon fill="black" stroke="black" points="185.838,-111.377 180.667,-102.13 178.942,-112.583 185.838,-111.377"/>
<text text-anchor="middle" x="197.091" y="-218.485" font-family="Times Roman,serif" font-size="9.00">1</text>
</g>
<!-- _1_0_0&#45;&gt;state_forward -->
<g id="edge23" class="edge"><title>_1_0_0&#45;&gt;state_forward</title>
<path fill="none" stroke="black" stroke-dasharray="5,2" d="M211.077,-228.784C219.38,-198.991 236.02,-139.282 246.825,-100.512"/>
<polygon fill="black" stroke="black" points="250.258,-101.228 249.571,-90.6557 243.515,-99.3489 250.258,-101.228"/>
<text text-anchor="middle" x="209.439" y="-216.819" font-family="Times Roman,serif" font-size="9.00">0</text>
</g>
<!-- _1_1_0&#45;&gt;state_left -->
<g id="edge28" class="edge"><title>_1_1_0&#45;&gt;state_left</title>
<path fill="none" stroke="black" stroke-dasharray="5,2" d="M152.611,-228.578C159.472,-220.521 166.436,-210.513 170,-200 176.278,-181.48 177.38,-174.11 170,-156 159.682,-130.678 143.398,-133.88 127,-112 121.839,-105.114 116.97,-97.1372 112.825,-89.6875"/>
<polygon fill="black" stroke="black" points="115.797,-87.8229 107.995,-80.655 109.625,-91.1239 115.797,-87.8229"/>
<text text-anchor="middle" x="155.157" y="-216.808" font-family="Times Roman,serif" font-size="9.00">1</text>
</g>
<!-- _1_1_1_0 -->
<g id="node34" class="node"><title>_1_1_1_0</title>
<a xlink:href="option.ballfollowing.html#state_preparekick_pseudo-code_1_1_1_0" xlink:title="Ball is\nright">
<polygon fill="#ffffff" stroke="black" points="161,-200 107,-200 107,-164 161,-164 161,-200"/>
<text text-anchor="middle" x="134" y="-184.9" font-family="Arial Italic" font-size="9.00">Ball is</text>
<text text-anchor="middle" x="134" y="-173.9" font-family="Arial Italic" font-size="9.00">right</text>
</a>
</g>
<!-- _1_1_0&#45;&gt;_1_1_1_0 -->
<g id="edge35" class="edge"><title>_1_1_0&#45;&gt;_1_1_1_0</title>
<path fill="none" stroke="black" stroke-dasharray="5,2" d="M134,-228.894C134,-223.118 134,-216.583 134,-210.265"/>
<polygon fill="black" stroke="black" points="137.5,-210.009 134,-200.009 130.5,-210.009 137.5,-210.009"/>
<text text-anchor="middle" x="129.774" y="-217.231" font-family="Arial Bold Italic" font-size="9.00">0</text>
</g>
<!-- _1_1_1_0&#45;&gt;state_preparekick -->
<g id="edge37" class="edge"><title>_1_1_1_0&#45;&gt;state_preparekick</title>
<path fill="none" stroke="black" d="M140.162,-163.821C145.014,-149.508 151.998,-128.907 158.362,-110.133"/>
<polygon fill="black" stroke="black" points="161.723,-111.12 161.619,-100.525 155.093,-108.872 161.723,-111.12"/>
<text text-anchor="middle" x="139.069" y="-151.781" font-family="Times Roman,serif" font-size="9.00">0</text>
</g>
<!-- _1_1_1_0&#45;&gt;state_right -->
<g id="edge33" class="edge"><title>_1_1_1_0&#45;&gt;state_right</title>
<path fill="none" stroke="black" stroke-dasharray="5,2" d="M116.508,-163.721C103.781,-150.009 86.4881,-130.494 73,-112 68.2669,-105.51 63.5726,-98.2184 59.3837,-91.3153"/>
<polygon fill="black" stroke="black" points="62.1298,-89.0827 54.0286,-82.2548 56.1037,-92.6445 62.1298,-89.0827"/>
<text text-anchor="middle" x="107.258" y="-157.822" font-family="Times Roman,serif" font-size="9.00">1</text>
</g>
</g>
</svg>
