<?xml version="1.0" encoding="UTF-8" standalone="no"?>
<!DOCTYPE svg PUBLIC "-//W3C//DTD SVG 1.1//EN"
 "http://www.w3.org/Graphics/SVG/1.1/DTD/svg11.dtd">
<!-- Generated by graphviz version 2.26.3 (20100126.1600)
 -->
<!-- Title: g Pages: 1 -->
<svg width="374pt" height="551pt"
 viewBox="0.00 0.00 374.00 551.00" xmlns="http://www.w3.org/2000/svg" xmlns:xlink="http://www.w3.org/1999/xlink">
<g id="graph1" class="graph" transform="scale(1 1) rotate(0) translate(4 547)">
<title>g</title>
<polygon fill="white" stroke="white" points="-4,5 -4,-547 371,-547 371,5 -4,5"/>
<g id="graph2" class="cluster"><title>cluster_option</title>
<polygon fill="#f4f4f4" stroke="black" points="8,-8 8,-535 358,-535 358,-8 8,-8"/>
<text text-anchor="middle" x="183" y="-520.2" font-family="Arial" font-size="12.00" fill="#005a9c">option referee</text>
</g>
<g id="graph3" class="cluster"><title>cluster_states</title>
<polygon fill="#f4f4f4" stroke="#f4f4f4" points="16,-16 16,-92 350,-92 350,-16 16,-16"/>
</g>
<g id="graph10" class="cluster"><title>cluster_decision_tree</title>
<polygon fill="#ffffff" stroke="black" points="90,-136 90,-504 176,-504 176,-136 90,-136"/>
<text text-anchor="middle" x="133" y="-489.2" font-family="Arial" font-size="12.00" fill="#005a9c">state finished</text>
</g>
<!-- state_playing -->
<g id="node4" class="node"><title>state_playing</title>
<a xlink:href="option.referee.html#state_playing" xlink:title="playing">
<ellipse fill="#ffffff" stroke="black" cx="315" cy="-54" rx="27.0785" ry="27.0785"/>
<text text-anchor="middle" x="315" y="-51.4" font-family="Arial" font-size="9.00" fill="#005a9c">playing</text>
</a>
</g>
<!-- state__initial -->
<g id="node6" class="node"><title>state__initial</title>
<a xlink:href="option.referee.html#state__initial" xlink:title="_initial">
<ellipse fill="#ffffff" stroke="black" cx="244" cy="-54" rx="25.9012" ry="25.9012"/>
<polyline fill="none" stroke="black" points="261.196,-73.5 226.804,-73.5 "/>
<polyline fill="none" stroke="black" points="261.196,-34.5 226.804,-34.5 "/>
<text text-anchor="middle" x="244" y="-51.4" font-family="Arial" font-size="9.00" fill="#005a9c">_initial</text>
</a>
</g>
<!-- state_finished -->
<g id="node8" class="node"><title>state_finished</title>
<ellipse fill="none" stroke="black" stroke-dasharray="5,2" cx="107" cy="-54" rx="28.9343" ry="29.4331"/>
<text text-anchor="middle" x="107" y="-51.4" font-family="Arial" font-size="9.00" fill="#005a9c">finished</text>
</g>
<!-- state_ready -->
<g id="node10" class="node"><title>state_ready</title>
<a xlink:href="option.referee.html#state_ready" xlink:title="ready">
<ellipse fill="#ffffff" stroke="black" cx="177" cy="-54" rx="22.9579" ry="22.9579"/>
<text text-anchor="middle" x="177" y="-51.4" font-family="Arial" font-size="9.00" fill="#005a9c">ready</text>
</a>
</g>
<!-- state_set -->
<g id="node12" class="node"><title>state_set</title>
<a xlink:href="option.referee.html#state_set" xlink:title="set">
<ellipse fill="#ffffff" stroke="black" cx="42" cy="-54" rx="18" ry="18"/>
<text text-anchor="middle" x="42" y="-51.4" font-family="Arial" font-size="9.00" fill="#005a9c">set</text>
</a>
</g>
<!-- start -->
<g id="node16" class="node"><title>start</title>
<ellipse fill="black" stroke="black" cx="141" cy="-471" rx="1.8" ry="1.8"/>
</g>
<!-- _0 -->
<g id="node18" class="node"><title>_0</title>
<a xlink:href="option.referee.html#state_finished_pseudo-code_0">
<polygon fill="#ffffff" stroke="black" points="168,-440 114,-440 114,-404 168,-404 168,-440"/>
</a>
</g>
<!-- start&#45;&gt;_0 -->
<g id="edge15" class="edge"><title>start&#45;&gt;_0</title>
<path fill="none" stroke="black" stroke-dasharray="5,2" d="M141,-468.895C141,-465.481 141,-458.341 141,-450.638"/>
<polygon fill="black" stroke="black" points="144.5,-450.455 141,-440.455 137.5,-450.455 144.5,-450.455"/>
</g>
<!-- _0&#45;&gt;state_playing -->
<g id="edge13" class="edge"><title>_0&#45;&gt;state_playing</title>
<path fill="none" stroke="black" stroke-dasharray="5,2" d="M168.186,-411.473C209.159,-393.619 282,-353.264 282,-292 282,-292 282,-292 282,-162 282,-136.274 290.67,-108.546 299.122,-87.6269"/>
<polygon fill="black" stroke="black" points="302.422,-88.8096 303.086,-78.2356 295.973,-86.0875 302.422,-88.8096"/>
<text text-anchor="middle" x="174.662" y="-401.753" font-family="Times Roman,serif" font-size="9.00">1</text>
</g>
<!-- _1_0 -->
<g id="node22" class="node"><title>_1_0</title>
<a xlink:href="option.referee.html#state_finished_pseudo-code_1_0">
<polygon fill="#ffffff" stroke="black" points="168,-375 114,-375 114,-339 168,-339 168,-375"/>
</a>
</g>
<!-- _0&#45;&gt;_1_0 -->
<g id="edge20" class="edge"><title>_0&#45;&gt;_1_0</title>
<path fill="none" stroke="black" stroke-dasharray="5,2" d="M141,-403.894C141,-398.118 141,-391.583 141,-385.265"/>
<polygon fill="black" stroke="black" points="144.5,-385.009 141,-375.009 137.5,-385.009 144.5,-385.009"/>
<text text-anchor="middle" x="136.774" y="-392.231" font-family="Arial Bold Italic" font-size="9.00">0</text>
</g>
<!-- _1_0&#45;&gt;state__initial -->
<g id="edge18" class="edge"><title>_1_0&#45;&gt;state__initial</title>
<path fill="none" stroke="black" stroke-dasharray="5,2" d="M163.92,-338.991C190.29,-316.063 230,-273.772 230,-227 230,-227 230,-227 230,-162 230,-137.739 233.518,-110.664 237.026,-89.6922"/>
<polygon fill="black" stroke="black" points="240.511,-90.0818 238.787,-79.6283 233.616,-88.8755 240.511,-90.0818"/>
<text text-anchor="middle" x="167.822" y="-327.683" font-family="Times Roman,serif" font-size="9.00">1</text>
</g>
<!-- _1_1_0 -->
<g id="node26" class="node"><title>_1_1_0</title>
<a xlink:href="option.referee.html#state_finished_pseudo-code_1_1_0">
<polygon fill="#ffffff" stroke="black" points="168,-310 114,-310 114,-274 168,-274 168,-310"/>
</a>
</g>
<!-- _1_0&#45;&gt;_1_1_0 -->
<g id="edge25" class="edge"><title>_1_0&#45;&gt;_1_1_0</title>
<path fill="none" stroke="black" stroke-dasharray="5,2" d="M141,-338.894C141,-333.118 141,-326.583 141,-320.265"/>
<polygon fill="black" stroke="black" points="144.5,-320.009 141,-310.009 137.5,-320.009 144.5,-320.009"/>
<text text-anchor="middle" x="136.774" y="-327.231" font-family="Arial Bold Italic" font-size="9.00">0</text>
</g>
<!-- _1_1_0&#45;&gt;state_finished -->
<g id="edge23" class="edge"><title>_1_1_0&#45;&gt;state_finished</title>
<path fill="none" stroke="black" stroke-dasharray="5,2" d="M159.611,-273.578C166.472,-265.521 173.436,-255.513 177,-245 182.136,-229.847 178.723,-224.907 177,-209 173.424,-175.978 173.906,-166.605 161,-136 153.47,-118.144 141.979,-99.9753 131.529,-85.2935"/>
<polygon fill="black" stroke="black" points="134.257,-83.0946 125.534,-77.0807 128.603,-87.2215 134.257,-83.0946"/>
<text text-anchor="middle" x="162.157" y="-261.808" font-family="Times Roman,serif" font-size="9.00">1</text>
</g>
<!-- _1_1_1_0 -->
<g id="node30" class="node"><title>_1_1_1_0</title>
<a xlink:href="option.referee.html#state_finished_pseudo-code_1_1_1_0">
<polygon fill="#ffffff" stroke="black" points="168,-245 114,-245 114,-209 168,-209 168,-245"/>
</a>
</g>
<!-- _1_1_0&#45;&gt;_1_1_1_0 -->
<g id="edge30" class="edge"><title>_1_1_0&#45;&gt;_1_1_1_0</title>
<path fill="none" stroke="black" stroke-dasharray="5,2" d="M141,-273.894C141,-268.118 141,-261.583 141,-255.265"/>
<polygon fill="black" stroke="black" points="144.5,-255.009 141,-245.009 137.5,-255.009 144.5,-255.009"/>
<text text-anchor="middle" x="136.774" y="-262.231" font-family="Arial Bold Italic" font-size="9.00">0</text>
</g>
<!-- _1_1_1_0&#45;&gt;state_ready -->
<g id="edge28" class="edge"><title>_1_1_1_0&#45;&gt;state_ready</title>
<path fill="none" stroke="black" stroke-dasharray="5,2" d="M150.196,-208.667C154.104,-200.146 158.359,-189.758 161,-180 169.317,-149.27 173.342,-113.126 175.271,-87.4488"/>
<polygon fill="black" stroke="black" points="178.786,-87.3466 175.975,-77.1313 171.802,-86.8696 178.786,-87.3466"/>
<text text-anchor="middle" x="150.082" y="-196.568" font-family="Times Roman,serif" font-size="9.00">1</text>
</g>
<!-- _1_1_1_1_0 -->
<g id="node34" class="node"><title>_1_1_1_1_0</title>
<a xlink:href="option.referee.html#state_finished_pseudo-code_1_1_1_1_0">
<polygon fill="#ffffff" stroke="black" points="152,-180 98,-180 98,-144 152,-144 152,-180"/>
</a>
</g>
<!-- _1_1_1_0&#45;&gt;_1_1_1_1_0 -->
<g id="edge35" class="edge"><title>_1_1_1_0&#45;&gt;_1_1_1_1_0</title>
<path fill="none" stroke="black" stroke-dasharray="5,2" d="M136.543,-208.894C135.087,-202.977 133.434,-196.264 131.844,-189.803"/>
<polygon fill="black" stroke="black" points="135.222,-188.883 129.433,-180.009 128.425,-190.556 135.222,-188.883"/>
<text text-anchor="middle" x="130.273" y="-198.504" font-family="Arial Bold Italic" font-size="9.00">0</text>
</g>
<!-- _1_1_1_1_0&#45;&gt;state_finished -->
<g id="edge37" class="edge"><title>_1_1_1_1_0&#45;&gt;state_finished</title>
<path fill="none" stroke="black" d="M121.947,-143.679C119.671,-130.024 116.476,-110.858 113.625,-93.7488"/>
<polygon fill="black" stroke="black" points="117.001,-92.7175 111.905,-83.429 110.097,-93.8683 117.001,-92.7175"/>
<text text-anchor="middle" x="116.288" y="-133.334" font-family="Times Roman,serif" font-size="9.00">0</text>
</g>
<!-- _1_1_1_1_0&#45;&gt;state_set -->
<g id="edge33" class="edge"><title>_1_1_1_1_0&#45;&gt;state_set</title>
<path fill="none" stroke="black" stroke-dasharray="5,2" d="M109.972,-143.802C98.5275,-129.804 82.4958,-109.892 69,-92 65.4667,-87.3158 61.7691,-82.237 58.2838,-77.3628"/>
<polygon fill="black" stroke="black" points="60.9554,-75.079 52.3206,-68.9396 55.2421,-79.1237 60.9554,-75.079"/>
<text text-anchor="middle" x="100.969" y="-137.351" font-family="Times Roman,serif" font-size="9.00">1</text>
</g>
</g>
</svg>
