<?xml version="1.0" encoding="UTF-8" standalone="no"?>
<!DOCTYPE svg PUBLIC "-//W3C//DTD SVG 1.1//EN"
 "http://www.w3.org/Graphics/SVG/1.1/DTD/svg11.dtd">
<!-- Generated by graphviz version 2.26.3 (20100126.1600)
 -->
<!-- Title: g Pages: 1 -->
<svg width="312pt" height="462pt"
 viewBox="0.00 0.00 312.49 462.00" xmlns="http://www.w3.org/2000/svg" xmlns:xlink="http://www.w3.org/1999/xlink">
<g id="graph1" class="graph" transform="scale(1 1) rotate(0) translate(4 458)">
<title>g</title>
<polygon fill="white" stroke="white" points="-4,5 -4,-458 309.486,-458 309.486,5 -4,5"/>
<g id="graph2" class="cluster"><title>cluster_option</title>
<polygon fill="#f4f4f4" stroke="black" points="8,-135 8,-446 276,-446 276,-135 8,-135"/>
<text text-anchor="middle" x="142" y="-431.2" font-family="Arial" font-size="12.00" fill="#005a9c">option ballfollowing</text>
</g>
<g id="graph11" class="cluster"><title>cluster_option_tree</title>
<polygon fill="none" stroke="#ffffff" points="147,-8 147,-60 259,-60 259,-8 147,-8"/>
</g>
<!-- state_ballnotfound -->
<g id="node4" class="node"><title>state_ballnotfound</title>
<a xlink:href="option.ballfollowing.html#state_ballnotfound" xlink:title="ballnotfound">
<ellipse fill="#ffffff" stroke="black" cx="152" cy="-375" rx="40.0291" ry="40.0291"/>
<polyline fill="none" stroke="black" points="178.456,-405 125.544,-405 "/>
<polyline fill="none" stroke="black" points="178.456,-345 125.544,-345 "/>
<text text-anchor="middle" x="152" y="-372.4" font-family="Arial" font-size="9.00" fill="#005a9c">ballnotfound</text>
</a>
</g>
<!-- state_ballnotfound&#45;&gt;state_ballnotfound -->
<g id="edge11" class="edge"><title>state_ballnotfound&#45;&gt;state_ballnotfound</title>
<path fill="none" stroke="black" d="M187.99,-392.911C202.162,-393.814 214,-387.844 214,-375 214,-365.367 207.341,-359.601 198.033,-357.7"/>
<polygon fill="black" stroke="black" points="198.184,-354.203 187.99,-357.089 197.759,-361.19 198.184,-354.203"/>
</g>
<!-- state_forward -->
<g id="node7" class="node"><title>state_forward</title>
<a xlink:href="option.ballfollowing.html#state_forward" xlink:title="forward">
<ellipse fill="#ffffff" stroke="black" cx="67" cy="-278" rx="27.1641" ry="27.6672"/>
<text text-anchor="middle" x="67" y="-275.4" font-family="Arial" font-size="9.00" fill="#005a9c">forward</text>
</a>
</g>
<!-- state_ballnotfound&#45;&gt;state_forward -->
<g id="edge15" class="edge"><title>state_ballnotfound&#45;&gt;state_forward</title>
<path fill="none" stroke="black" d="M121.574,-348.75C110.133,-336.784 97.4978,-322.51 87.1715,-309.927"/>
<polygon fill="black" stroke="black" points="89.7479,-307.546 80.7549,-301.944 84.2919,-311.931 89.7479,-307.546"/>
</g>
<!-- state_left -->
<g id="node9" class="node"><title>state_left</title>
<a xlink:href="option.ballfollowing.html#state_left" xlink:title="left">
<ellipse fill="#ffffff" stroke="black" cx="152" cy="-278" rx="18" ry="18"/>
<text text-anchor="middle" x="152" y="-275.4" font-family="Arial" font-size="9.00" fill="#005a9c">left</text>
</a>
</g>
<!-- state_ballnotfound&#45;&gt;state_left -->
<g id="edge17" class="edge"><title>state_ballnotfound&#45;&gt;state_left</title>
<path fill="none" stroke="black" d="M143.887,-335.826C143.58,-325.511 143.788,-314.612 144.511,-305.09"/>
<polygon fill="black" stroke="black" points="148.004,-305.334 145.545,-295.029 141.04,-304.618 148.004,-305.334"/>
</g>
<!-- state_right -->
<g id="node11" class="node"><title>state_right</title>
<a xlink:href="option.ballfollowing.html#state_right" xlink:title="right">
<ellipse fill="#ffffff" stroke="black" cx="230" cy="-278" rx="20.1007" ry="20.6032"/>
<text text-anchor="middle" x="230" y="-275.4" font-family="Arial" font-size="9.00" fill="#005a9c">right</text>
</a>
</g>
<!-- state_ballnotfound&#45;&gt;state_right -->
<g id="edge19" class="edge"><title>state_ballnotfound&#45;&gt;state_right</title>
<path fill="none" stroke="black" d="M171.992,-340.255C182.688,-326.163 195.743,-310.383 206.877,-298.236"/>
<polygon fill="black" stroke="black" points="209.548,-300.505 213.872,-290.832 204.46,-295.697 209.548,-300.505"/>
</g>
<!-- state_preparekick -->
<g id="node14" class="node"><title>state_preparekick</title>
<a xlink:href="option.ballfollowing.html#state_preparekick" xlink:title="preparekick">
<ellipse fill="#ffffff" stroke="black" cx="67" cy="-182" rx="37.7662" ry="38.2631"/>
<text text-anchor="middle" x="67" y="-179.4" font-family="Arial" font-size="9.00" fill="#005a9c">preparekick</text>
</a>
</g>
<!-- state_ballnotfound&#45;&gt;state_preparekick -->
<g id="edge13" class="edge"><title>state_ballnotfound&#45;&gt;state_preparekick</title>
<path fill="none" stroke="black" d="M112.514,-367.257C80.357,-358.075 37.6735,-339.594 18,-306 1.64362,-278.07 15.6379,-242.409 33.0026,-216.505"/>
<polygon fill="black" stroke="black" points="36.0258,-218.294 38.9817,-208.12 30.3263,-214.23 36.0258,-218.294"/>
</g>
<!-- basic_behavior_moveAcYuttemp -->
<g id="node42" class="node"><title>basic_behavior_moveAcYuttemp</title>
<a xlink:href="basic-behaviors.myBasicBehaviors.html#moveAcYuttemp" xlink:title="moveAcYuttemp">
<ellipse fill="#ffffff" stroke="black" cx="203" cy="-34" rx="47.7727" ry="18"/>
<text text-anchor="middle" x="203" y="-31.4" font-family="Arial" font-size="9.00" fill="#005a9c">moveAcYuttemp</text>
</a>
</g>
<!-- state_ballnotfound&#45;&gt;basic_behavior_moveAcYuttemp -->
<g id="edge63" class="edge"><title>state_ballnotfound&#45;&gt;basic_behavior_moveAcYuttemp</title>
<path fill="none" stroke="#808080" stroke-dasharray="5,2" d="M190.565,-364.041C219.451,-353.789 257.542,-335.538 279,-306 311.943,-260.652 302,-238.051 302,-182 302,-182 302,-182 302,-113 302,-82.5494 273.031,-61.9261 246.434,-49.4084"/>
<polygon fill="#808080" stroke="#808080" points="247.467,-46.8032 239.021,-46.0913 245.18,-51.9147 247.467,-46.8032"/>
</g>
<!-- state_forward&#45;&gt;state_ballnotfound -->
<g id="edge21" class="edge"><title>state_forward&#45;&gt;state_ballnotfound</title>
<path fill="none" stroke="black" d="M88.5032,-295.153C99.2275,-305.766 112.166,-319.882 123.63,-333.292"/>
<polygon fill="black" stroke="black" points="121.063,-335.678 130.181,-341.074 126.418,-331.17 121.063,-335.678"/>
</g>
<!-- state_forward&#45;&gt;state_forward -->
<g id="edge25" class="edge"><title>state_forward&#45;&gt;state_forward</title>
<path fill="none" stroke="black" d="M88.6635,-294.576C102.594,-298.9 116,-293.375 116,-278 116,-266.469 108.459,-260.478 98.8116,-260.027"/>
<polygon fill="black" stroke="black" points="98.093,-256.593 88.6635,-261.424 99.0473,-263.528 98.093,-256.593"/>
</g>
<!-- state_forward&#45;&gt;state_left -->
<g id="edge27" class="edge"><title>state_forward&#45;&gt;state_left</title>
<path fill="none" stroke="black" d="M89.2461,-262.059C102.391,-255.979 115.537,-255.818 128.682,-261.576"/>
<polygon fill="black" stroke="black" points="127.323,-264.821 137.782,-266.509 130.658,-258.667 127.323,-264.821"/>
</g>
<!-- state_forward&#45;&gt;state_right -->
<g id="edge29" class="edge"><title>state_forward&#45;&gt;state_right</title>
<path fill="none" stroke="black" d="M88.7257,-294.656C100.305,-302.486 115.19,-310.973 130,-315 156.59,-322.231 166.472,-325.375 192,-315 199.038,-312.14 205.486,-307.28 210.993,-302.007"/>
<polygon fill="black" stroke="black" points="213.565,-304.382 217.888,-294.71 208.476,-299.575 213.565,-304.382"/>
</g>
<!-- state_forward&#45;&gt;state_preparekick -->
<g id="edge23" class="edge"><title>state_forward&#45;&gt;state_preparekick</title>
<path fill="none" stroke="black" d="M59.5356,-251.513C59.0108,-244.798 58.7489,-237.374 58.75,-229.952"/>
<polygon fill="black" stroke="black" points="62.2503,-229.955 58.9146,-219.899 55.2513,-229.84 62.2503,-229.955"/>
</g>
<!-- state_forward&#45;&gt;basic_behavior_moveAcYuttemp -->
<g id="edge65" class="edge"><title>state_forward&#45;&gt;basic_behavior_moveAcYuttemp</title>
<path fill="none" stroke="#808080" stroke-dasharray="5,2" d="M89.8426,-263.164C104.208,-252.829 122.195,-237.902 134,-221 152.794,-194.092 181.621,-104.386 195.293,-59.7213"/>
<polygon fill="#808080" stroke="#808080" points="198.014,-60.3996 197.664,-51.9309 192.656,-58.7692 198.014,-60.3996"/>
</g>
<!-- state_left&#45;&gt;state_ballnotfound -->
<g id="edge31" class="edge"><title>state_left&#45;&gt;state_ballnotfound</title>
<path fill="none" stroke="black" d="M158.455,-295.029C159.625,-303.677 160.222,-314.676 160.249,-325.727"/>
<polygon fill="black" stroke="black" points="156.748,-325.78 160.113,-335.826 163.748,-325.874 156.748,-325.78"/>
</g>
<!-- state_left&#45;&gt;state_forward -->
<g id="edge35" class="edge"><title>state_left&#45;&gt;state_forward</title>
<path fill="none" stroke="black" d="M137.782,-289.491C124.763,-297.9 111.745,-300.503 98.7258,-297.299"/>
<polygon fill="black" stroke="black" points="99.8409,-293.981 89.2461,-293.941 97.5031,-300.58 99.8409,-293.981"/>
</g>
<!-- state_left&#45;&gt;state_left -->
<g id="edge37" class="edge"><title>state_left&#45;&gt;state_left</title>
<path fill="none" stroke="black" d="M164.286,-291.777C177.311,-300.405 192,-295.812 192,-278 192,-264.362 183.39,-258.474 173.508,-260.335"/>
<polygon fill="black" stroke="black" points="172.141,-257.113 164.286,-264.223 174.86,-263.563 172.141,-257.113"/>
</g>
<!-- state_left&#45;&gt;state_right -->
<g id="edge39" class="edge"><title>state_left&#45;&gt;state_right</title>
<path fill="none" stroke="black" d="M167.844,-269.259C179.351,-264.529 190.859,-263.325 202.367,-265.647"/>
<polygon fill="black" stroke="black" points="201.455,-269.026 212.033,-268.426 203.39,-262.299 201.455,-269.026"/>
</g>
<!-- state_left&#45;&gt;state_preparekick -->
<g id="edge33" class="edge"><title>state_left&#45;&gt;state_preparekick</title>
<path fill="none" stroke="black" d="M137.161,-267.36C125.273,-256.452 108.738,-238.808 94.6002,-222.385"/>
<polygon fill="black" stroke="black" points="97.0177,-219.823 87.8836,-214.455 91.6763,-224.348 97.0177,-219.823"/>
</g>
<!-- state_left&#45;&gt;basic_behavior_moveAcYuttemp -->
<g id="edge67" class="edge"><title>state_left&#45;&gt;basic_behavior_moveAcYuttemp</title>
<path fill="none" stroke="#808080" stroke-dasharray="5,2" d="M159.515,-261.355C164.3,-250.153 170.276,-234.937 174,-221 189.036,-164.729 197.154,-96.7125 200.725,-60.2056"/>
<polygon fill="#808080" stroke="#808080" points="203.53,-60.2839 201.498,-52.0554 197.955,-59.7555 203.53,-60.2839"/>
</g>
<!-- state_right&#45;&gt;state_ballnotfound -->
<g id="edge41" class="edge"><title>state_right&#45;&gt;state_ballnotfound</title>
<path fill="none" stroke="black" d="M221.571,-296.792C213.244,-309.001 200.568,-325.296 188.229,-339.852"/>
<polygon fill="black" stroke="black" points="185.321,-337.864 181.439,-347.722 190.621,-342.437 185.321,-337.864"/>
</g>
<!-- state_right&#45;&gt;state_forward -->
<g id="edge45" class="edge"><title>state_right&#45;&gt;state_forward</title>
<path fill="none" stroke="black" d="M218.483,-295.429C210.482,-305.864 198.799,-318.195 185,-324 165.336,-332.272 157.438,-330.114 137,-324 122.202,-319.573 107.633,-310.9 95.6502,-302.268"/>
<polygon fill="black" stroke="black" points="97.5055,-299.283 87.4159,-296.05 93.2872,-304.869 97.5055,-299.283"/>
</g>
<!-- state_right&#45;&gt;state_left -->
<g id="edge47" class="edge"><title>state_right&#45;&gt;state_left</title>
<path fill="none" stroke="black" d="M212.033,-287.574C200.525,-291.87 189.018,-292.64 177.51,-289.885"/>
<polygon fill="black" stroke="black" points="178.436,-286.506 167.844,-286.741 176.271,-293.162 178.436,-286.506"/>
</g>
<!-- state_right&#45;&gt;state_right -->
<g id="edge49" class="edge"><title>state_right&#45;&gt;state_right</title>
<path fill="none" stroke="black" d="M244.2,-292.555C257.535,-300.102 272,-295.25 272,-278 272,-264.928 263.693,-258.976 253.866,-260.144"/>
<polygon fill="black" stroke="black" points="252.532,-256.901 244.2,-263.445 254.795,-263.525 252.532,-256.901"/>
</g>
<!-- state_right&#45;&gt;state_preparekick -->
<g id="edge43" class="edge"><title>state_right&#45;&gt;state_preparekick</title>
<path fill="none" stroke="black" d="M211.948,-269.009C204.354,-263.163 196.112,-255.611 188,-250 163.201,-232.846 133.505,-217.171 109.615,-205.205"/>
<polygon fill="black" stroke="black" points="110.946,-201.958 100.433,-200.641 107.83,-208.226 110.946,-201.958"/>
</g>
<!-- state_right&#45;&gt;basic_behavior_moveAcYuttemp -->
<g id="edge69" class="edge"><title>state_right&#45;&gt;basic_behavior_moveAcYuttemp</title>
<path fill="none" stroke="#808080" stroke-dasharray="5,2" d="M230.941,-257.333C232.148,-221.18 232.754,-144.28 220,-81 218.571,-73.9081 216.269,-66.4503 213.815,-59.6173"/>
<polygon fill="#808080" stroke="#808080" points="216.36,-58.4314 210.907,-51.9422 211.123,-60.4153 216.36,-58.4314"/>
</g>
<!-- state_preparekick&#45;&gt;state_ballnotfound -->
<g id="edge51" class="edge"><title>state_preparekick&#45;&gt;state_ballnotfound</title>
<path fill="none" stroke="black" d="M50.8966,-216.911C37.4927,-242.781 23.729,-278.216 40,-306 54.3641,-330.528 80.9944,-346.999 104.786,-357.677"/>
<polygon fill="black" stroke="black" points="103.504,-360.935 114.076,-361.628 106.244,-354.493 103.504,-360.935"/>
</g>
<!-- state_preparekick&#45;&gt;state_forward -->
<g id="edge55" class="edge"><title>state_preparekick&#45;&gt;state_forward</title>
<path fill="none" stroke="black" d="M75.0854,-219.899C75.3202,-227.007 75.3038,-234.426 75.0362,-241.491"/>
<polygon fill="black" stroke="black" points="71.5398,-241.33 74.4644,-251.513 78.5284,-241.729 71.5398,-241.33"/>
</g>
<!-- state_preparekick&#45;&gt;state_left -->
<g id="edge57" class="edge"><title>state_preparekick&#45;&gt;state_left</title>
<path fill="none" stroke="black" d="M96.5197,-207.043C110.521,-221.469 126.474,-239.514 137.843,-253.796"/>
<polygon fill="black" stroke="black" points="135.075,-255.939 143.957,-261.715 140.616,-251.661 135.075,-255.939"/>
</g>
<!-- state_preparekick&#45;&gt;state_right -->
<g id="edge59" class="edge"><title>state_preparekick&#45;&gt;state_right</title>
<path fill="none" stroke="black" d="M103.338,-193.847C133.535,-206.098 176.29,-226.683 210,-250 211.23,-250.851 212.463,-251.746 213.685,-252.674"/>
<polygon fill="black" stroke="black" points="211.51,-255.417 221.436,-259.123 215.988,-250.037 211.51,-255.417"/>
</g>
<!-- state_preparekick&#45;&gt;state_preparekick -->
<g id="edge53" class="edge"><title>state_preparekick&#45;&gt;state_preparekick</title>
<path fill="none" stroke="black" d="M103.024,-194.731C116.203,-195.076 127,-190.832 127,-182 127,-175.583 121.301,-171.588 113.129,-170.016"/>
<polygon fill="black" stroke="black" points="113.255,-166.516 103.024,-169.269 112.739,-173.497 113.255,-166.516"/>
</g>
<!-- state_preparekick&#45;&gt;basic_behavior_moveAcYuttemp -->
<g id="edge71" class="edge"><title>state_preparekick&#45;&gt;basic_behavior_moveAcYuttemp</title>
<path fill="none" stroke="#808080" stroke-dasharray="5,2" d="M87.074,-149.121C100.608,-128.359 119.656,-101.654 140,-81 149.505,-71.3504 161.11,-62.1181 171.758,-54.43"/>
<polygon fill="#808080" stroke="#808080" points="173.663,-56.5124 178.585,-49.612 170.434,-51.937 173.663,-56.5124"/>
</g>
</g>
</svg>
