<?xml version="1.0" encoding="UTF-8" standalone="no"?>
<!DOCTYPE svg PUBLIC "-//W3C//DTD SVG 1.1//EN"
 "http://www.w3.org/Graphics/SVG/1.1/DTD/svg11.dtd">
<!-- Generated by graphviz version 2.26.3 (20100126.1600)
 -->
<!-- Title: g Pages: 1 -->
<svg width="182pt" height="303pt"
 viewBox="0.00 0.00 182.00 303.00" xmlns="http://www.w3.org/2000/svg" xmlns:xlink="http://www.w3.org/1999/xlink">
<g id="graph1" class="graph" transform="scale(1 1) rotate(0) translate(4 299)">
<title>g</title>
<polygon fill="white" stroke="white" points="-4,5 -4,-299 179,-299 179,5 -4,5"/>
<g id="graph2" class="cluster"><title>cluster_option</title>
<polygon fill="#f4f4f4" stroke="black" points="8,-8 8,-287 166,-287 166,-8 8,-8"/>
<text text-anchor="middle" x="87" y="-272.2" font-family="Arial" font-size="12.00" fill="#005a9c">option checklocalize</text>
</g>
<g id="graph3" class="cluster"><title>cluster_states</title>
<polygon fill="#f4f4f4" stroke="#f4f4f4" points="16,-16 16,-88 158,-88 158,-16 16,-16"/>
</g>
<g id="graph6" class="cluster"><title>cluster_decision_tree</title>
<polygon fill="#ffffff" stroke="black" points="38,-132 38,-256 122,-256 122,-132 38,-132"/>
<text text-anchor="middle" x="80" y="-241.2" font-family="Arial" font-size="12.00" fill="#005a9c">state localize</text>
</g>
<!-- state_findball -->
<g id="node4" class="node"><title>state_findball</title>
<a xlink:href="option.checklocalize.html#state_findball" xlink:title="findball">
<ellipse fill="#ffffff" stroke="black" cx="51" cy="-52" rx="27.1641" ry="27.6672"/>
<text text-anchor="middle" x="51" y="-49.4" font-family="Arial" font-size="9.00" fill="#005a9c">findball</text>
</a>
</g>
<!-- state_localize -->
<g id="node6" class="node"><title>state_localize</title>
<ellipse fill="none" stroke="black" stroke-dasharray="5,2" cx="123" cy="-52" rx="27.1641" ry="27.6672"/>
<polyline fill="none" stroke="black" stroke-dasharray="5,2" points="140.858,-72.625 105.142,-72.625 "/>
<polyline fill="none" stroke="black" stroke-dasharray="5,2" points="140.858,-31.375 105.142,-31.375 "/>
<text text-anchor="middle" x="123" y="-49.4" font-family="Arial" font-size="9.00" fill="#005a9c">localize</text>
</g>
<!-- start -->
<g id="node9" class="node"><title>start</title>
<ellipse fill="black" stroke="black" cx="80" cy="-223" rx="1.8" ry="1.8"/>
</g>
<!-- _0 -->
<g id="node11" class="node"><title>_0</title>
<a xlink:href="option.checklocalize.html#state_localize_pseudo-code_0" xlink:title="Sufficient\nconfidence\nand ball\nnot found">
<polygon fill="#ffffff" stroke="black" points="111,-192 49,-192 49,-140 111,-140 111,-192"/>
<text text-anchor="middle" x="80" y="-179.9" font-family="Arial" font-size="9.00">Sufficient</text>
<text text-anchor="middle" x="80" y="-168.9" font-family="Arial" font-size="9.00">confidence</text>
<text text-anchor="middle" x="80" y="-157.9" font-family="Arial" font-size="9.00">and ball</text>
<text text-anchor="middle" x="80" y="-146.9" font-family="Arial" font-size="9.00">not found</text>
</a>
</g>
<!-- start&#45;&gt;_0 -->
<g id="edge11" class="edge"><title>start&#45;&gt;_0</title>
<path fill="none" stroke="black" d="M80,-221.104C80,-217.808 80,-210.589 80,-202.428"/>
<polygon fill="black" stroke="black" points="83.5001,-202.206 80,-192.206 76.5001,-202.206 83.5001,-202.206"/>
</g>
<!-- _0&#45;&gt;state_findball -->
<g id="edge9" class="edge"><title>_0&#45;&gt;state_findball</title>
<path fill="none" stroke="black" d="M73.3468,-139.846C69.497,-124.712 64.5912,-105.428 60.3574,-88.7843"/>
<polygon fill="black" stroke="black" points="63.6809,-87.6521 57.8236,-78.8236 56.897,-89.3778 63.6809,-87.6521"/>
<text text-anchor="middle" x="67.0167" y="-130.005" font-family="Times Roman,serif" font-size="9.00">1</text>
</g>
<!-- _0&#45;&gt;state_localize -->
<g id="edge13" class="edge"><title>_0&#45;&gt;state_localize</title>
<path fill="none" stroke="black" d="M89.8651,-139.846C95.7101,-124.35 103.197,-104.501 109.575,-87.5927"/>
<polygon fill="black" stroke="black" points="112.926,-88.624 113.181,-78.0322 106.377,-86.1535 112.926,-88.624"/>
<text text-anchor="middle" x="89.1094" y="-127.775" font-family="Times Roman,serif" font-size="9.00">0</text>
</g>
</g>
</svg>
