<?xml version="1.0" encoding="UTF-8" standalone="no"?>
<!DOCTYPE svg PUBLIC "-//W3C//DTD SVG 1.1//EN"
 "http://www.w3.org/Graphics/SVG/1.1/DTD/svg11.dtd">
<!-- Generated by graphviz version 2.26.3 (20100126.1600)
 -->
<!-- Title: g Pages: 1 -->
<svg width="182pt" height="287pt"
 viewBox="0.00 0.00 182.00 287.00" xmlns="http://www.w3.org/2000/svg" xmlns:xlink="http://www.w3.org/1999/xlink">
<g id="graph1" class="graph" transform="scale(1 1) rotate(0) translate(4 283)">
<title>g</title>
<polygon fill="white" stroke="white" points="-4,5 -4,-283 179,-283 179,5 -4,5"/>
<g id="graph2" class="cluster"><title>cluster_option</title>
<polygon fill="#f4f4f4" stroke="black" points="8,-8 8,-271 166,-271 166,-8 8,-8"/>
<text text-anchor="middle" x="87" y="-256.2" font-family="Arial" font-size="12.00" fill="#005a9c">option checklocalize</text>
</g>
<g id="graph3" class="cluster"><title>cluster_states</title>
<polygon fill="#f4f4f4" stroke="#f4f4f4" points="16,-16 16,-88 158,-88 158,-16 16,-16"/>
</g>
<g id="graph6" class="cluster"><title>cluster_decision_tree</title>
<polygon fill="#ffffff" stroke="black" points="38,-132 38,-240 120,-240 120,-132 38,-132"/>
<text text-anchor="middle" x="79" y="-225.2" font-family="Arial" font-size="12.00" fill="#005a9c">state findball</text>
</g>
<!-- state_localize -->
<g id="node4" class="node"><title>state_localize</title>
<a xlink:href="option.checklocalize.html#state_localize" xlink:title="localize">
<ellipse fill="#ffffff" stroke="black" cx="51" cy="-52" rx="27.1641" ry="27.6672"/>
<polyline fill="none" stroke="black" points="68.8578,-72.625 33.1422,-72.625 "/>
<polyline fill="none" stroke="black" points="68.8578,-31.375 33.1422,-31.375 "/>
<text text-anchor="middle" x="51" y="-49.4" font-family="Arial" font-size="9.00" fill="#005a9c">localize</text>
</a>
</g>
<!-- state_findball -->
<g id="node6" class="node"><title>state_findball</title>
<ellipse fill="none" stroke="black" stroke-dasharray="5,2" cx="123" cy="-52" rx="27.1641" ry="27.6672"/>
<text text-anchor="middle" x="123" y="-49.4" font-family="Arial" font-size="9.00" fill="#005a9c">findball</text>
</g>
<!-- start -->
<g id="node9" class="node"><title>start</title>
<ellipse fill="black" stroke="black" cx="79" cy="-207" rx="1.8" ry="1.8"/>
</g>
<!-- _0 -->
<g id="node11" class="node"><title>_0</title>
<a xlink:href="option.checklocalize.html#state_findball_pseudo-code_0" xlink:title="Insufficient\nconfidence">
<polygon fill="#ffffff" stroke="black" points="110,-176 48,-176 48,-140 110,-140 110,-176"/>
<text text-anchor="middle" x="79" y="-160.9" font-family="Arial" font-size="9.00">Insufficient</text>
<text text-anchor="middle" x="79" y="-149.9" font-family="Arial" font-size="9.00">confidence</text>
</a>
</g>
<!-- start&#45;&gt;_0 -->
<g id="edge11" class="edge"><title>start&#45;&gt;_0</title>
<path fill="none" stroke="black" d="M79,-204.895C79,-201.481 79,-194.341 79,-186.638"/>
<polygon fill="black" stroke="black" points="82.5001,-186.455 79,-176.455 75.5001,-186.455 82.5001,-186.455"/>
</g>
<!-- _0&#45;&gt;state_localize -->
<g id="edge9" class="edge"><title>_0&#45;&gt;state_localize</title>
<path fill="none" stroke="black" d="M74.1228,-139.536C70.403,-125.454 65.1614,-105.611 60.609,-88.3768"/>
<polygon fill="black" stroke="black" points="63.9628,-87.3689 58.0249,-78.5944 57.195,-89.1566 63.9628,-87.3689"/>
<text text-anchor="middle" x="67.7221" y="-129.753" font-family="Times Roman,serif" font-size="9.00">1</text>
</g>
<!-- _0&#45;&gt;state_findball -->
<g id="edge13" class="edge"><title>_0&#45;&gt;state_findball</title>
<path fill="none" stroke="black" d="M86.6642,-139.536C92.6888,-125.022 101.254,-104.388 108.555,-86.7987"/>
<polygon fill="black" stroke="black" points="111.856,-87.9758 112.457,-77.3981 105.391,-85.2921 111.856,-87.9758"/>
<text text-anchor="middle" x="86.2355" y="-127.445" font-family="Times Roman,serif" font-size="9.00">0</text>
</g>
</g>
</svg>
