<?xml version="1.0" encoding="UTF-8" standalone="no"?>
<!DOCTYPE svg PUBLIC "-//W3C//DTD SVG 1.1//EN"
 "http://www.w3.org/Graphics/SVG/1.1/DTD/svg11.dtd">
<!-- Generated by graphviz version 2.26.3 (20100126.1600)
 -->
<!-- Title: g Pages: 1 -->
<svg width="102pt" height="109pt"
 viewBox="0.00 0.00 102.00 109.00" xmlns="http://www.w3.org/2000/svg" xmlns:xlink="http://www.w3.org/1999/xlink">
<g id="graph1" class="graph" transform="scale(1 1) rotate(0) translate(4 105)">
<title>g</title>
<polygon fill="white" stroke="white" points="-4,5 -4,-105 99,-105 99,5 -4,5"/>
<g id="graph2" class="cluster"><title>cluster_option</title>
<polygon fill="#f4f4f4" stroke="black" points="8,-8 8,-93 86,-93 86,-8 8,-8"/>
<text text-anchor="middle" x="47" y="-78.2" font-family="Arial" font-size="12.00" fill="#005a9c">option reset</text>
</g>
<!-- state_reset -->
<g id="node4" class="node"><title>state_reset</title>
<a xlink:href="option.reset.html#state_reset" xlink:title="reset">
<ellipse fill="#ffffff" stroke="black" cx="38" cy="-39" rx="21.8721" ry="22.3692"/>
<polyline fill="none" stroke="black" points="52.5508,-55.875 23.4492,-55.875 "/>
<polyline fill="none" stroke="black" points="52.5508,-22.125 23.4492,-22.125 "/>
<text text-anchor="middle" x="38" y="-36.4" font-family="Arial" font-size="9.00" fill="#005a9c">reset</text>
</a>
</g>
<!-- state_reset&#45;&gt;state_reset -->
<g id="edge5" class="edge"><title>state_reset&#45;&gt;state_reset</title>
<path fill="none" stroke="black" d="M58.8234,-46.7968C70.8263,-48.388 82,-45.7891 82,-39 82,-34.2264 76.4759,-31.5244 69.0236,-30.8939"/>
<polygon fill="black" stroke="black" points="68.7127,-27.4016 58.8234,-31.2032 68.9249,-34.3984 68.7127,-27.4016"/>
</g>
</g>
</svg>
