<?xml version="1.0" encoding="UTF-8" standalone="no"?>
<!DOCTYPE svg PUBLIC "-//W3C//DTD SVG 1.1//EN"
 "http://www.w3.org/Graphics/SVG/1.1/DTD/svg11.dtd">
<!-- Generated by graphviz version 2.26.3 (20100126.1600)
 -->
<!-- Title: g Pages: 1 -->
<svg width="374pt" height="551pt"
 viewBox="0.00 0.00 374.00 551.00" xmlns="http://www.w3.org/2000/svg" xmlns:xlink="http://www.w3.org/1999/xlink">
<g id="graph1" class="graph" transform="scale(1 1) rotate(0) translate(4 547)">
<title>g</title>
<polygon fill="white" stroke="white" points="-4,5 -4,-547 371,-547 371,5 -4,5"/>
<g id="graph2" class="cluster"><title>cluster_option</title>
<polygon fill="#f4f4f4" stroke="black" points="8,-8 8,-535 358,-535 358,-8 8,-8"/>
<text text-anchor="middle" x="183" y="-520.2" font-family="Arial" font-size="12.00" fill="#005a9c">option referee</text>
</g>
<g id="graph3" class="cluster"><title>cluster_states</title>
<polygon fill="#f4f4f4" stroke="#f4f4f4" points="16,-16 16,-92 350,-92 350,-16 16,-16"/>
</g>
<g id="graph10" class="cluster"><title>cluster_decision_tree</title>
<polygon fill="#ffffff" stroke="black" points="45,-136 45,-504 115,-504 115,-136 45,-136"/>
<text text-anchor="middle" x="80" y="-489.2" font-family="Arial" font-size="12.00" fill="#005a9c">state set</text>
</g>
<!-- state_playing -->
<g id="node4" class="node"><title>state_playing</title>
<a xlink:href="option.referee.html#state_playing" xlink:title="playing">
<ellipse fill="#ffffff" stroke="black" cx="315" cy="-54" rx="27.0785" ry="27.0785"/>
<text text-anchor="middle" x="315" y="-51.4" font-family="Arial" font-size="9.00" fill="#005a9c">playing</text>
</a>
</g>
<!-- state__initial -->
<g id="node6" class="node"><title>state__initial</title>
<a xlink:href="option.referee.html#state__initial" xlink:title="_initial">
<ellipse fill="#ffffff" stroke="black" cx="244" cy="-54" rx="25.9012" ry="25.9012"/>
<polyline fill="none" stroke="black" points="261.196,-73.5 226.804,-73.5 "/>
<polyline fill="none" stroke="black" points="261.196,-34.5 226.804,-34.5 "/>
<text text-anchor="middle" x="244" y="-51.4" font-family="Arial" font-size="9.00" fill="#005a9c">_initial</text>
</a>
</g>
<!-- state_finished -->
<g id="node8" class="node"><title>state_finished</title>
<a xlink:href="option.referee.html#state_finished" xlink:title="finished">
<ellipse fill="#ffffff" stroke="black" cx="171" cy="-54" rx="28.9343" ry="29.4331"/>
<text text-anchor="middle" x="171" y="-51.4" font-family="Arial" font-size="9.00" fill="#005a9c">finished</text>
</a>
</g>
<!-- state_ready -->
<g id="node10" class="node"><title>state_ready</title>
<a xlink:href="option.referee.html#state_ready" xlink:title="ready">
<ellipse fill="#ffffff" stroke="black" cx="101" cy="-54" rx="22.9579" ry="22.9579"/>
<text text-anchor="middle" x="101" y="-51.4" font-family="Arial" font-size="9.00" fill="#005a9c">ready</text>
</a>
</g>
<!-- state_set -->
<g id="node12" class="node"><title>state_set</title>
<ellipse fill="none" stroke="black" stroke-dasharray="5,2" cx="42" cy="-54" rx="18" ry="18"/>
<text text-anchor="middle" x="42" y="-51.4" font-family="Arial" font-size="9.00" fill="#005a9c">set</text>
</g>
<!-- start -->
<g id="node16" class="node"><title>start</title>
<ellipse fill="black" stroke="black" cx="80" cy="-471" rx="1.8" ry="1.8"/>
</g>
<!-- _0 -->
<g id="node18" class="node"><title>_0</title>
<a xlink:href="option.referee.html#state_set_pseudo-code_0">
<polygon fill="#ffffff" stroke="black" points="107,-440 53,-440 53,-404 107,-404 107,-440"/>
</a>
</g>
<!-- start&#45;&gt;_0 -->
<g id="edge15" class="edge"><title>start&#45;&gt;_0</title>
<path fill="none" stroke="black" stroke-dasharray="5,2" d="M80,-468.895C80,-465.481 80,-458.341 80,-450.638"/>
<polygon fill="black" stroke="black" points="83.5001,-450.455 80,-440.455 76.5001,-450.455 83.5001,-450.455"/>
</g>
<!-- _0&#45;&gt;state_playing -->
<g id="edge13" class="edge"><title>_0&#45;&gt;state_playing</title>
<path fill="none" stroke="black" stroke-dasharray="5,2" d="M107.192,-417.989C163.573,-407.973 288,-376.316 288,-292 288,-292 288,-292 288,-162 288,-137.086 294.846,-109.879 301.643,-89.0048"/>
<polygon fill="black" stroke="black" points="305.036,-89.8986 304.946,-79.3041 298.41,-87.6424 305.036,-89.8986"/>
<text text-anchor="middle" x="115.271" y="-409.995" font-family="Times Roman,serif" font-size="9.00">1</text>
</g>
<!-- _1_0 -->
<g id="node22" class="node"><title>_1_0</title>
<a xlink:href="option.referee.html#state_set_pseudo-code_1_0">
<polygon fill="#ffffff" stroke="black" points="107,-375 53,-375 53,-339 107,-339 107,-375"/>
</a>
</g>
<!-- _0&#45;&gt;_1_0 -->
<g id="edge20" class="edge"><title>_0&#45;&gt;_1_0</title>
<path fill="none" stroke="black" stroke-dasharray="5,2" d="M80,-403.894C80,-398.118 80,-391.583 80,-385.265"/>
<polygon fill="black" stroke="black" points="83.5001,-385.009 80,-375.009 76.5001,-385.009 83.5001,-385.009"/>
<text text-anchor="middle" x="75.7738" y="-392.231" font-family="Arial Bold Italic" font-size="9.00">0</text>
</g>
<!-- _1_0&#45;&gt;state__initial -->
<g id="edge18" class="edge"><title>_1_0&#45;&gt;state__initial</title>
<path fill="none" stroke="black" stroke-dasharray="5,2" d="M107.329,-347.479C150.344,-330.546 229,-290.853 229,-227 229,-227 229,-227 229,-162 229,-137.709 232.769,-110.634 236.528,-89.6701"/>
<polygon fill="black" stroke="black" points="240.011,-90.0842 238.415,-79.6105 233.131,-88.794 240.011,-90.0842"/>
<text text-anchor="middle" x="114.074" y="-337.996" font-family="Times Roman,serif" font-size="9.00">1</text>
</g>
<!-- _1_1_0 -->
<g id="node26" class="node"><title>_1_1_0</title>
<a xlink:href="option.referee.html#state_set_pseudo-code_1_1_0">
<polygon fill="#ffffff" stroke="black" points="107,-310 53,-310 53,-274 107,-274 107,-310"/>
</a>
</g>
<!-- _1_0&#45;&gt;_1_1_0 -->
<g id="edge25" class="edge"><title>_1_0&#45;&gt;_1_1_0</title>
<path fill="none" stroke="black" stroke-dasharray="5,2" d="M80,-338.894C80,-333.118 80,-326.583 80,-320.265"/>
<polygon fill="black" stroke="black" points="83.5001,-320.009 80,-310.009 76.5001,-320.009 83.5001,-320.009"/>
<text text-anchor="middle" x="75.7738" y="-327.231" font-family="Arial Bold Italic" font-size="9.00">0</text>
</g>
<!-- _1_1_0&#45;&gt;state_finished -->
<g id="edge23" class="edge"><title>_1_1_0&#45;&gt;state_finished</title>
<path fill="none" stroke="black" stroke-dasharray="5,2" d="M96.4379,-273.874C103.279,-265.56 110.817,-255.279 116,-245 140.939,-195.538 156.227,-133.006 164.162,-93.2435"/>
<polygon fill="black" stroke="black" points="167.603,-93.884 166.069,-83.4009 160.731,-92.5528 167.603,-93.884"/>
<text text-anchor="middle" x="98.8669" y="-262.073" font-family="Times Roman,serif" font-size="9.00">1</text>
</g>
<!-- _1_1_1_0 -->
<g id="node30" class="node"><title>_1_1_1_0</title>
<a xlink:href="option.referee.html#state_set_pseudo-code_1_1_1_0">
<polygon fill="#ffffff" stroke="black" points="107,-245 53,-245 53,-209 107,-209 107,-245"/>
</a>
</g>
<!-- _1_1_0&#45;&gt;_1_1_1_0 -->
<g id="edge30" class="edge"><title>_1_1_0&#45;&gt;_1_1_1_0</title>
<path fill="none" stroke="black" stroke-dasharray="5,2" d="M80,-273.894C80,-268.118 80,-261.583 80,-255.265"/>
<polygon fill="black" stroke="black" points="83.5001,-255.009 80,-245.009 76.5001,-255.009 83.5001,-255.009"/>
<text text-anchor="middle" x="75.7738" y="-262.231" font-family="Arial Bold Italic" font-size="9.00">0</text>
</g>
<!-- _1_1_1_0&#45;&gt;state_ready -->
<g id="edge28" class="edge"><title>_1_1_1_0&#45;&gt;state_ready</title>
<path fill="none" stroke="black" stroke-dasharray="5,2" d="M98.6112,-208.578C105.472,-200.521 112.436,-190.513 116,-180 126.551,-148.873 119.709,-111.231 112.164,-85.2408"/>
<polygon fill="black" stroke="black" points="115.464,-84.0651 109.161,-75.549 108.777,-86.1369 115.464,-84.0651"/>
<text text-anchor="middle" x="101.157" y="-196.808" font-family="Times Roman,serif" font-size="9.00">1</text>
</g>
<!-- _1_1_1_1_0 -->
<g id="node34" class="node"><title>_1_1_1_1_0</title>
<a xlink:href="option.referee.html#state_set_pseudo-code_1_1_1_1_0">
<polygon fill="#ffffff" stroke="black" points="107,-180 53,-180 53,-144 107,-144 107,-180"/>
</a>
</g>
<!-- _1_1_1_0&#45;&gt;_1_1_1_1_0 -->
<g id="edge35" class="edge"><title>_1_1_1_0&#45;&gt;_1_1_1_1_0</title>
<path fill="none" stroke="black" stroke-dasharray="5,2" d="M80,-208.894C80,-203.118 80,-196.583 80,-190.265"/>
<polygon fill="black" stroke="black" points="83.5001,-190.009 80,-180.009 76.5001,-190.009 83.5001,-190.009"/>
<text text-anchor="middle" x="75.7738" y="-197.231" font-family="Arial Bold Italic" font-size="9.00">0</text>
</g>
<!-- _1_1_1_1_0&#45;&gt;state_set -->
<g id="edge37" class="edge"><title>_1_1_1_1_0&#45;&gt;state_set</title>
<path fill="none" stroke="black" d="M68.3368,-143.679C60.6372,-126.743 51.4376,-101.331 45.8165,-81.8777"/>
<polygon fill="black" stroke="black" points="49.1486,-80.7915 43.162,-72.0502 42.3908,-82.6169 49.1486,-80.7915"/>
<text text-anchor="middle" x="60.8095" y="-134.996" font-family="Times Roman,serif" font-size="9.00">0</text>
</g>
<!-- _1_1_1_1_0&#45;&gt;state_set -->
<g id="edge33" class="edge"><title>_1_1_1_1_0&#45;&gt;state_set</title>
<path fill="none" stroke="black" stroke-dasharray="5,2" d="M78.7708,-143.679C74.2825,-125.66 64.741,-98.0471 56.2625,-78.2234"/>
<polygon fill="black" stroke="black" points="59.3765,-76.6139 52.0857,-68.9266 52.9913,-79.4826 59.3765,-76.6139"/>
<text text-anchor="middle" x="72.3795" y="-133.888" font-family="Times Roman,serif" font-size="9.00">1</text>
</g>
</g>
</svg>
