<?xml version="1.0" encoding="UTF-8" standalone="no"?>
<!DOCTYPE svg PUBLIC "-//W3C//DTD SVG 1.1//EN"
 "http://www.w3.org/Graphics/SVG/1.1/DTD/svg11.dtd">
<!-- Generated by graphviz version 2.26.3 (20100126.1600)
 -->
<!-- Title: g Pages: 1 -->
<svg width="341pt" height="368pt"
 viewBox="0.00 0.00 341.00 368.00" xmlns="http://www.w3.org/2000/svg" xmlns:xlink="http://www.w3.org/1999/xlink">
<g id="graph1" class="graph" transform="scale(1 1) rotate(0) translate(4 364)">
<title>g</title>
<polygon fill="white" stroke="white" points="-4,5 -4,-364 338,-364 338,5 -4,5"/>
<!-- option_ballfollowing -->
<g id="node2" class="node"><title>option_ballfollowing</title>
<a xlink:href="option.ballfollowing.html" xlink:title="ballfollowing">
<polygon fill="#ffffff" stroke="black" points="156,-90 88,-90 88,-54 156,-54 156,-90"/>
<text text-anchor="middle" x="122" y="-69.4" font-family="Arial" font-size="9.00" fill="#005a9c">ballfollowing</text>
</a>
</g>
<!-- basic_behavior_moveAcYuttemp -->
<g id="node4" class="node"><title>basic_behavior_moveAcYuttemp</title>
<a xlink:href="basic-behaviors.myBasicBehaviors.html#moveAcYuttemp" xlink:title="moveAcYuttemp">
<ellipse fill="#ffffff" stroke="black" cx="122" cy="-18" rx="47.7727" ry="18"/>
<text text-anchor="middle" x="122" y="-15.4" font-family="Arial" font-size="9.00" fill="#005a9c">moveAcYuttemp</text>
</a>
</g>
<!-- option_ballfollowing&#45;&gt;basic_behavior_moveAcYuttemp -->
<g id="edge37" class="edge"><title>option_ballfollowing&#45;&gt;basic_behavior_moveAcYuttemp</title>
<path fill="none" stroke="#808080" d="M122,-53.7181C122,-50.7272 122,-47.5764 122,-44.4358"/>
<polygon fill="#808080" stroke="#808080" points="124.8,-44.2631 122,-36.2631 119.2,-44.2631 124.8,-44.2631"/>
</g>
<!-- option_ballfound -->
<g id="node6" class="node"><title>option_ballfound</title>
<a xlink:href="option.ballfound.html" xlink:title="ballfound">
<polygon fill="#ffffff" stroke="black" points="153,-198 99,-198 99,-162 153,-162 153,-198"/>
<text text-anchor="middle" x="126" y="-177.4" font-family="Arial" font-size="9.00" fill="#005a9c">ballfound</text>
</a>
</g>
<!-- basic_behavior_doMakePath -->
<g id="node11" class="node"><title>basic_behavior_doMakePath</title>
<a xlink:href="basic-behaviors.myBasicBehaviors.html#doMakePath" xlink:title="doMakePath">
<ellipse fill="#ffffff" stroke="black" cx="83" cy="-126" rx="40.0291" ry="18"/>
<text text-anchor="middle" x="83" y="-123.4" font-family="Arial" font-size="9.00" fill="#005a9c">doMakePath</text>
</a>
</g>
<!-- option_ballfound&#45;&gt;basic_behavior_doMakePath -->
<g id="edge41" class="edge"><title>option_ballfound&#45;&gt;basic_behavior_doMakePath</title>
<path fill="none" stroke="#808080" d="M111.442,-161.718C108.308,-157.782 104.954,-153.57 101.688,-149.468"/>
<polygon fill="#808080" stroke="#808080" points="103.846,-147.683 96.6719,-143.169 99.465,-151.172 103.846,-147.683"/>
</g>
<!-- option_checkpath -->
<g id="node33" class="node"><title>option_checkpath</title>
<a xlink:href="option.checkpath.html" xlink:title="checkpath">
<polygon fill="#ffffff" stroke="black" points="199,-144 141,-144 141,-108 199,-108 199,-144"/>
<text text-anchor="middle" x="170" y="-123.4" font-family="Arial" font-size="9.00" fill="#005a9c">checkpath</text>
</a>
</g>
<!-- option_ballfound&#45;&gt;option_checkpath -->
<g id="edge39" class="edge"><title>option_ballfound&#45;&gt;option_checkpath</title>
<path fill="none" stroke="#808080" d="M140.896,-161.718C143.835,-158.111 146.963,-154.272 150.038,-150.499"/>
<polygon fill="#808080" stroke="#808080" points="152.236,-152.234 155.119,-144.263 147.895,-148.696 152.236,-152.234"/>
</g>
<!-- basic_behavior_doPathToWalk -->
<g id="node9" class="node"><title>basic_behavior_doPathToWalk</title>
<a xlink:href="basic-behaviors.myBasicBehaviors.html#doPathToWalk" xlink:title="doPathToWalk">
<ellipse fill="#ffffff" stroke="black" cx="218" cy="-72" rx="44.2357" ry="18"/>
<text text-anchor="middle" x="218" y="-69.4" font-family="Arial" font-size="9.00" fill="#005a9c">doPathToWalk</text>
</a>
</g>
<!-- option_begin -->
<g id="node13" class="node"><title>option_begin</title>
<a xlink:href="option.begin.html" xlink:title="begin">
<polygon fill="#ffffff" stroke="black" points="191,-306 137,-306 137,-270 191,-270 191,-306"/>
<text text-anchor="middle" x="164" y="-285.4" font-family="Arial" font-size="9.00" fill="#005a9c">begin</text>
</a>
</g>
<!-- basic_behavior_doInitialize -->
<g id="node22" class="node"><title>basic_behavior_doInitialize</title>
<a xlink:href="basic-behaviors.myBasicBehaviors.html#doInitialize" xlink:title="doInitialize">
<ellipse fill="#ffffff" stroke="black" cx="35" cy="-234" rx="34.8223" ry="18"/>
<text text-anchor="middle" x="35" y="-231.4" font-family="Arial" font-size="9.00" fill="#005a9c">doInitialize</text>
</a>
</g>
<!-- option_begin&#45;&gt;basic_behavior_doInitialize -->
<g id="edge47" class="edge"><title>option_begin&#45;&gt;basic_behavior_doInitialize</title>
<path fill="none" stroke="#808080" d="M136.957,-276.68C117.481,-268.527 91.0303,-257.455 69.9514,-248.631"/>
<polygon fill="#808080" stroke="#808080" points="70.9121,-245.998 62.4513,-245.491 68.7496,-251.163 70.9121,-245.998"/>
</g>
<!-- basic_behavior_doUpdate -->
<g id="node24" class="node"><title>basic_behavior_doUpdate</title>
<a xlink:href="basic-behaviors.myBasicBehaviors.html#doUpdate" xlink:title="doUpdate">
<ellipse fill="#ffffff" stroke="black" cx="121" cy="-234" rx="33.053" ry="18"/>
<text text-anchor="middle" x="121" y="-231.4" font-family="Arial" font-size="9.00" fill="#005a9c">doUpdate</text>
</a>
</g>
<!-- option_begin&#45;&gt;basic_behavior_doUpdate -->
<g id="edge49" class="edge"><title>option_begin&#45;&gt;basic_behavior_doUpdate</title>
<path fill="none" stroke="#808080" d="M149.442,-269.718C146.244,-265.702 142.817,-261.398 139.488,-257.217"/>
<polygon fill="#808080" stroke="#808080" points="141.558,-255.322 134.384,-250.808 137.178,-258.811 141.558,-255.322"/>
</g>
<!-- option_checklocalize -->
<g id="node26" class="node"><title>option_checklocalize</title>
<a xlink:href="option.checklocalize.html" xlink:title="checklocalize">
<polygon fill="#ffffff" stroke="black" points="242,-252 172,-252 172,-216 242,-216 242,-252"/>
<text text-anchor="middle" x="207" y="-231.4" font-family="Arial" font-size="9.00" fill="#005a9c">checklocalize</text>
</a>
</g>
<!-- option_begin&#45;&gt;option_checklocalize -->
<g id="edge43" class="edge"><title>option_begin&#45;&gt;option_checklocalize</title>
<path fill="none" stroke="#808080" d="M178.558,-269.718C181.36,-266.199 184.338,-262.459 187.272,-258.775"/>
<polygon fill="#808080" stroke="#808080" points="189.664,-260.266 192.457,-252.263 185.283,-256.777 189.664,-260.266"/>
</g>
<!-- option_reset -->
<g id="node51" class="node"><title>option_reset</title>
<a xlink:href="option.reset.html" xlink:title="reset">
<polygon fill="#ffffff" stroke="black" points="314,-252 260,-252 260,-216 314,-216 314,-252"/>
<text text-anchor="middle" x="287" y="-231.4" font-family="Arial" font-size="9.00" fill="#005a9c">reset</text>
</a>
</g>
<!-- option_begin&#45;&gt;option_reset -->
<g id="edge45" class="edge"><title>option_begin&#45;&gt;option_reset</title>
<path fill="none" stroke="#808080" d="M191.353,-273.884C194.249,-272.522 197.17,-271.201 200,-270 222.126,-260.607 228.874,-261.393 251,-252 251.442,-251.812 251.887,-251.622 252.333,-251.428"/>
<polygon fill="#808080" stroke="#808080" points="253.515,-253.967 259.647,-248.116 251.205,-248.866 253.515,-253.967"/>
</g>
<!-- basic_behavior_doLocalize -->
<g id="node18" class="node"><title>basic_behavior_doLocalize</title>
<a xlink:href="basic-behaviors.myBasicBehaviors.html#doLocalize" xlink:title="doLocalize">
<ellipse fill="#ffffff" stroke="black" cx="207" cy="-180" rx="35.9084" ry="18"/>
<text text-anchor="middle" x="207" y="-177.4" font-family="Arial" font-size="9.00" fill="#005a9c">doLocalize</text>
</a>
</g>
<!-- basic_behavior_doFindBall -->
<g id="node20" class="node"><title>basic_behavior_doFindBall</title>
<a xlink:href="basic-behaviors.myBasicBehaviors.html#doFindBall" xlink:title="doFindBall">
<ellipse fill="#ffffff" stroke="black" cx="297" cy="-180" rx="35.9084" ry="18"/>
<text text-anchor="middle" x="297" y="-177.4" font-family="Arial" font-size="9.00" fill="#005a9c">doFindBall</text>
</a>
</g>
<!-- option_checklocalize&#45;&gt;option_ballfound -->
<g id="edge51" class="edge"><title>option_checklocalize&#45;&gt;option_ballfound</title>
<path fill="none" stroke="#808080" d="M179.577,-215.718C173.308,-211.539 166.571,-207.047 160.061,-202.707"/>
<polygon fill="#808080" stroke="#808080" points="161.329,-200.188 153.12,-198.08 158.223,-204.847 161.329,-200.188"/>
</g>
<!-- option_checklocalize&#45;&gt;basic_behavior_doLocalize -->
<g id="edge53" class="edge"><title>option_checklocalize&#45;&gt;basic_behavior_doLocalize</title>
<path fill="none" stroke="#808080" d="M207,-215.718C207,-212.727 207,-209.576 207,-206.436"/>
<polygon fill="#808080" stroke="#808080" points="209.8,-206.263 207,-198.263 204.2,-206.263 209.8,-206.263"/>
</g>
<!-- option_checklocalize&#45;&gt;basic_behavior_doFindBall -->
<g id="edge55" class="edge"><title>option_checklocalize&#45;&gt;basic_behavior_doFindBall</title>
<path fill="none" stroke="#808080" d="M237.47,-215.718C246.898,-210.061 257.279,-203.833 266.695,-198.183"/>
<polygon fill="#808080" stroke="#808080" points="268.257,-200.511 273.676,-193.994 265.376,-195.709 268.257,-200.511"/>
</g>
<!-- option_checkpath&#45;&gt;option_ballfollowing -->
<g id="edge57" class="edge"><title>option_checkpath&#45;&gt;option_ballfollowing</title>
<path fill="none" stroke="#808080" d="M153.749,-107.718C150.543,-104.111 147.131,-100.272 143.777,-96.4988"/>
<polygon fill="#808080" stroke="#808080" points="145.642,-94.3822 138.234,-90.2631 141.456,-98.1026 145.642,-94.3822"/>
</g>
<!-- option_checkpath&#45;&gt;basic_behavior_doPathToWalk -->
<g id="edge59" class="edge"><title>option_checkpath&#45;&gt;basic_behavior_doPathToWalk</title>
<path fill="none" stroke="#808080" d="M186.251,-107.718C189.832,-103.689 193.672,-99.3693 197.4,-95.1755"/>
<polygon fill="#808080" stroke="#808080" points="199.516,-97.0089 202.738,-89.1694 195.331,-93.2885 199.516,-97.0089"/>
</g>
<!-- option_path -->
<g id="node37" class="node"><title>option_path</title>
<a xlink:href="option.path.html" xlink:title="path">
<polygon fill="#ffffff" stroke="black" points="267,-360 213,-360 213,-324 267,-324 267,-360"/>
<text text-anchor="middle" x="240" y="-339.4" font-family="Arial" font-size="9.00" fill="#005a9c">path</text>
</a>
</g>
<!-- basic_behavior_printmsg -->
<g id="node39" class="node"><title>basic_behavior_printmsg</title>
<a xlink:href="basic-behaviors.myBasicBehaviors.html#printmsg" xlink:title="printmsg">
<ellipse fill="#ffffff" stroke="black" cx="240" cy="-288" rx="31.1991" ry="18"/>
<text text-anchor="middle" x="240" y="-285.4" font-family="Arial" font-size="9.00" fill="#005a9c">printmsg</text>
</a>
</g>
<!-- option_path&#45;&gt;basic_behavior_printmsg -->
<g id="edge61" class="edge"><title>option_path&#45;&gt;basic_behavior_printmsg</title>
<path fill="none" stroke="#808080" d="M240,-323.718C240,-320.727 240,-317.576 240,-314.436"/>
<polygon fill="#808080" stroke="#808080" points="242.8,-314.263 240,-306.263 237.2,-314.263 242.8,-314.263"/>
</g>
<!-- option_referee -->
<g id="node41" class="node"><title>option_referee</title>
<a xlink:href="option.referee.html" xlink:title="referee">
<polygon fill="#ffffff" stroke="black" points="193,-360 139,-360 139,-324 193,-324 193,-360"/>
<text text-anchor="middle" x="166" y="-339.4" font-family="Arial" font-size="9.00" fill="#005a9c">referee</text>
</a>
</g>
<!-- option_referee&#45;&gt;option_begin -->
<g id="edge63" class="edge"><title>option_referee&#45;&gt;option_begin</title>
<path fill="none" stroke="#808080" d="M165.323,-323.718C165.212,-320.727 165.095,-317.576 164.979,-314.436"/>
<polygon fill="#808080" stroke="#808080" points="167.771,-314.154 164.676,-306.263 162.175,-314.361 167.771,-314.154"/>
</g>
<!-- option_referee&#45;&gt;basic_behavior_printmsg -->
<g id="edge65" class="edge"><title>option_referee&#45;&gt;basic_behavior_printmsg</title>
<path fill="none" stroke="#808080" d="M191.053,-323.718C198.372,-318.377 206.39,-312.526 213.78,-307.134"/>
<polygon fill="#808080" stroke="#808080" points="215.54,-309.316 220.352,-302.338 212.239,-304.792 215.54,-309.316"/>
</g>
</g>
</svg>
