<?xml version="1.0" encoding="UTF-8" standalone="no"?>
<!DOCTYPE svg PUBLIC "-//W3C//DTD SVG 1.1//EN"
 "http://www.w3.org/Graphics/SVG/1.1/DTD/svg11.dtd">
<!-- Generated by graphviz version 2.26.3 (20100126.1600)
 -->
<!-- Title: g Pages: 1 -->
<svg width="126pt" height="224pt"
 viewBox="0.00 0.00 126.00 224.00" xmlns="http://www.w3.org/2000/svg" xmlns:xlink="http://www.w3.org/1999/xlink">
<g id="graph1" class="graph" transform="scale(1 1) rotate(0) translate(4 220)">
<title>g</title>
<polygon fill="white" stroke="white" points="-4,5 -4,-220 123,-220 123,5 -4,5"/>
<g id="graph2" class="cluster"><title>cluster_option</title>
<polygon fill="#f4f4f4" stroke="black" points="8,-8 8,-208 110,-208 110,-8 8,-8"/>
<text text-anchor="middle" x="59" y="-193.2" font-family="Arial" font-size="12.00" fill="#005a9c">option path</text>
</g>
<g id="graph3" class="cluster"><title>cluster_states</title>
<polygon fill="#f4f4f4" stroke="#f4f4f4" points="22,-16 22,-90 96,-90 96,-16 22,-16"/>
</g>
<g id="graph5" class="cluster"><title>cluster_decision_tree</title>
<polygon fill="#ffffff" stroke="black" points="16,-134 16,-177 102,-177 102,-134 16,-134"/>
<text text-anchor="middle" x="59" y="-162.2" font-family="Arial" font-size="12.00" fill="#005a9c">state __initial</text>
</g>
<!-- state___initial -->
<g id="node4" class="node"><title>state___initial</title>
<ellipse fill="none" stroke="black" stroke-dasharray="5,2" cx="59" cy="-53" rx="28.8445" ry="28.8445"/>
<polyline fill="none" stroke="black" stroke-dasharray="5,2" points="78.1806,-74.75 39.8194,-74.75 "/>
<polyline fill="none" stroke="black" stroke-dasharray="5,2" points="78.1806,-31.25 39.8194,-31.25 "/>
<text text-anchor="middle" x="59" y="-50.4" font-family="Arial" font-size="9.00" fill="#005a9c">__initial</text>
</g>
<!-- start -->
<g id="node7" class="node"><title>start</title>
<ellipse fill="black" stroke="black" cx="59" cy="-144" rx="1.8" ry="1.8"/>
</g>
<!-- start&#45;&gt;state___initial -->
<g id="edge7" class="edge"><title>start&#45;&gt;state___initial</title>
<path fill="none" stroke="black" d="M59,-142.099C59,-135.549 59,-113.179 59,-92.4943"/>
<polygon fill="black" stroke="black" points="62.5001,-92.239 59,-82.239 55.5001,-92.239 62.5001,-92.239"/>
</g>
</g>
</svg>
