<?xml version="1.0" encoding="UTF-8" standalone="no"?>
<!DOCTYPE svg PUBLIC "-//W3C//DTD SVG 1.1//EN"
 "http://www.w3.org/Graphics/SVG/1.1/DTD/svg11.dtd">
<!-- Generated by graphviz version 2.26.3 (20100126.1600)
 -->
<!-- Title: g Pages: 1 -->
<svg width="366pt" height="591pt"
 viewBox="0.00 0.00 366.00 591.00" xmlns="http://www.w3.org/2000/svg" xmlns:xlink="http://www.w3.org/1999/xlink">
<g id="graph1" class="graph" transform="scale(1 1) rotate(0) translate(4 587)">
<title>g</title>
<polygon fill="white" stroke="white" points="-4,5 -4,-587 363,-587 363,5 -4,5"/>
<g id="graph2" class="cluster"><title>cluster_option</title>
<polygon fill="#f4f4f4" stroke="black" points="113,-395 113,-575 275,-575 275,-395 113,-395"/>
<text text-anchor="middle" x="194" y="-560.2" font-family="Arial" font-size="12.00" fill="#005a9c">option begin</text>
</g>
<g id="graph8" class="cluster"><title>cluster_option_tree</title>
<polygon fill="none" stroke="#ffffff" points="8,-8 8,-320 350,-320 350,-8 8,-8"/>
</g>
<!-- state_initialize -->
<g id="node4" class="node"><title>state_initialize</title>
<a xlink:href="option.begin.html#state_initialize" xlink:title="initialize">
<ellipse fill="#ffffff" stroke="black" cx="220" cy="-514" rx="28.9343" ry="29.4331"/>
<polyline fill="none" stroke="black" points="239.181,-536.125 200.819,-536.125 "/>
<polyline fill="none" stroke="black" points="239.181,-491.875 200.819,-491.875 "/>
<text text-anchor="middle" x="220" y="-511.4" font-family="Arial" font-size="9.00" fill="#005a9c">initialize</text>
</a>
</g>
<!-- state_initialize&#45;&gt;state_initialize -->
<g id="edge12" class="edge"><title>state_initialize&#45;&gt;state_initialize</title>
<path fill="none" stroke="black" d="M245.191,-529.1C258.696,-531.666 271,-526.633 271,-514 271,-504.624 264.223,-499.434 255.207,-498.431"/>
<polygon fill="black" stroke="black" points="255.016,-494.936 245.191,-498.9 255.344,-501.928 255.016,-494.936"/>
</g>
<!-- state_play -->
<g id="node7" class="node"><title>state_play</title>
<a xlink:href="option.begin.html#state_play" xlink:title="play">
<ellipse fill="#ffffff" stroke="black" cx="140" cy="-429" rx="18.9278" ry="19.4259"/>
<text text-anchor="middle" x="140" y="-426.4" font-family="Arial" font-size="9.00" fill="#005a9c">play</text>
</a>
</g>
<!-- state_initialize&#45;&gt;state_play -->
<g id="edge10" class="edge"><title>state_initialize&#45;&gt;state_play</title>
<path fill="none" stroke="black" d="M196.588,-496.388C183.569,-484.227 167.912,-467.867 156.206,-454.313"/>
<polygon fill="black" stroke="black" points="158.593,-451.713 149.486,-446.299 153.229,-456.211 158.593,-451.713"/>
</g>
<!-- state__reset -->
<g id="node9" class="node"><title>state__reset</title>
<a xlink:href="option.begin.html#state__reset" xlink:title="_reset">
<ellipse fill="#ffffff" stroke="black" cx="224" cy="-429" rx="24.8162" ry="25.3125"/>
<text text-anchor="middle" x="224" y="-426.4" font-family="Arial" font-size="9.00" fill="#005a9c">_reset</text>
</a>
</g>
<!-- state_initialize&#45;&gt;state__reset -->
<g id="edge8" class="edge"><title>state_initialize&#45;&gt;state__reset</title>
<path fill="none" stroke="black" d="M213.499,-485.223C213.41,-478.087 213.691,-470.372 214.297,-463.012"/>
<polygon fill="black" stroke="black" points="217.791,-463.252 215.367,-452.939 210.831,-462.513 217.791,-463.252"/>
</g>
<!-- basic_behavior_doInitialize -->
<g id="node42" class="node"><title>basic_behavior_doInitialize</title>
<a xlink:href="basic-behaviors.myBasicBehaviors.html#doInitialize" xlink:title="doInitialize">
<ellipse fill="#ffffff" stroke="black" cx="307" cy="-294" rx="34.8223" ry="18"/>
<text text-anchor="middle" x="307" y="-291.4" font-family="Arial" font-size="9.00" fill="#005a9c">doInitialize</text>
</a>
</g>
<!-- state_initialize&#45;&gt;basic_behavior_doInitialize -->
<g id="edge56" class="edge"><title>state_initialize&#45;&gt;basic_behavior_doInitialize</title>
<path fill="none" stroke="#808080" stroke-dasharray="5,2" d="M243.245,-496.243C255.502,-485.617 269.682,-471.074 278,-455 300.526,-411.469 305.86,-353.462 306.945,-320.279"/>
<polygon fill="#808080" stroke="#808080" points="309.75,-320.071 307.143,-312.006 304.152,-319.937 309.75,-320.071"/>
</g>
<!-- state_play&#45;&gt;state_initialize -->
<g id="edge18" class="edge"><title>state_play&#45;&gt;state_initialize</title>
<path fill="none" stroke="black" d="M155.85,-439.771C167.878,-450.244 184.132,-466.687 197.4,-481.438"/>
<polygon fill="black" stroke="black" points="194.789,-483.77 204.027,-488.957 200.04,-479.141 194.789,-483.77"/>
</g>
<!-- state_play&#45;&gt;state_play -->
<g id="edge16" class="edge"><title>state_play&#45;&gt;state_play</title>
<path fill="none" stroke="black" d="M156.846,-438.37C168.947,-441.42 181,-438.297 181,-429 181,-422.391 174.908,-418.901 167.038,-418.533"/>
<polygon fill="black" stroke="black" points="166.414,-415.08 156.846,-419.63 167.163,-422.039 166.414,-415.08"/>
</g>
<!-- state_play&#45;&gt;state__reset -->
<g id="edge14" class="edge"><title>state_play&#45;&gt;state__reset</title>
<path fill="none" stroke="black" d="M159.031,-429C168.889,-429 178.746,-429 188.603,-429"/>
<polygon fill="black" stroke="black" points="188.875,-432.5 198.875,-429 188.875,-425.5 188.875,-432.5"/>
</g>
<!-- option_checklocalize -->
<g id="node20" class="node"><title>option_checklocalize</title>
<a xlink:href="option.checklocalize.html" xlink:title="checklocalize">
<polygon fill="#ffffff" stroke="black" points="86,-312 16,-312 16,-276 86,-276 86,-312"/>
<text text-anchor="middle" x="51" y="-291.4" font-family="Arial" font-size="9.00" fill="#005a9c">checklocalize</text>
</a>
</g>
<!-- state_play&#45;&gt;option_checklocalize -->
<g id="edge60" class="edge"><title>state_play&#45;&gt;option_checklocalize</title>
<path fill="none" stroke="#808080" stroke-dasharray="5,2" d="M129.265,-412.716C113.901,-389.412 85.512,-346.35 67.4771,-318.993"/>
<polygon fill="#808080" stroke="#808080" points="69.648,-317.199 62.907,-312.061 64.9726,-320.281 69.648,-317.199"/>
</g>
<!-- basic_behavior_doUpdate -->
<g id="node44" class="node"><title>basic_behavior_doUpdate</title>
<a xlink:href="basic-behaviors.myBasicBehaviors.html#doUpdate" xlink:title="doUpdate">
<ellipse fill="#ffffff" stroke="black" cx="141" cy="-294" rx="33.053" ry="18"/>
<text text-anchor="middle" x="141" y="-291.4" font-family="Arial" font-size="9.00" fill="#005a9c">doUpdate</text>
</a>
</g>
<!-- state_play&#45;&gt;basic_behavior_doUpdate -->
<g id="edge58" class="edge"><title>state_play&#45;&gt;basic_behavior_doUpdate</title>
<path fill="none" stroke="#808080" stroke-dasharray="5,2" d="M140.145,-409.37C140.319,-385.98 140.609,-346.791 140.802,-320.67"/>
<polygon fill="#808080" stroke="#808080" points="143.605,-320.374 140.864,-312.354 138.005,-320.333 143.605,-320.374"/>
</g>
<!-- state__reset&#45;&gt;state_initialize -->
<g id="edge20" class="edge"><title>state__reset&#45;&gt;state_initialize</title>
<path fill="none" stroke="black" d="M230.41,-453.759C230.641,-460.635 230.494,-468.267 230.015,-475.724"/>
<polygon fill="black" stroke="black" points="226.527,-475.433 229.158,-485.696 233.501,-476.032 226.527,-475.433"/>
</g>
<!-- state__reset&#45;&gt;state__reset -->
<g id="edge22" class="edge"><title>state__reset&#45;&gt;state__reset</title>
<path fill="none" stroke="black" d="M247.215,-439.067C259.661,-440.777 271,-437.422 271,-429 271,-422.947 265.142,-419.511 257.226,-418.692"/>
<polygon fill="black" stroke="black" points="257.128,-415.193 247.215,-418.933 257.296,-422.191 257.128,-415.193"/>
</g>
<!-- option_reset -->
<g id="node28" class="node"><title>option_reset</title>
<a xlink:href="option.reset.html" xlink:title="reset">
<polygon fill="#ffffff" stroke="black" points="250,-312 196,-312 196,-276 250,-276 250,-312"/>
<text text-anchor="middle" x="223" y="-291.4" font-family="Arial" font-size="9.00" fill="#005a9c">reset</text>
</a>
</g>
<!-- state__reset&#45;&gt;option_reset -->
<g id="edge62" class="edge"><title>state__reset&#45;&gt;option_reset</title>
<path fill="none" stroke="#808080" stroke-dasharray="5,2" d="M223.81,-403.29C223.634,-379.579 223.374,-344.526 223.197,-320.551"/>
<polygon fill="#808080" stroke="#808080" points="225.995,-320.241 223.135,-312.262 220.395,-320.282 225.995,-320.241"/>
</g>
<!-- option_ballfound -->
<g id="node22" class="node"><title>option_ballfound</title>
<a xlink:href="option.ballfound.html" xlink:title="ballfound">
<polygon fill="#ffffff" stroke="black" points="71,-247 17,-247 17,-211 71,-211 71,-247"/>
<text text-anchor="middle" x="44" y="-226.4" font-family="Arial" font-size="9.00" fill="#005a9c">ballfound</text>
</a>
</g>
<!-- option_checklocalize&#45;&gt;option_ballfound -->
<g id="edge38" class="edge"><title>option_checklocalize&#45;&gt;option_ballfound</title>
<path fill="none" stroke="#808080" d="M49.0501,-275.894C48.3523,-269.414 47.5514,-261.977 46.7962,-254.964"/>
<polygon fill="#808080" stroke="#808080" points="49.58,-254.663 45.9394,-247.009 44.0122,-255.263 49.58,-254.663"/>
</g>
<!-- basic_behavior_doLocalize -->
<g id="node36" class="node"><title>basic_behavior_doLocalize</title>
<a xlink:href="basic-behaviors.myBasicBehaviors.html#doLocalize" xlink:title="doLocalize">
<ellipse fill="#ffffff" stroke="black" cx="129" cy="-229" rx="35.9084" ry="18"/>
<text text-anchor="middle" x="129" y="-226.4" font-family="Arial" font-size="9.00" fill="#005a9c">doLocalize</text>
</a>
</g>
<!-- option_checklocalize&#45;&gt;basic_behavior_doLocalize -->
<g id="edge40" class="edge"><title>option_checklocalize&#45;&gt;basic_behavior_doLocalize</title>
<path fill="none" stroke="#808080" d="M72.7273,-275.894C82.4154,-267.82 93.8856,-258.262 103.935,-249.888"/>
<polygon fill="#808080" stroke="#808080" points="105.947,-251.856 110.3,-244.583 102.362,-247.554 105.947,-251.856"/>
</g>
<!-- basic_behavior_doFindBall -->
<g id="node38" class="node"><title>basic_behavior_doFindBall</title>
<a xlink:href="basic-behaviors.myBasicBehaviors.html#doFindBall" xlink:title="doFindBall">
<ellipse fill="#ffffff" stroke="black" cx="223" cy="-229" rx="35.9084" ry="18"/>
<text text-anchor="middle" x="223" y="-226.4" font-family="Arial" font-size="9.00" fill="#005a9c">doFindBall</text>
</a>
</g>
<!-- option_checklocalize&#45;&gt;basic_behavior_doFindBall -->
<g id="edge42" class="edge"><title>option_checklocalize&#45;&gt;basic_behavior_doFindBall</title>
<path fill="none" stroke="#808080" d="M86.1315,-280.165C89.7975,-278.747 93.4718,-277.338 97,-276 131.973,-262.74 140.98,-260.133 176,-247 179.405,-245.723 182.946,-244.385 186.488,-243.04"/>
<polygon fill="#808080" stroke="#808080" points="187.712,-245.57 194.191,-240.106 185.719,-240.337 187.712,-245.57"/>
</g>
<!-- option_checkpath -->
<g id="node24" class="node"><title>option_checkpath</title>
<a xlink:href="option.checkpath.html" xlink:title="checkpath">
<polygon fill="#ffffff" stroke="black" points="76,-182 18,-182 18,-146 76,-146 76,-182"/>
<text text-anchor="middle" x="47" y="-161.4" font-family="Arial" font-size="9.00" fill="#005a9c">checkpath</text>
</a>
</g>
<!-- option_ballfound&#45;&gt;option_checkpath -->
<g id="edge44" class="edge"><title>option_ballfound&#45;&gt;option_checkpath</title>
<path fill="none" stroke="#808080" d="M44.8357,-210.894C45.1282,-204.555 45.4631,-197.3 45.7805,-190.422"/>
<polygon fill="#808080" stroke="#808080" points="48.5969,-190.13 46.1688,-182.009 43.0029,-189.871 48.5969,-190.13"/>
</g>
<!-- basic_behavior_doMakePath -->
<g id="node34" class="node"><title>basic_behavior_doMakePath</title>
<a xlink:href="basic-behaviors.myBasicBehaviors.html#doMakePath" xlink:title="doMakePath">
<ellipse fill="#ffffff" stroke="black" cx="138" cy="-164" rx="40.0291" ry="18"/>
<text text-anchor="middle" x="138" y="-161.4" font-family="Arial" font-size="9.00" fill="#005a9c">doMakePath</text>
</a>
</g>
<!-- option_ballfound&#45;&gt;basic_behavior_doMakePath -->
<g id="edge46" class="edge"><title>option_ballfound&#45;&gt;basic_behavior_doMakePath</title>
<path fill="none" stroke="#808080" d="M70.1842,-210.894C82.3766,-202.463 96.9109,-192.413 109.391,-183.783"/>
<polygon fill="#808080" stroke="#808080" points="111.098,-186.007 116.085,-179.154 107.913,-181.401 111.098,-186.007"/>
</g>
<!-- option_ballfollowing -->
<g id="node26" class="node"><title>option_ballfollowing</title>
<a xlink:href="option.ballfollowing.html" xlink:title="ballfollowing">
<polygon fill="#ffffff" stroke="black" points="84,-117 16,-117 16,-81 84,-81 84,-117"/>
<text text-anchor="middle" x="50" y="-96.4" font-family="Arial" font-size="9.00" fill="#005a9c">ballfollowing</text>
</a>
</g>
<!-- option_checkpath&#45;&gt;option_ballfollowing -->
<g id="edge48" class="edge"><title>option_checkpath&#45;&gt;option_ballfollowing</title>
<path fill="none" stroke="#808080" d="M47.8357,-145.894C48.1282,-139.555 48.4631,-132.3 48.7805,-125.422"/>
<polygon fill="#808080" stroke="#808080" points="51.5969,-125.13 49.1688,-117.009 46.0029,-124.871 51.5969,-125.13"/>
</g>
<!-- basic_behavior_doPathToWalk -->
<g id="node32" class="node"><title>basic_behavior_doPathToWalk</title>
<a xlink:href="basic-behaviors.myBasicBehaviors.html#doPathToWalk" xlink:title="doPathToWalk">
<ellipse fill="#ffffff" stroke="black" cx="150" cy="-99" rx="44.2357" ry="18"/>
<text text-anchor="middle" x="150" y="-96.4" font-family="Arial" font-size="9.00" fill="#005a9c">doPathToWalk</text>
</a>
</g>
<!-- option_checkpath&#45;&gt;basic_behavior_doPathToWalk -->
<g id="edge50" class="edge"><title>option_checkpath&#45;&gt;basic_behavior_doPathToWalk</title>
<path fill="none" stroke="#808080" d="M75.6912,-145.894C89.1746,-137.385 105.272,-127.226 119.031,-118.543"/>
<polygon fill="#808080" stroke="#808080" points="120.716,-120.791 125.987,-114.154 117.727,-116.055 120.716,-120.791"/>
</g>
<!-- basic_behavior_moveAcYuttemp -->
<g id="node30" class="node"><title>basic_behavior_moveAcYuttemp</title>
<a xlink:href="basic-behaviors.myBasicBehaviors.html#moveAcYuttemp" xlink:title="moveAcYuttemp">
<ellipse fill="#ffffff" stroke="black" cx="64" cy="-34" rx="47.7727" ry="18"/>
<text text-anchor="middle" x="64" y="-31.4" font-family="Arial" font-size="9.00" fill="#005a9c">moveAcYuttemp</text>
</a>
</g>
<!-- option_ballfollowing&#45;&gt;basic_behavior_moveAcYuttemp -->
<g id="edge52" class="edge"><title>option_ballfollowing&#45;&gt;basic_behavior_moveAcYuttemp</title>
<path fill="none" stroke="#808080" d="M53.8998,-80.8939C55.2954,-74.414 56.8972,-66.9775 58.4077,-59.9645"/>
<polygon fill="#808080" stroke="#808080" points="61.1738,-60.4193 60.1211,-52.009 55.6994,-59.2401 61.1738,-60.4193"/>
</g>
<!-- basic_behavior_doReset -->
<g id="node40" class="node"><title>basic_behavior_doReset</title>
<a xlink:href="basic-behaviors.myBasicBehaviors.html#doReset" xlink:title="doReset">
<ellipse fill="#ffffff" stroke="black" cx="311" cy="-229" rx="30.1087" ry="18"/>
<text text-anchor="middle" x="311" y="-226.4" font-family="Arial" font-size="9.00" fill="#005a9c">doReset</text>
</a>
</g>
<!-- option_reset&#45;&gt;basic_behavior_doReset -->
<g id="edge54" class="edge"><title>option_reset&#45;&gt;basic_behavior_doReset</title>
<path fill="none" stroke="#808080" d="M247.513,-275.894C259.246,-267.227 273.297,-256.849 285.194,-248.062"/>
<polygon fill="#808080" stroke="#808080" points="287.144,-250.102 291.915,-243.097 283.817,-245.597 287.144,-250.102"/>
</g>
</g>
</svg>
