<?xml version="1.0" encoding="UTF-8" standalone="no"?>
<!DOCTYPE svg PUBLIC "-//W3C//DTD SVG 1.1//EN"
 "http://www.w3.org/Graphics/SVG/1.1/DTD/svg11.dtd">
<!-- Generated by graphviz version 2.26.3 (20100126.1600)
 -->
<!-- Title: g Pages: 1 -->
<svg width="414pt" height="506pt"
 viewBox="0.00 0.00 414.00 506.00" xmlns="http://www.w3.org/2000/svg" xmlns:xlink="http://www.w3.org/1999/xlink">
<g id="graph1" class="graph" transform="scale(1 1) rotate(0) translate(4 502)">
<title>g</title>
<polygon fill="white" stroke="white" points="-4,5 -4,-502 411,-502 411,5 -4,5"/>
<g id="graph2" class="cluster"><title>cluster_option</title>
<polygon fill="#f4f4f4" stroke="black" points="8,-8 8,-490 398,-490 398,-8 8,-8"/>
<text text-anchor="middle" x="203" y="-475.2" font-family="Arial" font-size="12.00" fill="#005a9c">option ballfollowing</text>
</g>
<g id="graph3" class="cluster"><title>cluster_states</title>
<polygon fill="#f4f4f4" stroke="#f4f4f4" points="16,-16 16,-112 390,-112 390,-16 16,-16"/>
</g>
<g id="graph10" class="cluster"><title>cluster_decision_tree</title>
<polygon fill="#ffffff" stroke="black" points="37,-156 37,-459 179,-459 179,-156 37,-156"/>
<text text-anchor="middle" x="108" y="-444.2" font-family="Arial" font-size="12.00" fill="#005a9c">state right</text>
</g>
<!-- state_ballnotfound -->
<g id="node4" class="node"><title>state_ballnotfound</title>
<a xlink:href="option.ballfollowing.html#state_ballnotfound" xlink:title="ballnotfound">
<ellipse fill="#ffffff" stroke="black" cx="342" cy="-64" rx="40.0291" ry="40.0291"/>
<polyline fill="none" stroke="black" points="368.456,-94 315.544,-94 "/>
<polyline fill="none" stroke="black" points="368.456,-34 315.544,-34 "/>
<text text-anchor="middle" x="342" y="-61.4" font-family="Arial" font-size="9.00" fill="#005a9c">ballnotfound</text>
</a>
</g>
<!-- state_preparekick -->
<g id="node6" class="node"><title>state_preparekick</title>
<a xlink:href="option.ballfollowing.html#state_preparekick" xlink:title="preparekick">
<ellipse fill="#ffffff" stroke="black" cx="246" cy="-64" rx="37.7662" ry="38.2631"/>
<text text-anchor="middle" x="246" y="-61.4" font-family="Arial" font-size="9.00" fill="#005a9c">preparekick</text>
</a>
</g>
<!-- state_forward -->
<g id="node8" class="node"><title>state_forward</title>
<a xlink:href="option.ballfollowing.html#state_forward" xlink:title="forward">
<ellipse fill="#ffffff" stroke="black" cx="163" cy="-64" rx="27.1641" ry="27.6672"/>
<text text-anchor="middle" x="163" y="-61.4" font-family="Arial" font-size="9.00" fill="#005a9c">forward</text>
</a>
</g>
<!-- state_left -->
<g id="node10" class="node"><title>state_left</title>
<a xlink:href="option.ballfollowing.html#state_left" xlink:title="left">
<ellipse fill="#ffffff" stroke="black" cx="100" cy="-64" rx="18" ry="18"/>
<text text-anchor="middle" x="100" y="-61.4" font-family="Arial" font-size="9.00" fill="#005a9c">left</text>
</a>
</g>
<!-- state_right -->
<g id="node12" class="node"><title>state_right</title>
<ellipse fill="none" stroke="black" stroke-dasharray="5,2" cx="44" cy="-64" rx="20.1007" ry="20.6032"/>
<text text-anchor="middle" x="44" y="-61.4" font-family="Arial" font-size="9.00" fill="#005a9c">right</text>
</g>
<!-- start -->
<g id="node16" class="node"><title>start</title>
<ellipse fill="black" stroke="black" cx="144" cy="-426" rx="1.8" ry="1.8"/>
</g>
<!-- _0 -->
<g id="node18" class="node"><title>_0</title>
<a xlink:href="option.ballfollowing.html#state_right_pseudo-code_0" xlink:title="Ball not\nfound">
<polygon fill="#ffffff" stroke="black" points="171,-395 117,-395 117,-359 171,-359 171,-395"/>
<text text-anchor="middle" x="144" y="-379.9" font-family="Arial Italic" font-size="9.00">Ball not</text>
<text text-anchor="middle" x="144" y="-368.9" font-family="Arial Italic" font-size="9.00">found</text>
</a>
</g>
<!-- start&#45;&gt;_0 -->
<g id="edge15" class="edge"><title>start&#45;&gt;_0</title>
<path fill="none" stroke="black" stroke-dasharray="5,2" d="M144,-423.895C144,-420.481 144,-413.341 144,-405.638"/>
<polygon fill="black" stroke="black" points="147.5,-405.455 144,-395.455 140.5,-405.455 147.5,-405.455"/>
</g>
<!-- _0&#45;&gt;state_ballnotfound -->
<g id="edge13" class="edge"><title>_0&#45;&gt;state_ballnotfound</title>
<path fill="none" stroke="black" stroke-dasharray="5,2" d="M165.89,-358.772C191.075,-335.624 229,-293.111 229,-247 229,-247 229,-247 229,-182 229,-176.347 272.833,-131.963 305.899,-99.2857"/>
<polygon fill="black" stroke="black" points="308.529,-101.607 313.193,-92.0942 303.615,-96.6228 308.529,-101.607"/>
<text text-anchor="middle" x="169.539" y="-347.362" font-family="Times Roman,serif" font-size="9.00">1</text>
</g>
<!-- _1_0 -->
<g id="node22" class="node"><title>_1_0</title>
<a xlink:href="option.ballfollowing.html#state_right_pseudo-code_1_0" xlink:title="Ball is\nin front">
<polygon fill="#ffffff" stroke="black" points="171,-330 117,-330 117,-294 171,-294 171,-330"/>
<text text-anchor="middle" x="144" y="-314.9" font-family="Arial Italic" font-size="9.00">Ball is</text>
<text text-anchor="middle" x="144" y="-303.9" font-family="Arial Italic" font-size="9.00">in front</text>
</a>
</g>
<!-- _0&#45;&gt;_1_0 -->
<g id="edge25" class="edge"><title>_0&#45;&gt;_1_0</title>
<path fill="none" stroke="black" stroke-dasharray="5,2" d="M144,-358.894C144,-353.118 144,-346.583 144,-340.265"/>
<polygon fill="black" stroke="black" points="147.5,-340.009 144,-330.009 140.5,-340.009 147.5,-340.009"/>
<text text-anchor="middle" x="139.774" y="-347.231" font-family="Arial Bold Italic" font-size="9.00">0</text>
</g>
<!-- _1_0_0 -->
<g id="node24" class="node"><title>_1_0_0</title>
<a xlink:href="option.ballfollowing.html#state_right_pseudo-code_1_0_0" xlink:title="Ball is\nnear">
<polygon fill="#ffffff" stroke="black" points="171,-265 117,-265 117,-229 171,-229 171,-265"/>
<text text-anchor="middle" x="144" y="-249.9" font-family="Arial Italic" font-size="9.00">Ball is</text>
<text text-anchor="middle" x="144" y="-238.9" font-family="Arial Italic" font-size="9.00">near</text>
</a>
</g>
<!-- _1_0&#45;&gt;_1_0_0 -->
<g id="edge21" class="edge"><title>_1_0&#45;&gt;_1_0_0</title>
<path fill="none" stroke="black" stroke-dasharray="5,2" d="M144,-293.894C144,-288.118 144,-281.583 144,-275.265"/>
<polygon fill="black" stroke="black" points="147.5,-275.009 144,-265.009 140.5,-275.009 147.5,-275.009"/>
<text text-anchor="middle" x="139.774" y="-282.231" font-family="Arial Bold Italic" font-size="9.00">1</text>
</g>
<!-- _1_1_0 -->
<g id="node30" class="node"><title>_1_1_0</title>
<a xlink:href="option.ballfollowing.html#state_right_pseudo-code_1_1_0" xlink:title="Ball is\nleft">
<polygon fill="#ffffff" stroke="black" points="99,-265 45,-265 45,-229 99,-229 99,-265"/>
<text text-anchor="middle" x="72" y="-249.9" font-family="Arial Italic" font-size="9.00">Ball is</text>
<text text-anchor="middle" x="72" y="-238.9" font-family="Arial Italic" font-size="9.00">left</text>
</a>
</g>
<!-- _1_0&#45;&gt;_1_1_0 -->
<g id="edge30" class="edge"><title>_1_0&#45;&gt;_1_1_0</title>
<path fill="none" stroke="black" stroke-dasharray="5,2" d="M123.944,-293.894C116.376,-287.062 107.63,-279.166 99.4985,-271.825"/>
<polygon fill="black" stroke="black" points="101.717,-269.112 91.9485,-265.009 97.0258,-274.308 101.717,-269.112"/>
<text text-anchor="middle" x="114.385" y="-288.358" font-family="Arial Bold Italic" font-size="9.00">0</text>
</g>
<!-- _1_0_0&#45;&gt;state_preparekick -->
<g id="edge19" class="edge"><title>_1_0_0&#45;&gt;state_preparekick</title>
<path fill="none" stroke="black" stroke-dasharray="5,2" d="M154.153,-228.784C169.921,-200.495 200.722,-145.235 222.291,-106.537"/>
<polygon fill="black" stroke="black" points="225.476,-108.011 227.288,-97.5717 219.362,-104.602 225.476,-108.011"/>
<text text-anchor="middle" x="154.874" y="-216.71" font-family="Times Roman,serif" font-size="9.00">1</text>
</g>
<!-- _1_0_0&#45;&gt;state_forward -->
<g id="edge23" class="edge"><title>_1_0_0&#45;&gt;state_forward</title>
<path fill="none" stroke="black" stroke-dasharray="5,2" d="M145.891,-228.784C148.946,-199.366 155.028,-140.779 159.056,-101.984"/>
<polygon fill="black" stroke="black" points="162.582,-101.915 160.134,-91.6075 155.62,-101.193 162.582,-101.915"/>
<text text-anchor="middle" x="142.624" y="-217.233" font-family="Times Roman,serif" font-size="9.00">0</text>
</g>
<!-- _1_1_0&#45;&gt;state_left -->
<g id="edge28" class="edge"><title>_1_1_0&#45;&gt;state_left</title>
<path fill="none" stroke="black" stroke-dasharray="5,2" d="M90.6112,-228.578C97.4723,-220.521 104.436,-210.513 108,-200 120.254,-163.85 113.879,-119.231 107.492,-91.1867"/>
<polygon fill="black" stroke="black" points="110.852,-90.1889 105.083,-81.3023 104.051,-91.8467 110.852,-90.1889"/>
<text text-anchor="middle" x="93.1573" y="-216.808" font-family="Times Roman,serif" font-size="9.00">1</text>
</g>
<!-- _1_1_1_0 -->
<g id="node34" class="node"><title>_1_1_1_0</title>
<a xlink:href="option.ballfollowing.html#state_right_pseudo-code_1_1_1_0" xlink:title="Ball is\nright">
<polygon fill="#ffffff" stroke="black" points="99,-200 45,-200 45,-164 99,-164 99,-200"/>
<text text-anchor="middle" x="72" y="-184.9" font-family="Arial Italic" font-size="9.00">Ball is</text>
<text text-anchor="middle" x="72" y="-173.9" font-family="Arial Italic" font-size="9.00">right</text>
</a>
</g>
<!-- _1_1_0&#45;&gt;_1_1_1_0 -->
<g id="edge35" class="edge"><title>_1_1_0&#45;&gt;_1_1_1_0</title>
<path fill="none" stroke="black" stroke-dasharray="5,2" d="M72,-228.894C72,-223.118 72,-216.583 72,-210.265"/>
<polygon fill="black" stroke="black" points="75.5001,-210.009 72,-200.009 68.5001,-210.009 75.5001,-210.009"/>
<text text-anchor="middle" x="67.7738" y="-217.231" font-family="Arial Bold Italic" font-size="9.00">0</text>
</g>
<!-- _1_1_1_0&#45;&gt;state_right -->
<g id="edge37" class="edge"><title>_1_1_1_0&#45;&gt;state_right</title>
<path fill="none" stroke="black" d="M62.6503,-163.821C56.411,-145.487 49.2854,-116.838 45.3195,-94.9263"/>
<polygon fill="black" stroke="black" points="48.7274,-94.081 43.6442,-84.7853 41.821,-95.222 48.7274,-94.081"/>
<text text-anchor="middle" x="55.8164" y="-154.421" font-family="Times Roman,serif" font-size="9.00">0</text>
</g>
<!-- _1_1_1_0&#45;&gt;state_right -->
<g id="edge33" class="edge"><title>_1_1_1_0&#45;&gt;state_right</title>
<path fill="none" stroke="black" stroke-dasharray="5,2" d="M72.7224,-163.821C70.1482,-144.648 63.1896,-114.193 56.4744,-91.9605"/>
<polygon fill="black" stroke="black" points="59.7963,-90.8573 53.4227,-82.394 53.1274,-92.9847 59.7963,-90.8573"/>
<text text-anchor="middle" x="67.214" y="-153.375" font-family="Times Roman,serif" font-size="9.00">1</text>
</g>
</g>
</svg>
