<?xml version="1.0" encoding="UTF-8" standalone="no"?>
<!DOCTYPE svg PUBLIC "-//W3C//DTD SVG 1.1//EN"
 "http://www.w3.org/Graphics/SVG/1.1/DTD/svg11.dtd">
<!-- Generated by graphviz version 2.26.3 (20100126.1600)
 -->
<!-- Title: g Pages: 1 -->
<svg width="238pt" height="362pt"
 viewBox="0.00 0.00 238.00 362.00" xmlns="http://www.w3.org/2000/svg" xmlns:xlink="http://www.w3.org/1999/xlink">
<g id="graph1" class="graph" transform="scale(1 1) rotate(0) translate(4 358)">
<title>g</title>
<polygon fill="white" stroke="white" points="-4,5 -4,-358 235,-358 235,5 -4,5"/>
<g id="graph2" class="cluster"><title>cluster_option</title>
<polygon fill="#f4f4f4" stroke="black" points="8,-8 8,-346 222,-346 222,-8 8,-8"/>
<text text-anchor="middle" x="115" y="-331.2" font-family="Arial" font-size="12.00" fill="#005a9c">option begin</text>
</g>
<g id="graph3" class="cluster"><title>cluster_states</title>
<polygon fill="#f4f4f4" stroke="#f4f4f4" points="16,-16 16,-92 214,-92 214,-16 16,-16"/>
</g>
<g id="graph7" class="cluster"><title>cluster_decision_tree</title>
<polygon fill="#ffffff" stroke="black" points="70,-136 70,-315 148,-315 148,-136 70,-136"/>
<text text-anchor="middle" x="109" y="-300.2" font-family="Arial" font-size="12.00" fill="#005a9c">state play</text>
</g>
<!-- state__reset -->
<g id="node4" class="node"><title>state__reset</title>
<a xlink:href="option.begin.html#state__reset" xlink:title="_reset">
<ellipse fill="#ffffff" stroke="black" cx="181" cy="-54" rx="24.8162" ry="25.3125"/>
<text text-anchor="middle" x="181" y="-51.4" font-family="Arial" font-size="9.00" fill="#005a9c">_reset</text>
</a>
</g>
<!-- state_play -->
<g id="node6" class="node"><title>state_play</title>
<ellipse fill="none" stroke="black" stroke-dasharray="5,2" cx="43" cy="-54" rx="18.9278" ry="19.4259"/>
<text text-anchor="middle" x="43" y="-51.4" font-family="Arial" font-size="9.00" fill="#005a9c">play</text>
</g>
<!-- state_initialize -->
<g id="node8" class="node"><title>state_initialize</title>
<a xlink:href="option.begin.html#state_initialize" xlink:title="initialize">
<ellipse fill="#ffffff" stroke="black" cx="109" cy="-54" rx="28.9343" ry="29.4331"/>
<polyline fill="none" stroke="black" points="128.181,-76.125 89.8194,-76.125 "/>
<polyline fill="none" stroke="black" points="128.181,-31.875 89.8194,-31.875 "/>
<text text-anchor="middle" x="109" y="-51.4" font-family="Arial" font-size="9.00" fill="#005a9c">initialize</text>
</a>
</g>
<!-- start -->
<g id="node11" class="node"><title>start</title>
<ellipse fill="black" stroke="black" cx="111" cy="-282" rx="1.8" ry="1.8"/>
</g>
<!-- _0 -->
<g id="node13" class="node"><title>_0</title>
<a xlink:href="option.begin.html#state_play_pseudo-code_0" xlink:title="If reset\nflag is\ntrue">
<polygon fill="#ffffff" stroke="black" points="138,-250.5 84,-250.5 84,-209.5 138,-209.5 138,-250.5"/>
<text text-anchor="middle" x="111" y="-238.4" font-family="Arial" font-size="9.00">If reset</text>
<text text-anchor="middle" x="111" y="-227.4" font-family="Arial" font-size="9.00">flag is</text>
<text text-anchor="middle" x="111" y="-216.4" font-family="Arial" font-size="9.00">true</text>
</a>
</g>
<!-- start&#45;&gt;_0 -->
<g id="edge12" class="edge"><title>start&#45;&gt;_0</title>
<path fill="none" stroke="black" d="M111,-279.766C111,-276.212 111,-268.851 111,-260.855"/>
<polygon fill="black" stroke="black" points="114.5,-260.626 111,-250.626 107.5,-260.626 114.5,-260.626"/>
</g>
<!-- _0&#45;&gt;state__reset -->
<g id="edge10" class="edge"><title>_0&#45;&gt;state__reset</title>
<path fill="none" stroke="black" d="M129.68,-209.34C136.603,-200.772 143.98,-190.41 149,-180 162.871,-151.233 171.185,-115.771 175.847,-89.8042"/>
<polygon fill="black" stroke="black" points="179.346,-90.0994 177.57,-79.6545 172.445,-88.9271 179.346,-90.0994"/>
<text text-anchor="middle" x="132.018" y="-197.517" font-family="Times Roman,serif" font-size="9.00">1</text>
</g>
<!-- _1_0 -->
<g id="node17" class="node"><title>_1_0</title>
<a xlink:href="option.begin.html#state_play_pseudo-code_1_0" xlink:title="If initialized">
<polygon fill="#ffffff" stroke="black" points="140,-180 78,-180 78,-144 140,-144 140,-180"/>
<text text-anchor="middle" x="109" y="-159.4" font-family="Arial" font-size="9.00">If initialized</text>
</a>
</g>
<!-- _0&#45;&gt;_1_0 -->
<g id="edge17" class="edge"><title>_0&#45;&gt;_1_0</title>
<path fill="none" stroke="black" d="M110.389,-209.228C110.215,-203.323 110.023,-196.787 109.838,-190.508"/>
<polygon fill="black" stroke="black" points="113.332,-190.233 109.539,-180.34 106.335,-190.439 113.332,-190.233"/>
<text text-anchor="middle" x="105.898" y="-197.693" font-family="Arial Bold" font-size="9.00">0</text>
</g>
<!-- _1_0&#45;&gt;state_play -->
<g id="edge15" class="edge"><title>_1_0&#45;&gt;state_play</title>
<path fill="none" stroke="black" d="M97.804,-143.679C87.0092,-126.015 70.5803,-99.1314 58.5246,-79.4039"/>
<polygon fill="black" stroke="black" points="61.3666,-77.3424 53.1656,-70.6346 55.3937,-80.9926 61.3666,-77.3424"/>
<text text-anchor="middle" x="89.4719" y="-136.05" font-family="Times Roman,serif" font-size="9.00">1</text>
</g>
<!-- _1_0&#45;&gt;state_initialize -->
<g id="edge19" class="edge"><title>_1_0&#45;&gt;state_initialize</title>
<path fill="none" stroke="black" d="M109,-143.679C109,-130.123 109,-111.138 109,-94.1238"/>
<polygon fill="black" stroke="black" points="112.5,-93.851 109,-83.8511 105.5,-93.8511 112.5,-93.851"/>
<text text-anchor="middle" x="104.774" y="-132.516" font-family="Times Roman,serif" font-size="9.00">0</text>
</g>
</g>
</svg>
