<?xml version="1.0" encoding="UTF-8" standalone="no"?>
<!DOCTYPE svg PUBLIC "-//W3C//DTD SVG 1.1//EN"
 "http://www.w3.org/Graphics/SVG/1.1/DTD/svg11.dtd">
<!-- Generated by graphviz version 2.26.3 (20100126.1600)
 -->
<!-- Title: g Pages: 1 -->
<svg width="746pt" height="531pt"
 viewBox="0.00 0.00 746.00 531.00" xmlns="http://www.w3.org/2000/svg" xmlns:xlink="http://www.w3.org/1999/xlink">
<g id="graph1" class="graph" transform="scale(1 1) rotate(0) translate(4 527)">
<title>g</title>
<polygon fill="white" stroke="white" points="-4,5 -4,-527 743,-527 743,5 -4,5"/>
<g id="graph2" class="cluster"><title>cluster_option</title>
<polygon fill="#f4f4f4" stroke="black" points="8,-268 8,-515 302,-515 302,-268 8,-268"/>
<text text-anchor="middle" x="155" y="-500.2" font-family="Arial" font-size="12.00" fill="#005a9c">option referee</text>
</g>
<g id="graph11" class="cluster"><title>cluster_option_tree</title>
<polygon fill="none" stroke="#ffffff" points="310,-8 310,-320 730,-320 730,-8 310,-8"/>
</g>
<!-- state_playing -->
<g id="node4" class="node"><title>state_playing</title>
<a xlink:href="option.referee.html#state_playing" xlink:title="playing">
<ellipse fill="#ffffff" stroke="black" cx="229" cy="-457" rx="27.0785" ry="27.0785"/>
<text text-anchor="middle" x="229" y="-454.4" font-family="Arial" font-size="9.00" fill="#005a9c">playing</text>
</a>
</g>
<!-- state_playing&#45;&gt;state_playing -->
<g id="edge11" class="edge"><title>state_playing&#45;&gt;state_playing</title>
<path fill="none" stroke="black" d="M251.427,-472.053C265.08,-475.539 278,-470.521 278,-457 278,-446.965 270.883,-441.613 261.632,-440.946"/>
<polygon fill="black" stroke="black" points="261.038,-437.488 251.427,-441.947 261.721,-444.454 261.038,-437.488"/>
</g>
<!-- state_finished -->
<g id="node7" class="node"><title>state_finished</title>
<a xlink:href="option.referee.html#state_finished" xlink:title="finished">
<ellipse fill="#ffffff" stroke="black" cx="45" cy="-371" rx="28.9343" ry="29.4331"/>
<text text-anchor="middle" x="45" y="-368.4" font-family="Arial" font-size="9.00" fill="#005a9c">finished</text>
</a>
</g>
<!-- state_playing&#45;&gt;state_finished -->
<g id="edge15" class="edge"><title>state_playing&#45;&gt;state_finished</title>
<path fill="none" stroke="black" d="M202.995,-449.176C174.776,-438.647 129.762,-419.138 92,-401 87.2051,-398.697 82.2193,-396.23 77.3416,-393.737"/>
<polygon fill="black" stroke="black" points="78.6571,-390.476 68.1731,-388.947 75.4155,-396.68 78.6571,-390.476"/>
</g>
<!-- state__initial -->
<g id="node9" class="node"><title>state__initial</title>
<a xlink:href="option.referee.html#state__initial" xlink:title="_initial">
<ellipse fill="#ffffff" stroke="black" cx="140" cy="-371" rx="25.9012" ry="25.9012"/>
<polyline fill="none" stroke="black" points="157.196,-390.5 122.804,-390.5 "/>
<polyline fill="none" stroke="black" points="157.196,-351.5 122.804,-351.5 "/>
<text text-anchor="middle" x="140" y="-368.4" font-family="Arial" font-size="9.00" fill="#005a9c">_initial</text>
</a>
</g>
<!-- state_playing&#45;&gt;state__initial -->
<g id="edge13" class="edge"><title>state_playing&#45;&gt;state__initial</title>
<path fill="none" stroke="black" d="M206.591,-441.625C192.877,-430.048 175.653,-413.837 162.033,-399.867"/>
<polygon fill="black" stroke="black" points="164.32,-397.194 154.882,-392.379 159.258,-402.028 164.32,-397.194"/>
</g>
<!-- state_ready -->
<g id="node11" class="node"><title>state_ready</title>
<a xlink:href="option.referee.html#state_ready" xlink:title="ready">
<ellipse fill="#ffffff" stroke="black" cx="229" cy="-371" rx="22.9579" ry="22.9579"/>
<text text-anchor="middle" x="229" y="-368.4" font-family="Arial" font-size="9.00" fill="#005a9c">ready</text>
</a>
</g>
<!-- state_playing&#45;&gt;state_ready -->
<g id="edge17" class="edge"><title>state_playing&#45;&gt;state_ready</title>
<path fill="none" stroke="black" d="M221.332,-430.73C220.699,-422.067 220.582,-412.331 220.983,-403.273"/>
<polygon fill="black" stroke="black" points="224.491,-403.274 221.69,-393.056 217.507,-402.791 224.491,-403.274"/>
</g>
<!-- state_set -->
<g id="node14" class="node"><title>state_set</title>
<a xlink:href="option.referee.html#state_set" xlink:title="set">
<ellipse fill="#ffffff" stroke="black" cx="184" cy="-294" rx="18" ry="18"/>
<text text-anchor="middle" x="184" y="-291.4" font-family="Arial" font-size="9.00" fill="#005a9c">set</text>
</a>
</g>
<!-- state_playing&#45;&gt;state_set -->
<g id="edge19" class="edge"><title>state_playing&#45;&gt;state_set</title>
<path fill="none" stroke="black" d="M245.871,-435.6C254.875,-426.165 264.811,-414.214 270,-401 279.747,-376.179 284.16,-363.596 270,-341 256.824,-319.974 231.274,-308.12 211.232,-301.578"/>
<polygon fill="black" stroke="black" points="212.215,-298.219 201.631,-298.698 210.204,-304.924 212.215,-298.219"/>
</g>
<!-- option_begin -->
<g id="node42" class="node"><title>option_begin</title>
<a xlink:href="option.begin.html" xlink:title="begin">
<polygon fill="#ffffff" stroke="black" points="490,-312 436,-312 436,-276 490,-276 490,-312"/>
<text text-anchor="middle" x="463" y="-291.4" font-family="Arial" font-size="9.00" fill="#005a9c">begin</text>
</a>
</g>
<!-- state_playing&#45;&gt;option_begin -->
<g id="edge93" class="edge"><title>state_playing&#45;&gt;option_begin</title>
<path fill="none" stroke="#808080" stroke-dasharray="5,2" d="M251.437,-441.371C292.977,-412.435 382.018,-350.41 430.283,-316.79"/>
<polygon fill="#808080" stroke="#808080" points="432.133,-318.914 437.097,-312.043 428.932,-314.319 432.133,-318.914"/>
</g>
<!-- state_finished&#45;&gt;state_playing -->
<g id="edge21" class="edge"><title>state_finished&#45;&gt;state_playing</title>
<path fill="none" stroke="black" d="M72.6387,-380.737C85.5121,-386.747 100.511,-394.521 114,-401 141.689,-414.3 173.278,-428.337 196.514,-439.03"/>
<polygon fill="black" stroke="black" points="195.066,-442.217 205.611,-443.249 198.012,-435.866 195.066,-442.217"/>
</g>
<!-- state_finished&#45;&gt;state_finished -->
<g id="edge25" class="edge"><title>state_finished&#45;&gt;state_finished</title>
<path fill="none" stroke="black" d="M70.7163,-384.749C84.0137,-386.864 96,-382.281 96,-371 96,-362.715 89.5357,-358.043 80.8351,-356.983"/>
<polygon fill="black" stroke="black" points="80.6202,-353.488 70.7163,-357.251 80.8055,-360.485 80.6202,-353.488"/>
</g>
<!-- state_finished&#45;&gt;state__initial -->
<g id="edge23" class="edge"><title>state_finished&#45;&gt;state__initial</title>
<path fill="none" stroke="black" d="M69.1211,-354.235C82.5436,-348.08 95.966,-347.226 109.388,-351.672"/>
<polygon fill="black" stroke="black" points="108.107,-354.93 118.681,-355.597 110.831,-348.482 108.107,-354.93"/>
</g>
<!-- state_finished&#45;&gt;state_ready -->
<g id="edge27" class="edge"><title>state_finished&#45;&gt;state_ready</title>
<path fill="none" stroke="black" d="M68.2545,-389.167C80.0552,-397.245 95.0345,-405.855 110,-410 143.409,-419.254 155.809,-422.865 188,-410 195.275,-407.093 201.996,-402.212 207.803,-396.869"/>
<polygon fill="black" stroke="black" points="210.597,-399.02 215.12,-389.44 205.609,-394.109 210.597,-399.02"/>
</g>
<!-- state_finished&#45;&gt;state_set -->
<g id="edge29" class="edge"><title>state_finished&#45;&gt;state_set</title>
<path fill="none" stroke="black" d="M68.8575,-353.911C93.7098,-339.061 132.091,-317.978 157.783,-305.187"/>
<polygon fill="black" stroke="black" points="159.495,-308.247 166.954,-300.722 156.431,-301.953 159.495,-308.247"/>
</g>
<!-- state__initial&#45;&gt;state_playing -->
<g id="edge31" class="edge"><title>state__initial&#45;&gt;state_playing</title>
<path fill="none" stroke="black" d="M161.69,-385.77C175.254,-397.162 192.439,-413.289 206.171,-427.318"/>
<polygon fill="black" stroke="black" points="203.951,-430.06 213.399,-434.853 209.002,-425.214 203.951,-430.06"/>
</g>
<!-- state__initial&#45;&gt;state_finished -->
<g id="edge35" class="edge"><title>state__initial&#45;&gt;state_finished</title>
<path fill="none" stroke="black" d="M118.681,-386.403C105.388,-393.229 92.0942,-394.856 78.8008,-391.285"/>
<polygon fill="black" stroke="black" points="79.7152,-387.893 69.1211,-387.765 77.3232,-394.472 79.7152,-387.893"/>
</g>
<!-- state__initial&#45;&gt;state__initial -->
<g id="edge33" class="edge"><title>state__initial&#45;&gt;state__initial</title>
<path fill="none" stroke="black" d="M162.716,-384.467C175.811,-387.216 188,-382.727 188,-371 188,-362.388 181.426,-357.68 172.748,-356.875"/>
<polygon fill="black" stroke="black" points="172.466,-353.385 162.716,-357.533 172.924,-360.37 172.466,-353.385"/>
</g>
<!-- state__initial&#45;&gt;state_ready -->
<g id="edge37" class="edge"><title>state__initial&#45;&gt;state_ready</title>
<path fill="none" stroke="black" d="M161.902,-356.529C174.768,-350.803 187.633,-349.967 200.499,-354.02"/>
<polygon fill="black" stroke="black" points="199.285,-357.305 209.867,-357.836 201.926,-350.823 199.285,-357.305"/>
</g>
<!-- state__initial&#45;&gt;state_set -->
<g id="edge39" class="edge"><title>state__initial&#45;&gt;state_set</title>
<path fill="none" stroke="black" d="M146.61,-345.787C151.653,-335.713 158.33,-324.256 164.773,-314.683"/>
<polygon fill="black" stroke="black" points="167.636,-316.696 170.57,-306.516 161.927,-312.644 167.636,-316.696"/>
</g>
<!-- state_ready&#45;&gt;state_playing -->
<g id="edge41" class="edge"><title>state_ready&#45;&gt;state_playing</title>
<path fill="none" stroke="black" d="M236.31,-393.056C237.124,-401.405 237.409,-411.147 237.166,-420.473"/>
<polygon fill="black" stroke="black" points="233.658,-420.572 236.668,-430.73 240.649,-420.912 233.658,-420.572"/>
</g>
<!-- state_ready&#45;&gt;state_finished -->
<g id="edge45" class="edge"><title>state_ready&#45;&gt;state_finished</title>
<path fill="none" stroke="black" d="M215.849,-390.177C207.311,-400.851 195.154,-413.137 181,-419 154.721,-429.885 144.224,-427.243 117,-419 101.93,-414.437 87.1303,-405.564 74.9064,-396.676"/>
<polygon fill="black" stroke="black" points="76.9613,-393.841 66.8834,-390.572 72.7231,-399.413 76.9613,-393.841"/>
</g>
<!-- state_ready&#45;&gt;state__initial -->
<g id="edge43" class="edge"><title>state_ready&#45;&gt;state__initial</title>
<path fill="none" stroke="black" d="M209.867,-384.164C197.126,-390.529 184.386,-392.098 171.645,-388.873"/>
<polygon fill="black" stroke="black" points="172.497,-385.463 161.902,-385.471 170.19,-392.072 172.497,-385.463"/>
</g>
<!-- state_ready&#45;&gt;state_ready -->
<g id="edge47" class="edge"><title>state_ready&#45;&gt;state_ready</title>
<path fill="none" stroke="black" d="M248.427,-383.994C261.386,-387.652 274,-383.32 274,-371 274,-361.952 267.197,-357.213 258.451,-356.782"/>
<polygon fill="black" stroke="black" points="257.929,-353.32 248.427,-358.006 258.777,-360.268 257.929,-353.32"/>
</g>
<!-- state_ready&#45;&gt;state_set -->
<g id="edge49" class="edge"><title>state_ready&#45;&gt;state_set</title>
<path fill="none" stroke="black" d="M212.568,-354.67C205.482,-344.875 197.72,-332.176 191.829,-320.93"/>
<polygon fill="black" stroke="black" points="194.944,-319.333 187.375,-311.92 188.669,-322.435 194.944,-319.333"/>
</g>
<!-- state_set&#45;&gt;state_playing -->
<g id="edge51" class="edge"><title>state_set&#45;&gt;state_playing</title>
<path fill="none" stroke="black" d="M201.938,-295.635C227.898,-299.34 272.921,-310.555 292,-341 306.16,-363.596 301.747,-376.179 292,-401 286.073,-416.094 273.952,-429.54 261.705,-439.472"/>
<polygon fill="black" stroke="black" points="259.604,-436.673 253.703,-445.472 263.803,-442.273 259.604,-436.673"/>
</g>
<!-- state_set&#45;&gt;state_finished -->
<g id="edge55" class="edge"><title>state_set&#45;&gt;state_finished</title>
<path fill="none" stroke="black" d="M169.557,-305.355C148.54,-318.455 109.751,-340.09 80.887,-354.917"/>
<polygon fill="black" stroke="black" points="79.2367,-351.829 71.8994,-359.472 82.4014,-358.073 79.2367,-351.829"/>
</g>
<!-- state_set&#45;&gt;state__initial -->
<g id="edge53" class="edge"><title>state_set&#45;&gt;state__initial</title>
<path fill="none" stroke="black" d="M180.929,-311.759C176.738,-321.159 170.313,-332.91 163.681,-343.462"/>
<polygon fill="black" stroke="black" points="160.662,-341.684 158.107,-351.966 166.516,-345.522 160.662,-341.684"/>
</g>
<!-- state_set&#45;&gt;state_ready -->
<g id="edge57" class="edge"><title>state_set&#45;&gt;state_ready</title>
<path fill="none" stroke="black" d="M197.572,-306.489C204.412,-315.391 212.271,-327.779 218.62,-339.321"/>
<polygon fill="black" stroke="black" points="215.593,-341.085 223.339,-348.314 221.792,-337.833 215.593,-341.085"/>
</g>
<!-- state_set&#45;&gt;state_set -->
<g id="edge59" class="edge"><title>state_set&#45;&gt;state_set</title>
<path fill="none" stroke="black" d="M199.186,-304.312C211.396,-308.438 224,-305 224,-294 224,-286.094 217.489,-282.094 209.292,-282.002"/>
<polygon fill="black" stroke="black" points="208.473,-278.59 199.186,-283.688 209.625,-285.494 208.473,-278.59"/>
</g>
<!-- option_ballfound -->
<g id="node44" class="node"><title>option_ballfound</title>
<a xlink:href="option.ballfound.html" xlink:title="ballfound">
<polygon fill="#ffffff" stroke="black" points="372,-247 318,-247 318,-211 372,-211 372,-247"/>
<text text-anchor="middle" x="345" y="-226.4" font-family="Arial" font-size="9.00" fill="#005a9c">ballfound</text>
</a>
</g>
<!-- option_begin&#45;&gt;option_ballfound -->
<g id="edge73" class="edge"><title>option_begin&#45;&gt;option_ballfound</title>
<path fill="none" stroke="#808080" d="M435.928,-279.088C419.258,-269.905 397.721,-258.041 379.792,-248.165"/>
<polygon fill="#808080" stroke="#808080" points="380.712,-245.475 372.354,-244.068 378.01,-250.381 380.712,-245.475"/>
</g>
<!-- option_reset -->
<g id="node50" class="node"><title>option_reset</title>
<a xlink:href="option.reset.html" xlink:title="reset">
<polygon fill="#ffffff" stroke="black" points="448,-247 394,-247 394,-211 448,-211 448,-247"/>
<text text-anchor="middle" x="421" y="-226.4" font-family="Arial" font-size="9.00" fill="#005a9c">reset</text>
</a>
</g>
<!-- option_begin&#45;&gt;option_reset -->
<g id="edge75" class="edge"><title>option_begin&#45;&gt;option_reset</title>
<path fill="none" stroke="#808080" d="M451.301,-275.894C446.932,-269.132 441.89,-261.329 437.188,-254.052"/>
<polygon fill="#808080" stroke="#808080" points="439.33,-252.209 432.637,-247.009 434.627,-255.248 439.33,-252.209"/>
</g>
<!-- basic_behavior_doInitialize -->
<g id="node58" class="node"><title>basic_behavior_doInitialize</title>
<a xlink:href="basic-behaviors.myBasicBehaviors.html#doInitialize" xlink:title="doInitialize">
<ellipse fill="#ffffff" stroke="black" cx="505" cy="-229" rx="34.8223" ry="18"/>
<text text-anchor="middle" x="505" y="-226.4" font-family="Arial" font-size="9.00" fill="#005a9c">doInitialize</text>
</a>
</g>
<!-- option_begin&#45;&gt;basic_behavior_doInitialize -->
<g id="edge77" class="edge"><title>option_begin&#45;&gt;basic_behavior_doInitialize</title>
<path fill="none" stroke="#808080" d="M474.699,-275.894C479.308,-268.761 484.666,-260.47 489.583,-252.86"/>
<polygon fill="#808080" stroke="#808080" points="491.951,-254.354 493.941,-246.115 487.247,-251.315 491.951,-254.354"/>
</g>
<!-- basic_behavior_doUpdate -->
<g id="node60" class="node"><title>basic_behavior_doUpdate</title>
<a xlink:href="basic-behaviors.myBasicBehaviors.html#doUpdate" xlink:title="doUpdate">
<ellipse fill="#ffffff" stroke="black" cx="595" cy="-229" rx="33.053" ry="18"/>
<text text-anchor="middle" x="595" y="-226.4" font-family="Arial" font-size="9.00" fill="#005a9c">doUpdate</text>
</a>
</g>
<!-- option_begin&#45;&gt;basic_behavior_doUpdate -->
<g id="edge79" class="edge"><title>option_begin&#45;&gt;basic_behavior_doUpdate</title>
<path fill="none" stroke="#808080" d="M490.031,-280.689C511.174,-270.278 540.629,-255.773 562.958,-244.778"/>
<polygon fill="#808080" stroke="#808080" points="564.295,-247.241 570.235,-241.195 561.821,-242.217 564.295,-247.241"/>
</g>
<!-- basic_behavior_doFindBall -->
<g id="node62" class="node"><title>basic_behavior_doFindBall</title>
<a xlink:href="basic-behaviors.myBasicBehaviors.html#doFindBall" xlink:title="doFindBall">
<ellipse fill="#ffffff" stroke="black" cx="686" cy="-229" rx="35.9084" ry="18"/>
<text text-anchor="middle" x="686" y="-226.4" font-family="Arial" font-size="9.00" fill="#005a9c">doFindBall</text>
</a>
</g>
<!-- option_begin&#45;&gt;basic_behavior_doFindBall -->
<g id="edge81" class="edge"><title>option_begin&#45;&gt;basic_behavior_doFindBall</title>
<path fill="none" stroke="#808080" d="M490.092,-287.701C524.874,-279.4 586.951,-263.865 639,-247 642.652,-245.817 646.435,-244.509 650.197,-243.155"/>
<polygon fill="#808080" stroke="#808080" points="651.302,-245.732 657.838,-240.335 649.363,-240.478 651.302,-245.732"/>
</g>
<!-- option_checkpath -->
<g id="node46" class="node"><title>option_checkpath</title>
<a xlink:href="option.checkpath.html" xlink:title="checkpath">
<polygon fill="#ffffff" stroke="black" points="378,-182 320,-182 320,-146 378,-146 378,-182"/>
<text text-anchor="middle" x="349" y="-161.4" font-family="Arial" font-size="9.00" fill="#005a9c">checkpath</text>
</a>
</g>
<!-- option_ballfound&#45;&gt;option_checkpath -->
<g id="edge83" class="edge"><title>option_ballfound&#45;&gt;option_checkpath</title>
<path fill="none" stroke="#808080" d="M346.114,-210.894C346.504,-204.555 346.951,-197.3 347.374,-190.422"/>
<polygon fill="#808080" stroke="#808080" points="350.195,-190.166 347.892,-182.009 344.606,-189.822 350.195,-190.166"/>
</g>
<!-- basic_behavior_doMakePath -->
<g id="node56" class="node"><title>basic_behavior_doMakePath</title>
<a xlink:href="basic-behaviors.myBasicBehaviors.html#doMakePath" xlink:title="doMakePath">
<ellipse fill="#ffffff" stroke="black" cx="440" cy="-164" rx="40.0291" ry="18"/>
<text text-anchor="middle" x="440" y="-161.4" font-family="Arial" font-size="9.00" fill="#005a9c">doMakePath</text>
</a>
</g>
<!-- option_ballfound&#45;&gt;basic_behavior_doMakePath -->
<g id="edge85" class="edge"><title>option_ballfound&#45;&gt;basic_behavior_doMakePath</title>
<path fill="none" stroke="#808080" d="M371.463,-210.894C383.785,-202.463 398.474,-192.413 411.087,-183.783"/>
<polygon fill="#808080" stroke="#808080" points="412.831,-185.982 417.852,-179.154 409.669,-181.36 412.831,-185.982"/>
</g>
<!-- option_ballfollowing -->
<g id="node48" class="node"><title>option_ballfollowing</title>
<a xlink:href="option.ballfollowing.html" xlink:title="ballfollowing">
<polygon fill="#ffffff" stroke="black" points="386,-117 318,-117 318,-81 386,-81 386,-117"/>
<text text-anchor="middle" x="352" y="-96.4" font-family="Arial" font-size="9.00" fill="#005a9c">ballfollowing</text>
</a>
</g>
<!-- option_checkpath&#45;&gt;option_ballfollowing -->
<g id="edge87" class="edge"><title>option_checkpath&#45;&gt;option_ballfollowing</title>
<path fill="none" stroke="#808080" d="M349.836,-145.894C350.128,-139.555 350.463,-132.3 350.781,-125.422"/>
<polygon fill="#808080" stroke="#808080" points="353.597,-125.13 351.169,-117.009 348.003,-124.871 353.597,-125.13"/>
</g>
<!-- basic_behavior_doPathToWalk -->
<g id="node54" class="node"><title>basic_behavior_doPathToWalk</title>
<a xlink:href="basic-behaviors.myBasicBehaviors.html#doPathToWalk" xlink:title="doPathToWalk">
<ellipse fill="#ffffff" stroke="black" cx="452" cy="-99" rx="44.2357" ry="18"/>
<text text-anchor="middle" x="452" y="-96.4" font-family="Arial" font-size="9.00" fill="#005a9c">doPathToWalk</text>
</a>
</g>
<!-- option_checkpath&#45;&gt;basic_behavior_doPathToWalk -->
<g id="edge89" class="edge"><title>option_checkpath&#45;&gt;basic_behavior_doPathToWalk</title>
<path fill="none" stroke="#808080" d="M377.691,-145.894C391.175,-137.385 407.272,-127.226 421.031,-118.543"/>
<polygon fill="#808080" stroke="#808080" points="422.716,-120.791 427.987,-114.154 419.727,-116.055 422.716,-120.791"/>
</g>
<!-- basic_behavior_moveAcYuttemp -->
<g id="node52" class="node"><title>basic_behavior_moveAcYuttemp</title>
<a xlink:href="basic-behaviors.myBasicBehaviors.html#moveAcYuttemp" xlink:title="moveAcYuttemp">
<ellipse fill="#ffffff" stroke="black" cx="366" cy="-34" rx="47.7727" ry="18"/>
<text text-anchor="middle" x="366" y="-31.4" font-family="Arial" font-size="9.00" fill="#005a9c">moveAcYuttemp</text>
</a>
</g>
<!-- option_ballfollowing&#45;&gt;basic_behavior_moveAcYuttemp -->
<g id="edge91" class="edge"><title>option_ballfollowing&#45;&gt;basic_behavior_moveAcYuttemp</title>
<path fill="none" stroke="#808080" d="M355.9,-80.8939C357.295,-74.414 358.897,-66.9775 360.408,-59.9645"/>
<polygon fill="#808080" stroke="#808080" points="363.174,-60.4193 362.121,-52.009 357.699,-59.2401 363.174,-60.4193"/>
</g>
</g>
</svg>
