<?xml version="1.0" encoding="UTF-8" standalone="no"?>
<!DOCTYPE svg PUBLIC "-//W3C//DTD SVG 1.1//EN"
 "http://www.w3.org/Graphics/SVG/1.1/DTD/svg11.dtd">
<!-- Generated by graphviz version 2.26.3 (20100126.1600)
 -->
<!-- Title: g Pages: 1 -->
<svg width="374pt" height="551pt"
 viewBox="0.00 0.00 374.00 551.00" xmlns="http://www.w3.org/2000/svg" xmlns:xlink="http://www.w3.org/1999/xlink">
<g id="graph1" class="graph" transform="scale(1 1) rotate(0) translate(4 547)">
<title>g</title>
<polygon fill="white" stroke="white" points="-4,5 -4,-547 371,-547 371,5 -4,5"/>
<g id="graph2" class="cluster"><title>cluster_option</title>
<polygon fill="#f4f4f4" stroke="black" points="8,-8 8,-535 358,-535 358,-8 8,-8"/>
<text text-anchor="middle" x="183" y="-520.2" font-family="Arial" font-size="12.00" fill="#005a9c">option referee</text>
</g>
<g id="graph3" class="cluster"><title>cluster_states</title>
<polygon fill="#f4f4f4" stroke="#f4f4f4" points="16,-16 16,-92 350,-92 350,-16 16,-16"/>
</g>
<g id="graph10" class="cluster"><title>cluster_decision_tree</title>
<polygon fill="#ffffff" stroke="black" points="83,-136 83,-504 162,-504 162,-136 83,-136"/>
<text text-anchor="middle" x="122.5" y="-489.2" font-family="Arial" font-size="12.00" fill="#005a9c">state _initial</text>
</g>
<!-- state_playing -->
<g id="node4" class="node"><title>state_playing</title>
<a xlink:href="option.referee.html#state_playing" xlink:title="playing">
<ellipse fill="#ffffff" stroke="black" cx="315" cy="-54" rx="27.0785" ry="27.0785"/>
<text text-anchor="middle" x="315" y="-51.4" font-family="Arial" font-size="9.00" fill="#005a9c">playing</text>
</a>
</g>
<!-- state__initial -->
<g id="node6" class="node"><title>state__initial</title>
<ellipse fill="none" stroke="black" stroke-dasharray="5,2" cx="168" cy="-54" rx="25.9012" ry="25.9012"/>
<polyline fill="none" stroke="black" stroke-dasharray="5,2" points="185.196,-73.5 150.804,-73.5 "/>
<polyline fill="none" stroke="black" stroke-dasharray="5,2" points="185.196,-34.5 150.804,-34.5 "/>
<text text-anchor="middle" x="168" y="-51.4" font-family="Arial" font-size="9.00" fill="#005a9c">_initial</text>
</g>
<!-- state_finished -->
<g id="node8" class="node"><title>state_finished</title>
<a xlink:href="option.referee.html#state_finished" xlink:title="finished">
<ellipse fill="#ffffff" stroke="black" cx="241" cy="-54" rx="28.9343" ry="29.4331"/>
<text text-anchor="middle" x="241" y="-51.4" font-family="Arial" font-size="9.00" fill="#005a9c">finished</text>
</a>
</g>
<!-- state_ready -->
<g id="node10" class="node"><title>state_ready</title>
<a xlink:href="option.referee.html#state_ready" xlink:title="ready">
<ellipse fill="#ffffff" stroke="black" cx="101" cy="-54" rx="22.9579" ry="22.9579"/>
<text text-anchor="middle" x="101" y="-51.4" font-family="Arial" font-size="9.00" fill="#005a9c">ready</text>
</a>
</g>
<!-- state_set -->
<g id="node12" class="node"><title>state_set</title>
<a xlink:href="option.referee.html#state_set" xlink:title="set">
<ellipse fill="#ffffff" stroke="black" cx="42" cy="-54" rx="18" ry="18"/>
<text text-anchor="middle" x="42" y="-51.4" font-family="Arial" font-size="9.00" fill="#005a9c">set</text>
</a>
</g>
<!-- start -->
<g id="node16" class="node"><title>start</title>
<ellipse fill="black" stroke="black" cx="127" cy="-471" rx="1.8" ry="1.8"/>
</g>
<!-- _0 -->
<g id="node18" class="node"><title>_0</title>
<a xlink:href="option.referee.html#state__initial_pseudo-code_0">
<polygon fill="#ffffff" stroke="black" points="154,-440 100,-440 100,-404 154,-404 154,-440"/>
</a>
</g>
<!-- start&#45;&gt;_0 -->
<g id="edge15" class="edge"><title>start&#45;&gt;_0</title>
<path fill="none" stroke="black" stroke-dasharray="5,2" d="M127,-468.895C127,-465.481 127,-458.341 127,-450.638"/>
<polygon fill="black" stroke="black" points="130.5,-450.455 127,-440.455 123.5,-450.455 130.5,-450.455"/>
</g>
<!-- _0&#45;&gt;state_playing -->
<g id="edge13" class="edge"><title>_0&#45;&gt;state_playing</title>
<path fill="none" stroke="black" stroke-dasharray="5,2" d="M154.043,-411.673C195.243,-393.97 269,-353.667 269,-292 269,-292 269,-292 269,-162 269,-134.483 281.796,-105.95 293.89,-85.1262"/>
<polygon fill="black" stroke="black" points="296.979,-86.7825 299.169,-76.4166 290.993,-83.154 296.979,-86.7825"/>
<text text-anchor="middle" x="160.558" y="-401.986" font-family="Times Roman,serif" font-size="9.00">1</text>
</g>
<!-- _1_0 -->
<g id="node22" class="node"><title>_1_0</title>
<a xlink:href="option.referee.html#state__initial_pseudo-code_1_0">
<polygon fill="#ffffff" stroke="black" points="154,-375 100,-375 100,-339 154,-339 154,-375"/>
</a>
</g>
<!-- _0&#45;&gt;_1_0 -->
<g id="edge20" class="edge"><title>_0&#45;&gt;_1_0</title>
<path fill="none" stroke="black" stroke-dasharray="5,2" d="M127,-403.894C127,-398.118 127,-391.583 127,-385.265"/>
<polygon fill="black" stroke="black" points="130.5,-385.009 127,-375.009 123.5,-385.009 130.5,-385.009"/>
<text text-anchor="middle" x="122.774" y="-392.231" font-family="Arial Bold Italic" font-size="9.00">0</text>
</g>
<!-- _1_0&#45;&gt;state__initial -->
<g id="edge18" class="edge"><title>_1_0&#45;&gt;state__initial</title>
<path fill="none" stroke="black" stroke-dasharray="5,2" d="M146.43,-338.769C169.241,-315.293 204,-272.118 204,-227 204,-227 204,-227 204,-162 204,-135.434 194.075,-106.992 184.648,-85.9669"/>
<polygon fill="black" stroke="black" points="187.797,-84.4371 180.389,-76.8622 181.456,-87.4032 187.797,-84.4371"/>
<text text-anchor="middle" x="149.556" y="-327.169" font-family="Times Roman,serif" font-size="9.00">1</text>
</g>
<!-- _1_1_0 -->
<g id="node26" class="node"><title>_1_1_0</title>
<a xlink:href="option.referee.html#state__initial_pseudo-code_1_1_0">
<polygon fill="#ffffff" stroke="black" points="154,-310 100,-310 100,-274 154,-274 154,-310"/>
</a>
</g>
<!-- _1_0&#45;&gt;_1_1_0 -->
<g id="edge25" class="edge"><title>_1_0&#45;&gt;_1_1_0</title>
<path fill="none" stroke="black" stroke-dasharray="5,2" d="M127,-338.894C127,-333.118 127,-326.583 127,-320.265"/>
<polygon fill="black" stroke="black" points="130.5,-320.009 127,-310.009 123.5,-320.009 130.5,-320.009"/>
<text text-anchor="middle" x="122.774" y="-327.231" font-family="Arial Bold Italic" font-size="9.00">0</text>
</g>
<!-- _1_1_0&#45;&gt;state_finished -->
<g id="edge23" class="edge"><title>_1_1_0&#45;&gt;state_finished</title>
<path fill="none" stroke="black" stroke-dasharray="5,2" d="M142.922,-273.596C149.667,-265.231 157.273,-254.986 163,-245 191.91,-194.586 215.506,-131.353 228.911,-91.8011"/>
<polygon fill="black" stroke="black" points="232.244,-92.8718 232.097,-82.2779 225.605,-90.6511 232.244,-92.8718"/>
<text text-anchor="middle" x="145.273" y="-261.776" font-family="Times Roman,serif" font-size="9.00">1</text>
</g>
<!-- _1_1_1_0 -->
<g id="node30" class="node"><title>_1_1_1_0</title>
<a xlink:href="option.referee.html#state__initial_pseudo-code_1_1_1_0">
<polygon fill="#ffffff" stroke="black" points="154,-245 100,-245 100,-209 154,-209 154,-245"/>
</a>
</g>
<!-- _1_1_0&#45;&gt;_1_1_1_0 -->
<g id="edge30" class="edge"><title>_1_1_0&#45;&gt;_1_1_1_0</title>
<path fill="none" stroke="black" stroke-dasharray="5,2" d="M127,-273.894C127,-268.118 127,-261.583 127,-255.265"/>
<polygon fill="black" stroke="black" points="130.5,-255.009 127,-245.009 123.5,-255.009 130.5,-255.009"/>
<text text-anchor="middle" x="122.774" y="-262.231" font-family="Arial Bold Italic" font-size="9.00">0</text>
</g>
<!-- _1_1_1_0&#45;&gt;state_ready -->
<g id="edge28" class="edge"><title>_1_1_1_0&#45;&gt;state_ready</title>
<path fill="none" stroke="black" stroke-dasharray="5,2" d="M140.439,-208.783C145.776,-200.452 151.283,-190.183 154,-180 159.041,-161.105 159.534,-154.756 154,-136 147.848,-115.149 134.558,-94.6096 122.826,-79.3027"/>
<polygon fill="black" stroke="black" points="125.485,-77.022 116.524,-71.3684 120.003,-81.3758 125.485,-77.022"/>
<text text-anchor="middle" x="141.676" y="-196.76" font-family="Times Roman,serif" font-size="9.00">1</text>
</g>
<!-- _1_1_1_1_0 -->
<g id="node34" class="node"><title>_1_1_1_1_0</title>
<a xlink:href="option.referee.html#state__initial_pseudo-code_1_1_1_1_0">
<polygon fill="#ffffff" stroke="black" points="145,-180 91,-180 91,-144 145,-144 145,-180"/>
</a>
</g>
<!-- _1_1_1_0&#45;&gt;_1_1_1_1_0 -->
<g id="edge35" class="edge"><title>_1_1_1_0&#45;&gt;_1_1_1_1_0</title>
<path fill="none" stroke="black" stroke-dasharray="5,2" d="M124.493,-208.894C123.693,-203.118 122.788,-196.583 121.914,-190.265"/>
<polygon fill="black" stroke="black" points="125.332,-189.434 120.494,-180.009 118.398,-190.395 125.332,-189.434"/>
<text text-anchor="middle" x="119.064" y="-197.896" font-family="Arial Bold Italic" font-size="9.00">0</text>
</g>
<!-- _1_1_1_1_0&#45;&gt;state__initial -->
<g id="edge37" class="edge"><title>_1_1_1_1_0&#45;&gt;state__initial</title>
<path fill="none" stroke="black" d="M126.482,-143.679C133.647,-128.202 144.089,-105.648 152.708,-87.0301"/>
<polygon fill="black" stroke="black" points="155.997,-88.2566 157.022,-77.7115 149.645,-85.3157 155.997,-88.2566"/>
<text text-anchor="middle" x="126.454" y="-131.579" font-family="Times Roman,serif" font-size="9.00">0</text>
</g>
<!-- _1_1_1_1_0&#45;&gt;state_set -->
<g id="edge33" class="edge"><title>_1_1_1_1_0&#45;&gt;state_set</title>
<path fill="none" stroke="black" stroke-dasharray="5,2" d="M105.108,-143.679C92.1959,-125.331 72.2841,-97.0352 58.2873,-77.145"/>
<polygon fill="black" stroke="black" points="61.1212,-75.0904 52.5039,-68.9266 55.3965,-79.1189 61.1212,-75.0904"/>
<text text-anchor="middle" x="96.4357" y="-136.6" font-family="Times Roman,serif" font-size="9.00">1</text>
</g>
</g>
</svg>
