<?xml version="1.0" encoding="UTF-8" standalone="no"?>
<!DOCTYPE svg PUBLIC "-//W3C//DTD SVG 1.1//EN"
 "http://www.w3.org/Graphics/SVG/1.1/DTD/svg11.dtd">
<!-- Generated by graphviz version 2.26.3 (20100126.1600)
 -->
<!-- Title: g Pages: 1 -->
<svg width="208pt" height="366pt"
 viewBox="0.00 0.00 208.00 366.00" xmlns="http://www.w3.org/2000/svg" xmlns:xlink="http://www.w3.org/1999/xlink">
<g id="graph1" class="graph" transform="scale(1 1) rotate(0) translate(4 362)">
<title>g</title>
<polygon fill="white" stroke="white" points="-4,5 -4,-362 205,-362 205,5 -4,5"/>
<g id="graph2" class="cluster"><title>cluster_option</title>
<polygon fill="#f4f4f4" stroke="black" points="8,-8 8,-350 192,-350 192,-8 8,-8"/>
<text text-anchor="middle" x="100" y="-335.2" font-family="Arial" font-size="12.00" fill="#005a9c">option checkpath</text>
</g>
<g id="graph3" class="cluster"><title>cluster_states</title>
<polygon fill="#f4f4f4" stroke="#f4f4f4" points="16,-16 16,-102 184,-102 184,-16 16,-16"/>
</g>
<g id="graph7" class="cluster"><title>cluster_decision_tree</title>
<polygon fill="#ffffff" stroke="black" points="20,-146 20,-319 112,-319 112,-146 20,-146"/>
<text text-anchor="middle" x="66" y="-304.2" font-family="Arial" font-size="12.00" fill="#005a9c">state ballfollow</text>
</g>
<!-- state_pathfollow -->
<g id="node4" class="node"><title>state_pathfollow</title>
<a xlink:href="option.checkpath.html#state_pathfollow" xlink:title="pathfollow">
<ellipse fill="#ffffff" stroke="black" cx="142" cy="-59" rx="34.2278" ry="34.7311"/>
<polyline fill="none" stroke="black" points="164.488,-84.875 119.512,-84.875 "/>
<polyline fill="none" stroke="black" points="164.488,-33.125 119.512,-33.125 "/>
<text text-anchor="middle" x="142" y="-56.4" font-family="Arial" font-size="9.00" fill="#005a9c">pathfollow</text>
</a>
</g>
<!-- state_ballfollow -->
<g id="node6" class="node"><title>state_ballfollow</title>
<ellipse fill="none" stroke="black" stroke-dasharray="5,2" cx="57" cy="-59" rx="32.9651" ry="32.9651"/>
<text text-anchor="middle" x="57" y="-56.4" font-family="Arial" font-size="9.00" fill="#005a9c">ballfollow</text>
</g>
<!-- start -->
<g id="node10" class="node"><title>start</title>
<ellipse fill="black" stroke="black" cx="58" cy="-286" rx="1.8" ry="1.8"/>
</g>
<!-- _0 -->
<g id="node12" class="node"><title>_0</title>
<a xlink:href="option.checkpath.html#state_ballfollow_pseudo-code_0">
<polygon fill="#ffffff" stroke="black" points="85,-255 31,-255 31,-219 85,-219 85,-255"/>
</a>
</g>
<!-- start&#45;&gt;_0 -->
<g id="edge12" class="edge"><title>start&#45;&gt;_0</title>
<path fill="none" stroke="black" stroke-dasharray="5,2" d="M58,-283.895C58,-280.481 58,-273.341 58,-265.638"/>
<polygon fill="black" stroke="black" points="61.5001,-265.455 58,-255.455 54.5001,-265.455 61.5001,-265.455"/>
</g>
<!-- _0&#45;&gt;state_pathfollow -->
<g id="edge10" class="edge"><title>_0&#45;&gt;state_pathfollow</title>
<path fill="none" stroke="black" stroke-dasharray="5,2" d="M73.5881,-218.614C80.1662,-210.252 87.5471,-200.005 93,-190 108.301,-161.925 120.826,-128.073 129.382,-101.814"/>
<polygon fill="black" stroke="black" points="132.76,-102.741 132.464,-92.1501 126.091,-100.614 132.76,-102.741"/>
<text text-anchor="middle" x="75.8196" y="-206.766" font-family="Times Roman,serif" font-size="9.00">1</text>
</g>
<!-- _1_0 -->
<g id="node16" class="node"><title>_1_0</title>
<a xlink:href="option.checkpath.html#state_ballfollow_pseudo-code_1_0">
<polygon fill="#ffffff" stroke="black" points="84,-190 30,-190 30,-154 84,-154 84,-190"/>
</a>
</g>
<!-- _0&#45;&gt;_1_0 -->
<g id="edge17" class="edge"><title>_0&#45;&gt;_1_0</title>
<path fill="none" stroke="black" stroke-dasharray="5,2" d="M57.7214,-218.894C57.6326,-213.118 57.532,-206.583 57.4348,-200.265"/>
<polygon fill="black" stroke="black" points="60.9306,-199.954 57.2771,-190.009 53.9314,-200.062 60.9306,-199.954"/>
<text text-anchor="middle" x="53.3563" y="-207.297" font-family="Arial Bold Italic" font-size="9.00">0</text>
</g>
<!-- _1_0&#45;&gt;state_ballfollow -->
<g id="edge15" class="edge"><title>_1_0&#45;&gt;state_ballfollow</title>
<path fill="none" stroke="black" stroke-dasharray="5,2" d="M51.8852,-153.845C50.4323,-139.802 49.9476,-119.777 50.4311,-101.743"/>
<polygon fill="black" stroke="black" points="53.9304,-101.824 50.8133,-91.6985 46.9355,-101.558 53.9304,-101.824"/>
<text text-anchor="middle" x="46.8397" y="-143.111" font-family="Times Roman,serif" font-size="9.00">1</text>
</g>
<!-- _1_0&#45;&gt;state_ballfollow -->
<g id="edge19" class="edge"><title>_1_0&#45;&gt;state_ballfollow</title>
<path fill="none" stroke="black" d="M62.1148,-153.845C63.5677,-139.802 64.0524,-119.777 63.5689,-101.743"/>
<polygon fill="black" stroke="black" points="67.0645,-101.558 63.1867,-91.6985 60.0696,-101.824 67.0645,-101.558"/>
<text text-anchor="middle" x="58.7441" y="-142.33" font-family="Times Roman,serif" font-size="9.00">0</text>
</g>
</g>
</svg>
