<?xml version="1.0" encoding="UTF-8" standalone="no"?>
<!DOCTYPE svg PUBLIC "-//W3C//DTD SVG 1.1//EN"
 "http://www.w3.org/Graphics/SVG/1.1/DTD/svg11.dtd">
<!-- Generated by graphviz version 2.26.3 (20100126.1600)
 -->
<!-- Title: g Pages: 1 -->
<svg width="110pt" height="236pt"
 viewBox="0.00 0.00 110.00 236.00" xmlns="http://www.w3.org/2000/svg" xmlns:xlink="http://www.w3.org/1999/xlink">
<g id="graph1" class="graph" transform="scale(1 1) rotate(0) translate(4 232)">
<title>g</title>
<polygon fill="white" stroke="white" points="-4,5 -4,-232 107,-232 107,5 -4,5"/>
<g id="graph2" class="cluster"><title>cluster_option</title>
<polygon fill="#f4f4f4" stroke="black" points="16,-135 16,-220 94,-220 94,-135 16,-135"/>
<text text-anchor="middle" x="55" y="-205.2" font-family="Arial" font-size="12.00" fill="#005a9c">option reset</text>
</g>
<g id="graph5" class="cluster"><title>cluster_option_tree</title>
<polygon fill="none" stroke="#ffffff" points="8,-8 8,-60 84,-60 84,-8 8,-8"/>
</g>
<!-- state_reset -->
<g id="node4" class="node"><title>state_reset</title>
<a xlink:href="option.reset.html#state_reset" xlink:title="reset">
<ellipse fill="#ffffff" stroke="black" cx="46" cy="-166" rx="21.8721" ry="22.3692"/>
<polyline fill="none" stroke="black" points="60.5508,-182.875 31.4492,-182.875 "/>
<polyline fill="none" stroke="black" points="60.5508,-149.125 31.4492,-149.125 "/>
<text text-anchor="middle" x="46" y="-163.4" font-family="Arial" font-size="9.00" fill="#005a9c">reset</text>
</a>
</g>
<!-- state_reset&#45;&gt;state_reset -->
<g id="edge5" class="edge"><title>state_reset&#45;&gt;state_reset</title>
<path fill="none" stroke="black" d="M66.3672,-175.141C78.5417,-177.172 90,-174.125 90,-166 90,-160.224 84.2086,-157.014 76.4858,-156.371"/>
<polygon fill="black" stroke="black" points="76.1867,-152.881 66.3672,-156.859 76.5244,-159.873 76.1867,-152.881"/>
</g>
<!-- basic_behavior_doReset -->
<g id="node8" class="node"><title>basic_behavior_doReset</title>
<a xlink:href="basic-behaviors.myBasicBehaviors.html#doReset" xlink:title="doReset">
<ellipse fill="#ffffff" stroke="black" cx="46" cy="-34" rx="30.1087" ry="18"/>
<text text-anchor="middle" x="46" y="-31.4" font-family="Arial" font-size="9.00" fill="#005a9c">doReset</text>
</a>
</g>
<!-- state_reset&#45;&gt;basic_behavior_doReset -->
<g id="edge9" class="edge"><title>state_reset&#45;&gt;basic_behavior_doReset</title>
<path fill="none" stroke="#808080" stroke-dasharray="5,2" d="M46,-143.308C46,-120.23 46,-84.503 46,-60.226"/>
<polygon fill="#808080" stroke="#808080" points="48.8001,-60.156 46,-52.156 43.2001,-60.1561 48.8001,-60.156"/>
</g>
</g>
</svg>
