<?xml version="1.0" encoding="UTF-8" standalone="no"?>
<!DOCTYPE svg PUBLIC "-//W3C//DTD SVG 1.1//EN"
 "http://www.w3.org/Graphics/SVG/1.1/DTD/svg11.dtd">
<!-- Generated by graphviz version 2.26.3 (20100126.1600)
 -->
<!-- Title: g Pages: 1 -->
<svg width="668pt" height="596pt"
 viewBox="0.00 0.00 668.00 596.00" xmlns="http://www.w3.org/2000/svg" xmlns:xlink="http://www.w3.org/1999/xlink">
<g id="graph1" class="graph" transform="scale(1 1) rotate(0) translate(4 592)">
<title>g</title>
<polygon fill="white" stroke="white" points="-4,5 -4,-592 665,-592 665,5 -4,5"/>
<g id="graph2" class="cluster"><title>cluster_option</title>
<polygon fill="#f4f4f4" stroke="black" points="8,-333 8,-580 302,-580 302,-333 8,-333"/>
<text text-anchor="middle" x="155" y="-565.2" font-family="Arial" font-size="12.00" fill="#005a9c">option referee</text>
</g>
<g id="graph11" class="cluster"><title>cluster_option_tree</title>
<polygon fill="none" stroke="#ffffff" points="310,-8 310,-385 652,-385 652,-8 310,-8"/>
</g>
<!-- state_playing -->
<g id="node4" class="node"><title>state_playing</title>
<a xlink:href="option.referee.html#state_playing" xlink:title="playing">
<ellipse fill="#ffffff" stroke="black" cx="229" cy="-522" rx="27.0785" ry="27.0785"/>
<text text-anchor="middle" x="229" y="-519.4" font-family="Arial" font-size="9.00" fill="#005a9c">playing</text>
</a>
</g>
<!-- state_playing&#45;&gt;state_playing -->
<g id="edge11" class="edge"><title>state_playing&#45;&gt;state_playing</title>
<path fill="none" stroke="black" d="M251.427,-537.053C265.08,-540.539 278,-535.521 278,-522 278,-511.965 270.883,-506.613 261.632,-505.946"/>
<polygon fill="black" stroke="black" points="261.038,-502.488 251.427,-506.947 261.721,-509.454 261.038,-502.488"/>
</g>
<!-- state_finished -->
<g id="node7" class="node"><title>state_finished</title>
<a xlink:href="option.referee.html#state_finished" xlink:title="finished">
<ellipse fill="#ffffff" stroke="black" cx="45" cy="-436" rx="28.9343" ry="29.4331"/>
<text text-anchor="middle" x="45" y="-433.4" font-family="Arial" font-size="9.00" fill="#005a9c">finished</text>
</a>
</g>
<!-- state_playing&#45;&gt;state_finished -->
<g id="edge15" class="edge"><title>state_playing&#45;&gt;state_finished</title>
<path fill="none" stroke="black" d="M202.995,-514.176C174.776,-503.647 129.762,-484.138 92,-466 87.2051,-463.697 82.2193,-461.23 77.3416,-458.737"/>
<polygon fill="black" stroke="black" points="78.6571,-455.476 68.1731,-453.947 75.4155,-461.68 78.6571,-455.476"/>
</g>
<!-- state__initial -->
<g id="node9" class="node"><title>state__initial</title>
<a xlink:href="option.referee.html#state__initial" xlink:title="_initial">
<ellipse fill="#ffffff" stroke="black" cx="140" cy="-436" rx="25.9012" ry="25.9012"/>
<polyline fill="none" stroke="black" points="157.196,-455.5 122.804,-455.5 "/>
<polyline fill="none" stroke="black" points="157.196,-416.5 122.804,-416.5 "/>
<text text-anchor="middle" x="140" y="-433.4" font-family="Arial" font-size="9.00" fill="#005a9c">_initial</text>
</a>
</g>
<!-- state_playing&#45;&gt;state__initial -->
<g id="edge13" class="edge"><title>state_playing&#45;&gt;state__initial</title>
<path fill="none" stroke="black" d="M206.591,-506.625C192.877,-495.048 175.653,-478.837 162.033,-464.867"/>
<polygon fill="black" stroke="black" points="164.32,-462.194 154.882,-457.379 159.258,-467.028 164.32,-462.194"/>
</g>
<!-- state_ready -->
<g id="node11" class="node"><title>state_ready</title>
<a xlink:href="option.referee.html#state_ready" xlink:title="ready">
<ellipse fill="#ffffff" stroke="black" cx="229" cy="-436" rx="22.9579" ry="22.9579"/>
<text text-anchor="middle" x="229" y="-433.4" font-family="Arial" font-size="9.00" fill="#005a9c">ready</text>
</a>
</g>
<!-- state_playing&#45;&gt;state_ready -->
<g id="edge17" class="edge"><title>state_playing&#45;&gt;state_ready</title>
<path fill="none" stroke="black" d="M221.332,-495.73C220.699,-487.067 220.582,-477.331 220.983,-468.273"/>
<polygon fill="black" stroke="black" points="224.491,-468.274 221.69,-458.056 217.507,-467.791 224.491,-468.274"/>
</g>
<!-- state_set -->
<g id="node14" class="node"><title>state_set</title>
<a xlink:href="option.referee.html#state_set" xlink:title="set">
<ellipse fill="#ffffff" stroke="black" cx="184" cy="-359" rx="18" ry="18"/>
<text text-anchor="middle" x="184" y="-356.4" font-family="Arial" font-size="9.00" fill="#005a9c">set</text>
</a>
</g>
<!-- state_playing&#45;&gt;state_set -->
<g id="edge19" class="edge"><title>state_playing&#45;&gt;state_set</title>
<path fill="none" stroke="black" d="M245.871,-500.6C254.875,-491.165 264.811,-479.214 270,-466 279.747,-441.179 284.16,-428.596 270,-406 256.824,-384.974 231.274,-373.12 211.232,-366.578"/>
<polygon fill="black" stroke="black" points="212.215,-363.219 201.631,-363.698 210.204,-369.924 212.215,-363.219"/>
</g>
<!-- option_begin -->
<g id="node42" class="node"><title>option_begin</title>
<a xlink:href="option.begin.html" xlink:title="begin">
<polygon fill="#ffffff" stroke="black" points="464,-377 410,-377 410,-341 464,-341 464,-377"/>
<text text-anchor="middle" x="437" y="-356.4" font-family="Arial" font-size="9.00" fill="#005a9c">begin</text>
</a>
</g>
<!-- state_playing&#45;&gt;option_begin -->
<g id="edge99" class="edge"><title>state_playing&#45;&gt;option_begin</title>
<path fill="none" stroke="#808080" stroke-dasharray="5,2" d="M250.476,-505.17C287.817,-475.908 364.772,-415.602 407.236,-382.325"/>
<polygon fill="#808080" stroke="#808080" points="409.174,-384.363 413.744,-377.225 405.72,-379.956 409.174,-384.363"/>
</g>
<!-- state_finished&#45;&gt;state_playing -->
<g id="edge21" class="edge"><title>state_finished&#45;&gt;state_playing</title>
<path fill="none" stroke="black" d="M72.6387,-445.737C85.5121,-451.747 100.511,-459.521 114,-466 141.689,-479.3 173.278,-493.337 196.514,-504.03"/>
<polygon fill="black" stroke="black" points="195.066,-507.217 205.611,-508.249 198.012,-500.866 195.066,-507.217"/>
</g>
<!-- state_finished&#45;&gt;state_finished -->
<g id="edge25" class="edge"><title>state_finished&#45;&gt;state_finished</title>
<path fill="none" stroke="black" d="M70.7163,-449.749C84.0137,-451.864 96,-447.281 96,-436 96,-427.715 89.5357,-423.043 80.8351,-421.983"/>
<polygon fill="black" stroke="black" points="80.6202,-418.488 70.7163,-422.251 80.8055,-425.485 80.6202,-418.488"/>
</g>
<!-- state_finished&#45;&gt;state__initial -->
<g id="edge23" class="edge"><title>state_finished&#45;&gt;state__initial</title>
<path fill="none" stroke="black" d="M69.1211,-419.235C82.5436,-413.08 95.966,-412.226 109.388,-416.672"/>
<polygon fill="black" stroke="black" points="108.107,-419.93 118.681,-420.597 110.831,-413.482 108.107,-419.93"/>
</g>
<!-- state_finished&#45;&gt;state_ready -->
<g id="edge27" class="edge"><title>state_finished&#45;&gt;state_ready</title>
<path fill="none" stroke="black" d="M68.2545,-454.167C80.0552,-462.245 95.0345,-470.855 110,-475 143.409,-484.254 155.809,-487.865 188,-475 195.275,-472.093 201.996,-467.212 207.803,-461.869"/>
<polygon fill="black" stroke="black" points="210.597,-464.02 215.12,-454.44 205.609,-459.109 210.597,-464.02"/>
</g>
<!-- state_finished&#45;&gt;state_set -->
<g id="edge29" class="edge"><title>state_finished&#45;&gt;state_set</title>
<path fill="none" stroke="black" d="M68.8575,-418.911C93.7098,-404.061 132.091,-382.978 157.783,-370.187"/>
<polygon fill="black" stroke="black" points="159.495,-373.247 166.954,-365.722 156.431,-366.953 159.495,-373.247"/>
</g>
<!-- state__initial&#45;&gt;state_playing -->
<g id="edge31" class="edge"><title>state__initial&#45;&gt;state_playing</title>
<path fill="none" stroke="black" d="M161.69,-450.77C175.254,-462.162 192.439,-478.289 206.171,-492.318"/>
<polygon fill="black" stroke="black" points="203.951,-495.06 213.399,-499.853 209.002,-490.214 203.951,-495.06"/>
</g>
<!-- state__initial&#45;&gt;state_finished -->
<g id="edge35" class="edge"><title>state__initial&#45;&gt;state_finished</title>
<path fill="none" stroke="black" d="M118.681,-451.403C105.388,-458.229 92.0942,-459.856 78.8008,-456.285"/>
<polygon fill="black" stroke="black" points="79.7152,-452.893 69.1211,-452.765 77.3232,-459.472 79.7152,-452.893"/>
</g>
<!-- state__initial&#45;&gt;state__initial -->
<g id="edge33" class="edge"><title>state__initial&#45;&gt;state__initial</title>
<path fill="none" stroke="black" d="M162.716,-449.467C175.811,-452.216 188,-447.727 188,-436 188,-427.388 181.426,-422.68 172.748,-421.875"/>
<polygon fill="black" stroke="black" points="172.466,-418.385 162.716,-422.533 172.924,-425.37 172.466,-418.385"/>
</g>
<!-- state__initial&#45;&gt;state_ready -->
<g id="edge37" class="edge"><title>state__initial&#45;&gt;state_ready</title>
<path fill="none" stroke="black" d="M161.902,-421.529C174.768,-415.803 187.633,-414.967 200.499,-419.02"/>
<polygon fill="black" stroke="black" points="199.285,-422.305 209.867,-422.836 201.926,-415.823 199.285,-422.305"/>
</g>
<!-- state__initial&#45;&gt;state_set -->
<g id="edge39" class="edge"><title>state__initial&#45;&gt;state_set</title>
<path fill="none" stroke="black" d="M146.61,-410.787C151.653,-400.713 158.33,-389.256 164.773,-379.683"/>
<polygon fill="black" stroke="black" points="167.636,-381.696 170.57,-371.516 161.927,-377.644 167.636,-381.696"/>
</g>
<!-- state_ready&#45;&gt;state_playing -->
<g id="edge41" class="edge"><title>state_ready&#45;&gt;state_playing</title>
<path fill="none" stroke="black" d="M236.31,-458.056C237.124,-466.405 237.409,-476.147 237.166,-485.473"/>
<polygon fill="black" stroke="black" points="233.658,-485.572 236.668,-495.73 240.649,-485.912 233.658,-485.572"/>
</g>
<!-- state_ready&#45;&gt;state_finished -->
<g id="edge45" class="edge"><title>state_ready&#45;&gt;state_finished</title>
<path fill="none" stroke="black" d="M215.849,-455.177C207.311,-465.851 195.154,-478.137 181,-484 154.721,-494.885 144.224,-492.243 117,-484 101.93,-479.437 87.1303,-470.564 74.9064,-461.676"/>
<polygon fill="black" stroke="black" points="76.9613,-458.841 66.8834,-455.572 72.7231,-464.413 76.9613,-458.841"/>
</g>
<!-- state_ready&#45;&gt;state__initial -->
<g id="edge43" class="edge"><title>state_ready&#45;&gt;state__initial</title>
<path fill="none" stroke="black" d="M209.867,-449.164C197.126,-455.529 184.386,-457.098 171.645,-453.873"/>
<polygon fill="black" stroke="black" points="172.497,-450.463 161.902,-450.471 170.19,-457.072 172.497,-450.463"/>
</g>
<!-- state_ready&#45;&gt;state_ready -->
<g id="edge47" class="edge"><title>state_ready&#45;&gt;state_ready</title>
<path fill="none" stroke="black" d="M248.427,-448.994C261.386,-452.652 274,-448.32 274,-436 274,-426.952 267.197,-422.213 258.451,-421.782"/>
<polygon fill="black" stroke="black" points="257.929,-418.32 248.427,-423.006 258.777,-425.268 257.929,-418.32"/>
</g>
<!-- state_ready&#45;&gt;state_set -->
<g id="edge49" class="edge"><title>state_ready&#45;&gt;state_set</title>
<path fill="none" stroke="black" d="M212.568,-419.67C205.482,-409.875 197.72,-397.176 191.829,-385.93"/>
<polygon fill="black" stroke="black" points="194.944,-384.333 187.375,-376.92 188.669,-387.435 194.944,-384.333"/>
</g>
<!-- state_set&#45;&gt;state_playing -->
<g id="edge51" class="edge"><title>state_set&#45;&gt;state_playing</title>
<path fill="none" stroke="black" d="M201.938,-360.635C227.898,-364.34 272.921,-375.555 292,-406 306.16,-428.596 301.747,-441.179 292,-466 286.073,-481.094 273.952,-494.54 261.705,-504.472"/>
<polygon fill="black" stroke="black" points="259.604,-501.673 253.703,-510.472 263.803,-507.273 259.604,-501.673"/>
</g>
<!-- state_set&#45;&gt;state_finished -->
<g id="edge55" class="edge"><title>state_set&#45;&gt;state_finished</title>
<path fill="none" stroke="black" d="M169.557,-370.355C148.54,-383.455 109.751,-405.09 80.887,-419.917"/>
<polygon fill="black" stroke="black" points="79.2367,-416.829 71.8994,-424.472 82.4014,-423.073 79.2367,-416.829"/>
</g>
<!-- state_set&#45;&gt;state__initial -->
<g id="edge53" class="edge"><title>state_set&#45;&gt;state__initial</title>
<path fill="none" stroke="black" d="M180.929,-376.759C176.738,-386.159 170.313,-397.91 163.681,-408.462"/>
<polygon fill="black" stroke="black" points="160.662,-406.684 158.107,-416.966 166.516,-410.522 160.662,-406.684"/>
</g>
<!-- state_set&#45;&gt;state_ready -->
<g id="edge57" class="edge"><title>state_set&#45;&gt;state_ready</title>
<path fill="none" stroke="black" d="M197.572,-371.489C204.412,-380.391 212.271,-392.779 218.62,-404.321"/>
<polygon fill="black" stroke="black" points="215.593,-406.085 223.339,-413.314 221.792,-402.833 215.593,-406.085"/>
</g>
<!-- state_set&#45;&gt;state_set -->
<g id="edge59" class="edge"><title>state_set&#45;&gt;state_set</title>
<path fill="none" stroke="black" d="M199.186,-369.312C211.396,-373.438 224,-370 224,-359 224,-351.094 217.489,-347.094 209.292,-347.002"/>
<polygon fill="black" stroke="black" points="208.473,-343.59 199.186,-348.688 209.625,-350.494 208.473,-343.59"/>
</g>
<!-- option_checklocalize -->
<g id="node44" class="node"><title>option_checklocalize</title>
<a xlink:href="option.checklocalize.html" xlink:title="checklocalize">
<polygon fill="#ffffff" stroke="black" points="388,-312 318,-312 318,-276 388,-276 388,-312"/>
<text text-anchor="middle" x="353" y="-291.4" font-family="Arial" font-size="9.00" fill="#005a9c">checklocalize</text>
</a>
</g>
<!-- option_begin&#45;&gt;option_checklocalize -->
<g id="edge75" class="edge"><title>option_begin&#45;&gt;option_checklocalize</title>
<path fill="none" stroke="#808080" d="M413.601,-340.894C404.044,-333.498 392.876,-324.857 382.75,-317.021"/>
<polygon fill="#808080" stroke="#808080" points="384.314,-314.69 376.273,-312.009 380.887,-319.119 384.314,-314.69"/>
</g>
<!-- option_reset -->
<g id="node52" class="node"><title>option_reset</title>
<a xlink:href="option.reset.html" xlink:title="reset">
<polygon fill="#ffffff" stroke="black" points="464,-312 410,-312 410,-276 464,-276 464,-312"/>
<text text-anchor="middle" x="437" y="-291.4" font-family="Arial" font-size="9.00" fill="#005a9c">reset</text>
</a>
</g>
<!-- option_begin&#45;&gt;option_reset -->
<g id="edge77" class="edge"><title>option_begin&#45;&gt;option_reset</title>
<path fill="none" stroke="#808080" d="M437,-340.894C437,-334.555 437,-327.3 437,-320.422"/>
<polygon fill="#808080" stroke="#808080" points="439.8,-320.009 437,-312.009 434.2,-320.009 439.8,-320.009"/>
</g>
<!-- basic_behavior_doInitialize -->
<g id="node64" class="node"><title>basic_behavior_doInitialize</title>
<a xlink:href="basic-behaviors.myBasicBehaviors.html#doInitialize" xlink:title="doInitialize">
<ellipse fill="#ffffff" stroke="black" cx="521" cy="-294" rx="34.8223" ry="18"/>
<text text-anchor="middle" x="521" y="-291.4" font-family="Arial" font-size="9.00" fill="#005a9c">doInitialize</text>
</a>
</g>
<!-- option_begin&#45;&gt;basic_behavior_doInitialize -->
<g id="edge79" class="edge"><title>option_begin&#45;&gt;basic_behavior_doInitialize</title>
<path fill="none" stroke="#808080" d="M460.399,-340.894C471.092,-332.619 483.802,-322.784 494.813,-314.264"/>
<polygon fill="#808080" stroke="#808080" points="496.803,-316.264 501.417,-309.154 493.376,-311.835 496.803,-316.264"/>
</g>
<!-- basic_behavior_doUpdate -->
<g id="node66" class="node"><title>basic_behavior_doUpdate</title>
<a xlink:href="basic-behaviors.myBasicBehaviors.html#doUpdate" xlink:title="doUpdate">
<ellipse fill="#ffffff" stroke="black" cx="611" cy="-294" rx="33.053" ry="18"/>
<text text-anchor="middle" x="611" y="-291.4" font-family="Arial" font-size="9.00" fill="#005a9c">doUpdate</text>
</a>
</g>
<!-- option_begin&#45;&gt;basic_behavior_doUpdate -->
<g id="edge81" class="edge"><title>option_begin&#45;&gt;basic_behavior_doUpdate</title>
<path fill="none" stroke="#808080" d="M464.01,-349.602C490.389,-340.337 531.615,-325.628 567,-312 570.206,-310.765 573.533,-309.456 576.856,-308.13"/>
<polygon fill="#808080" stroke="#808080" points="578.173,-310.618 584.546,-305.029 576.079,-305.424 578.173,-310.618"/>
</g>
<!-- option_ballfound -->
<g id="node46" class="node"><title>option_ballfound</title>
<a xlink:href="option.ballfound.html" xlink:title="ballfound">
<polygon fill="#ffffff" stroke="black" points="379,-247 325,-247 325,-211 379,-211 379,-247"/>
<text text-anchor="middle" x="352" y="-226.4" font-family="Arial" font-size="9.00" fill="#005a9c">ballfound</text>
</a>
</g>
<!-- option_checklocalize&#45;&gt;option_ballfound -->
<g id="edge83" class="edge"><title>option_checklocalize&#45;&gt;option_ballfound</title>
<path fill="none" stroke="#808080" d="M352.721,-275.894C352.624,-269.555 352.512,-262.3 352.406,-255.422"/>
<polygon fill="#808080" stroke="#808080" points="355.2,-254.965 352.277,-247.009 349.601,-255.051 355.2,-254.965"/>
</g>
<!-- basic_behavior_doLocalize -->
<g id="node60" class="node"><title>basic_behavior_doLocalize</title>
<a xlink:href="basic-behaviors.myBasicBehaviors.html#doLocalize" xlink:title="doLocalize">
<ellipse fill="#ffffff" stroke="black" cx="437" cy="-229" rx="35.9084" ry="18"/>
<text text-anchor="middle" x="437" y="-226.4" font-family="Arial" font-size="9.00" fill="#005a9c">doLocalize</text>
</a>
</g>
<!-- option_checklocalize&#45;&gt;basic_behavior_doLocalize -->
<g id="edge85" class="edge"><title>option_checklocalize&#45;&gt;basic_behavior_doLocalize</title>
<path fill="none" stroke="#808080" d="M376.399,-275.894C387.092,-267.619 399.802,-257.784 410.813,-249.264"/>
<polygon fill="#808080" stroke="#808080" points="412.803,-251.264 417.417,-244.154 409.376,-246.835 412.803,-251.264"/>
</g>
<!-- basic_behavior_doFindBall -->
<g id="node62" class="node"><title>basic_behavior_doFindBall</title>
<a xlink:href="basic-behaviors.myBasicBehaviors.html#doFindBall" xlink:title="doFindBall">
<ellipse fill="#ffffff" stroke="black" cx="531" cy="-229" rx="35.9084" ry="18"/>
<text text-anchor="middle" x="531" y="-226.4" font-family="Arial" font-size="9.00" fill="#005a9c">doFindBall</text>
</a>
</g>
<!-- option_checklocalize&#45;&gt;basic_behavior_doFindBall -->
<g id="edge87" class="edge"><title>option_checklocalize&#45;&gt;basic_behavior_doFindBall</title>
<path fill="none" stroke="#808080" d="M388.1,-280.081C391.772,-278.68 395.457,-277.297 399,-276 436.484,-262.28 446.467,-260.585 484,-247 487.42,-245.762 490.97,-244.451 494.518,-243.123"/>
<polygon fill="#808080" stroke="#808080" points="495.735,-245.657 502.23,-240.211 493.757,-240.418 495.735,-245.657"/>
</g>
<!-- option_checkpath -->
<g id="node48" class="node"><title>option_checkpath</title>
<a xlink:href="option.checkpath.html" xlink:title="checkpath">
<polygon fill="#ffffff" stroke="black" points="381,-182 323,-182 323,-146 381,-146 381,-182"/>
<text text-anchor="middle" x="352" y="-161.4" font-family="Arial" font-size="9.00" fill="#005a9c">checkpath</text>
</a>
</g>
<!-- option_ballfound&#45;&gt;option_checkpath -->
<g id="edge89" class="edge"><title>option_ballfound&#45;&gt;option_checkpath</title>
<path fill="none" stroke="#808080" d="M352,-210.894C352,-204.555 352,-197.3 352,-190.422"/>
<polygon fill="#808080" stroke="#808080" points="354.8,-190.009 352,-182.009 349.2,-190.009 354.8,-190.009"/>
</g>
<!-- basic_behavior_doMakePath -->
<g id="node58" class="node"><title>basic_behavior_doMakePath</title>
<a xlink:href="basic-behaviors.myBasicBehaviors.html#doMakePath" xlink:title="doMakePath">
<ellipse fill="#ffffff" stroke="black" cx="443" cy="-164" rx="40.0291" ry="18"/>
<text text-anchor="middle" x="443" y="-161.4" font-family="Arial" font-size="9.00" fill="#005a9c">doMakePath</text>
</a>
</g>
<!-- option_ballfound&#45;&gt;basic_behavior_doMakePath -->
<g id="edge91" class="edge"><title>option_ballfound&#45;&gt;basic_behavior_doMakePath</title>
<path fill="none" stroke="#808080" d="M377.349,-210.894C388.955,-202.604 402.753,-192.748 414.697,-184.216"/>
<polygon fill="#808080" stroke="#808080" points="416.602,-186.296 421.485,-179.368 413.347,-181.74 416.602,-186.296"/>
</g>
<!-- option_ballfollowing -->
<g id="node50" class="node"><title>option_ballfollowing</title>
<a xlink:href="option.ballfollowing.html" xlink:title="ballfollowing">
<polygon fill="#ffffff" stroke="black" points="386,-117 318,-117 318,-81 386,-81 386,-117"/>
<text text-anchor="middle" x="352" y="-96.4" font-family="Arial" font-size="9.00" fill="#005a9c">ballfollowing</text>
</a>
</g>
<!-- option_checkpath&#45;&gt;option_ballfollowing -->
<g id="edge93" class="edge"><title>option_checkpath&#45;&gt;option_ballfollowing</title>
<path fill="none" stroke="#808080" d="M352,-145.894C352,-139.555 352,-132.3 352,-125.422"/>
<polygon fill="#808080" stroke="#808080" points="354.8,-125.009 352,-117.009 349.2,-125.009 354.8,-125.009"/>
</g>
<!-- basic_behavior_doPathToWalk -->
<g id="node56" class="node"><title>basic_behavior_doPathToWalk</title>
<a xlink:href="basic-behaviors.myBasicBehaviors.html#doPathToWalk" xlink:title="doPathToWalk">
<ellipse fill="#ffffff" stroke="black" cx="452" cy="-99" rx="44.2357" ry="18"/>
<text text-anchor="middle" x="452" y="-96.4" font-family="Arial" font-size="9.00" fill="#005a9c">doPathToWalk</text>
</a>
</g>
<!-- option_checkpath&#45;&gt;basic_behavior_doPathToWalk -->
<g id="edge95" class="edge"><title>option_checkpath&#45;&gt;basic_behavior_doPathToWalk</title>
<path fill="none" stroke="#808080" d="M379.856,-145.894C392.848,-137.449 408.34,-127.379 421.632,-118.739"/>
<polygon fill="#808080" stroke="#808080" points="423.175,-121.076 428.357,-114.368 420.123,-116.38 423.175,-121.076"/>
</g>
<!-- basic_behavior_moveAcYuttemp -->
<g id="node54" class="node"><title>basic_behavior_moveAcYuttemp</title>
<a xlink:href="basic-behaviors.myBasicBehaviors.html#moveAcYuttemp" xlink:title="moveAcYuttemp">
<ellipse fill="#ffffff" stroke="black" cx="366" cy="-34" rx="47.7727" ry="18"/>
<text text-anchor="middle" x="366" y="-31.4" font-family="Arial" font-size="9.00" fill="#005a9c">moveAcYuttemp</text>
</a>
</g>
<!-- option_ballfollowing&#45;&gt;basic_behavior_moveAcYuttemp -->
<g id="edge97" class="edge"><title>option_ballfollowing&#45;&gt;basic_behavior_moveAcYuttemp</title>
<path fill="none" stroke="#808080" d="M355.9,-80.8939C357.295,-74.414 358.897,-66.9775 360.408,-59.9645"/>
<polygon fill="#808080" stroke="#808080" points="363.174,-60.4193 362.121,-52.009 357.699,-59.2401 363.174,-60.4193"/>
</g>
</g>
</svg>
