<?xml version="1.0" encoding="UTF-8" standalone="no"?>
<!DOCTYPE svg PUBLIC "-//W3C//DTD SVG 1.1//EN"
 "http://www.w3.org/Graphics/SVG/1.1/DTD/svg11.dtd">
<!-- Generated by graphviz version 2.26.3 (20100126.1600)
 -->
<!-- Title: g Pages: 1 -->
<svg width="182pt" height="291pt"
 viewBox="0.00 0.00 182.00 291.00" xmlns="http://www.w3.org/2000/svg" xmlns:xlink="http://www.w3.org/1999/xlink">
<g id="graph1" class="graph" transform="scale(1 1) rotate(0) translate(4 287)">
<title>g</title>
<polygon fill="white" stroke="white" points="-4,5 -4,-287 179,-287 179,5 -4,5"/>
<g id="graph2" class="cluster"><title>cluster_option</title>
<polygon fill="#f4f4f4" stroke="black" points="8,-8 8,-275 166,-275 166,-8 8,-8"/>
<text text-anchor="middle" x="87" y="-260.2" font-family="Arial" font-size="12.00" fill="#005a9c">option begin</text>
</g>
<g id="graph3" class="cluster"><title>cluster_states</title>
<polygon fill="#f4f4f4" stroke="#f4f4f4" points="16,-16 16,-92 158,-92 158,-16 16,-16"/>
</g>
<g id="graph6" class="cluster"><title>cluster_decision_tree</title>
<polygon fill="#ffffff" stroke="black" points="50,-136 50,-244 128,-244 128,-136 50,-136"/>
<text text-anchor="middle" x="89" y="-229.2" font-family="Arial" font-size="12.00" fill="#005a9c">state _reset</text>
</g>
<!-- state_initialize -->
<g id="node4" class="node"><title>state_initialize</title>
<a xlink:href="option.begin.html#state_initialize" xlink:title="initialize">
<ellipse fill="#ffffff" stroke="black" cx="53" cy="-54" rx="28.9343" ry="29.4331"/>
<polyline fill="none" stroke="black" points="72.1806,-76.125 33.8194,-76.125 "/>
<polyline fill="none" stroke="black" points="72.1806,-31.875 33.8194,-31.875 "/>
<text text-anchor="middle" x="53" y="-51.4" font-family="Arial" font-size="9.00" fill="#005a9c">initialize</text>
</a>
</g>
<!-- state__reset -->
<g id="node6" class="node"><title>state__reset</title>
<ellipse fill="none" stroke="black" stroke-dasharray="5,2" cx="125" cy="-54" rx="24.8162" ry="25.3125"/>
<text text-anchor="middle" x="125" y="-51.4" font-family="Arial" font-size="9.00" fill="#005a9c">_reset</text>
</g>
<!-- start -->
<g id="node9" class="node"><title>start</title>
<ellipse fill="black" stroke="black" cx="89" cy="-211" rx="1.8" ry="1.8"/>
</g>
<!-- _0 -->
<g id="node11" class="node"><title>_0</title>
<a xlink:href="option.begin.html#state__reset_pseudo-code_0" xlink:title="Reset\nflag">
<polygon fill="#ffffff" stroke="black" points="116,-180 62,-180 62,-144 116,-144 116,-180"/>
<text text-anchor="middle" x="89" y="-164.9" font-family="Arial" font-size="9.00">Reset</text>
<text text-anchor="middle" x="89" y="-153.9" font-family="Arial" font-size="9.00">flag</text>
</a>
</g>
<!-- start&#45;&gt;_0 -->
<g id="edge11" class="edge"><title>start&#45;&gt;_0</title>
<path fill="none" stroke="black" d="M89,-208.895C89,-205.481 89,-198.341 89,-190.638"/>
<polygon fill="black" stroke="black" points="92.5001,-190.455 89,-180.455 85.5001,-190.455 92.5001,-190.455"/>
</g>
<!-- _0&#45;&gt;state_initialize -->
<g id="edge9" class="edge"><title>_0&#45;&gt;state_initialize</title>
<path fill="none" stroke="black" d="M82.8931,-143.679C78.1977,-129.593 71.548,-109.644 65.7121,-92.1363"/>
<polygon fill="black" stroke="black" points="68.8737,-90.553 62.391,-82.173 62.233,-92.7667 68.8737,-90.553"/>
<text text-anchor="middle" x="76.0178" y="-134.318" font-family="Times Roman,serif" font-size="9.00">1</text>
</g>
<!-- _0&#45;&gt;state__reset -->
<g id="edge13" class="edge"><title>_0&#45;&gt;state__reset</title>
<path fill="none" stroke="black" d="M95.1069,-143.679C100.174,-128.477 107.518,-106.447 113.658,-88.0263"/>
<polygon fill="black" stroke="black" points="116.99,-89.0984 116.832,-78.5048 110.349,-86.8848 116.99,-89.0984"/>
<text text-anchor="middle" x="93.9636" y="-131.645" font-family="Times Roman,serif" font-size="9.00">0</text>
</g>
</g>
</svg>
