<?xml version="1.0" encoding="UTF-8" standalone="no"?>
<!DOCTYPE svg PUBLIC "-//W3C//DTD SVG 1.1//EN"
 "http://www.w3.org/Graphics/SVG/1.1/DTD/svg11.dtd">
<!-- Generated by graphviz version 2.26.3 (20100126.1600)
 -->
<!-- Title: g Pages: 1 -->
<svg width="208pt" height="366pt"
 viewBox="0.00 0.00 208.00 366.00" xmlns="http://www.w3.org/2000/svg" xmlns:xlink="http://www.w3.org/1999/xlink">
<g id="graph1" class="graph" transform="scale(1 1) rotate(0) translate(4 362)">
<title>g</title>
<polygon fill="white" stroke="white" points="-4,5 -4,-362 205,-362 205,5 -4,5"/>
<g id="graph2" class="cluster"><title>cluster_option</title>
<polygon fill="#f4f4f4" stroke="black" points="8,-8 8,-350 192,-350 192,-8 8,-8"/>
<text text-anchor="middle" x="100" y="-335.2" font-family="Arial" font-size="12.00" fill="#005a9c">option checkpath</text>
</g>
<g id="graph3" class="cluster"><title>cluster_states</title>
<polygon fill="#f4f4f4" stroke="#f4f4f4" points="16,-16 16,-102 184,-102 184,-16 16,-16"/>
</g>
<g id="graph7" class="cluster"><title>cluster_decision_tree</title>
<polygon fill="#ffffff" stroke="black" points="54,-146 54,-319 151,-319 151,-146 54,-146"/>
<text text-anchor="middle" x="102.5" y="-304.2" font-family="Arial" font-size="12.00" fill="#005a9c">state pathfollow</text>
</g>
<!-- state_pathfollow -->
<g id="node4" class="node"><title>state_pathfollow</title>
<ellipse fill="none" stroke="black" stroke-dasharray="5,2" cx="142" cy="-59" rx="34.2278" ry="34.7311"/>
<polyline fill="none" stroke="black" stroke-dasharray="5,2" points="164.488,-84.875 119.512,-84.875 "/>
<polyline fill="none" stroke="black" stroke-dasharray="5,2" points="164.488,-33.125 119.512,-33.125 "/>
<text text-anchor="middle" x="142" y="-56.4" font-family="Arial" font-size="9.00" fill="#005a9c">pathfollow</text>
</g>
<!-- state_ballfollow -->
<g id="node6" class="node"><title>state_ballfollow</title>
<a xlink:href="option.checkpath.html#state_ballfollow" xlink:title="ballfollow">
<ellipse fill="#ffffff" stroke="black" cx="57" cy="-59" rx="32.9651" ry="32.9651"/>
<text text-anchor="middle" x="57" y="-56.4" font-family="Arial" font-size="9.00" fill="#005a9c">ballfollow</text>
</a>
</g>
<!-- start -->
<g id="node10" class="node"><title>start</title>
<ellipse fill="black" stroke="black" cx="102" cy="-286" rx="1.8" ry="1.8"/>
</g>
<!-- _0 -->
<g id="node12" class="node"><title>_0</title>
<a xlink:href="option.checkpath.html#state_pathfollow_pseudo-code_0">
<polygon fill="#ffffff" stroke="black" points="129,-255 75,-255 75,-219 129,-219 129,-255"/>
</a>
</g>
<!-- start&#45;&gt;_0 -->
<g id="edge12" class="edge"><title>start&#45;&gt;_0</title>
<path fill="none" stroke="black" stroke-dasharray="5,2" d="M102,-283.895C102,-280.481 102,-273.341 102,-265.638"/>
<polygon fill="black" stroke="black" points="105.5,-265.455 102,-255.455 98.5001,-265.455 105.5,-265.455"/>
</g>
<!-- _0&#45;&gt;state_pathfollow -->
<g id="edge10" class="edge"><title>_0&#45;&gt;state_pathfollow</title>
<path fill="none" stroke="black" stroke-dasharray="5,2" d="M116.54,-218.879C122.396,-210.566 128.567,-200.284 132,-190 141.235,-162.332 143.739,-129.617 143.932,-103.802"/>
<polygon fill="black" stroke="black" points="147.431,-103.542 143.892,-93.5555 140.431,-103.569 147.431,-103.542"/>
<text text-anchor="middle" x="118.217" y="-206.92" font-family="Times Roman,serif" font-size="9.00">1</text>
</g>
<!-- _1_0 -->
<g id="node16" class="node"><title>_1_0</title>
<a xlink:href="option.checkpath.html#state_pathfollow_pseudo-code_1_0">
<polygon fill="#ffffff" stroke="black" points="123,-190 69,-190 69,-154 123,-154 123,-190"/>
</a>
</g>
<!-- _0&#45;&gt;_1_0 -->
<g id="edge17" class="edge"><title>_0&#45;&gt;_1_0</title>
<path fill="none" stroke="black" stroke-dasharray="5,2" d="M100.329,-218.894C99.7955,-213.118 99.1923,-206.583 98.609,-200.265"/>
<polygon fill="black" stroke="black" points="102.067,-199.645 97.6624,-190.009 95.0964,-200.288 102.067,-199.645"/>
<text text-anchor="middle" x="95.2873" y="-207.658" font-family="Arial Bold Italic" font-size="9.00">0</text>
</g>
<!-- _1_0&#45;&gt;state_pathfollow -->
<g id="edge19" class="edge"><title>_1_0&#45;&gt;state_pathfollow</title>
<path fill="none" stroke="black" d="M103.391,-153.845C109.23,-139.5 117.611,-118.913 125.073,-100.582"/>
<polygon fill="black" stroke="black" points="128.344,-101.828 128.873,-91.2466 121.861,-99.1889 128.344,-101.828"/>
<text text-anchor="middle" x="102.894" y="-141.757" font-family="Times Roman,serif" font-size="9.00">0</text>
</g>
<!-- _1_0&#45;&gt;state_ballfollow -->
<g id="edge15" class="edge"><title>_1_0&#45;&gt;state_ballfollow</title>
<path fill="none" stroke="black" stroke-dasharray="5,2" d="M89.734,-153.845C84.733,-139.355 77.5332,-118.494 71.1586,-100.024"/>
<polygon fill="black" stroke="black" points="74.3902,-98.6588 67.8192,-90.3478 67.7732,-100.943 74.3902,-98.6588"/>
<text text-anchor="middle" x="82.7822" y="-144.556" font-family="Times Roman,serif" font-size="9.00">1</text>
</g>
</g>
</svg>
