<?xml version="1.0" encoding="UTF-8" standalone="no"?>
<!DOCTYPE svg PUBLIC "-//W3C//DTD SVG 1.1//EN"
 "http://www.w3.org/Graphics/SVG/1.1/DTD/svg11.dtd">
<!-- Generated by graphviz version 2.26.3 (20100126.1600)
 -->
<!-- Title: g Pages: 1 -->
<svg width="118pt" height="248pt"
 viewBox="0.00 0.00 118.00 248.00" xmlns="http://www.w3.org/2000/svg" xmlns:xlink="http://www.w3.org/1999/xlink">
<g id="graph1" class="graph" transform="scale(1 1) rotate(0) translate(4 244)">
<title>g</title>
<polygon fill="white" stroke="white" points="-4,5 -4,-244 115,-244 115,5 -4,5"/>
<g id="graph2" class="cluster"><title>cluster_option</title>
<polygon fill="#f4f4f4" stroke="black" points="10,-135 10,-232 102,-232 102,-135 10,-135"/>
<text text-anchor="middle" x="56" y="-217.2" font-family="Arial" font-size="12.00" fill="#005a9c">option path</text>
</g>
<g id="graph5" class="cluster"><title>cluster_option_tree</title>
<polygon fill="none" stroke="#ffffff" points="8,-8 8,-60 86,-60 86,-8 8,-8"/>
</g>
<!-- state___initial -->
<g id="node4" class="node"><title>state___initial</title>
<a xlink:href="option.path.html#state___initial" xlink:title="__initial">
<ellipse fill="#ffffff" stroke="black" cx="47" cy="-172" rx="28.8445" ry="28.8445"/>
<polyline fill="none" stroke="black" points="66.1806,-193.75 27.8194,-193.75 "/>
<polyline fill="none" stroke="black" points="66.1806,-150.25 27.8194,-150.25 "/>
<text text-anchor="middle" x="47" y="-169.4" font-family="Arial" font-size="9.00" fill="#005a9c">__initial</text>
</a>
</g>
<!-- state___initial&#45;&gt;state___initial -->
<g id="edge5" class="edge"><title>state___initial&#45;&gt;state___initial</title>
<path fill="none" stroke="black" d="M74.0239,-182.635C86.7893,-183.871 98,-180.326 98,-172 98,-166.016 92.2085,-162.501 84.211,-161.456"/>
<polygon fill="black" stroke="black" points="84.0551,-157.955 74.0239,-161.365 83.992,-164.955 84.0551,-157.955"/>
</g>
<!-- basic_behavior_printmsg -->
<g id="node8" class="node"><title>basic_behavior_printmsg</title>
<a xlink:href="basic-behaviors.myBasicBehaviors.html#printmsg" xlink:title="printmsg">
<ellipse fill="#ffffff" stroke="black" cx="47" cy="-34" rx="31.1991" ry="18"/>
<text text-anchor="middle" x="47" y="-31.4" font-family="Arial" font-size="9.00" fill="#005a9c">printmsg</text>
</a>
</g>
<!-- state___initial&#45;&gt;basic_behavior_printmsg -->
<g id="edge9" class="edge"><title>state___initial&#45;&gt;basic_behavior_printmsg</title>
<path fill="none" stroke="#808080" stroke-dasharray="5,2" d="M47,-142.734C47,-118.353 47,-83.9319 47,-60.3883"/>
<polygon fill="#808080" stroke="#808080" points="49.8001,-60.2452 47,-52.2452 44.2001,-60.2453 49.8001,-60.2452"/>
</g>
</g>
</svg>
