<?xml version="1.0" encoding="UTF-8" standalone="no"?>
<!DOCTYPE svg PUBLIC "-//W3C//DTD SVG 1.1//EN"
 "http://www.w3.org/Graphics/SVG/1.1/DTD/svg11.dtd">
<!-- Generated by graphviz version 2.26.3 (20100126.1600)
 -->
<!-- Title: g Pages: 1 -->
<svg width="444pt" height="526pt"
 viewBox="0.00 0.00 444.00 526.00" xmlns="http://www.w3.org/2000/svg" xmlns:xlink="http://www.w3.org/1999/xlink">
<g id="graph1" class="graph" transform="scale(1 1) rotate(0) translate(4 522)">
<title>g</title>
<polygon fill="white" stroke="white" points="-4,5 -4,-522 441,-522 441,5 -4,5"/>
<g id="graph2" class="cluster"><title>cluster_option</title>
<polygon fill="#f4f4f4" stroke="black" points="189,-330 189,-510 351,-510 351,-330 189,-330"/>
<text text-anchor="middle" x="270" y="-495.2" font-family="Arial" font-size="12.00" fill="#005a9c">option begin</text>
</g>
<g id="graph8" class="cluster"><title>cluster_option_tree</title>
<polygon fill="none" stroke="#ffffff" points="8,-8 8,-255 428,-255 428,-8 8,-8"/>
</g>
<!-- state_initialize -->
<g id="node4" class="node"><title>state_initialize</title>
<a xlink:href="option.begin.html#state_initialize" xlink:title="initialize">
<ellipse fill="#ffffff" stroke="black" cx="296" cy="-449" rx="28.9343" ry="29.4331"/>
<polyline fill="none" stroke="black" points="315.181,-471.125 276.819,-471.125 "/>
<polyline fill="none" stroke="black" points="315.181,-426.875 276.819,-426.875 "/>
<text text-anchor="middle" x="296" y="-446.4" font-family="Arial" font-size="9.00" fill="#005a9c">initialize</text>
</a>
</g>
<!-- state_initialize&#45;&gt;state_initialize -->
<g id="edge12" class="edge"><title>state_initialize&#45;&gt;state_initialize</title>
<path fill="none" stroke="black" d="M321.191,-464.1C334.696,-466.666 347,-461.633 347,-449 347,-439.624 340.223,-434.434 331.207,-433.431"/>
<polygon fill="black" stroke="black" points="331.016,-429.936 321.191,-433.9 331.344,-436.928 331.016,-429.936"/>
</g>
<!-- state_play -->
<g id="node7" class="node"><title>state_play</title>
<a xlink:href="option.begin.html#state_play" xlink:title="play">
<ellipse fill="#ffffff" stroke="black" cx="216" cy="-364" rx="18.9278" ry="19.4259"/>
<text text-anchor="middle" x="216" y="-361.4" font-family="Arial" font-size="9.00" fill="#005a9c">play</text>
</a>
</g>
<!-- state_initialize&#45;&gt;state_play -->
<g id="edge10" class="edge"><title>state_initialize&#45;&gt;state_play</title>
<path fill="none" stroke="black" d="M272.588,-431.388C259.569,-419.227 243.912,-402.867 232.206,-389.313"/>
<polygon fill="black" stroke="black" points="234.593,-386.713 225.486,-381.299 229.229,-391.211 234.593,-386.713"/>
</g>
<!-- state__reset -->
<g id="node9" class="node"><title>state__reset</title>
<a xlink:href="option.begin.html#state__reset" xlink:title="_reset">
<ellipse fill="#ffffff" stroke="black" cx="300" cy="-364" rx="24.8162" ry="25.3125"/>
<text text-anchor="middle" x="300" y="-361.4" font-family="Arial" font-size="9.00" fill="#005a9c">_reset</text>
</a>
</g>
<!-- state_initialize&#45;&gt;state__reset -->
<g id="edge8" class="edge"><title>state_initialize&#45;&gt;state__reset</title>
<path fill="none" stroke="black" d="M289.499,-420.223C289.41,-413.087 289.691,-405.372 290.297,-398.012"/>
<polygon fill="black" stroke="black" points="293.791,-398.252 291.367,-387.939 286.831,-397.513 293.791,-398.252"/>
</g>
<!-- basic_behavior_doInitialize -->
<g id="node34" class="node"><title>basic_behavior_doInitialize</title>
<a xlink:href="basic-behaviors.myBasicBehaviors.html#doInitialize" xlink:title="doInitialize">
<ellipse fill="#ffffff" stroke="black" cx="385" cy="-229" rx="34.8223" ry="18"/>
<text text-anchor="middle" x="385" y="-226.4" font-family="Arial" font-size="9.00" fill="#005a9c">doInitialize</text>
</a>
</g>
<!-- state_initialize&#45;&gt;basic_behavior_doInitialize -->
<g id="edge45" class="edge"><title>state_initialize&#45;&gt;basic_behavior_doInitialize</title>
<path fill="none" stroke="#808080" stroke-dasharray="5,2" d="M319.17,-431.205C331.404,-420.566 345.586,-406.023 354,-390 376.838,-346.508 382.973,-288.487 384.545,-255.292"/>
<polygon fill="#808080" stroke="#808080" points="387.354,-255.118 384.866,-247.015 381.758,-254.901 387.354,-255.118"/>
</g>
<!-- state_play&#45;&gt;state_initialize -->
<g id="edge18" class="edge"><title>state_play&#45;&gt;state_initialize</title>
<path fill="none" stroke="black" d="M231.85,-374.771C243.878,-385.244 260.132,-401.687 273.4,-416.438"/>
<polygon fill="black" stroke="black" points="270.789,-418.77 280.027,-423.957 276.04,-414.141 270.789,-418.77"/>
</g>
<!-- state_play&#45;&gt;state_play -->
<g id="edge16" class="edge"><title>state_play&#45;&gt;state_play</title>
<path fill="none" stroke="black" d="M232.846,-373.37C244.947,-376.42 257,-373.297 257,-364 257,-357.391 250.908,-353.901 243.038,-353.533"/>
<polygon fill="black" stroke="black" points="242.414,-350.08 232.846,-354.63 243.163,-357.039 242.414,-350.08"/>
</g>
<!-- state_play&#45;&gt;state__reset -->
<g id="edge14" class="edge"><title>state_play&#45;&gt;state__reset</title>
<path fill="none" stroke="black" d="M235.031,-364C244.889,-364 254.746,-364 264.603,-364"/>
<polygon fill="black" stroke="black" points="264.875,-367.5 274.875,-364 264.875,-360.5 264.875,-367.5"/>
</g>
<!-- option_ballfound -->
<g id="node20" class="node"><title>option_ballfound</title>
<a xlink:href="option.ballfound.html" xlink:title="ballfound">
<polygon fill="#ffffff" stroke="black" points="70,-247 16,-247 16,-211 70,-211 70,-247"/>
<text text-anchor="middle" x="43" y="-226.4" font-family="Arial" font-size="9.00" fill="#005a9c">ballfound</text>
</a>
</g>
<!-- state_play&#45;&gt;option_ballfound -->
<g id="edge51" class="edge"><title>state_play&#45;&gt;option_ballfound</title>
<path fill="none" stroke="#808080" stroke-dasharray="5,2" d="M200.647,-352.02C171.999,-329.664 109.943,-281.239 72.8052,-252.258"/>
<polygon fill="#808080" stroke="#808080" points="74.204,-249.798 66.1744,-247.084 70.7588,-254.213 74.204,-249.798"/>
</g>
<!-- basic_behavior_doUpdate -->
<g id="node36" class="node"><title>basic_behavior_doUpdate</title>
<a xlink:href="basic-behaviors.myBasicBehaviors.html#doUpdate" xlink:title="doUpdate">
<ellipse fill="#ffffff" stroke="black" cx="125" cy="-229" rx="33.053" ry="18"/>
<text text-anchor="middle" x="125" y="-226.4" font-family="Arial" font-size="9.00" fill="#005a9c">doUpdate</text>
</a>
</g>
<!-- state_play&#45;&gt;basic_behavior_doUpdate -->
<g id="edge47" class="edge"><title>state_play&#45;&gt;basic_behavior_doUpdate</title>
<path fill="none" stroke="#808080" stroke-dasharray="5,2" d="M205.023,-347.716C189.141,-324.154 159.644,-280.396 141.24,-253.092"/>
<polygon fill="#808080" stroke="#808080" points="143.383,-251.262 136.589,-246.193 138.739,-254.392 143.383,-251.262"/>
</g>
<!-- basic_behavior_doFindBall -->
<g id="node38" class="node"><title>basic_behavior_doFindBall</title>
<a xlink:href="basic-behaviors.myBasicBehaviors.html#doFindBall" xlink:title="doFindBall">
<ellipse fill="#ffffff" stroke="black" cx="216" cy="-229" rx="35.9084" ry="18"/>
<text text-anchor="middle" x="216" y="-226.4" font-family="Arial" font-size="9.00" fill="#005a9c">doFindBall</text>
</a>
</g>
<!-- state_play&#45;&gt;basic_behavior_doFindBall -->
<g id="edge49" class="edge"><title>state_play&#45;&gt;basic_behavior_doFindBall</title>
<path fill="none" stroke="#808080" stroke-dasharray="5,2" d="M216,-344.37C216,-320.98 216,-281.791 216,-255.67"/>
<polygon fill="#808080" stroke="#808080" points="218.8,-255.354 216,-247.354 213.2,-255.354 218.8,-255.354"/>
</g>
<!-- state__reset&#45;&gt;state_initialize -->
<g id="edge20" class="edge"><title>state__reset&#45;&gt;state_initialize</title>
<path fill="none" stroke="black" d="M306.41,-388.759C306.641,-395.635 306.494,-403.267 306.015,-410.724"/>
<polygon fill="black" stroke="black" points="302.527,-410.433 305.158,-420.696 309.501,-411.032 302.527,-410.433"/>
</g>
<!-- state__reset&#45;&gt;state__reset -->
<g id="edge22" class="edge"><title>state__reset&#45;&gt;state__reset</title>
<path fill="none" stroke="black" d="M323.215,-374.067C335.661,-375.777 347,-372.422 347,-364 347,-357.947 341.142,-354.511 333.226,-353.692"/>
<polygon fill="black" stroke="black" points="333.128,-350.193 323.215,-353.933 333.296,-357.191 333.128,-350.193"/>
</g>
<!-- option_reset -->
<g id="node26" class="node"><title>option_reset</title>
<a xlink:href="option.reset.html" xlink:title="reset">
<polygon fill="#ffffff" stroke="black" points="328,-247 274,-247 274,-211 328,-211 328,-247"/>
<text text-anchor="middle" x="301" y="-226.4" font-family="Arial" font-size="9.00" fill="#005a9c">reset</text>
</a>
</g>
<!-- state__reset&#45;&gt;option_reset -->
<g id="edge53" class="edge"><title>state__reset&#45;&gt;option_reset</title>
<path fill="none" stroke="#808080" stroke-dasharray="5,2" d="M300.19,-338.29C300.366,-314.579 300.626,-279.526 300.803,-255.551"/>
<polygon fill="#808080" stroke="#808080" points="303.605,-255.282 300.865,-247.262 298.005,-255.241 303.605,-255.282"/>
</g>
<!-- option_checkpath -->
<g id="node22" class="node"><title>option_checkpath</title>
<a xlink:href="option.checkpath.html" xlink:title="checkpath">
<polygon fill="#ffffff" stroke="black" points="76,-182 18,-182 18,-146 76,-146 76,-182"/>
<text text-anchor="middle" x="47" y="-161.4" font-family="Arial" font-size="9.00" fill="#005a9c">checkpath</text>
</a>
</g>
<!-- option_ballfound&#45;&gt;option_checkpath -->
<g id="edge35" class="edge"><title>option_ballfound&#45;&gt;option_checkpath</title>
<path fill="none" stroke="#808080" d="M44.1142,-210.894C44.5043,-204.555 44.9507,-197.3 45.374,-190.422"/>
<polygon fill="#808080" stroke="#808080" points="48.195,-190.166 45.8918,-182.009 42.6056,-189.822 48.195,-190.166"/>
</g>
<!-- basic_behavior_doMakePath -->
<g id="node32" class="node"><title>basic_behavior_doMakePath</title>
<a xlink:href="basic-behaviors.myBasicBehaviors.html#doMakePath" xlink:title="doMakePath">
<ellipse fill="#ffffff" stroke="black" cx="138" cy="-164" rx="40.0291" ry="18"/>
<text text-anchor="middle" x="138" y="-161.4" font-family="Arial" font-size="9.00" fill="#005a9c">doMakePath</text>
</a>
</g>
<!-- option_ballfound&#45;&gt;basic_behavior_doMakePath -->
<g id="edge37" class="edge"><title>option_ballfound&#45;&gt;basic_behavior_doMakePath</title>
<path fill="none" stroke="#808080" d="M69.4628,-210.894C81.7848,-202.463 96.4738,-192.413 109.087,-183.783"/>
<polygon fill="#808080" stroke="#808080" points="110.831,-185.982 115.852,-179.154 107.669,-181.36 110.831,-185.982"/>
</g>
<!-- option_ballfollowing -->
<g id="node24" class="node"><title>option_ballfollowing</title>
<a xlink:href="option.ballfollowing.html" xlink:title="ballfollowing">
<polygon fill="#ffffff" stroke="black" points="84,-117 16,-117 16,-81 84,-81 84,-117"/>
<text text-anchor="middle" x="50" y="-96.4" font-family="Arial" font-size="9.00" fill="#005a9c">ballfollowing</text>
</a>
</g>
<!-- option_checkpath&#45;&gt;option_ballfollowing -->
<g id="edge39" class="edge"><title>option_checkpath&#45;&gt;option_ballfollowing</title>
<path fill="none" stroke="#808080" d="M47.8357,-145.894C48.1282,-139.555 48.4631,-132.3 48.7805,-125.422"/>
<polygon fill="#808080" stroke="#808080" points="51.5969,-125.13 49.1688,-117.009 46.0029,-124.871 51.5969,-125.13"/>
</g>
<!-- basic_behavior_doPathToWalk -->
<g id="node30" class="node"><title>basic_behavior_doPathToWalk</title>
<a xlink:href="basic-behaviors.myBasicBehaviors.html#doPathToWalk" xlink:title="doPathToWalk">
<ellipse fill="#ffffff" stroke="black" cx="150" cy="-99" rx="44.2357" ry="18"/>
<text text-anchor="middle" x="150" y="-96.4" font-family="Arial" font-size="9.00" fill="#005a9c">doPathToWalk</text>
</a>
</g>
<!-- option_checkpath&#45;&gt;basic_behavior_doPathToWalk -->
<g id="edge41" class="edge"><title>option_checkpath&#45;&gt;basic_behavior_doPathToWalk</title>
<path fill="none" stroke="#808080" d="M75.6912,-145.894C89.1746,-137.385 105.272,-127.226 119.031,-118.543"/>
<polygon fill="#808080" stroke="#808080" points="120.716,-120.791 125.987,-114.154 117.727,-116.055 120.716,-120.791"/>
</g>
<!-- basic_behavior_moveAcYuttemp -->
<g id="node28" class="node"><title>basic_behavior_moveAcYuttemp</title>
<a xlink:href="basic-behaviors.myBasicBehaviors.html#moveAcYuttemp" xlink:title="moveAcYuttemp">
<ellipse fill="#ffffff" stroke="black" cx="64" cy="-34" rx="47.7727" ry="18"/>
<text text-anchor="middle" x="64" y="-31.4" font-family="Arial" font-size="9.00" fill="#005a9c">moveAcYuttemp</text>
</a>
</g>
<!-- option_ballfollowing&#45;&gt;basic_behavior_moveAcYuttemp -->
<g id="edge43" class="edge"><title>option_ballfollowing&#45;&gt;basic_behavior_moveAcYuttemp</title>
<path fill="none" stroke="#808080" d="M53.8998,-80.8939C55.2954,-74.414 56.8972,-66.9775 58.4077,-59.9645"/>
<polygon fill="#808080" stroke="#808080" points="61.1738,-60.4193 60.1211,-52.009 55.6994,-59.2401 61.1738,-60.4193"/>
</g>
</g>
</svg>
