<?xml version="1.0" encoding="UTF-8" standalone="no"?>
<!DOCTYPE svg PUBLIC "-//W3C//DTD SVG 1.1//EN"
 "http://www.w3.org/Graphics/SVG/1.1/DTD/svg11.dtd">
<!-- Generated by graphviz version 2.26.3 (20100126.1600)
 -->
<!-- Title: g Pages: 1 -->
<svg width="111pt" height="212pt"
 viewBox="0.00 0.00 111.00 212.00" xmlns="http://www.w3.org/2000/svg" xmlns:xlink="http://www.w3.org/1999/xlink">
<g id="graph1" class="graph" transform="scale(1 1) rotate(0) translate(4 208)">
<title>g</title>
<polygon fill="white" stroke="white" points="-4,5 -4,-208 108,-208 108,5 -4,5"/>
<g id="graph2" class="cluster"><title>cluster_option</title>
<polygon fill="#f4f4f4" stroke="black" points="8,-8 8,-196 95,-196 95,-8 8,-8"/>
<text text-anchor="middle" x="51.5" y="-181.2" font-family="Arial" font-size="12.00" fill="#005a9c">option reset</text>
</g>
<g id="graph3" class="cluster"><title>cluster_states</title>
<polygon fill="#f4f4f4" stroke="#f4f4f4" points="21,-16 21,-78 81,-78 81,-16 21,-16"/>
</g>
<g id="graph5" class="cluster"><title>cluster_decision_tree</title>
<polygon fill="#ffffff" stroke="black" points="16,-122 16,-165 87,-165 87,-122 16,-122"/>
<text text-anchor="middle" x="51.5" y="-150.2" font-family="Arial" font-size="12.00" fill="#005a9c">state reset</text>
</g>
<!-- state_reset -->
<g id="node4" class="node"><title>state_reset</title>
<ellipse fill="none" stroke="black" stroke-dasharray="5,2" cx="51" cy="-47" rx="21.8721" ry="22.3692"/>
<polyline fill="none" stroke="black" stroke-dasharray="5,2" points="65.5508,-63.875 36.4492,-63.875 "/>
<polyline fill="none" stroke="black" stroke-dasharray="5,2" points="65.5508,-30.125 36.4492,-30.125 "/>
<text text-anchor="middle" x="51" y="-44.4" font-family="Arial" font-size="9.00" fill="#005a9c">reset</text>
</g>
<!-- start -->
<g id="node7" class="node"><title>start</title>
<ellipse fill="black" stroke="black" cx="51" cy="-132" rx="1.8" ry="1.8"/>
</g>
<!-- start&#45;&gt;state_reset -->
<g id="edge7" class="edge"><title>start&#45;&gt;state_reset</title>
<path fill="none" stroke="black" d="M51,-129.899C51,-122.932 51,-99.899 51,-79.8746"/>
<polygon fill="black" stroke="black" points="54.5001,-79.7784 51,-69.7784 47.5001,-79.7785 54.5001,-79.7784"/>
</g>
</g>
</svg>
