<?xml version="1.0" encoding="UTF-8" standalone="no"?>
<!DOCTYPE svg PUBLIC "-//W3C//DTD SVG 1.1//EN"
 "http://www.w3.org/Graphics/SVG/1.1/DTD/svg11.dtd">
<!-- Generated by graphviz version 2.26.3 (20100126.1600)
 -->
<!-- Title: g Pages: 1 -->
<svg width="269pt" height="434pt"
 viewBox="0.00 0.00 269.00 434.00" xmlns="http://www.w3.org/2000/svg" xmlns:xlink="http://www.w3.org/1999/xlink">
<g id="graph1" class="graph" transform="scale(1 1) rotate(0) translate(4 430)">
<title>g</title>
<polygon fill="white" stroke="white" points="-4,5 -4,-430 266,-430 266,5 -4,5"/>
<g id="graph2" class="cluster"><title>cluster_option</title>
<polygon fill="#f4f4f4" stroke="black" points="8,-234 8,-418 106,-418 106,-234 8,-234"/>
<text text-anchor="middle" x="57" y="-403.2" font-family="Arial" font-size="12.00" fill="#005a9c">option ballfound</text>
</g>
<g id="graph7" class="cluster"><title>cluster_option_tree</title>
<polygon fill="none" stroke="#ffffff" points="59,-8 59,-190 253,-190 253,-8 59,-8"/>
</g>
<!-- state_ballfound -->
<g id="node4" class="node"><title>state_ballfound</title>
<a xlink:href="option.ballfound.html#state_ballfound" xlink:title="ballfound">
<ellipse fill="#ffffff" stroke="black" cx="48" cy="-354" rx="31.8784" ry="32.3765"/>
<polyline fill="none" stroke="black" points="69.1648,-378.375 26.8352,-378.375 "/>
<polyline fill="none" stroke="black" points="69.1648,-329.625 26.8352,-329.625 "/>
<text text-anchor="middle" x="48" y="-351.4" font-family="Arial" font-size="9.00" fill="#005a9c">ballfound</text>
</a>
</g>
<!-- state_ballfound&#45;&gt;state_ballfound -->
<g id="edge7" class="edge"><title>state_ballfound&#45;&gt;state_ballfound</title>
<path fill="none" stroke="black" d="M76.061,-369.691C89.8046,-371.744 102,-366.514 102,-354 102,-344.713 95.2823,-339.437 86.1997,-338.173"/>
<polygon fill="black" stroke="black" points="86.0133,-334.676 76.061,-338.309 86.1069,-341.675 86.0133,-334.676"/>
</g>
<!-- state_noball -->
<g id="node7" class="node"><title>state_noball</title>
<a xlink:href="option.ballfound.html#state_noball" xlink:title="noball">
<ellipse fill="#ffffff" stroke="black" cx="44" cy="-267" rx="24.2193" ry="24.7238"/>
<text text-anchor="middle" x="44" y="-264.4" font-family="Arial" font-size="9.00" fill="#005a9c">noball</text>
</a>
</g>
<!-- state_ballfound&#45;&gt;state_noball -->
<g id="edge9" class="edge"><title>state_ballfound&#45;&gt;state_noball</title>
<path fill="none" stroke="black" d="M38.5959,-322.591C37.9241,-315.527 37.5425,-308.002 37.4894,-300.844"/>
<polygon fill="black" stroke="black" points="40.9909,-300.77 37.6511,-290.716 33.9918,-300.658 40.9909,-300.77"/>
</g>
<!-- option_checkpath -->
<g id="node14" class="node"><title>option_checkpath</title>
<a xlink:href="option.checkpath.html" xlink:title="checkpath">
<polygon fill="#ffffff" stroke="black" points="137,-182 79,-182 79,-146 137,-146 137,-182"/>
<text text-anchor="middle" x="108" y="-161.4" font-family="Arial" font-size="9.00" fill="#005a9c">checkpath</text>
</a>
</g>
<!-- state_ballfound&#45;&gt;option_checkpath -->
<g id="edge29" class="edge"><title>state_ballfound&#45;&gt;option_checkpath</title>
<path fill="none" stroke="#808080" stroke-dasharray="5,2" d="M71.1853,-331.356C80.8913,-320.426 91.2383,-306.54 97,-292 110.197,-258.695 111.164,-216.795 110.053,-190.196"/>
<polygon fill="#808080" stroke="#808080" points="112.845,-189.971 109.632,-182.128 107.253,-190.263 112.845,-189.971"/>
</g>
<!-- basic_behavior_doMakePath -->
<g id="node22" class="node"><title>basic_behavior_doMakePath</title>
<a xlink:href="basic-behaviors.myBasicBehaviors.html#doMakePath" xlink:title="doMakePath">
<ellipse fill="#ffffff" stroke="black" cx="199" cy="-164" rx="40.0291" ry="18"/>
<text text-anchor="middle" x="199" y="-161.4" font-family="Arial" font-size="9.00" fill="#005a9c">doMakePath</text>
</a>
</g>
<!-- state_ballfound&#45;&gt;basic_behavior_doMakePath -->
<g id="edge27" class="edge"><title>state_ballfound&#45;&gt;basic_behavior_doMakePath</title>
<path fill="none" stroke="#808080" stroke-dasharray="5,2" d="M74.1315,-335.137C88.9253,-323.682 107.175,-308.182 121,-292 148.811,-259.446 173.093,-215.865 186.894,-188.878"/>
<polygon fill="#808080" stroke="#808080" points="189.397,-190.132 190.503,-181.729 184.398,-187.609 189.397,-190.132"/>
</g>
<!-- state_noball&#45;&gt;state_ballfound -->
<g id="edge11" class="edge"><title>state_noball&#45;&gt;state_ballfound</title>
<path fill="none" stroke="black" d="M52.4572,-290.18C53.3793,-296.91 54.0119,-304.475 54.3139,-311.982"/>
<polygon fill="black" stroke="black" points="50.8169,-312.171 54.5169,-322.098 57.8155,-312.03 50.8169,-312.171"/>
</g>
<!-- state_noball&#45;&gt;state_noball -->
<g id="edge13" class="edge"><title>state_noball&#45;&gt;state_noball</title>
<path fill="none" stroke="black" d="M66.246,-276.641C78.6123,-278.44 90,-275.227 90,-267 90,-261.151 84.2443,-257.837 76.4732,-257.056"/>
<polygon fill="black" stroke="black" points="76.1376,-253.564 66.246,-257.359 76.3456,-260.561 76.1376,-253.564"/>
</g>
<!-- option_ballfollowing -->
<g id="node16" class="node"><title>option_ballfollowing</title>
<a xlink:href="option.ballfollowing.html" xlink:title="ballfollowing">
<polygon fill="#ffffff" stroke="black" points="135,-117 67,-117 67,-81 135,-81 135,-117"/>
<text text-anchor="middle" x="101" y="-96.4" font-family="Arial" font-size="9.00" fill="#005a9c">ballfollowing</text>
</a>
</g>
<!-- option_checkpath&#45;&gt;option_ballfollowing -->
<g id="edge21" class="edge"><title>option_checkpath&#45;&gt;option_ballfollowing</title>
<path fill="none" stroke="#808080" d="M106.05,-145.894C105.352,-139.414 104.551,-131.977 103.796,-124.964"/>
<polygon fill="#808080" stroke="#808080" points="106.58,-124.663 102.939,-117.009 101.012,-125.263 106.58,-124.663"/>
</g>
<!-- basic_behavior_doPathToWalk -->
<g id="node20" class="node"><title>basic_behavior_doPathToWalk</title>
<a xlink:href="basic-behaviors.myBasicBehaviors.html#doPathToWalk" xlink:title="doPathToWalk">
<ellipse fill="#ffffff" stroke="black" cx="201" cy="-99" rx="44.2357" ry="18"/>
<text text-anchor="middle" x="201" y="-96.4" font-family="Arial" font-size="9.00" fill="#005a9c">doPathToWalk</text>
</a>
</g>
<!-- option_checkpath&#45;&gt;basic_behavior_doPathToWalk -->
<g id="edge23" class="edge"><title>option_checkpath&#45;&gt;basic_behavior_doPathToWalk</title>
<path fill="none" stroke="#808080" d="M133.906,-145.894C145.787,-137.59 159.916,-127.715 172.137,-119.173"/>
<polygon fill="#808080" stroke="#808080" points="173.751,-121.461 178.704,-114.583 170.543,-116.871 173.751,-121.461"/>
</g>
<!-- basic_behavior_moveAcYuttemp -->
<g id="node18" class="node"><title>basic_behavior_moveAcYuttemp</title>
<a xlink:href="basic-behaviors.myBasicBehaviors.html#moveAcYuttemp" xlink:title="moveAcYuttemp">
<ellipse fill="#ffffff" stroke="black" cx="115" cy="-34" rx="47.7727" ry="18"/>
<text text-anchor="middle" x="115" y="-31.4" font-family="Arial" font-size="9.00" fill="#005a9c">moveAcYuttemp</text>
</a>
</g>
<!-- option_ballfollowing&#45;&gt;basic_behavior_moveAcYuttemp -->
<g id="edge25" class="edge"><title>option_ballfollowing&#45;&gt;basic_behavior_moveAcYuttemp</title>
<path fill="none" stroke="#808080" d="M104.9,-80.8939C106.295,-74.414 107.897,-66.9775 109.408,-59.9645"/>
<polygon fill="#808080" stroke="#808080" points="112.174,-60.4193 111.121,-52.009 106.699,-59.2401 112.174,-60.4193"/>
</g>
</g>
</svg>
