<?xml version="1.0" encoding="UTF-8" standalone="no"?>
<!DOCTYPE svg PUBLIC "-//W3C//DTD SVG 1.1//EN"
 "http://www.w3.org/Graphics/SVG/1.1/DTD/svg11.dtd">
<!-- Generated by graphviz version 2.26.3 (20100126.1600)
 -->
<!-- Title: g Pages: 1 -->
<svg width="186pt" height="362pt"
 viewBox="0.00 0.00 186.00 362.00" xmlns="http://www.w3.org/2000/svg" xmlns:xlink="http://www.w3.org/1999/xlink">
<g id="graph1" class="graph" transform="scale(1 1) rotate(0) translate(4 358)">
<title>g</title>
<polygon fill="white" stroke="white" points="-4,5 -4,-358 183,-358 183,5 -4,5"/>
<g id="graph2" class="cluster"><title>cluster_option</title>
<polygon fill="#f4f4f4" stroke="black" points="8,-8 8,-346 170,-346 170,-8 8,-8"/>
<text text-anchor="middle" x="89" y="-331.2" font-family="Arial" font-size="12.00" fill="#005a9c">option ballfound</text>
</g>
<g id="graph3" class="cluster"><title>cluster_states</title>
<polygon fill="#f4f4f4" stroke="#f4f4f4" points="16,-16 16,-98 162,-98 162,-16 16,-16"/>
</g>
<g id="graph7" class="cluster"><title>cluster_decision_tree</title>
<polygon fill="#ffffff" stroke="black" points="35,-142 35,-315 127,-315 127,-142 35,-142"/>
<text text-anchor="middle" x="81" y="-300.2" font-family="Arial" font-size="12.00" fill="#005a9c">state ballfound</text>
</g>
<!-- state_ballfound -->
<g id="node4" class="node"><title>state_ballfound</title>
<ellipse fill="none" stroke="black" stroke-dasharray="5,2" cx="122" cy="-57" rx="31.8784" ry="32.3765"/>
<polyline fill="none" stroke="black" stroke-dasharray="5,2" points="143.165,-81.375 100.835,-81.375 "/>
<polyline fill="none" stroke="black" stroke-dasharray="5,2" points="143.165,-32.625 100.835,-32.625 "/>
<text text-anchor="middle" x="122" y="-54.4" font-family="Arial" font-size="9.00" fill="#005a9c">ballfound</text>
</g>
<!-- state_noball -->
<g id="node6" class="node"><title>state_noball</title>
<a xlink:href="option.ballfound.html#state_noball" xlink:title="noball">
<ellipse fill="#ffffff" stroke="black" cx="48" cy="-57" rx="24.2193" ry="24.7238"/>
<text text-anchor="middle" x="48" y="-54.4" font-family="Arial" font-size="9.00" fill="#005a9c">noball</text>
</a>
</g>
<!-- start -->
<g id="node10" class="node"><title>start</title>
<ellipse fill="black" stroke="black" cx="81" cy="-282" rx="1.8" ry="1.8"/>
</g>
<!-- _0 -->
<g id="node12" class="node"><title>_0</title>
<a xlink:href="option.ballfound.html#state_ballfound_pseudo-code_0">
<polygon fill="#ffffff" stroke="black" points="108,-251 54,-251 54,-215 108,-215 108,-251"/>
</a>
</g>
<!-- start&#45;&gt;_0 -->
<g id="edge12" class="edge"><title>start&#45;&gt;_0</title>
<path fill="none" stroke="black" stroke-dasharray="5,2" d="M81,-279.895C81,-276.481 81,-269.341 81,-261.638"/>
<polygon fill="black" stroke="black" points="84.5001,-261.455 81,-251.455 77.5001,-261.455 84.5001,-261.455"/>
</g>
<!-- _0&#45;&gt;state_ballfound -->
<g id="edge10" class="edge"><title>_0&#45;&gt;state_ballfound</title>
<path fill="none" stroke="black" stroke-dasharray="5,2" d="M96.0215,-214.947C102.073,-206.647 108.45,-196.356 112,-186 121.506,-158.266 123.919,-125.28 124,-99.6069"/>
<polygon fill="black" stroke="black" points="127.498,-99.4142 123.913,-89.4445 120.498,-99.4741 127.498,-99.4142"/>
<text text-anchor="middle" x="97.8558" y="-203.017" font-family="Times Roman,serif" font-size="9.00">1</text>
</g>
<!-- _1_0 -->
<g id="node16" class="node"><title>_1_0</title>
<a xlink:href="option.ballfound.html#state_ballfound_pseudo-code_1_0">
<polygon fill="#ffffff" stroke="black" points="103,-186 49,-186 49,-150 103,-150 103,-186"/>
</a>
</g>
<!-- _0&#45;&gt;_1_0 -->
<g id="edge17" class="edge"><title>_0&#45;&gt;_1_0</title>
<path fill="none" stroke="black" stroke-dasharray="5,2" d="M79.6072,-214.894C79.1629,-209.118 78.6602,-202.583 78.1742,-196.265"/>
<polygon fill="black" stroke="black" points="81.6421,-195.711 77.3853,-186.009 74.6627,-196.248 81.6421,-195.711"/>
<text text-anchor="middle" x="74.6984" y="-203.582" font-family="Arial Bold Italic" font-size="9.00">0</text>
</g>
<!-- _1_0&#45;&gt;state_ballfound -->
<g id="edge19" class="edge"><title>_1_0&#45;&gt;state_ballfound</title>
<path fill="none" stroke="black" d="M83.596,-149.671C89.5385,-135.331 98.0201,-114.865 105.502,-96.8111"/>
<polygon fill="black" stroke="black" points="108.938,-97.662 109.533,-87.0839 102.471,-94.9821 108.938,-97.662"/>
<text text-anchor="middle" x="83.1615" y="-137.58" font-family="Times Roman,serif" font-size="9.00">0</text>
</g>
<!-- _1_0&#45;&gt;state_noball -->
<g id="edge15" class="edge"><title>_1_0&#45;&gt;state_noball</title>
<path fill="none" stroke="black" stroke-dasharray="5,2" d="M71.3764,-149.671C67.3289,-133.625 61.3463,-109.908 56.4467,-90.485"/>
<polygon fill="black" stroke="black" points="59.8389,-89.6227 53.9992,-80.7825 53.0515,-91.3348 59.8389,-89.6227"/>
<text text-anchor="middle" x="65.0618" y="-139.816" font-family="Times Roman,serif" font-size="9.00">1</text>
</g>
</g>
</svg>
