<?xml version="1.0" encoding="UTF-8" standalone="no"?>
<!DOCTYPE svg PUBLIC "-//W3C//DTD SVG 1.1//EN"
 "http://www.w3.org/Graphics/SVG/1.1/DTD/svg11.dtd">
<!-- Generated by graphviz version 2.26.3 (20100126.1600)
 -->
<!-- Title: g Pages: 1 -->
<svg width="374pt" height="551pt"
 viewBox="0.00 0.00 374.00 551.00" xmlns="http://www.w3.org/2000/svg" xmlns:xlink="http://www.w3.org/1999/xlink">
<g id="graph1" class="graph" transform="scale(1 1) rotate(0) translate(4 547)">
<title>g</title>
<polygon fill="white" stroke="white" points="-4,5 -4,-547 371,-547 371,5 -4,5"/>
<g id="graph2" class="cluster"><title>cluster_option</title>
<polygon fill="#f4f4f4" stroke="black" points="8,-8 8,-535 358,-535 358,-8 8,-8"/>
<text text-anchor="middle" x="183" y="-520.2" font-family="Arial" font-size="12.00" fill="#005a9c">option referee</text>
</g>
<g id="graph3" class="cluster"><title>cluster_states</title>
<polygon fill="#f4f4f4" stroke="#f4f4f4" points="16,-16 16,-92 350,-92 350,-16 16,-16"/>
</g>
<g id="graph10" class="cluster"><title>cluster_decision_tree</title>
<polygon fill="#ffffff" stroke="black" points="74,-136 74,-504 156,-504 156,-136 74,-136"/>
<text text-anchor="middle" x="115" y="-489.2" font-family="Arial" font-size="12.00" fill="#005a9c">state playing</text>
</g>
<!-- state_playing -->
<g id="node4" class="node"><title>state_playing</title>
<ellipse fill="none" stroke="black" stroke-dasharray="5,2" cx="169" cy="-54" rx="27.0785" ry="27.0785"/>
<text text-anchor="middle" x="169" y="-51.4" font-family="Arial" font-size="9.00" fill="#005a9c">playing</text>
</g>
<!-- state__initial -->
<g id="node6" class="node"><title>state__initial</title>
<a xlink:href="option.referee.html#state__initial" xlink:title="_initial">
<ellipse fill="#ffffff" stroke="black" cx="316" cy="-54" rx="25.9012" ry="25.9012"/>
<polyline fill="none" stroke="black" points="333.196,-73.5 298.804,-73.5 "/>
<polyline fill="none" stroke="black" points="333.196,-34.5 298.804,-34.5 "/>
<text text-anchor="middle" x="316" y="-51.4" font-family="Arial" font-size="9.00" fill="#005a9c">_initial</text>
</a>
</g>
<!-- state_finished -->
<g id="node8" class="node"><title>state_finished</title>
<a xlink:href="option.referee.html#state_finished" xlink:title="finished">
<ellipse fill="#ffffff" stroke="black" cx="243" cy="-54" rx="28.9343" ry="29.4331"/>
<text text-anchor="middle" x="243" y="-51.4" font-family="Arial" font-size="9.00" fill="#005a9c">finished</text>
</a>
</g>
<!-- state_ready -->
<g id="node10" class="node"><title>state_ready</title>
<a xlink:href="option.referee.html#state_ready" xlink:title="ready">
<ellipse fill="#ffffff" stroke="black" cx="101" cy="-54" rx="22.9579" ry="22.9579"/>
<text text-anchor="middle" x="101" y="-51.4" font-family="Arial" font-size="9.00" fill="#005a9c">ready</text>
</a>
</g>
<!-- state_set -->
<g id="node12" class="node"><title>state_set</title>
<a xlink:href="option.referee.html#state_set" xlink:title="set">
<ellipse fill="#ffffff" stroke="black" cx="42" cy="-54" rx="18" ry="18"/>
<text text-anchor="middle" x="42" y="-51.4" font-family="Arial" font-size="9.00" fill="#005a9c">set</text>
</a>
</g>
<!-- start -->
<g id="node16" class="node"><title>start</title>
<ellipse fill="black" stroke="black" cx="116" cy="-471" rx="1.8" ry="1.8"/>
</g>
<!-- _0 -->
<g id="node18" class="node"><title>_0</title>
<a xlink:href="option.referee.html#state_playing_pseudo-code_0" xlink:title="If state\nis PLAYING">
<polygon fill="#ffffff" stroke="black" points="148,-440 84,-440 84,-404 148,-404 148,-440"/>
<text text-anchor="middle" x="116" y="-424.9" font-family="Arial Italic" font-size="9.00">If state</text>
<text text-anchor="middle" x="116" y="-413.9" font-family="Arial Italic" font-size="9.00">is PLAYING</text>
</a>
</g>
<!-- start&#45;&gt;_0 -->
<g id="edge15" class="edge"><title>start&#45;&gt;_0</title>
<path fill="none" stroke="black" stroke-dasharray="5,2" d="M116,-468.895C116,-465.481 116,-458.341 116,-450.638"/>
<polygon fill="black" stroke="black" points="119.5,-450.455 116,-440.455 112.5,-450.455 119.5,-450.455"/>
</g>
<!-- _0&#45;&gt;state_playing -->
<g id="edge13" class="edge"><title>_0&#45;&gt;state_playing</title>
<path fill="none" stroke="black" stroke-dasharray="5,2" d="M142.27,-403.973C171.6,-381.486 215,-340.085 215,-292 215,-292 215,-292 215,-162 215,-134.483 202.204,-105.95 190.11,-85.1262"/>
<polygon fill="black" stroke="black" points="193.007,-83.154 184.831,-76.4166 187.021,-86.7825 193.007,-83.154"/>
<text text-anchor="middle" x="146.725" y="-392.92" font-family="Times Roman,serif" font-size="9.00">1</text>
</g>
<!-- _1_0 -->
<g id="node22" class="node"><title>_1_0</title>
<a xlink:href="option.referee.html#state_playing_pseudo-code_1_0">
<polygon fill="#ffffff" stroke="black" points="148,-375 94,-375 94,-339 148,-339 148,-375"/>
</a>
</g>
<!-- _0&#45;&gt;_1_0 -->
<g id="edge20" class="edge"><title>_0&#45;&gt;_1_0</title>
<path fill="none" stroke="black" stroke-dasharray="5,2" d="M117.393,-403.894C117.837,-398.118 118.34,-391.583 118.826,-385.265"/>
<polygon fill="black" stroke="black" points="122.337,-385.248 119.615,-375.009 115.358,-384.711 122.337,-385.248"/>
<text text-anchor="middle" x="113.874" y="-391.933" font-family="Arial Bold Italic" font-size="9.00">0</text>
</g>
<!-- _1_0&#45;&gt;state__initial -->
<g id="edge18" class="edge"><title>_1_0&#45;&gt;state__initial</title>
<path fill="none" stroke="black" stroke-dasharray="5,2" d="M139.673,-338.623C161.595,-314.998 195,-271.668 195,-227 195,-227 195,-227 195,-162 195,-112.717 245.103,-125.767 281,-92 284.569,-88.6431 288.208,-84.9886 291.725,-81.3164"/>
<polygon fill="black" stroke="black" points="294.439,-83.5385 298.712,-73.8434 289.326,-78.7579 294.439,-83.5385"/>
<text text-anchor="middle" x="142.582" y="-326.956" font-family="Times Roman,serif" font-size="9.00">1</text>
</g>
<!-- _1_1_0 -->
<g id="node26" class="node"><title>_1_1_0</title>
<a xlink:href="option.referee.html#state_playing_pseudo-code_1_1_0">
<polygon fill="#ffffff" stroke="black" points="148,-310 94,-310 94,-274 148,-274 148,-310"/>
</a>
</g>
<!-- _1_0&#45;&gt;_1_1_0 -->
<g id="edge25" class="edge"><title>_1_0&#45;&gt;_1_1_0</title>
<path fill="none" stroke="black" stroke-dasharray="5,2" d="M121,-338.894C121,-333.118 121,-326.583 121,-320.265"/>
<polygon fill="black" stroke="black" points="124.5,-320.009 121,-310.009 117.5,-320.009 124.5,-320.009"/>
<text text-anchor="middle" x="116.774" y="-327.231" font-family="Arial Bold Italic" font-size="9.00">0</text>
</g>
<!-- _1_1_0&#45;&gt;state_finished -->
<g id="edge23" class="edge"><title>_1_1_0&#45;&gt;state_finished</title>
<path fill="none" stroke="black" stroke-dasharray="5,2" d="M137.611,-273.959C144.484,-265.661 152,-255.369 157,-245 183.266,-190.53 161.624,-166.401 190,-113 193.63,-106.168 204.287,-93.9638 215.102,-82.4212"/>
<polygon fill="black" stroke="black" points="217.808,-84.6547 222.159,-74.9947 212.734,-79.8327 217.808,-84.6547"/>
<text text-anchor="middle" x="140.066" y="-262.165" font-family="Times Roman,serif" font-size="9.00">1</text>
</g>
<!-- _1_1_1_0 -->
<g id="node30" class="node"><title>_1_1_1_0</title>
<a xlink:href="option.referee.html#state_playing_pseudo-code_1_1_1_0">
<polygon fill="#ffffff" stroke="black" points="148,-245 94,-245 94,-209 148,-209 148,-245"/>
</a>
</g>
<!-- _1_1_0&#45;&gt;_1_1_1_0 -->
<g id="edge30" class="edge"><title>_1_1_0&#45;&gt;_1_1_1_0</title>
<path fill="none" stroke="black" stroke-dasharray="5,2" d="M121,-273.894C121,-268.118 121,-261.583 121,-255.265"/>
<polygon fill="black" stroke="black" points="124.5,-255.009 121,-245.009 117.5,-255.009 124.5,-255.009"/>
<text text-anchor="middle" x="116.774" y="-262.231" font-family="Arial Bold Italic" font-size="9.00">0</text>
</g>
<!-- _1_1_1_0&#45;&gt;state_ready -->
<g id="edge28" class="edge"><title>_1_1_1_0&#45;&gt;state_ready</title>
<path fill="none" stroke="black" stroke-dasharray="5,2" d="M132.96,-208.587C137.706,-200.22 142.6,-189.977 145,-180 149.574,-160.987 149.767,-154.966 145,-136 140.095,-116.484 129.547,-96.5473 120.008,-81.2193"/>
<polygon fill="black" stroke="black" points="122.919,-79.2741 114.559,-72.765 117.035,-83.0665 122.919,-79.2741"/>
<text text-anchor="middle" x="133.67" y="-196.512" font-family="Times Roman,serif" font-size="9.00">1</text>
</g>
<!-- _1_1_1_1_0 -->
<g id="node34" class="node"><title>_1_1_1_1_0</title>
<a xlink:href="option.referee.html#state_playing_pseudo-code_1_1_1_1_0">
<polygon fill="#ffffff" stroke="black" points="136,-180 82,-180 82,-144 136,-144 136,-180"/>
</a>
</g>
<!-- _1_1_1_0&#45;&gt;_1_1_1_1_0 -->
<g id="edge35" class="edge"><title>_1_1_1_0&#45;&gt;_1_1_1_1_0</title>
<path fill="none" stroke="black" stroke-dasharray="5,2" d="M117.657,-208.894C116.591,-203.118 115.385,-196.583 114.218,-190.265"/>
<polygon fill="black" stroke="black" points="117.582,-189.207 112.325,-180.009 110.698,-190.478 117.582,-189.207"/>
<text text-anchor="middle" x="111.856" y="-198.149" font-family="Arial Bold Italic" font-size="9.00">0</text>
</g>
<!-- _1_1_1_1_0&#45;&gt;state_playing -->
<g id="edge37" class="edge"><title>_1_1_1_1_0&#45;&gt;state_playing</title>
<path fill="none" stroke="black" d="M119.178,-143.679C127.855,-128.06 140.537,-105.233 150.934,-86.5186"/>
<polygon fill="black" stroke="black" points="154.03,-88.1528 155.827,-77.7115 147.911,-84.7533 154.03,-88.1528"/>
<text text-anchor="middle" x="119.885" y="-131.604" font-family="Times Roman,serif" font-size="9.00">0</text>
</g>
<!-- _1_1_1_1_0&#45;&gt;state_set -->
<g id="edge33" class="edge"><title>_1_1_1_1_0&#45;&gt;state_set</title>
<path fill="none" stroke="black" stroke-dasharray="5,2" d="M97.6344,-143.679C86.4826,-125.703 69.4077,-98.1796 57.1161,-78.3663"/>
<polygon fill="black" stroke="black" points="59.9245,-76.2539 51.6786,-69.6014 53.9762,-79.9441 59.9245,-76.2539"/>
<text text-anchor="middle" x="89.2654" y="-136.106" font-family="Times Roman,serif" font-size="9.00">1</text>
</g>
</g>
</svg>
