<?xml version="1.0" encoding="UTF-8" standalone="no"?>
<!DOCTYPE svg PUBLIC "-//W3C//DTD SVG 1.1//EN"
 "http://www.w3.org/Graphics/SVG/1.1/DTD/svg11.dtd">
<!-- Generated by graphviz version 2.26.3 (20100126.1600)
 -->
<!-- Title: g Pages: 1 -->
<svg width="414pt" height="506pt"
 viewBox="0.00 0.00 414.00 506.00" xmlns="http://www.w3.org/2000/svg" xmlns:xlink="http://www.w3.org/1999/xlink">
<g id="graph1" class="graph" transform="scale(1 1) rotate(0) translate(4 502)">
<title>g</title>
<polygon fill="white" stroke="white" points="-4,5 -4,-502 411,-502 411,5 -4,5"/>
<g id="graph2" class="cluster"><title>cluster_option</title>
<polygon fill="#f4f4f4" stroke="black" points="8,-8 8,-490 398,-490 398,-8 8,-8"/>
<text text-anchor="middle" x="203" y="-475.2" font-family="Arial" font-size="12.00" fill="#005a9c">option ballfollowing</text>
</g>
<g id="graph3" class="cluster"><title>cluster_states</title>
<polygon fill="#f4f4f4" stroke="#f4f4f4" points="16,-16 16,-112 390,-112 390,-16 16,-16"/>
</g>
<g id="graph10" class="cluster"><title>cluster_decision_tree</title>
<polygon fill="#ffffff" stroke="black" points="88,-156 88,-459 230,-459 230,-156 88,-156"/>
<text text-anchor="middle" x="159" y="-444.2" font-family="Arial" font-size="12.00" fill="#005a9c">state forward</text>
</g>
<!-- state_ballnotfound -->
<g id="node4" class="node"><title>state_ballnotfound</title>
<a xlink:href="option.ballfollowing.html#state_ballnotfound" xlink:title="ballnotfound">
<ellipse fill="#ffffff" stroke="black" cx="342" cy="-64" rx="40.0291" ry="40.0291"/>
<polyline fill="none" stroke="black" points="368.456,-94 315.544,-94 "/>
<polyline fill="none" stroke="black" points="368.456,-34 315.544,-34 "/>
<text text-anchor="middle" x="342" y="-61.4" font-family="Arial" font-size="9.00" fill="#005a9c">ballnotfound</text>
</a>
</g>
<!-- state_preparekick -->
<g id="node6" class="node"><title>state_preparekick</title>
<a xlink:href="option.ballfollowing.html#state_preparekick" xlink:title="preparekick">
<ellipse fill="#ffffff" stroke="black" cx="246" cy="-64" rx="37.7662" ry="38.2631"/>
<text text-anchor="middle" x="246" y="-61.4" font-family="Arial" font-size="9.00" fill="#005a9c">preparekick</text>
</a>
</g>
<!-- state_forward -->
<g id="node8" class="node"><title>state_forward</title>
<ellipse fill="none" stroke="black" stroke-dasharray="5,2" cx="163" cy="-64" rx="27.1641" ry="27.6672"/>
<text text-anchor="middle" x="163" y="-61.4" font-family="Arial" font-size="9.00" fill="#005a9c">forward</text>
</g>
<!-- state_left -->
<g id="node10" class="node"><title>state_left</title>
<a xlink:href="option.ballfollowing.html#state_left" xlink:title="left">
<ellipse fill="#ffffff" stroke="black" cx="100" cy="-64" rx="18" ry="18"/>
<text text-anchor="middle" x="100" y="-61.4" font-family="Arial" font-size="9.00" fill="#005a9c">left</text>
</a>
</g>
<!-- state_right -->
<g id="node12" class="node"><title>state_right</title>
<a xlink:href="option.ballfollowing.html#state_right" xlink:title="right">
<ellipse fill="#ffffff" stroke="black" cx="44" cy="-64" rx="20.1007" ry="20.6032"/>
<text text-anchor="middle" x="44" y="-61.4" font-family="Arial" font-size="9.00" fill="#005a9c">right</text>
</a>
</g>
<!-- start -->
<g id="node16" class="node"><title>start</title>
<ellipse fill="black" stroke="black" cx="195" cy="-426" rx="1.8" ry="1.8"/>
</g>
<!-- _0 -->
<g id="node18" class="node"><title>_0</title>
<a xlink:href="option.ballfollowing.html#state_forward_pseudo-code_0" xlink:title="Ball not\nfound">
<polygon fill="#ffffff" stroke="black" points="222,-395 168,-395 168,-359 222,-359 222,-395"/>
<text text-anchor="middle" x="195" y="-379.9" font-family="Arial Italic" font-size="9.00">Ball not</text>
<text text-anchor="middle" x="195" y="-368.9" font-family="Arial Italic" font-size="9.00">found</text>
</a>
</g>
<!-- start&#45;&gt;_0 -->
<g id="edge15" class="edge"><title>start&#45;&gt;_0</title>
<path fill="none" stroke="black" stroke-dasharray="5,2" d="M195,-423.895C195,-420.481 195,-413.341 195,-405.638"/>
<polygon fill="black" stroke="black" points="198.5,-405.455 195,-395.455 191.5,-405.455 198.5,-405.455"/>
</g>
<!-- _0&#45;&gt;state_ballnotfound -->
<g id="edge13" class="edge"><title>_0&#45;&gt;state_ballnotfound</title>
<path fill="none" stroke="black" stroke-dasharray="5,2" d="M211.379,-358.844C218.208,-350.524 225.755,-340.247 231,-330 248.554,-295.706 256,-285.526 256,-247 256,-247 256,-247 256,-182 256,-163.658 283.482,-128.345 307.375,-101.11"/>
<polygon fill="black" stroke="black" points="310.286,-103.104 314.316,-93.3054 305.055,-98.4522 310.286,-103.104"/>
<text text-anchor="middle" x="213.799" y="-347.041" font-family="Times Roman,serif" font-size="9.00">1</text>
</g>
<!-- _1_0 -->
<g id="node22" class="node"><title>_1_0</title>
<a xlink:href="option.ballfollowing.html#state_forward_pseudo-code_1_0" xlink:title="Ball is\nin front">
<polygon fill="#ffffff" stroke="black" points="222,-330 168,-330 168,-294 222,-294 222,-330"/>
<text text-anchor="middle" x="195" y="-314.9" font-family="Arial Italic" font-size="9.00">Ball is</text>
<text text-anchor="middle" x="195" y="-303.9" font-family="Arial Italic" font-size="9.00">in front</text>
</a>
</g>
<!-- _0&#45;&gt;_1_0 -->
<g id="edge25" class="edge"><title>_0&#45;&gt;_1_0</title>
<path fill="none" stroke="black" stroke-dasharray="5,2" d="M195,-358.894C195,-353.118 195,-346.583 195,-340.265"/>
<polygon fill="black" stroke="black" points="198.5,-340.009 195,-330.009 191.5,-340.009 198.5,-340.009"/>
<text text-anchor="middle" x="190.774" y="-347.231" font-family="Arial Bold Italic" font-size="9.00">0</text>
</g>
<!-- _1_0_0 -->
<g id="node24" class="node"><title>_1_0_0</title>
<a xlink:href="option.ballfollowing.html#state_forward_pseudo-code_1_0_0" xlink:title="Ball is\nnear">
<polygon fill="#ffffff" stroke="black" points="222,-265 168,-265 168,-229 222,-229 222,-265"/>
<text text-anchor="middle" x="195" y="-249.9" font-family="Arial Italic" font-size="9.00">Ball is</text>
<text text-anchor="middle" x="195" y="-238.9" font-family="Arial Italic" font-size="9.00">near</text>
</a>
</g>
<!-- _1_0&#45;&gt;_1_0_0 -->
<g id="edge21" class="edge"><title>_1_0&#45;&gt;_1_0_0</title>
<path fill="none" stroke="black" stroke-dasharray="5,2" d="M195,-293.894C195,-288.118 195,-281.583 195,-275.265"/>
<polygon fill="black" stroke="black" points="198.5,-275.009 195,-265.009 191.5,-275.009 198.5,-275.009"/>
<text text-anchor="middle" x="190.774" y="-282.231" font-family="Arial Bold Italic" font-size="9.00">1</text>
</g>
<!-- _1_1_0 -->
<g id="node30" class="node"><title>_1_1_0</title>
<a xlink:href="option.ballfollowing.html#state_forward_pseudo-code_1_1_0" xlink:title="Ball is\nleft">
<polygon fill="#ffffff" stroke="black" points="150,-265 96,-265 96,-229 150,-229 150,-265"/>
<text text-anchor="middle" x="123" y="-249.9" font-family="Arial Italic" font-size="9.00">Ball is</text>
<text text-anchor="middle" x="123" y="-238.9" font-family="Arial Italic" font-size="9.00">left</text>
</a>
</g>
<!-- _1_0&#45;&gt;_1_1_0 -->
<g id="edge30" class="edge"><title>_1_0&#45;&gt;_1_1_0</title>
<path fill="none" stroke="black" stroke-dasharray="5,2" d="M174.944,-293.894C167.376,-287.062 158.63,-279.166 150.498,-271.825"/>
<polygon fill="black" stroke="black" points="152.717,-269.112 142.948,-265.009 148.026,-274.308 152.717,-269.112"/>
<text text-anchor="middle" x="165.385" y="-288.358" font-family="Arial Bold Italic" font-size="9.00">0</text>
</g>
<!-- _1_0_0&#45;&gt;state_preparekick -->
<g id="edge19" class="edge"><title>_1_0_0&#45;&gt;state_preparekick</title>
<path fill="none" stroke="black" stroke-dasharray="5,2" d="M200.077,-228.784C207.663,-201.564 222.208,-149.371 232.904,-110.991"/>
<polygon fill="black" stroke="black" points="236.359,-111.633 235.672,-101.06 229.616,-109.754 236.359,-111.633"/>
<text text-anchor="middle" x="198.439" y="-216.819" font-family="Times Roman,serif" font-size="9.00">1</text>
</g>
<!-- _1_0_0&#45;&gt;state_forward -->
<g id="edge23" class="edge"><title>_1_0_0&#45;&gt;state_forward</title>
<path fill="none" stroke="black" stroke-dasharray="5,2" d="M191.815,-228.784C186.634,-199.157 176.28,-139.947 169.498,-101.162"/>
<polygon fill="black" stroke="black" points="172.942,-100.536 167.772,-91.2888 166.047,-101.742 172.942,-100.536"/>
<text text-anchor="middle" x="186.091" y="-218.485" font-family="Times Roman,serif" font-size="9.00">0</text>
</g>
<!-- _1_1_0&#45;&gt;state_left -->
<g id="edge28" class="edge"><title>_1_1_0&#45;&gt;state_left</title>
<path fill="none" stroke="black" stroke-dasharray="5,2" d="M141.611,-228.578C148.472,-220.521 155.436,-210.513 159,-200 165.278,-181.48 165.047,-174.597 159,-156 151.522,-133.005 140.061,-132.35 127,-112 122.352,-104.758 117.635,-96.6756 113.472,-89.2385"/>
<polygon fill="black" stroke="black" points="116.428,-87.3506 108.542,-80.2753 110.295,-90.7242 116.428,-87.3506"/>
<text text-anchor="middle" x="144.157" y="-216.808" font-family="Times Roman,serif" font-size="9.00">1</text>
</g>
<!-- _1_1_1_0 -->
<g id="node34" class="node"><title>_1_1_1_0</title>
<a xlink:href="option.ballfollowing.html#state_forward_pseudo-code_1_1_1_0" xlink:title="Ball is\nright">
<polygon fill="#ffffff" stroke="black" points="150,-200 96,-200 96,-164 150,-164 150,-200"/>
<text text-anchor="middle" x="123" y="-184.9" font-family="Arial Italic" font-size="9.00">Ball is</text>
<text text-anchor="middle" x="123" y="-173.9" font-family="Arial Italic" font-size="9.00">right</text>
</a>
</g>
<!-- _1_1_0&#45;&gt;_1_1_1_0 -->
<g id="edge35" class="edge"><title>_1_1_0&#45;&gt;_1_1_1_0</title>
<path fill="none" stroke="black" stroke-dasharray="5,2" d="M123,-228.894C123,-223.118 123,-216.583 123,-210.265"/>
<polygon fill="black" stroke="black" points="126.5,-210.009 123,-200.009 119.5,-210.009 126.5,-210.009"/>
<text text-anchor="middle" x="118.774" y="-217.231" font-family="Arial Bold Italic" font-size="9.00">0</text>
</g>
<!-- _1_1_1_0&#45;&gt;state_forward -->
<g id="edge37" class="edge"><title>_1_1_1_0&#45;&gt;state_forward</title>
<path fill="none" stroke="black" d="M129.162,-163.821C134.914,-146.855 143.659,-121.055 150.818,-99.9356"/>
<polygon fill="black" stroke="black" points="154.187,-100.901 154.082,-90.3071 147.557,-98.6541 154.187,-100.901"/>
<text text-anchor="middle" x="128.069" y="-151.781" font-family="Times Roman,serif" font-size="9.00">0</text>
</g>
<!-- _1_1_1_0&#45;&gt;state_right -->
<g id="edge33" class="edge"><title>_1_1_1_0&#45;&gt;state_right</title>
<path fill="none" stroke="black" stroke-dasharray="5,2" d="M109.45,-163.845C99.1621,-149.869 84.8192,-129.967 73,-112 68.5856,-105.289 64.0046,-97.919 59.8228,-91.011"/>
<polygon fill="black" stroke="black" points="62.559,-88.767 54.4211,-81.9828 56.5521,-92.3611 62.559,-88.767"/>
<text text-anchor="middle" x="100.681" y="-156.939" font-family="Times Roman,serif" font-size="9.00">1</text>
</g>
</g>
</svg>
