<?xml version="1.0" encoding="UTF-8" standalone="no"?>
<!DOCTYPE svg PUBLIC "-//W3C//DTD SVG 1.1//EN"
 "http://www.w3.org/Graphics/SVG/1.1/DTD/svg11.dtd">
<!-- Generated by graphviz version 2.26.3 (20100126.1600)
 -->
<!-- Title: g Pages: 1 -->
<svg width="374pt" height="551pt"
 viewBox="0.00 0.00 374.00 551.00" xmlns="http://www.w3.org/2000/svg" xmlns:xlink="http://www.w3.org/1999/xlink">
<g id="graph1" class="graph" transform="scale(1 1) rotate(0) translate(4 547)">
<title>g</title>
<polygon fill="white" stroke="white" points="-4,5 -4,-547 371,-547 371,5 -4,5"/>
<g id="graph2" class="cluster"><title>cluster_option</title>
<polygon fill="#f4f4f4" stroke="black" points="8,-8 8,-535 358,-535 358,-8 8,-8"/>
<text text-anchor="middle" x="183" y="-520.2" font-family="Arial" font-size="12.00" fill="#005a9c">option referee</text>
</g>
<g id="graph3" class="cluster"><title>cluster_states</title>
<polygon fill="#f4f4f4" stroke="#f4f4f4" points="16,-16 16,-92 350,-92 350,-16 16,-16"/>
</g>
<g id="graph10" class="cluster"><title>cluster_decision_tree</title>
<polygon fill="#ffffff" stroke="black" points="69,-136 69,-504 149,-504 149,-136 69,-136"/>
<text text-anchor="middle" x="109" y="-489.2" font-family="Arial" font-size="12.00" fill="#005a9c">state ready</text>
</g>
<!-- state_playing -->
<g id="node4" class="node"><title>state_playing</title>
<a xlink:href="option.referee.html#state_playing" xlink:title="playing">
<ellipse fill="#ffffff" stroke="black" cx="315" cy="-54" rx="27.0785" ry="27.0785"/>
<text text-anchor="middle" x="315" y="-51.4" font-family="Arial" font-size="9.00" fill="#005a9c">playing</text>
</a>
</g>
<!-- state__initial -->
<g id="node6" class="node"><title>state__initial</title>
<a xlink:href="option.referee.html#state__initial" xlink:title="_initial">
<ellipse fill="#ffffff" stroke="black" cx="244" cy="-54" rx="25.9012" ry="25.9012"/>
<polyline fill="none" stroke="black" points="261.196,-73.5 226.804,-73.5 "/>
<polyline fill="none" stroke="black" points="261.196,-34.5 226.804,-34.5 "/>
<text text-anchor="middle" x="244" y="-51.4" font-family="Arial" font-size="9.00" fill="#005a9c">_initial</text>
</a>
</g>
<!-- state_finished -->
<g id="node8" class="node"><title>state_finished</title>
<a xlink:href="option.referee.html#state_finished" xlink:title="finished">
<ellipse fill="#ffffff" stroke="black" cx="171" cy="-54" rx="28.9343" ry="29.4331"/>
<text text-anchor="middle" x="171" y="-51.4" font-family="Arial" font-size="9.00" fill="#005a9c">finished</text>
</a>
</g>
<!-- state_ready -->
<g id="node10" class="node"><title>state_ready</title>
<ellipse fill="none" stroke="black" stroke-dasharray="5,2" cx="101" cy="-54" rx="22.9579" ry="22.9579"/>
<text text-anchor="middle" x="101" y="-51.4" font-family="Arial" font-size="9.00" fill="#005a9c">ready</text>
</g>
<!-- state_set -->
<g id="node12" class="node"><title>state_set</title>
<a xlink:href="option.referee.html#state_set" xlink:title="set">
<ellipse fill="#ffffff" stroke="black" cx="42" cy="-54" rx="18" ry="18"/>
<text text-anchor="middle" x="42" y="-51.4" font-family="Arial" font-size="9.00" fill="#005a9c">set</text>
</a>
</g>
<!-- start -->
<g id="node16" class="node"><title>start</title>
<ellipse fill="black" stroke="black" cx="109" cy="-471" rx="1.8" ry="1.8"/>
</g>
<!-- _0 -->
<g id="node18" class="node"><title>_0</title>
<a xlink:href="option.referee.html#state_ready_pseudo-code_0" xlink:title="If state\nis PLAYING">
<polygon fill="#ffffff" stroke="black" points="141,-440 77,-440 77,-404 141,-404 141,-440"/>
<text text-anchor="middle" x="109" y="-424.9" font-family="Arial Italic" font-size="9.00">If state</text>
<text text-anchor="middle" x="109" y="-413.9" font-family="Arial Italic" font-size="9.00">is PLAYING</text>
</a>
</g>
<!-- start&#45;&gt;_0 -->
<g id="edge15" class="edge"><title>start&#45;&gt;_0</title>
<path fill="none" stroke="black" stroke-dasharray="5,2" d="M109,-468.895C109,-465.481 109,-458.341 109,-450.638"/>
<polygon fill="black" stroke="black" points="112.5,-450.455 109,-440.455 105.5,-450.455 112.5,-450.455"/>
</g>
<!-- _0&#45;&gt;state_playing -->
<g id="edge13" class="edge"><title>_0&#45;&gt;state_playing</title>
<path fill="none" stroke="black" stroke-dasharray="5,2" d="M141.199,-412.978C189.728,-397.186 276,-359.605 276,-292 276,-292 276,-292 276,-162 276,-135.55 286.476,-107.507 296.569,-86.6266"/>
<polygon fill="black" stroke="black" points="299.759,-88.073 301.14,-77.5685 293.51,-84.9191 299.759,-88.073"/>
<text text-anchor="middle" x="148.377" y="-403.915" font-family="Times Roman,serif" font-size="9.00">1</text>
</g>
<!-- _1_0 -->
<g id="node22" class="node"><title>_1_0</title>
<a xlink:href="option.referee.html#state_ready_pseudo-code_1_0">
<polygon fill="#ffffff" stroke="black" points="141,-375 87,-375 87,-339 141,-339 141,-375"/>
</a>
</g>
<!-- _0&#45;&gt;_1_0 -->
<g id="edge20" class="edge"><title>_0&#45;&gt;_1_0</title>
<path fill="none" stroke="black" stroke-dasharray="5,2" d="M110.393,-403.894C110.837,-398.118 111.34,-391.583 111.826,-385.265"/>
<polygon fill="black" stroke="black" points="115.337,-385.248 112.615,-375.009 108.358,-384.711 115.337,-385.248"/>
<text text-anchor="middle" x="106.874" y="-391.933" font-family="Arial Bold Italic" font-size="9.00">0</text>
</g>
<!-- _1_0&#45;&gt;state__initial -->
<g id="edge18" class="edge"><title>_1_0&#45;&gt;state__initial</title>
<path fill="none" stroke="black" stroke-dasharray="5,2" d="M141.062,-339.417C171.579,-317.216 217,-275.951 217,-227 217,-227 217,-227 217,-162 217,-136.754 224.03,-109.153 230.915,-88.1733"/>
<polygon fill="black" stroke="black" points="234.318,-89.04 234.252,-78.4454 227.697,-86.7685 234.318,-89.04"/>
<text text-anchor="middle" x="145.739" y="-328.478" font-family="Times Roman,serif" font-size="9.00">1</text>
</g>
<!-- _1_1_0 -->
<g id="node26" class="node"><title>_1_1_0</title>
<a xlink:href="option.referee.html#state_ready_pseudo-code_1_1_0">
<polygon fill="#ffffff" stroke="black" points="141,-310 87,-310 87,-274 141,-274 141,-310"/>
</a>
</g>
<!-- _1_0&#45;&gt;_1_1_0 -->
<g id="edge25" class="edge"><title>_1_0&#45;&gt;_1_1_0</title>
<path fill="none" stroke="black" stroke-dasharray="5,2" d="M114,-338.894C114,-333.118 114,-326.583 114,-320.265"/>
<polygon fill="black" stroke="black" points="117.5,-320.009 114,-310.009 110.5,-320.009 117.5,-320.009"/>
<text text-anchor="middle" x="109.774" y="-327.231" font-family="Arial Bold Italic" font-size="9.00">0</text>
</g>
<!-- _1_1_0&#45;&gt;state_finished -->
<g id="edge23" class="edge"><title>_1_1_0&#45;&gt;state_finished</title>
<path fill="none" stroke="black" stroke-dasharray="5,2" d="M131.664,-273.814C138.551,-265.646 145.79,-255.493 150,-245 169.842,-195.548 173.099,-133.451 172.742,-93.7391"/>
<polygon fill="black" stroke="black" points="176.241,-93.5928 172.57,-83.6543 169.242,-93.7128 176.241,-93.5928"/>
<text text-anchor="middle" x="134.18" y="-262.036" font-family="Times Roman,serif" font-size="9.00">1</text>
</g>
<!-- _1_1_1_0 -->
<g id="node30" class="node"><title>_1_1_1_0</title>
<a xlink:href="option.referee.html#state_ready_pseudo-code_1_1_1_0">
<polygon fill="#ffffff" stroke="black" points="141,-245 87,-245 87,-209 141,-209 141,-245"/>
</a>
</g>
<!-- _1_1_0&#45;&gt;_1_1_1_0 -->
<g id="edge30" class="edge"><title>_1_1_0&#45;&gt;_1_1_1_0</title>
<path fill="none" stroke="black" stroke-dasharray="5,2" d="M114,-273.894C114,-268.118 114,-261.583 114,-255.265"/>
<polygon fill="black" stroke="black" points="117.5,-255.009 114,-245.009 110.5,-255.009 117.5,-255.009"/>
<text text-anchor="middle" x="109.774" y="-262.231" font-family="Arial Bold Italic" font-size="9.00">0</text>
</g>
<!-- _1_1_1_0&#45;&gt;state_ready -->
<g id="edge28" class="edge"><title>_1_1_1_0&#45;&gt;state_ready</title>
<path fill="none" stroke="black" stroke-dasharray="5,2" d="M126.947,-208.716C132.086,-200.373 137.389,-190.112 140,-180 144.888,-161.065 144.305,-155.076 140,-136 135.775,-117.28 126.749,-97.8219 118.444,-82.5602"/>
<polygon fill="black" stroke="black" points="121.377,-80.6348 113.415,-73.6441 115.28,-84.0736 121.377,-80.6348"/>
<text text-anchor="middle" x="128.011" y="-196.672" font-family="Times Roman,serif" font-size="9.00">1</text>
</g>
<!-- _1_1_1_1_0 -->
<g id="node34" class="node"><title>_1_1_1_1_0</title>
<a xlink:href="option.referee.html#state_ready_pseudo-code_1_1_1_1_0">
<polygon fill="#ffffff" stroke="black" points="131,-180 77,-180 77,-144 131,-144 131,-180"/>
</a>
</g>
<!-- _1_1_1_0&#45;&gt;_1_1_1_1_0 -->
<g id="edge35" class="edge"><title>_1_1_1_0&#45;&gt;_1_1_1_1_0</title>
<path fill="none" stroke="black" stroke-dasharray="5,2" d="M111.214,-208.894C110.326,-203.118 109.32,-196.583 108.348,-190.265"/>
<polygon fill="black" stroke="black" points="111.751,-189.361 106.771,-180.009 104.832,-190.425 111.751,-189.361"/>
<text text-anchor="middle" x="105.659" y="-197.979" font-family="Arial Bold Italic" font-size="9.00">0</text>
</g>
<!-- _1_1_1_1_0&#45;&gt;state_ready -->
<g id="edge37" class="edge"><title>_1_1_1_1_0&#45;&gt;state_ready</title>
<path fill="none" stroke="black" d="M103.491,-143.679C103.064,-128.314 102.444,-105.973 101.929,-87.4345"/>
<polygon fill="black" stroke="black" points="105.424,-87.217 101.648,-77.318 98.4268,-87.4114 105.424,-87.217"/>
<text text-anchor="middle" x="99.0149" y="-132.637" font-family="Times Roman,serif" font-size="9.00">0</text>
</g>
<!-- _1_1_1_1_0&#45;&gt;state_set -->
<g id="edge33" class="edge"><title>_1_1_1_1_0&#45;&gt;state_set</title>
<path fill="none" stroke="black" stroke-dasharray="5,2" d="M93.4825,-143.679C83.2227,-125.807 67.5449,-98.4975 56.1857,-78.7106"/>
<polygon fill="black" stroke="black" points="59.1666,-76.873 51.1525,-69.943 53.0958,-80.3581 59.1666,-76.873"/>
<text text-anchor="middle" x="85.3052" y="-135.823" font-family="Times Roman,serif" font-size="9.00">1</text>
</g>
</g>
</svg>
