<?xml version="1.0" encoding="UTF-8" standalone="no"?>
<!DOCTYPE svg PUBLIC "-//W3C//DTD SVG 1.1//EN"
 "http://www.w3.org/Graphics/SVG/1.1/DTD/svg11.dtd">
<!-- Generated by graphviz version 2.26.3 (20100126.1600)
 -->
<!-- Title: g Pages: 1 -->
<svg width="376pt" height="368pt"
 viewBox="0.00 0.00 376.00 368.00" xmlns="http://www.w3.org/2000/svg" xmlns:xlink="http://www.w3.org/1999/xlink">
<g id="graph1" class="graph" transform="scale(1 1) rotate(0) translate(4 364)">
<title>g</title>
<polygon fill="white" stroke="white" points="-4,5 -4,-364 373,-364 373,5 -4,5"/>
<!-- option_ballfollowing -->
<g id="node2" class="node"><title>option_ballfollowing</title>
<a xlink:href="option.ballfollowing.html" xlink:title="ballfollowing">
<polygon fill="#ffffff" stroke="black" points="113,-90 45,-90 45,-54 113,-54 113,-90"/>
<text text-anchor="middle" x="79" y="-69.4" font-family="Arial" font-size="9.00" fill="#005a9c">ballfollowing</text>
</a>
</g>
<!-- basic_behavior_moveAcYuttemp -->
<g id="node4" class="node"><title>basic_behavior_moveAcYuttemp</title>
<a xlink:href="basic-behaviors.myBasicBehaviors.html#moveAcYuttemp" xlink:title="moveAcYuttemp">
<ellipse fill="#ffffff" stroke="black" cx="79" cy="-18" rx="47.7727" ry="18"/>
<text text-anchor="middle" x="79" y="-15.4" font-family="Arial" font-size="9.00" fill="#005a9c">moveAcYuttemp</text>
</a>
</g>
<!-- option_ballfollowing&#45;&gt;basic_behavior_moveAcYuttemp -->
<g id="edge39" class="edge"><title>option_ballfollowing&#45;&gt;basic_behavior_moveAcYuttemp</title>
<path fill="none" stroke="#808080" d="M79,-53.7181C79,-50.7272 79,-47.5764 79,-44.4358"/>
<polygon fill="#808080" stroke="#808080" points="81.8001,-44.2631 79,-36.2631 76.2001,-44.2631 81.8001,-44.2631"/>
</g>
<!-- option_ballfound -->
<g id="node6" class="node"><title>option_ballfound</title>
<a xlink:href="option.ballfound.html" xlink:title="ballfound">
<polygon fill="#ffffff" stroke="black" points="110,-198 56,-198 56,-162 110,-162 110,-198"/>
<text text-anchor="middle" x="83" y="-177.4" font-family="Arial" font-size="9.00" fill="#005a9c">ballfound</text>
</a>
</g>
<!-- basic_behavior_doMakePath -->
<g id="node11" class="node"><title>basic_behavior_doMakePath</title>
<a xlink:href="basic-behaviors.myBasicBehaviors.html#doMakePath" xlink:title="doMakePath">
<ellipse fill="#ffffff" stroke="black" cx="40" cy="-126" rx="40.0291" ry="18"/>
<text text-anchor="middle" x="40" y="-123.4" font-family="Arial" font-size="9.00" fill="#005a9c">doMakePath</text>
</a>
</g>
<!-- option_ballfound&#45;&gt;basic_behavior_doMakePath -->
<g id="edge43" class="edge"><title>option_ballfound&#45;&gt;basic_behavior_doMakePath</title>
<path fill="none" stroke="#808080" d="M68.4422,-161.718C65.3083,-157.782 61.9539,-153.57 58.6877,-149.468"/>
<polygon fill="#808080" stroke="#808080" points="60.8458,-147.683 53.6719,-143.169 56.465,-151.172 60.8458,-147.683"/>
</g>
<!-- option_checkpath -->
<g id="node35" class="node"><title>option_checkpath</title>
<a xlink:href="option.checkpath.html" xlink:title="checkpath">
<polygon fill="#ffffff" stroke="black" points="156,-144 98,-144 98,-108 156,-108 156,-144"/>
<text text-anchor="middle" x="127" y="-123.4" font-family="Arial" font-size="9.00" fill="#005a9c">checkpath</text>
</a>
</g>
<!-- option_ballfound&#45;&gt;option_checkpath -->
<g id="edge41" class="edge"><title>option_ballfound&#45;&gt;option_checkpath</title>
<path fill="none" stroke="#808080" d="M97.8964,-161.718C100.835,-158.111 103.963,-154.272 107.038,-150.499"/>
<polygon fill="#808080" stroke="#808080" points="109.236,-152.234 112.119,-144.263 104.895,-148.696 109.236,-152.234"/>
</g>
<!-- basic_behavior_doPathToWalk -->
<g id="node9" class="node"><title>basic_behavior_doPathToWalk</title>
<a xlink:href="basic-behaviors.myBasicBehaviors.html#doPathToWalk" xlink:title="doPathToWalk">
<ellipse fill="#ffffff" stroke="black" cx="175" cy="-72" rx="44.2357" ry="18"/>
<text text-anchor="middle" x="175" y="-69.4" font-family="Arial" font-size="9.00" fill="#005a9c">doPathToWalk</text>
</a>
</g>
<!-- option_begin -->
<g id="node13" class="node"><title>option_begin</title>
<a xlink:href="option.begin.html" xlink:title="begin">
<polygon fill="#ffffff" stroke="black" points="193,-306 139,-306 139,-270 193,-270 193,-306"/>
<text text-anchor="middle" x="166" y="-285.4" font-family="Arial" font-size="9.00" fill="#005a9c">begin</text>
</a>
</g>
<!-- basic_behavior_doInitialize -->
<g id="node24" class="node"><title>basic_behavior_doInitialize</title>
<a xlink:href="basic-behaviors.myBasicBehaviors.html#doInitialize" xlink:title="doInitialize">
<ellipse fill="#ffffff" stroke="black" cx="37" cy="-234" rx="34.8223" ry="18"/>
<text text-anchor="middle" x="37" y="-231.4" font-family="Arial" font-size="9.00" fill="#005a9c">doInitialize</text>
</a>
</g>
<!-- option_begin&#45;&gt;basic_behavior_doInitialize -->
<g id="edge49" class="edge"><title>option_begin&#45;&gt;basic_behavior_doInitialize</title>
<path fill="none" stroke="#808080" d="M138.957,-276.68C119.481,-268.527 93.0303,-257.455 71.9514,-248.631"/>
<polygon fill="#808080" stroke="#808080" points="72.9121,-245.998 64.4513,-245.491 70.7496,-251.163 72.9121,-245.998"/>
</g>
<!-- basic_behavior_doUpdate -->
<g id="node26" class="node"><title>basic_behavior_doUpdate</title>
<a xlink:href="basic-behaviors.myBasicBehaviors.html#doUpdate" xlink:title="doUpdate">
<ellipse fill="#ffffff" stroke="black" cx="123" cy="-234" rx="33.053" ry="18"/>
<text text-anchor="middle" x="123" y="-231.4" font-family="Arial" font-size="9.00" fill="#005a9c">doUpdate</text>
</a>
</g>
<!-- option_begin&#45;&gt;basic_behavior_doUpdate -->
<g id="edge51" class="edge"><title>option_begin&#45;&gt;basic_behavior_doUpdate</title>
<path fill="none" stroke="#808080" d="M151.442,-269.718C148.244,-265.702 144.817,-261.398 141.488,-257.217"/>
<polygon fill="#808080" stroke="#808080" points="143.558,-255.322 136.384,-250.808 139.178,-258.811 143.558,-255.322"/>
</g>
<!-- option_checklocalize -->
<g id="node28" class="node"><title>option_checklocalize</title>
<a xlink:href="option.checklocalize.html" xlink:title="checklocalize">
<polygon fill="#ffffff" stroke="black" points="244,-252 174,-252 174,-216 244,-216 244,-252"/>
<text text-anchor="middle" x="209" y="-231.4" font-family="Arial" font-size="9.00" fill="#005a9c">checklocalize</text>
</a>
</g>
<!-- option_begin&#45;&gt;option_checklocalize -->
<g id="edge45" class="edge"><title>option_begin&#45;&gt;option_checklocalize</title>
<path fill="none" stroke="#808080" d="M180.558,-269.718C183.36,-266.199 186.338,-262.459 189.272,-258.775"/>
<polygon fill="#808080" stroke="#808080" points="191.664,-260.266 194.457,-252.263 187.283,-256.777 191.664,-260.266"/>
</g>
<!-- option_reset -->
<g id="node53" class="node"><title>option_reset</title>
<a xlink:href="option.reset.html" xlink:title="reset">
<polygon fill="#ffffff" stroke="black" points="318,-252 264,-252 264,-216 318,-216 318,-252"/>
<text text-anchor="middle" x="291" y="-231.4" font-family="Arial" font-size="9.00" fill="#005a9c">reset</text>
</a>
</g>
<!-- option_begin&#45;&gt;option_reset -->
<g id="edge47" class="edge"><title>option_begin&#45;&gt;option_reset</title>
<path fill="none" stroke="#808080" d="M193.353,-273.884C196.249,-272.522 199.17,-271.201 202,-270 224.126,-260.607 230.776,-261.157 253,-252 254.097,-251.548 255.207,-251.081 256.326,-250.603"/>
<polygon fill="#808080" stroke="#808080" points="257.568,-253.115 263.753,-247.319 255.304,-247.993 257.568,-253.115"/>
</g>
<!-- basic_behavior_doLocalize -->
<g id="node18" class="node"><title>basic_behavior_doLocalize</title>
<a xlink:href="basic-behaviors.myBasicBehaviors.html#doLocalize" xlink:title="doLocalize">
<ellipse fill="#ffffff" stroke="black" cx="164" cy="-180" rx="35.9084" ry="18"/>
<text text-anchor="middle" x="164" y="-177.4" font-family="Arial" font-size="9.00" fill="#005a9c">doLocalize</text>
</a>
</g>
<!-- basic_behavior_doFindBall -->
<g id="node20" class="node"><title>basic_behavior_doFindBall</title>
<a xlink:href="basic-behaviors.myBasicBehaviors.html#doFindBall" xlink:title="doFindBall">
<ellipse fill="#ffffff" stroke="black" cx="254" cy="-180" rx="35.9084" ry="18"/>
<text text-anchor="middle" x="254" y="-177.4" font-family="Arial" font-size="9.00" fill="#005a9c">doFindBall</text>
</a>
</g>
<!-- basic_behavior_doReset -->
<g id="node22" class="node"><title>basic_behavior_doReset</title>
<a xlink:href="basic-behaviors.myBasicBehaviors.html#doReset" xlink:title="doReset">
<ellipse fill="#ffffff" stroke="black" cx="338" cy="-180" rx="30.1087" ry="18"/>
<text text-anchor="middle" x="338" y="-177.4" font-family="Arial" font-size="9.00" fill="#005a9c">doReset</text>
</a>
</g>
<!-- option_checklocalize&#45;&gt;option_ballfound -->
<g id="edge53" class="edge"><title>option_checklocalize&#45;&gt;option_ballfound</title>
<path fill="none" stroke="#808080" d="M173.955,-219.607C170.929,-218.381 167.912,-217.165 165,-216 144.617,-207.844 139.061,-206.918 119,-198 118.449,-197.755 117.895,-197.506 117.337,-197.254"/>
<polygon fill="#808080" stroke="#808080" points="118.435,-194.676 110.001,-193.829 116.066,-199.751 118.435,-194.676"/>
</g>
<!-- option_checklocalize&#45;&gt;basic_behavior_doLocalize -->
<g id="edge55" class="edge"><title>option_checklocalize&#45;&gt;basic_behavior_doLocalize</title>
<path fill="none" stroke="#808080" d="M193.765,-215.718C190.418,-211.702 186.832,-207.398 183.348,-203.217"/>
<polygon fill="#808080" stroke="#808080" points="185.28,-201.162 178.007,-196.808 180.977,-204.747 185.28,-201.162"/>
</g>
<!-- option_checklocalize&#45;&gt;basic_behavior_doFindBall -->
<g id="edge57" class="edge"><title>option_checklocalize&#45;&gt;basic_behavior_doFindBall</title>
<path fill="none" stroke="#808080" d="M224.235,-215.718C227.582,-211.702 231.168,-207.398 234.652,-203.217"/>
<polygon fill="#808080" stroke="#808080" points="237.023,-204.747 239.993,-196.808 232.72,-201.162 237.023,-204.747"/>
</g>
<!-- option_checkpath&#45;&gt;option_ballfollowing -->
<g id="edge59" class="edge"><title>option_checkpath&#45;&gt;option_ballfollowing</title>
<path fill="none" stroke="#808080" d="M110.749,-107.718C107.543,-104.111 104.131,-100.272 100.777,-96.4988"/>
<polygon fill="#808080" stroke="#808080" points="102.642,-94.3822 95.2339,-90.2631 98.4561,-98.1026 102.642,-94.3822"/>
</g>
<!-- option_checkpath&#45;&gt;basic_behavior_doPathToWalk -->
<g id="edge61" class="edge"><title>option_checkpath&#45;&gt;basic_behavior_doPathToWalk</title>
<path fill="none" stroke="#808080" d="M143.251,-107.718C146.832,-103.689 150.672,-99.3693 154.4,-95.1755"/>
<polygon fill="#808080" stroke="#808080" points="156.516,-97.0089 159.738,-89.1694 152.331,-93.2885 156.516,-97.0089"/>
</g>
<!-- option_path -->
<g id="node39" class="node"><title>option_path</title>
<a xlink:href="option.path.html" xlink:title="path">
<polygon fill="#ffffff" stroke="black" points="269,-360 215,-360 215,-324 269,-324 269,-360"/>
<text text-anchor="middle" x="242" y="-339.4" font-family="Arial" font-size="9.00" fill="#005a9c">path</text>
</a>
</g>
<!-- basic_behavior_printmsg -->
<g id="node41" class="node"><title>basic_behavior_printmsg</title>
<a xlink:href="basic-behaviors.myBasicBehaviors.html#printmsg" xlink:title="printmsg">
<ellipse fill="#ffffff" stroke="black" cx="242" cy="-288" rx="31.1991" ry="18"/>
<text text-anchor="middle" x="242" y="-285.4" font-family="Arial" font-size="9.00" fill="#005a9c">printmsg</text>
</a>
</g>
<!-- option_path&#45;&gt;basic_behavior_printmsg -->
<g id="edge63" class="edge"><title>option_path&#45;&gt;basic_behavior_printmsg</title>
<path fill="none" stroke="#808080" d="M242,-323.718C242,-320.727 242,-317.576 242,-314.436"/>
<polygon fill="#808080" stroke="#808080" points="244.8,-314.263 242,-306.263 239.2,-314.263 244.8,-314.263"/>
</g>
<!-- option_referee -->
<g id="node43" class="node"><title>option_referee</title>
<a xlink:href="option.referee.html" xlink:title="referee">
<polygon fill="#ffffff" stroke="black" points="193,-360 139,-360 139,-324 193,-324 193,-360"/>
<text text-anchor="middle" x="166" y="-339.4" font-family="Arial" font-size="9.00" fill="#005a9c">referee</text>
</a>
</g>
<!-- option_referee&#45;&gt;option_begin -->
<g id="edge65" class="edge"><title>option_referee&#45;&gt;option_begin</title>
<path fill="none" stroke="#808080" d="M166,-323.718C166,-320.727 166,-317.576 166,-314.436"/>
<polygon fill="#808080" stroke="#808080" points="168.8,-314.263 166,-306.263 163.2,-314.263 168.8,-314.263"/>
</g>
<!-- option_reset&#45;&gt;basic_behavior_doReset -->
<g id="edge67" class="edge"><title>option_reset&#45;&gt;basic_behavior_doReset</title>
<path fill="none" stroke="#808080" d="M306.912,-215.718C310.634,-211.442 314.64,-206.839 318.498,-202.407"/>
<polygon fill="#808080" stroke="#808080" points="320.854,-203.965 323.994,-196.092 316.63,-200.288 320.854,-203.965"/>
</g>
</g>
</svg>
