<?xml version="1.0" encoding="UTF-8" standalone="no"?>
<!DOCTYPE svg PUBLIC "-//W3C//DTD SVG 1.1//EN"
 "http://www.w3.org/Graphics/SVG/1.1/DTD/svg11.dtd">
<!-- Generated by graphviz version 2.26.3 (20100126.1600)
 -->
<!-- Title: g Pages: 1 -->
<svg width="186pt" height="362pt"
 viewBox="0.00 0.00 186.00 362.00" xmlns="http://www.w3.org/2000/svg" xmlns:xlink="http://www.w3.org/1999/xlink">
<g id="graph1" class="graph" transform="scale(1 1) rotate(0) translate(4 358)">
<title>g</title>
<polygon fill="white" stroke="white" points="-4,5 -4,-358 183,-358 183,5 -4,5"/>
<g id="graph2" class="cluster"><title>cluster_option</title>
<polygon fill="#f4f4f4" stroke="black" points="8,-8 8,-346 170,-346 170,-8 8,-8"/>
<text text-anchor="middle" x="89" y="-331.2" font-family="Arial" font-size="12.00" fill="#005a9c">option ballfound</text>
</g>
<g id="graph3" class="cluster"><title>cluster_states</title>
<polygon fill="#f4f4f4" stroke="#f4f4f4" points="16,-16 16,-98 162,-98 162,-16 16,-16"/>
</g>
<g id="graph7" class="cluster"><title>cluster_decision_tree</title>
<polygon fill="#ffffff" stroke="black" points="16,-142 16,-315 92,-315 92,-142 16,-142"/>
<text text-anchor="middle" x="54" y="-300.2" font-family="Arial" font-size="12.00" fill="#005a9c">state noball</text>
</g>
<!-- state_ballfound -->
<g id="node4" class="node"><title>state_ballfound</title>
<a xlink:href="option.ballfound.html#state_ballfound" xlink:title="ballfound">
<ellipse fill="#ffffff" stroke="black" cx="122" cy="-57" rx="31.8784" ry="32.3765"/>
<polyline fill="none" stroke="black" points="143.165,-81.375 100.835,-81.375 "/>
<polyline fill="none" stroke="black" points="143.165,-32.625 100.835,-32.625 "/>
<text text-anchor="middle" x="122" y="-54.4" font-family="Arial" font-size="9.00" fill="#005a9c">ballfound</text>
</a>
</g>
<!-- state_noball -->
<g id="node6" class="node"><title>state_noball</title>
<ellipse fill="none" stroke="black" stroke-dasharray="5,2" cx="48" cy="-57" rx="24.2193" ry="24.7238"/>
<text text-anchor="middle" x="48" y="-54.4" font-family="Arial" font-size="9.00" fill="#005a9c">noball</text>
</g>
<!-- start -->
<g id="node10" class="node"><title>start</title>
<ellipse fill="black" stroke="black" cx="54" cy="-282" rx="1.8" ry="1.8"/>
</g>
<!-- _0 -->
<g id="node12" class="node"><title>_0</title>
<a xlink:href="option.ballfound.html#state_noball_pseudo-code_0">
<polygon fill="#ffffff" stroke="black" points="81,-251 27,-251 27,-215 81,-215 81,-251"/>
</a>
</g>
<!-- start&#45;&gt;_0 -->
<g id="edge12" class="edge"><title>start&#45;&gt;_0</title>
<path fill="none" stroke="black" stroke-dasharray="5,2" d="M54,-279.895C54,-276.481 54,-269.341 54,-261.638"/>
<polygon fill="black" stroke="black" points="57.5001,-261.455 54,-251.455 50.5001,-261.455 57.5001,-261.455"/>
</g>
<!-- _0&#45;&gt;state_ballfound -->
<g id="edge10" class="edge"><title>_0&#45;&gt;state_ballfound</title>
<path fill="none" stroke="black" stroke-dasharray="5,2" d="M69.0768,-214.713C75.3493,-206.37 82.2584,-196.11 87,-186 100.005,-158.271 108.903,-124.847 114.472,-98.9692"/>
<polygon fill="black" stroke="black" points="117.917,-99.5958 116.516,-89.0939 111.062,-98.1771 117.917,-99.5958"/>
<text text-anchor="middle" x="71.0825" y="-202.816" font-family="Times Roman,serif" font-size="9.00">1</text>
</g>
<!-- _1_0 -->
<g id="node16" class="node"><title>_1_0</title>
<a xlink:href="option.ballfound.html#state_noball_pseudo-code_1_0">
<polygon fill="#ffffff" stroke="black" points="78,-186 24,-186 24,-150 78,-150 78,-186"/>
</a>
</g>
<!-- _0&#45;&gt;_1_0 -->
<g id="edge17" class="edge"><title>_0&#45;&gt;_1_0</title>
<path fill="none" stroke="black" stroke-dasharray="5,2" d="M53.1643,-214.894C52.8978,-209.118 52.5961,-202.583 52.3045,-196.265"/>
<polygon fill="black" stroke="black" points="55.7886,-195.837 51.8312,-186.009 48.796,-196.16 55.7886,-195.837"/>
<text text-anchor="middle" x="48.5248" y="-203.435" font-family="Arial Bold Italic" font-size="9.00">0</text>
</g>
<!-- _1_0&#45;&gt;state_noball -->
<g id="edge15" class="edge"><title>_1_0&#45;&gt;state_noball</title>
<path fill="none" stroke="black" stroke-dasharray="5,2" d="M45.3383,-149.671C43.2905,-133.876 42.2861,-110.649 42.6334,-91.4"/>
<polygon fill="black" stroke="black" points="46.1386,-91.2971 42.9674,-81.188 39.1423,-91.0682 46.1386,-91.2971"/>
<text text-anchor="middle" x="40.0815" y="-139.064" font-family="Times Roman,serif" font-size="9.00">1</text>
</g>
<!-- _1_0&#45;&gt;state_noball -->
<g id="edge19" class="edge"><title>_1_0&#45;&gt;state_noball</title>
<path fill="none" stroke="black" d="M55.6709,-149.671C56.8784,-133.699 56.608,-110.126 55.1788,-90.7525"/>
<polygon fill="black" stroke="black" points="58.6645,-90.4355 54.2978,-80.7825 51.6917,-91.0518 58.6645,-90.4355"/>
<text text-anchor="middle" x="52.028" y="-138.258" font-family="Times Roman,serif" font-size="9.00">0</text>
</g>
</g>
</svg>
