<?xml version="1.0" encoding="UTF-8" standalone="no"?>
<!DOCTYPE svg PUBLIC "-//W3C//DTD SVG 1.1//EN"
 "http://www.w3.org/Graphics/SVG/1.1/DTD/svg11.dtd">
<!-- Generated by graphviz version 2.26.3 (20100126.1600)
 -->
<!-- Title: g Pages: 1 -->
<svg width="522pt" height="723pt"
 viewBox="0.00 0.00 522.00 723.00" xmlns="http://www.w3.org/2000/svg" xmlns:xlink="http://www.w3.org/1999/xlink">
<g id="graph1" class="graph" transform="scale(1 1) rotate(0) translate(4 719)">
<title>g</title>
<polygon fill="white" stroke="white" points="-4,5 -4,-719 519,-719 519,5 -4,5"/>
<g id="graph2" class="cluster"><title>cluster_option</title>
<polygon fill="#f4f4f4" stroke="black" points="8,-460 8,-707 302,-707 302,-460 8,-460"/>
<text text-anchor="middle" x="155" y="-692.2" font-family="Arial" font-size="12.00" fill="#005a9c">option referee</text>
</g>
<g id="graph11" class="cluster"><title>cluster_option_tree</title>
<polygon fill="none" stroke="#ffffff" points="164,-8 164,-385 506,-385 506,-8 164,-8"/>
</g>
<!-- state_playing -->
<g id="node4" class="node"><title>state_playing</title>
<a xlink:href="option.referee.html#state_playing" xlink:title="playing">
<ellipse fill="#ffffff" stroke="black" cx="164" cy="-649" rx="27.0785" ry="27.0785"/>
<text text-anchor="middle" x="164" y="-646.4" font-family="Arial" font-size="9.00" fill="#005a9c">playing</text>
</a>
</g>
<!-- state_playing&#45;&gt;state_playing -->
<g id="edge11" class="edge"><title>state_playing&#45;&gt;state_playing</title>
<path fill="none" stroke="black" d="M186.427,-664.053C200.08,-667.539 213,-662.521 213,-649 213,-638.965 205.883,-633.613 196.632,-632.946"/>
<polygon fill="black" stroke="black" points="196.038,-629.488 186.427,-633.947 196.721,-636.454 196.038,-629.488"/>
</g>
<!-- state_finished -->
<g id="node7" class="node"><title>state_finished</title>
<a xlink:href="option.referee.html#state_finished" xlink:title="finished">
<ellipse fill="#ffffff" stroke="black" cx="69" cy="-563" rx="28.9343" ry="29.4331"/>
<text text-anchor="middle" x="69" y="-560.4" font-family="Arial" font-size="9.00" fill="#005a9c">finished</text>
</a>
</g>
<!-- state_playing&#45;&gt;state_finished -->
<g id="edge15" class="edge"><title>state_playing&#45;&gt;state_finished</title>
<path fill="none" stroke="black" d="M141.015,-634.02C126.886,-622.791 109,-607.047 94.4818,-593.236"/>
<polygon fill="black" stroke="black" points="96.8545,-590.661 87.234,-586.223 91.9871,-595.692 96.8545,-590.661"/>
</g>
<!-- state__initial -->
<g id="node9" class="node"><title>state__initial</title>
<a xlink:href="option.referee.html#state__initial" xlink:title="_initial">
<ellipse fill="#ffffff" stroke="black" cx="164" cy="-563" rx="25.9012" ry="25.9012"/>
<polyline fill="none" stroke="black" points="181.196,-582.5 146.804,-582.5 "/>
<polyline fill="none" stroke="black" points="181.196,-543.5 146.804,-543.5 "/>
<text text-anchor="middle" x="164" y="-560.4" font-family="Arial" font-size="9.00" fill="#005a9c">_initial</text>
</a>
</g>
<!-- state_playing&#45;&gt;state__initial -->
<g id="edge13" class="edge"><title>state_playing&#45;&gt;state__initial</title>
<path fill="none" stroke="black" d="M156.332,-622.73C155.763,-614.95 155.611,-606.304 155.876,-598.062"/>
<polygon fill="black" stroke="black" points="159.379,-598.11 156.435,-587.933 152.389,-597.725 159.379,-598.11"/>
</g>
<!-- state_ready -->
<g id="node11" class="node"><title>state_ready</title>
<a xlink:href="option.referee.html#state_ready" xlink:title="ready">
<ellipse fill="#ffffff" stroke="black" cx="253" cy="-563" rx="22.9579" ry="22.9579"/>
<text text-anchor="middle" x="253" y="-560.4" font-family="Arial" font-size="9.00" fill="#005a9c">ready</text>
</a>
</g>
<!-- state_playing&#45;&gt;state_ready -->
<g id="edge17" class="edge"><title>state_playing&#45;&gt;state_ready</title>
<path fill="none" stroke="black" d="M179.601,-626.853C192.56,-613.037 210.885,-595.431 226.118,-582.207"/>
<polygon fill="black" stroke="black" points="228.39,-584.869 233.757,-575.734 223.865,-579.529 228.39,-584.869"/>
</g>
<!-- state_set -->
<g id="node14" class="node"><title>state_set</title>
<a xlink:href="option.referee.html#state_set" xlink:title="set">
<ellipse fill="#ffffff" stroke="black" cx="88" cy="-486" rx="18" ry="18"/>
<text text-anchor="middle" x="88" y="-483.4" font-family="Arial" font-size="9.00" fill="#005a9c">set</text>
</a>
</g>
<!-- state_playing&#45;&gt;state_set -->
<g id="edge19" class="edge"><title>state_playing&#45;&gt;state_set</title>
<path fill="none" stroke="black" d="M136.923,-647.386C102.009,-643.704 43.8581,-631.721 18,-593 3.19048,-570.824 6.42343,-557.023 18,-533 26.4594,-515.446 45.0173,-502.42 61.2366,-494.588"/>
<polygon fill="black" stroke="black" points="62.6548,-497.788 70.4221,-490.582 59.8566,-491.372 62.6548,-497.788"/>
</g>
<!-- option_begin -->
<g id="node42" class="node"><title>option_begin</title>
<a xlink:href="option.begin.html" xlink:title="begin">
<polygon fill="#ffffff" stroke="black" points="401,-377 347,-377 347,-341 401,-341 401,-377"/>
<text text-anchor="middle" x="374" y="-356.4" font-family="Arial" font-size="9.00" fill="#005a9c">begin</text>
</a>
</g>
<!-- state_playing&#45;&gt;option_begin -->
<g id="edge113" class="edge"><title>state_playing&#45;&gt;option_begin</title>
<path fill="none" stroke="#808080" stroke-dasharray="5,2" d="M191.247,-647.182C228.26,-643.295 294.347,-631.115 334,-593 370.602,-557.817 374,-536.77 374,-486 374,-486 374,-486 374,-438 374,-420.41 374,-400.617 374,-385.243"/>
<polygon fill="#808080" stroke="#808080" points="376.8,-385.199 374,-377.199 371.2,-385.199 376.8,-385.199"/>
</g>
<!-- basic_behavior_printmsg -->
<g id="node70" class="node"><title>basic_behavior_printmsg</title>
<a xlink:href="basic-behaviors.myBasicBehaviors.html#printmsg" xlink:title="printmsg">
<ellipse fill="#ffffff" stroke="black" cx="204" cy="-359" rx="31.1991" ry="18"/>
<text text-anchor="middle" x="204" y="-356.4" font-family="Arial" font-size="9.00" fill="#005a9c">printmsg</text>
</a>
</g>
<!-- state_playing&#45;&gt;basic_behavior_printmsg -->
<g id="edge103" class="edge"><title>state_playing&#45;&gt;basic_behavior_printmsg</title>
<path fill="none" stroke="#808080" stroke-dasharray="5,2" d="M190.971,-645.905C223.08,-640.74 275.993,-627.283 305,-593 336.419,-555.867 328,-534.642 328,-486 328,-486 328,-486 328,-438 328,-396.59 278.203,-375.938 241.722,-366.365"/>
<polygon fill="#808080" stroke="#808080" points="242.14,-363.584 233.701,-364.379 240.794,-369.02 242.14,-363.584"/>
</g>
<!-- state_finished&#45;&gt;state_playing -->
<g id="edge21" class="edge"><title>state_finished&#45;&gt;state_playing</title>
<path fill="none" stroke="black" d="M93.593,-579.264C107.887,-590.737 125.617,-606.418 139.819,-620.006"/>
<polygon fill="black" stroke="black" points="137.698,-622.826 147.303,-627.299 142.584,-617.813 137.698,-622.826"/>
</g>
<!-- state_finished&#45;&gt;state_finished -->
<g id="edge25" class="edge"><title>state_finished&#45;&gt;state_finished</title>
<path fill="none" stroke="black" d="M94.7163,-576.749C108.014,-578.864 120,-574.281 120,-563 120,-554.715 113.536,-550.043 104.835,-548.983"/>
<polygon fill="black" stroke="black" points="104.62,-545.488 94.7163,-549.251 104.805,-552.485 104.62,-545.488"/>
</g>
<!-- state_finished&#45;&gt;state__initial -->
<g id="edge23" class="edge"><title>state_finished&#45;&gt;state__initial</title>
<path fill="none" stroke="black" d="M93.1211,-546.235C106.544,-540.08 119.966,-539.226 133.388,-543.672"/>
<polygon fill="black" stroke="black" points="132.107,-546.93 142.681,-547.597 134.831,-540.482 132.107,-546.93"/>
</g>
<!-- state_finished&#45;&gt;state_ready -->
<g id="edge27" class="edge"><title>state_finished&#45;&gt;state_ready</title>
<path fill="none" stroke="black" d="M92.2545,-581.167C104.055,-589.245 119.035,-597.855 134,-602 167.409,-611.254 179.809,-614.865 212,-602 219.275,-599.093 225.996,-594.212 231.803,-588.869"/>
<polygon fill="black" stroke="black" points="234.597,-591.02 239.12,-581.44 229.609,-586.109 234.597,-591.02"/>
</g>
<!-- state_finished&#45;&gt;state_set -->
<g id="edge29" class="edge"><title>state_finished&#45;&gt;state_set</title>
<path fill="none" stroke="black" d="M68.243,-533.45C69.7494,-525.955 71.812,-517.981 74.1289,-510.752"/>
<polygon fill="black" stroke="black" points="77.4886,-511.75 77.5423,-501.155 70.8934,-509.404 77.4886,-511.75"/>
</g>
<!-- state_finished&#45;&gt;basic_behavior_printmsg -->
<g id="edge105" class="edge"><title>state_finished&#45;&gt;basic_behavior_printmsg</title>
<path fill="none" stroke="#808080" stroke-dasharray="5,2" d="M92.8392,-545.563C106.45,-534.727 123.116,-519.87 135,-504 163.378,-466.103 184.47,-414.676 195.455,-384.347"/>
<polygon fill="#808080" stroke="#808080" points="198.115,-385.223 198.155,-376.747 192.838,-383.348 198.115,-385.223"/>
</g>
<!-- state__initial&#45;&gt;state_playing -->
<g id="edge31" class="edge"><title>state__initial&#45;&gt;state_playing</title>
<path fill="none" stroke="black" d="M171.565,-587.933C172.182,-595.608 172.382,-604.223 172.165,-612.508"/>
<polygon fill="black" stroke="black" points="168.658,-612.572 171.668,-622.73 175.65,-612.912 168.658,-612.572"/>
</g>
<!-- state__initial&#45;&gt;state_finished -->
<g id="edge35" class="edge"><title>state__initial&#45;&gt;state_finished</title>
<path fill="none" stroke="black" d="M142.681,-578.403C129.388,-585.229 116.094,-586.856 102.801,-583.285"/>
<polygon fill="black" stroke="black" points="103.715,-579.893 93.1211,-579.765 101.323,-586.472 103.715,-579.893"/>
</g>
<!-- state__initial&#45;&gt;state__initial -->
<g id="edge33" class="edge"><title>state__initial&#45;&gt;state__initial</title>
<path fill="none" stroke="black" d="M186.716,-576.467C199.811,-579.216 212,-574.727 212,-563 212,-554.388 205.426,-549.68 196.748,-548.875"/>
<polygon fill="black" stroke="black" points="196.466,-545.385 186.716,-549.533 196.924,-552.37 196.466,-545.385"/>
</g>
<!-- state__initial&#45;&gt;state_ready -->
<g id="edge37" class="edge"><title>state__initial&#45;&gt;state_ready</title>
<path fill="none" stroke="black" d="M185.902,-548.529C198.768,-542.803 211.633,-541.967 224.499,-546.02"/>
<polygon fill="black" stroke="black" points="223.285,-549.305 233.867,-549.836 225.926,-542.823 223.285,-549.305"/>
</g>
<!-- state__initial&#45;&gt;state_set -->
<g id="edge39" class="edge"><title>state__initial&#45;&gt;state_set</title>
<path fill="none" stroke="black" d="M142.258,-547.787C129.906,-536.929 114.964,-522.113 103.72,-509.712"/>
<polygon fill="black" stroke="black" points="106.158,-507.183 96.9302,-501.976 100.897,-511.801 106.158,-507.183"/>
</g>
<!-- state__initial&#45;&gt;basic_behavior_printmsg -->
<g id="edge107" class="edge"><title>state__initial&#45;&gt;basic_behavior_printmsg</title>
<path fill="none" stroke="#808080" stroke-dasharray="5,2" d="M169.066,-537.163C176.708,-498.19 191.108,-424.751 198.817,-385.431"/>
<polygon fill="#808080" stroke="#808080" points="201.654,-385.514 200.446,-377.125 196.159,-384.436 201.654,-385.514"/>
</g>
<!-- state_ready&#45;&gt;state_playing -->
<g id="edge41" class="edge"><title>state_ready&#45;&gt;state_playing</title>
<path fill="none" stroke="black" d="M240.176,-582.155C228.059,-595.362 209.957,-612.959 194.318,-626.783"/>
<polygon fill="black" stroke="black" points="191.682,-624.435 186.409,-633.625 196.261,-629.73 191.682,-624.435"/>
</g>
<!-- state_ready&#45;&gt;state_finished -->
<g id="edge45" class="edge"><title>state_ready&#45;&gt;state_finished</title>
<path fill="none" stroke="black" d="M239.849,-582.177C231.311,-592.851 219.154,-605.137 205,-611 178.721,-621.885 168.224,-619.243 141,-611 125.93,-606.437 111.13,-597.564 98.9064,-588.676"/>
<polygon fill="black" stroke="black" points="100.961,-585.841 90.8834,-582.572 96.7231,-591.413 100.961,-585.841"/>
</g>
<!-- state_ready&#45;&gt;state__initial -->
<g id="edge43" class="edge"><title>state_ready&#45;&gt;state__initial</title>
<path fill="none" stroke="black" d="M233.867,-576.164C221.126,-582.529 208.386,-584.098 195.645,-580.873"/>
<polygon fill="black" stroke="black" points="196.497,-577.463 185.902,-577.471 194.19,-584.072 196.497,-577.463"/>
</g>
<!-- state_ready&#45;&gt;state_ready -->
<g id="edge47" class="edge"><title>state_ready&#45;&gt;state_ready</title>
<path fill="none" stroke="black" d="M272.427,-575.994C285.386,-579.652 298,-575.32 298,-563 298,-553.952 291.197,-549.213 282.451,-548.782"/>
<polygon fill="black" stroke="black" points="281.929,-545.32 272.427,-550.006 282.777,-552.268 281.929,-545.32"/>
</g>
<!-- state_ready&#45;&gt;state_set -->
<g id="edge49" class="edge"><title>state_ready&#45;&gt;state_set</title>
<path fill="none" stroke="black" d="M232.881,-551.845C225.175,-545.626 216.675,-538.126 208,-533 178.016,-515.281 140.267,-502.616 114.966,-494.93"/>
<polygon fill="black" stroke="black" points="115.853,-491.542 105.27,-492.036 113.851,-498.25 115.853,-491.542"/>
</g>
<!-- state_ready&#45;&gt;basic_behavior_printmsg -->
<g id="edge109" class="edge"><title>state_ready&#45;&gt;basic_behavior_printmsg</title>
<path fill="none" stroke="#808080" stroke-dasharray="5,2" d="M247.569,-540.389C238.403,-502.23 219.92,-425.278 210.237,-384.968"/>
<polygon fill="#808080" stroke="#808080" points="212.903,-384.075 208.312,-376.95 207.457,-385.383 212.903,-384.075"/>
</g>
<!-- state_set&#45;&gt;state_playing -->
<g id="edge51" class="edge"><title>state_set&#45;&gt;state_playing</title>
<path fill="none" stroke="black" d="M74.1221,-497.803C62.4898,-505.783 47.3907,-517.663 40,-533 28.4234,-557.023 25.1905,-570.824 40,-593 59.7274,-622.541 98.2503,-636.519 127.314,-643.122"/>
<polygon fill="black" stroke="black" points="126.65,-646.559 137.153,-645.163 128.072,-639.705 126.65,-646.559"/>
</g>
<!-- state_set&#45;&gt;state_finished -->
<g id="edge55" class="edge"><title>state_set&#45;&gt;state_finished</title>
<path fill="none" stroke="black" d="M90.6622,-504.029C89.8017,-510.992 88.1459,-519.216 86.0459,-527.276"/>
<polygon fill="black" stroke="black" points="82.6692,-526.355 83.2878,-536.931 89.4,-528.277 82.6692,-526.355"/>
</g>
<!-- state_set&#45;&gt;state__initial -->
<g id="edge53" class="edge"><title>state_set&#45;&gt;state__initial</title>
<path fill="none" stroke="black" d="M103.23,-495.664C114.666,-505.056 130.017,-519.808 142.565,-533.113"/>
<polygon fill="black" stroke="black" points="140.229,-535.744 149.578,-540.728 145.378,-531.002 140.229,-535.744"/>
</g>
<!-- state_set&#45;&gt;state_ready -->
<g id="edge57" class="edge"><title>state_set&#45;&gt;state_ready</title>
<path fill="none" stroke="black" d="M105.998,-488.651C134.661,-494.306 189.436,-509.029 230,-533 231.538,-533.909 233.07,-534.892 234.577,-535.929"/>
<polygon fill="black" stroke="black" points="232.771,-538.958 242.818,-542.322 237.062,-533.427 232.771,-538.958"/>
</g>
<!-- state_set&#45;&gt;state_set -->
<g id="edge59" class="edge"><title>state_set&#45;&gt;state_set</title>
<path fill="none" stroke="black" d="M104.435,-494.031C116.241,-496.646 128,-493.969 128,-486 128,-480.397 122.186,-477.41 114.631,-477.039"/>
<polygon fill="black" stroke="black" points="114.076,-473.575 104.435,-477.969 114.712,-480.546 114.076,-473.575"/>
</g>
<!-- state_set&#45;&gt;basic_behavior_printmsg -->
<g id="edge111" class="edge"><title>state_set&#45;&gt;basic_behavior_printmsg</title>
<path fill="none" stroke="#808080" stroke-dasharray="5,2" d="M96.5143,-469.809C105.956,-452.769 122.341,-425.731 141,-406 151.346,-395.06 164.477,-384.819 176.071,-376.707"/>
<polygon fill="#808080" stroke="#808080" points="177.661,-379.012 182.687,-372.187 174.502,-374.388 177.661,-379.012"/>
</g>
<!-- option_checklocalize -->
<g id="node44" class="node"><title>option_checklocalize</title>
<a xlink:href="option.checklocalize.html" xlink:title="checklocalize">
<polygon fill="#ffffff" stroke="black" points="242,-312 172,-312 172,-276 242,-276 242,-312"/>
<text text-anchor="middle" x="207" y="-291.4" font-family="Arial" font-size="9.00" fill="#005a9c">checklocalize</text>
</a>
</g>
<!-- option_begin&#45;&gt;option_checklocalize -->
<g id="edge77" class="edge"><title>option_begin&#45;&gt;option_checklocalize</title>
<path fill="none" stroke="#808080" d="M346.6,-348.38C322.071,-338.866 285.125,-324.524 253,-312 251.901,-311.572 250.788,-311.137 249.665,-310.699"/>
<polygon fill="#808080" stroke="#808080" points="250.628,-308.069 242.158,-307.768 248.591,-313.286 250.628,-308.069"/>
</g>
<!-- option_reset -->
<g id="node52" class="node"><title>option_reset</title>
<a xlink:href="option.reset.html" xlink:title="reset">
<polygon fill="#ffffff" stroke="black" points="318,-312 264,-312 264,-276 318,-276 318,-312"/>
<text text-anchor="middle" x="291" y="-291.4" font-family="Arial" font-size="9.00" fill="#005a9c">reset</text>
</a>
</g>
<!-- option_begin&#45;&gt;option_reset -->
<g id="edge79" class="edge"><title>option_begin&#45;&gt;option_reset</title>
<path fill="none" stroke="#808080" d="M350.88,-340.894C341.436,-333.498 330.402,-324.857 320.396,-317.021"/>
<polygon fill="#808080" stroke="#808080" points="322.021,-314.737 313.996,-312.009 318.568,-319.146 322.021,-314.737"/>
</g>
<!-- basic_behavior_doInitialize -->
<g id="node66" class="node"><title>basic_behavior_doInitialize</title>
<a xlink:href="basic-behaviors.myBasicBehaviors.html#doInitialize" xlink:title="doInitialize">
<ellipse fill="#ffffff" stroke="black" cx="375" cy="-294" rx="34.8223" ry="18"/>
<text text-anchor="middle" x="375" y="-291.4" font-family="Arial" font-size="9.00" fill="#005a9c">doInitialize</text>
</a>
</g>
<!-- option_begin&#45;&gt;basic_behavior_doInitialize -->
<g id="edge81" class="edge"><title>option_begin&#45;&gt;basic_behavior_doInitialize</title>
<path fill="none" stroke="#808080" d="M374.279,-340.894C374.376,-334.555 374.488,-327.3 374.594,-320.422"/>
<polygon fill="#808080" stroke="#808080" points="377.399,-320.051 374.723,-312.009 371.8,-319.965 377.399,-320.051"/>
</g>
<!-- basic_behavior_doUpdate -->
<g id="node68" class="node"><title>basic_behavior_doUpdate</title>
<a xlink:href="basic-behaviors.myBasicBehaviors.html#doUpdate" xlink:title="doUpdate">
<ellipse fill="#ffffff" stroke="black" cx="465" cy="-294" rx="33.053" ry="18"/>
<text text-anchor="middle" x="465" y="-291.4" font-family="Arial" font-size="9.00" fill="#005a9c">doUpdate</text>
</a>
</g>
<!-- option_begin&#45;&gt;basic_behavior_doUpdate -->
<g id="edge83" class="edge"><title>option_begin&#45;&gt;basic_behavior_doUpdate</title>
<path fill="none" stroke="#808080" d="M399.349,-340.894C411.507,-332.209 426.071,-321.807 438.389,-313.008"/>
<polygon fill="#808080" stroke="#808080" points="440.089,-315.234 444.972,-308.306 436.834,-310.677 440.089,-315.234"/>
</g>
<!-- option_ballfound -->
<g id="node46" class="node"><title>option_ballfound</title>
<a xlink:href="option.ballfound.html" xlink:title="ballfound">
<polygon fill="#ffffff" stroke="black" points="320,-247 266,-247 266,-211 320,-211 320,-247"/>
<text text-anchor="middle" x="293" y="-226.4" font-family="Arial" font-size="9.00" fill="#005a9c">ballfound</text>
</a>
</g>
<!-- option_checklocalize&#45;&gt;option_ballfound -->
<g id="edge85" class="edge"><title>option_checklocalize&#45;&gt;option_ballfound</title>
<path fill="none" stroke="#808080" d="M230.956,-275.894C240.741,-268.498 252.174,-259.857 262.542,-252.021"/>
<polygon fill="#808080" stroke="#808080" points="264.479,-254.067 269.173,-247.009 261.102,-249.599 264.479,-254.067"/>
</g>
<!-- basic_behavior_doLocalize -->
<g id="node60" class="node"><title>basic_behavior_doLocalize</title>
<a xlink:href="basic-behaviors.myBasicBehaviors.html#doLocalize" xlink:title="doLocalize">
<ellipse fill="#ffffff" stroke="black" cx="378" cy="-229" rx="35.9084" ry="18"/>
<text text-anchor="middle" x="378" y="-226.4" font-family="Arial" font-size="9.00" fill="#005a9c">doLocalize</text>
</a>
</g>
<!-- option_checklocalize&#45;&gt;basic_behavior_doLocalize -->
<g id="edge87" class="edge"><title>option_checklocalize&#45;&gt;basic_behavior_doLocalize</title>
<path fill="none" stroke="#808080" d="M242.137,-280.18C245.802,-278.759 249.475,-277.345 253,-276 287.556,-262.816 296.397,-260.058 331,-247 334.403,-245.716 337.942,-244.373 341.482,-243.026"/>
<polygon fill="#808080" stroke="#808080" points="342.708,-245.555 349.184,-240.087 340.712,-240.323 342.708,-245.555"/>
</g>
<!-- basic_behavior_doFindBall -->
<g id="node62" class="node"><title>basic_behavior_doFindBall</title>
<a xlink:href="basic-behaviors.myBasicBehaviors.html#doFindBall" xlink:title="doFindBall">
<ellipse fill="#ffffff" stroke="black" cx="208" cy="-229" rx="35.9084" ry="18"/>
<text text-anchor="middle" x="208" y="-226.4" font-family="Arial" font-size="9.00" fill="#005a9c">doFindBall</text>
</a>
</g>
<!-- option_checklocalize&#45;&gt;basic_behavior_doFindBall -->
<g id="edge89" class="edge"><title>option_checklocalize&#45;&gt;basic_behavior_doFindBall</title>
<path fill="none" stroke="#808080" d="M207.279,-275.894C207.376,-269.555 207.488,-262.3 207.594,-255.422"/>
<polygon fill="#808080" stroke="#808080" points="210.399,-255.051 207.723,-247.009 204.8,-254.965 210.399,-255.051"/>
</g>
<!-- option_checkpath -->
<g id="node48" class="node"><title>option_checkpath</title>
<a xlink:href="option.checkpath.html" xlink:title="checkpath">
<polygon fill="#ffffff" stroke="black" points="303,-182 245,-182 245,-146 303,-146 303,-182"/>
<text text-anchor="middle" x="274" y="-161.4" font-family="Arial" font-size="9.00" fill="#005a9c">checkpath</text>
</a>
</g>
<!-- option_ballfound&#45;&gt;option_checkpath -->
<g id="edge91" class="edge"><title>option_ballfound&#45;&gt;option_checkpath</title>
<path fill="none" stroke="#808080" d="M287.707,-210.894C285.813,-204.414 283.64,-196.977 281.59,-189.964"/>
<polygon fill="#808080" stroke="#808080" points="284.196,-188.902 279.264,-182.009 278.821,-190.473 284.196,-188.902"/>
</g>
<!-- basic_behavior_doMakePath -->
<g id="node58" class="node"><title>basic_behavior_doMakePath</title>
<a xlink:href="basic-behaviors.myBasicBehaviors.html#doMakePath" xlink:title="doMakePath">
<ellipse fill="#ffffff" stroke="black" cx="365" cy="-164" rx="40.0291" ry="18"/>
<text text-anchor="middle" x="365" y="-161.4" font-family="Arial" font-size="9.00" fill="#005a9c">doMakePath</text>
</a>
</g>
<!-- option_ballfound&#45;&gt;basic_behavior_doMakePath -->
<g id="edge93" class="edge"><title>option_ballfound&#45;&gt;basic_behavior_doMakePath</title>
<path fill="none" stroke="#808080" d="M313.056,-210.894C321.711,-203.08 331.906,-193.876 340.962,-185.701"/>
<polygon fill="#808080" stroke="#808080" points="342.955,-187.674 347.017,-180.235 339.203,-183.517 342.955,-187.674"/>
</g>
<!-- option_ballfollowing -->
<g id="node50" class="node"><title>option_ballfollowing</title>
<a xlink:href="option.ballfollowing.html" xlink:title="ballfollowing">
<polygon fill="#ffffff" stroke="black" points="272,-117 204,-117 204,-81 272,-81 272,-117"/>
<text text-anchor="middle" x="238" y="-96.4" font-family="Arial" font-size="9.00" fill="#005a9c">ballfollowing</text>
</a>
</g>
<!-- option_checkpath&#45;&gt;option_ballfollowing -->
<g id="edge95" class="edge"><title>option_checkpath&#45;&gt;option_ballfollowing</title>
<path fill="none" stroke="#808080" d="M263.972,-145.894C260.227,-139.132 255.905,-131.329 251.875,-124.052"/>
<polygon fill="#808080" stroke="#808080" points="254.3,-122.651 247.974,-117.009 249.401,-125.364 254.3,-122.651"/>
</g>
<!-- basic_behavior_doPathToWalk -->
<g id="node56" class="node"><title>basic_behavior_doPathToWalk</title>
<a xlink:href="basic-behaviors.myBasicBehaviors.html#doPathToWalk" xlink:title="doPathToWalk">
<ellipse fill="#ffffff" stroke="black" cx="338" cy="-99" rx="44.2357" ry="18"/>
<text text-anchor="middle" x="338" y="-96.4" font-family="Arial" font-size="9.00" fill="#005a9c">doPathToWalk</text>
</a>
</g>
<!-- option_checkpath&#45;&gt;basic_behavior_doPathToWalk -->
<g id="edge97" class="edge"><title>option_checkpath&#45;&gt;basic_behavior_doPathToWalk</title>
<path fill="none" stroke="#808080" d="M291.828,-145.894C299.137,-138.47 307.683,-129.791 315.421,-121.931"/>
<polygon fill="#808080" stroke="#808080" points="317.53,-123.78 321.148,-116.115 313.54,-119.851 317.53,-123.78"/>
</g>
<!-- basic_behavior_moveAcYuttemp -->
<g id="node54" class="node"><title>basic_behavior_moveAcYuttemp</title>
<a xlink:href="basic-behaviors.myBasicBehaviors.html#moveAcYuttemp" xlink:title="moveAcYuttemp">
<ellipse fill="#ffffff" stroke="black" cx="238" cy="-34" rx="47.7727" ry="18"/>
<text text-anchor="middle" x="238" y="-31.4" font-family="Arial" font-size="9.00" fill="#005a9c">moveAcYuttemp</text>
</a>
</g>
<!-- option_ballfollowing&#45;&gt;basic_behavior_moveAcYuttemp -->
<g id="edge99" class="edge"><title>option_ballfollowing&#45;&gt;basic_behavior_moveAcYuttemp</title>
<path fill="none" stroke="#808080" d="M238,-80.8939C238,-74.5549 238,-67.3004 238,-60.4224"/>
<polygon fill="#808080" stroke="#808080" points="240.8,-60.009 238,-52.009 235.2,-60.0091 240.8,-60.009"/>
</g>
<!-- basic_behavior_doReset -->
<g id="node64" class="node"><title>basic_behavior_doReset</title>
<a xlink:href="basic-behaviors.myBasicBehaviors.html#doReset" xlink:title="doReset">
<ellipse fill="#ffffff" stroke="black" cx="466" cy="-229" rx="30.1087" ry="18"/>
<text text-anchor="middle" x="466" y="-226.4" font-family="Arial" font-size="9.00" fill="#005a9c">doReset</text>
</a>
</g>
<!-- option_reset&#45;&gt;basic_behavior_doReset -->
<g id="edge101" class="edge"><title>option_reset&#45;&gt;basic_behavior_doReset</title>
<path fill="none" stroke="#808080" d="M318.186,-280.527C321.787,-278.918 325.458,-277.365 329,-276 370.589,-259.971 383.185,-262.431 425,-247 428.118,-245.849 431.338,-244.581 434.538,-243.267"/>
<polygon fill="#808080" stroke="#808080" points="435.637,-245.842 441.916,-240.149 433.457,-240.684 435.637,-245.842"/>
</g>
</g>
</svg>
