<?xml version="1.0" encoding="UTF-8" standalone="no"?>
<!DOCTYPE svg PUBLIC "-//W3C//DTD SVG 1.1//EN"
 "http://www.w3.org/Graphics/SVG/1.1/DTD/svg11.dtd">
<!-- Generated by graphviz version 2.26.3 (20100126.1600)
 -->
<!-- Title: g Pages: 1 -->
<svg width="414pt" height="506pt"
 viewBox="0.00 0.00 414.00 506.00" xmlns="http://www.w3.org/2000/svg" xmlns:xlink="http://www.w3.org/1999/xlink">
<g id="graph1" class="graph" transform="scale(1 1) rotate(0) translate(4 502)">
<title>g</title>
<polygon fill="white" stroke="white" points="-4,5 -4,-502 411,-502 411,5 -4,5"/>
<g id="graph2" class="cluster"><title>cluster_option</title>
<polygon fill="#f4f4f4" stroke="black" points="8,-8 8,-490 398,-490 398,-8 8,-8"/>
<text text-anchor="middle" x="203" y="-475.2" font-family="Arial" font-size="12.00" fill="#005a9c">option ballfollowing</text>
</g>
<g id="graph3" class="cluster"><title>cluster_states</title>
<polygon fill="#f4f4f4" stroke="#f4f4f4" points="16,-16 16,-112 390,-112 390,-16 16,-16"/>
</g>
<g id="graph10" class="cluster"><title>cluster_decision_tree</title>
<polygon fill="#ffffff" stroke="black" points="47,-156 47,-459 189,-459 189,-156 47,-156"/>
<text text-anchor="middle" x="118" y="-444.2" font-family="Arial" font-size="12.00" fill="#005a9c">state ballnotfound</text>
</g>
<!-- state_ballnotfound -->
<g id="node4" class="node"><title>state_ballnotfound</title>
<ellipse fill="none" stroke="black" stroke-dasharray="5,2" cx="176" cy="-64" rx="40.0291" ry="40.0291"/>
<polyline fill="none" stroke="black" stroke-dasharray="5,2" points="202.456,-94 149.544,-94 "/>
<polyline fill="none" stroke="black" stroke-dasharray="5,2" points="202.456,-34 149.544,-34 "/>
<text text-anchor="middle" x="176" y="-61.4" font-family="Arial" font-size="9.00" fill="#005a9c">ballnotfound</text>
</g>
<!-- state_preparekick -->
<g id="node6" class="node"><title>state_preparekick</title>
<a xlink:href="option.ballfollowing.html#state_preparekick" xlink:title="preparekick">
<ellipse fill="#ffffff" stroke="black" cx="344" cy="-64" rx="37.7662" ry="38.2631"/>
<text text-anchor="middle" x="344" y="-61.4" font-family="Arial" font-size="9.00" fill="#005a9c">preparekick</text>
</a>
</g>
<!-- state_forward -->
<g id="node8" class="node"><title>state_forward</title>
<a xlink:href="option.ballfollowing.html#state_forward" xlink:title="forward">
<ellipse fill="#ffffff" stroke="black" cx="261" cy="-64" rx="27.1641" ry="27.6672"/>
<text text-anchor="middle" x="261" y="-61.4" font-family="Arial" font-size="9.00" fill="#005a9c">forward</text>
</a>
</g>
<!-- state_left -->
<g id="node10" class="node"><title>state_left</title>
<a xlink:href="option.ballfollowing.html#state_left" xlink:title="left">
<ellipse fill="#ffffff" stroke="black" cx="100" cy="-64" rx="18" ry="18"/>
<text text-anchor="middle" x="100" y="-61.4" font-family="Arial" font-size="9.00" fill="#005a9c">left</text>
</a>
</g>
<!-- state_right -->
<g id="node12" class="node"><title>state_right</title>
<a xlink:href="option.ballfollowing.html#state_right" xlink:title="right">
<ellipse fill="#ffffff" stroke="black" cx="44" cy="-64" rx="20.1007" ry="20.6032"/>
<text text-anchor="middle" x="44" y="-61.4" font-family="Arial" font-size="9.00" fill="#005a9c">right</text>
</a>
</g>
<!-- start -->
<g id="node16" class="node"><title>start</title>
<ellipse fill="black" stroke="black" cx="154" cy="-426" rx="1.8" ry="1.8"/>
</g>
<!-- _0 -->
<g id="node18" class="node"><title>_0</title>
<a xlink:href="option.ballfollowing.html#state_ballnotfound_pseudo-code_0" xlink:title="Ball not\nfound">
<polygon fill="#ffffff" stroke="black" points="181,-395 127,-395 127,-359 181,-359 181,-395"/>
<text text-anchor="middle" x="154" y="-379.9" font-family="Arial Italic" font-size="9.00">Ball not</text>
<text text-anchor="middle" x="154" y="-368.9" font-family="Arial Italic" font-size="9.00">found</text>
</a>
</g>
<!-- start&#45;&gt;_0 -->
<g id="edge15" class="edge"><title>start&#45;&gt;_0</title>
<path fill="none" stroke="black" stroke-dasharray="5,2" d="M154,-423.895C154,-420.481 154,-413.341 154,-405.638"/>
<polygon fill="black" stroke="black" points="157.5,-405.455 154,-395.455 150.5,-405.455 157.5,-405.455"/>
</g>
<!-- _0&#45;&gt;state_ballnotfound -->
<g id="edge13" class="edge"><title>_0&#45;&gt;state_ballnotfound</title>
<path fill="none" stroke="black" stroke-dasharray="5,2" d="M171.137,-358.587C177.935,-350.38 185.25,-340.26 190,-330 205.859,-295.747 208,-284.746 208,-247 208,-247 208,-247 208,-182 208,-157.887 201.699,-131.938 194.688,-110.531"/>
<polygon fill="black" stroke="black" points="197.989,-109.365 191.438,-101.038 191.366,-111.632 197.989,-109.365"/>
<text text-anchor="middle" x="173.587" y="-346.792" font-family="Times Roman,serif" font-size="9.00">1</text>
</g>
<!-- _1_0 -->
<g id="node22" class="node"><title>_1_0</title>
<a xlink:href="option.ballfollowing.html#state_ballnotfound_pseudo-code_1_0" xlink:title="Ball is\nin front">
<polygon fill="#ffffff" stroke="black" points="181,-330 127,-330 127,-294 181,-294 181,-330"/>
<text text-anchor="middle" x="154" y="-314.9" font-family="Arial Italic" font-size="9.00">Ball is</text>
<text text-anchor="middle" x="154" y="-303.9" font-family="Arial Italic" font-size="9.00">in front</text>
</a>
</g>
<!-- _0&#45;&gt;_1_0 -->
<g id="edge25" class="edge"><title>_0&#45;&gt;_1_0</title>
<path fill="none" stroke="black" stroke-dasharray="5,2" d="M154,-358.894C154,-353.118 154,-346.583 154,-340.265"/>
<polygon fill="black" stroke="black" points="157.5,-340.009 154,-330.009 150.5,-340.009 157.5,-340.009"/>
<text text-anchor="middle" x="149.774" y="-347.231" font-family="Arial Bold Italic" font-size="9.00">0</text>
</g>
<!-- _1_0_0 -->
<g id="node24" class="node"><title>_1_0_0</title>
<a xlink:href="option.ballfollowing.html#state_ballnotfound_pseudo-code_1_0_0" xlink:title="Ball is\nnear">
<polygon fill="#ffffff" stroke="black" points="181,-265 127,-265 127,-229 181,-229 181,-265"/>
<text text-anchor="middle" x="154" y="-249.9" font-family="Arial Italic" font-size="9.00">Ball is</text>
<text text-anchor="middle" x="154" y="-238.9" font-family="Arial Italic" font-size="9.00">near</text>
</a>
</g>
<!-- _1_0&#45;&gt;_1_0_0 -->
<g id="edge21" class="edge"><title>_1_0&#45;&gt;_1_0_0</title>
<path fill="none" stroke="black" stroke-dasharray="5,2" d="M154,-293.894C154,-288.118 154,-281.583 154,-275.265"/>
<polygon fill="black" stroke="black" points="157.5,-275.009 154,-265.009 150.5,-275.009 157.5,-275.009"/>
<text text-anchor="middle" x="149.774" y="-282.231" font-family="Arial Bold Italic" font-size="9.00">1</text>
</g>
<!-- _1_1_0 -->
<g id="node30" class="node"><title>_1_1_0</title>
<a xlink:href="option.ballfollowing.html#state_ballnotfound_pseudo-code_1_1_0" xlink:title="Ball is\nleft">
<polygon fill="#ffffff" stroke="black" points="109,-265 55,-265 55,-229 109,-229 109,-265"/>
<text text-anchor="middle" x="82" y="-249.9" font-family="Arial Italic" font-size="9.00">Ball is</text>
<text text-anchor="middle" x="82" y="-238.9" font-family="Arial Italic" font-size="9.00">left</text>
</a>
</g>
<!-- _1_0&#45;&gt;_1_1_0 -->
<g id="edge30" class="edge"><title>_1_0&#45;&gt;_1_1_0</title>
<path fill="none" stroke="black" stroke-dasharray="5,2" d="M133.944,-293.894C126.376,-287.062 117.63,-279.166 109.498,-271.825"/>
<polygon fill="black" stroke="black" points="111.717,-269.112 101.948,-265.009 107.026,-274.308 111.717,-269.112"/>
<text text-anchor="middle" x="124.385" y="-288.358" font-family="Arial Bold Italic" font-size="9.00">0</text>
</g>
<!-- _1_0_0&#45;&gt;state_preparekick -->
<g id="edge19" class="edge"><title>_1_0_0&#45;&gt;state_preparekick</title>
<path fill="none" stroke="black" stroke-dasharray="5,2" d="M173.66,-228.897C201.441,-203.214 253.637,-154.579 297,-112 301.265,-107.812 305.706,-103.377 310.082,-98.9622"/>
<polygon fill="black" stroke="black" points="312.813,-101.176 317.341,-91.5977 307.828,-96.2624 312.813,-101.176"/>
<text text-anchor="middle" x="177.438" y="-217.539" font-family="Times Roman,serif" font-size="9.00">1</text>
</g>
<!-- _1_0_0&#45;&gt;state_forward -->
<g id="edge23" class="edge"><title>_1_0_0&#45;&gt;state_forward</title>
<path fill="none" stroke="black" stroke-dasharray="5,2" d="M154.12,-228.76C155.2,-204.377 160.452,-160.99 183,-133 196.092,-116.748 208.977,-125.372 225,-112 230.481,-107.426 235.607,-101.861 240.176,-96.1634"/>
<polygon fill="black" stroke="black" points="243.236,-97.9175 246.447,-87.821 237.64,-93.7113 243.236,-97.9175"/>
<text text-anchor="middle" x="150.434" y="-217.364" font-family="Times Roman,serif" font-size="9.00">0</text>
</g>
<!-- _1_1_0&#45;&gt;state_left -->
<g id="edge28" class="edge"><title>_1_1_0&#45;&gt;state_left</title>
<path fill="none" stroke="black" stroke-dasharray="5,2" d="M100.611,-228.578C107.472,-220.521 114.436,-210.513 118,-200 130.462,-163.237 119.76,-118.159 110.338,-90.2558"/>
<polygon fill="black" stroke="black" points="113.622,-89.0456 106.97,-80.7997 107.028,-91.3944 113.622,-89.0456"/>
<text text-anchor="middle" x="103.157" y="-216.808" font-family="Times Roman,serif" font-size="9.00">1</text>
</g>
<!-- _1_1_1_0 -->
<g id="node34" class="node"><title>_1_1_1_0</title>
<a xlink:href="option.ballfollowing.html#state_ballnotfound_pseudo-code_1_1_1_0" xlink:title="Ball is\nright">
<polygon fill="#ffffff" stroke="black" points="109,-200 55,-200 55,-164 109,-164 109,-200"/>
<text text-anchor="middle" x="82" y="-184.9" font-family="Arial Italic" font-size="9.00">Ball is</text>
<text text-anchor="middle" x="82" y="-173.9" font-family="Arial Italic" font-size="9.00">right</text>
</a>
</g>
<!-- _1_1_0&#45;&gt;_1_1_1_0 -->
<g id="edge35" class="edge"><title>_1_1_0&#45;&gt;_1_1_1_0</title>
<path fill="none" stroke="black" stroke-dasharray="5,2" d="M82,-228.894C82,-223.118 82,-216.583 82,-210.265"/>
<polygon fill="black" stroke="black" points="85.5001,-210.009 82,-200.009 78.5001,-210.009 85.5001,-210.009"/>
<text text-anchor="middle" x="77.7738" y="-217.231" font-family="Arial Bold Italic" font-size="9.00">0</text>
</g>
<!-- _1_1_1_0&#45;&gt;state_ballnotfound -->
<g id="edge37" class="edge"><title>_1_1_1_0&#45;&gt;state_ballnotfound</title>
<path fill="none" stroke="black" d="M96.4815,-163.821C109.302,-147.727 128.456,-123.683 144.752,-103.226"/>
<polygon fill="black" stroke="black" points="147.576,-105.299 151.069,-95.2963 142.101,-100.937 147.576,-105.299"/>
<text text-anchor="middle" x="98.8229" y="-151.999" font-family="Times Roman,serif" font-size="9.00">0</text>
</g>
<!-- _1_1_1_0&#45;&gt;state_right -->
<g id="edge33" class="edge"><title>_1_1_1_0&#45;&gt;state_right</title>
<path fill="none" stroke="black" stroke-dasharray="5,2" d="M76.1458,-163.821C70.0797,-144.984 60.507,-115.259 53.3835,-93.1382"/>
<polygon fill="black" stroke="black" points="56.7011,-92.0221 50.3042,-83.5763 50.0381,-94.1678 56.7011,-92.0221"/>
<text text-anchor="middle" x="69.3449" y="-154.39" font-family="Times Roman,serif" font-size="9.00">1</text>
</g>
</g>
</svg>
