<?xml version="1.0" encoding="UTF-8" standalone="no"?>
<!DOCTYPE svg PUBLIC "-//W3C//DTD SVG 1.1//EN"
 "http://www.w3.org/Graphics/SVG/1.1/DTD/svg11.dtd">
<!-- Generated by graphviz version 2.26.3 (20100126.1600)
 -->
<!-- Title: g Pages: 1 -->
<svg width="374pt" height="551pt"
 viewBox="0.00 0.00 374.00 551.00" xmlns="http://www.w3.org/2000/svg" xmlns:xlink="http://www.w3.org/1999/xlink">
<g id="graph1" class="graph" transform="scale(1 1) rotate(0) translate(4 547)">
<title>g</title>
<polygon fill="white" stroke="white" points="-4,5 -4,-547 371,-547 371,5 -4,5"/>
<g id="graph2" class="cluster"><title>cluster_option</title>
<polygon fill="#f4f4f4" stroke="black" points="8,-8 8,-535 358,-535 358,-8 8,-8"/>
<text text-anchor="middle" x="183" y="-520.2" font-family="Arial" font-size="12.00" fill="#005a9c">option referee</text>
</g>
<g id="graph3" class="cluster"><title>cluster_states</title>
<polygon fill="#f4f4f4" stroke="#f4f4f4" points="16,-16 16,-92 350,-92 350,-16 16,-16"/>
</g>
<g id="graph10" class="cluster"><title>cluster_decision_tree</title>
<polygon fill="#ffffff" stroke="black" points="45,-136 45,-504 125,-504 125,-136 45,-136"/>
<text text-anchor="middle" x="85" y="-489.2" font-family="Arial" font-size="12.00" fill="#005a9c">state set</text>
</g>
<!-- state_playing -->
<g id="node4" class="node"><title>state_playing</title>
<a xlink:href="option.referee.html#state_playing" xlink:title="playing">
<ellipse fill="#ffffff" stroke="black" cx="315" cy="-54" rx="27.0785" ry="27.0785"/>
<text text-anchor="middle" x="315" y="-51.4" font-family="Arial" font-size="9.00" fill="#005a9c">playing</text>
</a>
</g>
<!-- state__initial -->
<g id="node6" class="node"><title>state__initial</title>
<a xlink:href="option.referee.html#state__initial" xlink:title="_initial">
<ellipse fill="#ffffff" stroke="black" cx="244" cy="-54" rx="25.9012" ry="25.9012"/>
<polyline fill="none" stroke="black" points="261.196,-73.5 226.804,-73.5 "/>
<polyline fill="none" stroke="black" points="261.196,-34.5 226.804,-34.5 "/>
<text text-anchor="middle" x="244" y="-51.4" font-family="Arial" font-size="9.00" fill="#005a9c">_initial</text>
</a>
</g>
<!-- state_finished -->
<g id="node8" class="node"><title>state_finished</title>
<a xlink:href="option.referee.html#state_finished" xlink:title="finished">
<ellipse fill="#ffffff" stroke="black" cx="171" cy="-54" rx="28.9343" ry="29.4331"/>
<text text-anchor="middle" x="171" y="-51.4" font-family="Arial" font-size="9.00" fill="#005a9c">finished</text>
</a>
</g>
<!-- state_ready -->
<g id="node10" class="node"><title>state_ready</title>
<a xlink:href="option.referee.html#state_ready" xlink:title="ready">
<ellipse fill="#ffffff" stroke="black" cx="101" cy="-54" rx="22.9579" ry="22.9579"/>
<text text-anchor="middle" x="101" y="-51.4" font-family="Arial" font-size="9.00" fill="#005a9c">ready</text>
</a>
</g>
<!-- state_set -->
<g id="node12" class="node"><title>state_set</title>
<ellipse fill="none" stroke="black" stroke-dasharray="5,2" cx="42" cy="-54" rx="18" ry="18"/>
<text text-anchor="middle" x="42" y="-51.4" font-family="Arial" font-size="9.00" fill="#005a9c">set</text>
</g>
<!-- start -->
<g id="node16" class="node"><title>start</title>
<ellipse fill="black" stroke="black" cx="85" cy="-471" rx="1.8" ry="1.8"/>
</g>
<!-- _0 -->
<g id="node18" class="node"><title>_0</title>
<a xlink:href="option.referee.html#state_set_pseudo-code_0" xlink:title="If state\nis PLAYING">
<polygon fill="#ffffff" stroke="black" points="117,-440 53,-440 53,-404 117,-404 117,-440"/>
<text text-anchor="middle" x="85" y="-424.9" font-family="Arial Italic" font-size="9.00">If state</text>
<text text-anchor="middle" x="85" y="-413.9" font-family="Arial Italic" font-size="9.00">is PLAYING</text>
</a>
</g>
<!-- start&#45;&gt;_0 -->
<g id="edge15" class="edge"><title>start&#45;&gt;_0</title>
<path fill="none" stroke="black" stroke-dasharray="5,2" d="M85,-468.895C85,-465.481 85,-458.341 85,-450.638"/>
<polygon fill="black" stroke="black" points="88.5001,-450.455 85,-440.455 81.5001,-450.455 88.5001,-450.455"/>
</g>
<!-- _0&#45;&gt;state_playing -->
<g id="edge13" class="edge"><title>_0&#45;&gt;state_playing</title>
<path fill="none" stroke="black" stroke-dasharray="5,2" d="M117.166,-416.664C174.406,-405.129 288,-372.143 288,-292 288,-292 288,-292 288,-162 288,-137.086 294.846,-109.879 301.643,-89.0048"/>
<polygon fill="black" stroke="black" points="305.036,-89.8986 304.946,-79.3041 298.41,-87.6424 305.036,-89.8986"/>
<text text-anchor="middle" x="125.104" y="-408.482" font-family="Times Roman,serif" font-size="9.00">1</text>
</g>
<!-- _1_0 -->
<g id="node22" class="node"><title>_1_0</title>
<a xlink:href="option.referee.html#state_set_pseudo-code_1_0">
<polygon fill="#ffffff" stroke="black" points="117,-375 63,-375 63,-339 117,-339 117,-375"/>
</a>
</g>
<!-- _0&#45;&gt;_1_0 -->
<g id="edge20" class="edge"><title>_0&#45;&gt;_1_0</title>
<path fill="none" stroke="black" stroke-dasharray="5,2" d="M86.3928,-403.894C86.8371,-398.118 87.3398,-391.583 87.8258,-385.265"/>
<polygon fill="black" stroke="black" points="91.3373,-385.248 88.6147,-375.009 84.3579,-384.711 91.3373,-385.248"/>
<text text-anchor="middle" x="82.8742" y="-391.933" font-family="Arial Bold Italic" font-size="9.00">0</text>
</g>
<!-- _1_0&#45;&gt;state__initial -->
<g id="edge18" class="edge"><title>_1_0&#45;&gt;state__initial</title>
<path fill="none" stroke="black" stroke-dasharray="5,2" d="M117.131,-346.215C157.582,-328.135 229,-287.631 229,-227 229,-227 229,-227 229,-162 229,-137.709 232.769,-110.634 236.528,-89.6701"/>
<polygon fill="black" stroke="black" points="240.011,-90.0842 238.415,-79.6105 233.131,-88.794 240.011,-90.0842"/>
<text text-anchor="middle" x="123.534" y="-336.434" font-family="Times Roman,serif" font-size="9.00">1</text>
</g>
<!-- _1_1_0 -->
<g id="node26" class="node"><title>_1_1_0</title>
<a xlink:href="option.referee.html#state_set_pseudo-code_1_1_0">
<polygon fill="#ffffff" stroke="black" points="117,-310 63,-310 63,-274 117,-274 117,-310"/>
</a>
</g>
<!-- _1_0&#45;&gt;_1_1_0 -->
<g id="edge25" class="edge"><title>_1_0&#45;&gt;_1_1_0</title>
<path fill="none" stroke="black" stroke-dasharray="5,2" d="M90,-338.894C90,-333.118 90,-326.583 90,-320.265"/>
<polygon fill="black" stroke="black" points="93.5001,-320.009 90,-310.009 86.5001,-320.009 93.5001,-320.009"/>
<text text-anchor="middle" x="85.7738" y="-327.231" font-family="Arial Bold Italic" font-size="9.00">0</text>
</g>
<!-- _1_1_0&#45;&gt;state_finished -->
<g id="edge23" class="edge"><title>_1_1_0&#45;&gt;state_finished</title>
<path fill="none" stroke="black" stroke-dasharray="5,2" d="M106.678,-273.991C113.564,-265.699 121.071,-255.403 126,-245 149.368,-195.685 161.111,-133.303 166.628,-93.5145"/>
<polygon fill="black" stroke="black" points="170.122,-93.7868 167.962,-83.4147 163.182,-92.8704 170.122,-93.7868"/>
<text text-anchor="middle" x="109.142" y="-262.2" font-family="Times Roman,serif" font-size="9.00">1</text>
</g>
<!-- _1_1_1_0 -->
<g id="node30" class="node"><title>_1_1_1_0</title>
<a xlink:href="option.referee.html#state_set_pseudo-code_1_1_1_0">
<polygon fill="#ffffff" stroke="black" points="117,-245 63,-245 63,-209 117,-209 117,-245"/>
</a>
</g>
<!-- _1_1_0&#45;&gt;_1_1_1_0 -->
<g id="edge30" class="edge"><title>_1_1_0&#45;&gt;_1_1_1_0</title>
<path fill="none" stroke="black" stroke-dasharray="5,2" d="M90,-273.894C90,-268.118 90,-261.583 90,-255.265"/>
<polygon fill="black" stroke="black" points="93.5001,-255.009 90,-245.009 86.5001,-255.009 93.5001,-255.009"/>
<text text-anchor="middle" x="85.7738" y="-262.231" font-family="Arial Bold Italic" font-size="9.00">0</text>
</g>
<!-- _1_1_1_0&#45;&gt;state_ready -->
<g id="edge28" class="edge"><title>_1_1_1_0&#45;&gt;state_ready</title>
<path fill="none" stroke="black" stroke-dasharray="5,2" d="M102.947,-208.716C108.086,-200.373 113.389,-190.112 116,-180 124.082,-148.692 117.966,-111.865 111.275,-86.1395"/>
<polygon fill="black" stroke="black" points="114.559,-84.8823 108.513,-76.1819 107.814,-86.7537 114.559,-84.8823"/>
<text text-anchor="middle" x="104.011" y="-196.672" font-family="Times Roman,serif" font-size="9.00">1</text>
</g>
<!-- _1_1_1_1_0 -->
<g id="node34" class="node"><title>_1_1_1_1_0</title>
<a xlink:href="option.referee.html#state_set_pseudo-code_1_1_1_1_0">
<polygon fill="#ffffff" stroke="black" points="107,-180 53,-180 53,-144 107,-144 107,-180"/>
</a>
</g>
<!-- _1_1_1_0&#45;&gt;_1_1_1_1_0 -->
<g id="edge35" class="edge"><title>_1_1_1_0&#45;&gt;_1_1_1_1_0</title>
<path fill="none" stroke="black" stroke-dasharray="5,2" d="M87.2144,-208.894C86.3259,-203.118 85.3204,-196.583 84.3484,-190.265"/>
<polygon fill="black" stroke="black" points="87.7506,-189.361 82.7706,-180.009 80.832,-190.425 87.7506,-189.361"/>
<text text-anchor="middle" x="81.6593" y="-197.979" font-family="Arial Bold Italic" font-size="9.00">0</text>
</g>
<!-- _1_1_1_1_0&#45;&gt;state_set -->
<g id="edge37" class="edge"><title>_1_1_1_1_0&#45;&gt;state_set</title>
<path fill="none" stroke="black" d="M68.3368,-143.679C60.6372,-126.743 51.4376,-101.331 45.8165,-81.8777"/>
<polygon fill="black" stroke="black" points="49.1486,-80.7915 43.162,-72.0502 42.3908,-82.6169 49.1486,-80.7915"/>
<text text-anchor="middle" x="60.8095" y="-134.996" font-family="Times Roman,serif" font-size="9.00">0</text>
</g>
<!-- _1_1_1_1_0&#45;&gt;state_set -->
<g id="edge33" class="edge"><title>_1_1_1_1_0&#45;&gt;state_set</title>
<path fill="none" stroke="black" stroke-dasharray="5,2" d="M78.7708,-143.679C74.2825,-125.66 64.741,-98.0471 56.2625,-78.2234"/>
<polygon fill="black" stroke="black" points="59.3765,-76.6139 52.0857,-68.9266 52.9913,-79.4826 59.3765,-76.6139"/>
<text text-anchor="middle" x="72.3795" y="-133.888" font-family="Times Roman,serif" font-size="9.00">1</text>
</g>
</g>
</svg>
