<?xml version="1.0" encoding="UTF-8" standalone="no"?>
<!DOCTYPE svg PUBLIC "-//W3C//DTD SVG 1.1//EN"
 "http://www.w3.org/Graphics/SVG/1.1/DTD/svg11.dtd">
<!-- Generated by graphviz version 2.26.3 (20100126.1600)
 -->
<!-- Title: g Pages: 1 -->
<svg width="486pt" height="314pt"
 viewBox="0.00 0.00 486.00 314.00" xmlns="http://www.w3.org/2000/svg" xmlns:xlink="http://www.w3.org/1999/xlink">
<g id="graph1" class="graph" transform="scale(1 1) rotate(0) translate(4 310)">
<title>g</title>
<polygon fill="white" stroke="white" points="-4,5 -4,-310 483,-310 483,5 -4,5"/>
<!-- option_ballfollowing -->
<g id="node2" class="node"><title>option_ballfollowing</title>
<a xlink:href="option.ballfollowing.html" xlink:title="ballfollowing">
<polygon fill="#ffffff" stroke="black" points="213,-90 145,-90 145,-54 213,-54 213,-90"/>
<text text-anchor="middle" x="179" y="-69.4" font-family="Arial" font-size="9.00" fill="#005a9c">ballfollowing</text>
</a>
</g>
<!-- basic_behavior_moveAcYuttemp -->
<g id="node4" class="node"><title>basic_behavior_moveAcYuttemp</title>
<a xlink:href="basic-behaviors.myBasicBehaviors.html#moveAcYuttemp" xlink:title="moveAcYuttemp">
<ellipse fill="#ffffff" stroke="black" cx="179" cy="-18" rx="47.7727" ry="18"/>
<text text-anchor="middle" x="179" y="-15.4" font-family="Arial" font-size="9.00" fill="#005a9c">moveAcYuttemp</text>
</a>
</g>
<!-- option_ballfollowing&#45;&gt;basic_behavior_moveAcYuttemp -->
<g id="edge34" class="edge"><title>option_ballfollowing&#45;&gt;basic_behavior_moveAcYuttemp</title>
<path fill="none" stroke="#808080" d="M179,-53.7181C179,-50.7272 179,-47.5764 179,-44.4358"/>
<polygon fill="#808080" stroke="#808080" points="181.8,-44.2631 179,-36.2631 176.2,-44.2631 181.8,-44.2631"/>
</g>
<!-- option_ballfound -->
<g id="node6" class="node"><title>option_ballfound</title>
<a xlink:href="option.ballfound.html" xlink:title="ballfound">
<polygon fill="#ffffff" stroke="black" points="298,-198 244,-198 244,-162 298,-162 298,-198"/>
<text text-anchor="middle" x="271" y="-177.4" font-family="Arial" font-size="9.00" fill="#005a9c">ballfound</text>
</a>
</g>
<!-- basic_behavior_doMakePath -->
<g id="node11" class="node"><title>basic_behavior_doMakePath</title>
<a xlink:href="basic-behaviors.myBasicBehaviors.html#doMakePath" xlink:title="doMakePath">
<ellipse fill="#ffffff" stroke="black" cx="314" cy="-126" rx="40.0291" ry="18"/>
<text text-anchor="middle" x="314" y="-123.4" font-family="Arial" font-size="9.00" fill="#005a9c">doMakePath</text>
</a>
</g>
<!-- option_ballfound&#45;&gt;basic_behavior_doMakePath -->
<g id="edge38" class="edge"><title>option_ballfound&#45;&gt;basic_behavior_doMakePath</title>
<path fill="none" stroke="#808080" d="M285.558,-161.718C288.692,-157.782 292.046,-153.57 295.312,-149.468"/>
<polygon fill="#808080" stroke="#808080" points="297.535,-151.172 300.328,-143.169 293.154,-147.683 297.535,-151.172"/>
</g>
<!-- option_checkpath -->
<g id="node32" class="node"><title>option_checkpath</title>
<a xlink:href="option.checkpath.html" xlink:title="checkpath">
<polygon fill="#ffffff" stroke="black" points="256,-144 198,-144 198,-108 256,-108 256,-144"/>
<text text-anchor="middle" x="227" y="-123.4" font-family="Arial" font-size="9.00" fill="#005a9c">checkpath</text>
</a>
</g>
<!-- option_ballfound&#45;&gt;option_checkpath -->
<g id="edge36" class="edge"><title>option_ballfound&#45;&gt;option_checkpath</title>
<path fill="none" stroke="#808080" d="M256.104,-161.718C253.165,-158.111 250.037,-154.272 246.962,-150.499"/>
<polygon fill="#808080" stroke="#808080" points="249.105,-148.696 241.881,-144.263 244.764,-152.234 249.105,-148.696"/>
</g>
<!-- basic_behavior_doPathToWalk -->
<g id="node9" class="node"><title>basic_behavior_doPathToWalk</title>
<a xlink:href="basic-behaviors.myBasicBehaviors.html#doPathToWalk" xlink:title="doPathToWalk">
<ellipse fill="#ffffff" stroke="black" cx="275" cy="-72" rx="44.2357" ry="18"/>
<text text-anchor="middle" x="275" y="-69.4" font-family="Arial" font-size="9.00" fill="#005a9c">doPathToWalk</text>
</a>
</g>
<!-- option_begin -->
<g id="node13" class="node"><title>option_begin</title>
<a xlink:href="option.begin.html" xlink:title="begin">
<polygon fill="#ffffff" stroke="black" points="226,-252 172,-252 172,-216 226,-216 226,-252"/>
<text text-anchor="middle" x="199" y="-231.4" font-family="Arial" font-size="9.00" fill="#005a9c">begin</text>
</a>
</g>
<!-- option_begin&#45;&gt;option_ballfound -->
<g id="edge40" class="edge"><title>option_begin&#45;&gt;option_ballfound</title>
<path fill="none" stroke="#808080" d="M223.376,-215.718C228.771,-211.672 234.557,-207.332 240.171,-203.122"/>
<polygon fill="#808080" stroke="#808080" points="241.929,-205.303 246.649,-198.263 238.569,-200.823 241.929,-205.303"/>
</g>
<!-- basic_behavior_doInitialize -->
<g id="node18" class="node"><title>basic_behavior_doInitialize</title>
<a xlink:href="basic-behaviors.myBasicBehaviors.html#doInitialize" xlink:title="doInitialize">
<ellipse fill="#ffffff" stroke="black" cx="35" cy="-180" rx="34.8223" ry="18"/>
<text text-anchor="middle" x="35" y="-177.4" font-family="Arial" font-size="9.00" fill="#005a9c">doInitialize</text>
</a>
</g>
<!-- option_begin&#45;&gt;basic_behavior_doInitialize -->
<g id="edge44" class="edge"><title>option_begin&#45;&gt;basic_behavior_doInitialize</title>
<path fill="none" stroke="#808080" d="M171.591,-226.594C147.11,-219.786 110.375,-209.094 79,-198 76.0213,-196.947 72.9495,-195.806 69.8791,-194.627"/>
<polygon fill="#808080" stroke="#808080" points="70.7734,-191.97 62.3037,-191.648 68.7239,-197.182 70.7734,-191.97"/>
</g>
<!-- basic_behavior_doUpdate -->
<g id="node20" class="node"><title>basic_behavior_doUpdate</title>
<a xlink:href="basic-behaviors.myBasicBehaviors.html#doUpdate" xlink:title="doUpdate">
<ellipse fill="#ffffff" stroke="black" cx="121" cy="-180" rx="33.053" ry="18"/>
<text text-anchor="middle" x="121" y="-177.4" font-family="Arial" font-size="9.00" fill="#005a9c">doUpdate</text>
</a>
</g>
<!-- option_begin&#45;&gt;basic_behavior_doUpdate -->
<g id="edge46" class="edge"><title>option_begin&#45;&gt;basic_behavior_doUpdate</title>
<path fill="none" stroke="#808080" d="M172.593,-215.718C164.878,-210.377 156.426,-204.526 148.637,-199.134"/>
<polygon fill="#808080" stroke="#808080" points="149.882,-196.59 141.711,-194.338 146.694,-201.194 149.882,-196.59"/>
</g>
<!-- basic_behavior_doFindBall -->
<g id="node22" class="node"><title>basic_behavior_doFindBall</title>
<a xlink:href="basic-behaviors.myBasicBehaviors.html#doFindBall" xlink:title="doFindBall">
<ellipse fill="#ffffff" stroke="black" cx="352" cy="-180" rx="35.9084" ry="18"/>
<text text-anchor="middle" x="352" y="-177.4" font-family="Arial" font-size="9.00" fill="#005a9c">doFindBall</text>
</a>
</g>
<!-- option_begin&#45;&gt;basic_behavior_doFindBall -->
<g id="edge48" class="edge"><title>option_begin&#45;&gt;basic_behavior_doFindBall</title>
<path fill="none" stroke="#808080" d="M226.228,-225.413C248.158,-218.38 279.719,-207.993 307,-198 310.111,-196.86 313.33,-195.646 316.549,-194.406"/>
<polygon fill="#808080" stroke="#808080" points="317.58,-197.009 324.012,-191.49 315.542,-191.793 317.58,-197.009"/>
</g>
<!-- option_reset -->
<g id="node48" class="node"><title>option_reset</title>
<a xlink:href="option.reset.html" xlink:title="reset">
<polygon fill="#ffffff" stroke="black" points="226,-198 172,-198 172,-162 226,-162 226,-198"/>
<text text-anchor="middle" x="199" y="-177.4" font-family="Arial" font-size="9.00" fill="#005a9c">reset</text>
</a>
</g>
<!-- option_begin&#45;&gt;option_reset -->
<g id="edge42" class="edge"><title>option_begin&#45;&gt;option_reset</title>
<path fill="none" stroke="#808080" d="M199,-215.718C199,-212.727 199,-209.576 199,-206.436"/>
<polygon fill="#808080" stroke="#808080" points="201.8,-206.263 199,-198.263 196.2,-206.263 201.8,-206.263"/>
</g>
<!-- option_checklocalize -->
<g id="node24" class="node"><title>option_checklocalize</title>
<a xlink:href="option.checklocalize.html" xlink:title="checklocalize">
<polygon fill="#ffffff" stroke="black" points="387,-252 317,-252 317,-216 387,-216 387,-252"/>
<text text-anchor="middle" x="352" y="-231.4" font-family="Arial" font-size="9.00" fill="#005a9c">checklocalize</text>
</a>
</g>
<!-- option_checklocalize&#45;&gt;option_ballfound -->
<g id="edge50" class="edge"><title>option_checklocalize&#45;&gt;option_ballfound</title>
<path fill="none" stroke="#808080" d="M324.577,-215.718C318.308,-211.539 311.571,-207.047 305.061,-202.707"/>
<polygon fill="#808080" stroke="#808080" points="306.329,-200.188 298.12,-198.08 303.223,-204.847 306.329,-200.188"/>
</g>
<!-- option_checklocalize&#45;&gt;basic_behavior_doFindBall -->
<g id="edge54" class="edge"><title>option_checklocalize&#45;&gt;basic_behavior_doFindBall</title>
<path fill="none" stroke="#808080" d="M352,-215.718C352,-212.727 352,-209.576 352,-206.436"/>
<polygon fill="#808080" stroke="#808080" points="354.8,-206.263 352,-198.263 349.2,-206.263 354.8,-206.263"/>
</g>
<!-- basic_behavior_doLocalize -->
<g id="node29" class="node"><title>basic_behavior_doLocalize</title>
<a xlink:href="basic-behaviors.myBasicBehaviors.html#doLocalize" xlink:title="doLocalize">
<ellipse fill="#ffffff" stroke="black" cx="442" cy="-180" rx="35.9084" ry="18"/>
<text text-anchor="middle" x="442" y="-177.4" font-family="Arial" font-size="9.00" fill="#005a9c">doLocalize</text>
</a>
</g>
<!-- option_checklocalize&#45;&gt;basic_behavior_doLocalize -->
<g id="edge52" class="edge"><title>option_checklocalize&#45;&gt;basic_behavior_doLocalize</title>
<path fill="none" stroke="#808080" d="M382.47,-215.718C391.898,-210.061 402.279,-203.833 411.695,-198.183"/>
<polygon fill="#808080" stroke="#808080" points="413.257,-200.511 418.676,-193.994 410.376,-195.709 413.257,-200.511"/>
</g>
<!-- option_checkpath&#45;&gt;option_ballfollowing -->
<g id="edge56" class="edge"><title>option_checkpath&#45;&gt;option_ballfollowing</title>
<path fill="none" stroke="#808080" d="M210.749,-107.718C207.543,-104.111 204.131,-100.272 200.777,-96.4988"/>
<polygon fill="#808080" stroke="#808080" points="202.642,-94.3822 195.234,-90.2631 198.456,-98.1026 202.642,-94.3822"/>
</g>
<!-- option_checkpath&#45;&gt;basic_behavior_doPathToWalk -->
<g id="edge58" class="edge"><title>option_checkpath&#45;&gt;basic_behavior_doPathToWalk</title>
<path fill="none" stroke="#808080" d="M243.251,-107.718C246.832,-103.689 250.672,-99.3693 254.4,-95.1755"/>
<polygon fill="#808080" stroke="#808080" points="256.516,-97.0089 259.738,-89.1694 252.331,-93.2885 256.516,-97.0089"/>
</g>
<!-- option_path -->
<g id="node36" class="node"><title>option_path</title>
<a xlink:href="option.path.html" xlink:title="path">
<polygon fill="#ffffff" stroke="black" points="463,-306 409,-306 409,-270 463,-270 463,-306"/>
<text text-anchor="middle" x="436" y="-285.4" font-family="Arial" font-size="9.00" fill="#005a9c">path</text>
</a>
</g>
<!-- basic_behavior_printmsg -->
<g id="node38" class="node"><title>basic_behavior_printmsg</title>
<a xlink:href="basic-behaviors.myBasicBehaviors.html#printmsg" xlink:title="printmsg">
<ellipse fill="#ffffff" stroke="black" cx="436" cy="-234" rx="31.1991" ry="18"/>
<text text-anchor="middle" x="436" y="-231.4" font-family="Arial" font-size="9.00" fill="#005a9c">printmsg</text>
</a>
</g>
<!-- option_path&#45;&gt;basic_behavior_printmsg -->
<g id="edge60" class="edge"><title>option_path&#45;&gt;basic_behavior_printmsg</title>
<path fill="none" stroke="#808080" d="M436,-269.718C436,-266.727 436,-263.576 436,-260.436"/>
<polygon fill="#808080" stroke="#808080" points="438.8,-260.263 436,-252.263 433.2,-260.263 438.8,-260.263"/>
</g>
<!-- option_referee -->
<g id="node40" class="node"><title>option_referee</title>
<a xlink:href="option.referee.html" xlink:title="referee">
<polygon fill="#ffffff" stroke="black" points="226,-306 172,-306 172,-270 226,-270 226,-306"/>
<text text-anchor="middle" x="199" y="-285.4" font-family="Arial" font-size="9.00" fill="#005a9c">referee</text>
</a>
</g>
<!-- option_referee&#45;&gt;option_begin -->
<g id="edge62" class="edge"><title>option_referee&#45;&gt;option_begin</title>
<path fill="none" stroke="#808080" d="M199,-269.718C199,-266.727 199,-263.576 199,-260.436"/>
<polygon fill="#808080" stroke="#808080" points="201.8,-260.263 199,-252.263 196.2,-260.263 201.8,-260.263"/>
</g>
</g>
</svg>
