<?xml version="1.0" encoding="UTF-8" standalone="no"?>
<!DOCTYPE svg PUBLIC "-//W3C//DTD SVG 1.1//EN"
 "http://www.w3.org/Graphics/SVG/1.1/DTD/svg11.dtd">
<!-- Generated by graphviz version 2.26.3 (20100126.1600)
 -->
<!-- Title: g Pages: 1 -->
<svg width="282pt" height="526pt"
 viewBox="0.00 0.00 282.00 526.00" xmlns="http://www.w3.org/2000/svg" xmlns:xlink="http://www.w3.org/1999/xlink">
<g id="graph1" class="graph" transform="scale(1 1) rotate(0) translate(4 522)">
<title>g</title>
<polygon fill="white" stroke="white" points="-4,5 -4,-522 279,-522 279,5 -4,5"/>
<g id="graph2" class="cluster"><title>cluster_option</title>
<polygon fill="#f4f4f4" stroke="black" points="76,-330 76,-510 198,-510 198,-330 76,-330"/>
<text text-anchor="middle" x="137" y="-495.2" font-family="Arial" font-size="12.00" fill="#005a9c">option checklocalize</text>
</g>
<g id="graph7" class="cluster"><title>cluster_option_tree</title>
<polygon fill="none" stroke="#ffffff" points="8,-8 8,-255 266,-255 266,-8 8,-8"/>
</g>
<!-- state_localize -->
<g id="node4" class="node"><title>state_localize</title>
<a xlink:href="option.checklocalize.html#state_localize" xlink:title="localize">
<ellipse fill="#ffffff" stroke="black" cx="128" cy="-451" rx="27.1641" ry="27.6672"/>
<polyline fill="none" stroke="black" points="145.858,-471.625 110.142,-471.625 "/>
<polyline fill="none" stroke="black" points="145.858,-430.375 110.142,-430.375 "/>
<text text-anchor="middle" x="128" y="-448.4" font-family="Arial" font-size="9.00" fill="#005a9c">localize</text>
</a>
</g>
<!-- state_localize&#45;&gt;state_localize -->
<g id="edge9" class="edge"><title>state_localize&#45;&gt;state_localize</title>
<path fill="none" stroke="black" d="M150.936,-465.826C164.399,-468.985 177,-464.043 177,-451 177,-441.32 170.059,-436.102 160.975,-435.346"/>
<polygon fill="black" stroke="black" points="160.614,-431.864 150.936,-436.174 161.19,-438.84 160.614,-431.864"/>
</g>
<!-- state_findball -->
<g id="node7" class="node"><title>state_findball</title>
<a xlink:href="option.checklocalize.html#state_findball" xlink:title="findball">
<ellipse fill="#ffffff" stroke="black" cx="128" cy="-366" rx="27.1641" ry="27.6672"/>
<text text-anchor="middle" x="128" y="-363.4" font-family="Arial" font-size="9.00" fill="#005a9c">findball</text>
</a>
</g>
<!-- state_localize&#45;&gt;state_findball -->
<g id="edge7" class="edge"><title>state_localize&#45;&gt;state_findball</title>
<path fill="none" stroke="black" d="M120.298,-424.571C119.801,-417.615 119.642,-409.986 119.821,-402.599"/>
<polygon fill="black" stroke="black" points="123.326,-402.565 120.3,-392.412 116.334,-402.237 123.326,-402.565"/>
</g>
<!-- basic_behavior_doLocalize -->
<g id="node26" class="node"><title>basic_behavior_doLocalize</title>
<a xlink:href="basic-behaviors.myBasicBehaviors.html#doLocalize" xlink:title="doLocalize">
<ellipse fill="#ffffff" stroke="black" cx="222" cy="-229" rx="35.9084" ry="18"/>
<text text-anchor="middle" x="222" y="-226.4" font-family="Arial" font-size="9.00" fill="#005a9c">doLocalize</text>
</a>
</g>
<!-- state_localize&#45;&gt;basic_behavior_doLocalize -->
<g id="edge34" class="edge"><title>state_localize&#45;&gt;basic_behavior_doLocalize</title>
<path fill="none" stroke="#808080" stroke-dasharray="5,2" d="M149.598,-434.178C161.464,-423.821 175.464,-409.571 184,-394 208.49,-349.326 217.237,-289.516 220.333,-255.54"/>
<polygon fill="#808080" stroke="#808080" points="223.13,-255.688 221.004,-247.483 217.549,-255.223 223.13,-255.688"/>
</g>
<!-- state_findball&#45;&gt;state_localize -->
<g id="edge11" class="edge"><title>state_findball&#45;&gt;state_localize</title>
<path fill="none" stroke="black" d="M135.7,-392.412C136.198,-399.367 136.358,-406.997 136.179,-414.384"/>
<polygon fill="black" stroke="black" points="132.674,-414.418 135.702,-424.571 139.666,-414.746 132.674,-414.418"/>
</g>
<!-- state_findball&#45;&gt;state_findball -->
<g id="edge13" class="edge"><title>state_findball&#45;&gt;state_findball</title>
<path fill="none" stroke="black" d="M152.96,-376.524C165.635,-378.061 177,-374.553 177,-366 177,-359.853 171.129,-356.312 163.12,-355.377"/>
<polygon fill="black" stroke="black" points="162.925,-351.878 152.96,-355.476 162.994,-358.878 162.925,-351.878"/>
</g>
<!-- option_ballfound -->
<g id="node14" class="node"><title>option_ballfound</title>
<a xlink:href="option.ballfound.html" xlink:title="ballfound">
<polygon fill="#ffffff" stroke="black" points="70,-247 16,-247 16,-211 70,-211 70,-247"/>
<text text-anchor="middle" x="43" y="-226.4" font-family="Arial" font-size="9.00" fill="#005a9c">ballfound</text>
</a>
</g>
<!-- state_findball&#45;&gt;option_ballfound -->
<g id="edge38" class="edge"><title>state_findball&#45;&gt;option_ballfound</title>
<path fill="none" stroke="#808080" stroke-dasharray="5,2" d="M113.388,-342.449C98.0946,-317.799 74.1752,-279.247 58.5426,-254.051"/>
<polygon fill="#808080" stroke="#808080" points="60.7686,-252.328 54.1716,-247.006 56.0101,-255.28 60.7686,-252.328"/>
</g>
<!-- basic_behavior_doFindBall -->
<g id="node28" class="node"><title>basic_behavior_doFindBall</title>
<a xlink:href="basic-behaviors.myBasicBehaviors.html#doFindBall" xlink:title="doFindBall">
<ellipse fill="#ffffff" stroke="black" cx="128" cy="-229" rx="35.9084" ry="18"/>
<text text-anchor="middle" x="128" y="-226.4" font-family="Arial" font-size="9.00" fill="#005a9c">doFindBall</text>
</a>
</g>
<!-- state_findball&#45;&gt;basic_behavior_doFindBall -->
<g id="edge36" class="edge"><title>state_findball&#45;&gt;basic_behavior_doFindBall</title>
<path fill="none" stroke="#808080" stroke-dasharray="5,2" d="M128,-338.276C128,-314.043 128,-279.105 128,-255.303"/>
<polygon fill="#808080" stroke="#808080" points="130.8,-255.078 128,-247.078 125.2,-255.078 130.8,-255.078"/>
</g>
<!-- option_checkpath -->
<g id="node16" class="node"><title>option_checkpath</title>
<a xlink:href="option.checkpath.html" xlink:title="checkpath">
<polygon fill="#ffffff" stroke="black" points="76,-182 18,-182 18,-146 76,-146 76,-182"/>
<text text-anchor="middle" x="47" y="-161.4" font-family="Arial" font-size="9.00" fill="#005a9c">checkpath</text>
</a>
</g>
<!-- option_ballfound&#45;&gt;option_checkpath -->
<g id="edge24" class="edge"><title>option_ballfound&#45;&gt;option_checkpath</title>
<path fill="none" stroke="#808080" d="M44.1142,-210.894C44.5043,-204.555 44.9507,-197.3 45.374,-190.422"/>
<polygon fill="#808080" stroke="#808080" points="48.195,-190.166 45.8918,-182.009 42.6056,-189.822 48.195,-190.166"/>
</g>
<!-- basic_behavior_doMakePath -->
<g id="node24" class="node"><title>basic_behavior_doMakePath</title>
<a xlink:href="basic-behaviors.myBasicBehaviors.html#doMakePath" xlink:title="doMakePath">
<ellipse fill="#ffffff" stroke="black" cx="138" cy="-164" rx="40.0291" ry="18"/>
<text text-anchor="middle" x="138" y="-161.4" font-family="Arial" font-size="9.00" fill="#005a9c">doMakePath</text>
</a>
</g>
<!-- option_ballfound&#45;&gt;basic_behavior_doMakePath -->
<g id="edge26" class="edge"><title>option_ballfound&#45;&gt;basic_behavior_doMakePath</title>
<path fill="none" stroke="#808080" d="M69.4628,-210.894C81.7848,-202.463 96.4738,-192.413 109.087,-183.783"/>
<polygon fill="#808080" stroke="#808080" points="110.831,-185.982 115.852,-179.154 107.669,-181.36 110.831,-185.982"/>
</g>
<!-- option_ballfollowing -->
<g id="node18" class="node"><title>option_ballfollowing</title>
<a xlink:href="option.ballfollowing.html" xlink:title="ballfollowing">
<polygon fill="#ffffff" stroke="black" points="84,-117 16,-117 16,-81 84,-81 84,-117"/>
<text text-anchor="middle" x="50" y="-96.4" font-family="Arial" font-size="9.00" fill="#005a9c">ballfollowing</text>
</a>
</g>
<!-- option_checkpath&#45;&gt;option_ballfollowing -->
<g id="edge28" class="edge"><title>option_checkpath&#45;&gt;option_ballfollowing</title>
<path fill="none" stroke="#808080" d="M47.8357,-145.894C48.1282,-139.555 48.4631,-132.3 48.7805,-125.422"/>
<polygon fill="#808080" stroke="#808080" points="51.5969,-125.13 49.1688,-117.009 46.0029,-124.871 51.5969,-125.13"/>
</g>
<!-- basic_behavior_doPathToWalk -->
<g id="node22" class="node"><title>basic_behavior_doPathToWalk</title>
<a xlink:href="basic-behaviors.myBasicBehaviors.html#doPathToWalk" xlink:title="doPathToWalk">
<ellipse fill="#ffffff" stroke="black" cx="150" cy="-99" rx="44.2357" ry="18"/>
<text text-anchor="middle" x="150" y="-96.4" font-family="Arial" font-size="9.00" fill="#005a9c">doPathToWalk</text>
</a>
</g>
<!-- option_checkpath&#45;&gt;basic_behavior_doPathToWalk -->
<g id="edge30" class="edge"><title>option_checkpath&#45;&gt;basic_behavior_doPathToWalk</title>
<path fill="none" stroke="#808080" d="M75.6912,-145.894C89.1746,-137.385 105.272,-127.226 119.031,-118.543"/>
<polygon fill="#808080" stroke="#808080" points="120.716,-120.791 125.987,-114.154 117.727,-116.055 120.716,-120.791"/>
</g>
<!-- basic_behavior_moveAcYuttemp -->
<g id="node20" class="node"><title>basic_behavior_moveAcYuttemp</title>
<a xlink:href="basic-behaviors.myBasicBehaviors.html#moveAcYuttemp" xlink:title="moveAcYuttemp">
<ellipse fill="#ffffff" stroke="black" cx="64" cy="-34" rx="47.7727" ry="18"/>
<text text-anchor="middle" x="64" y="-31.4" font-family="Arial" font-size="9.00" fill="#005a9c">moveAcYuttemp</text>
</a>
</g>
<!-- option_ballfollowing&#45;&gt;basic_behavior_moveAcYuttemp -->
<g id="edge32" class="edge"><title>option_ballfollowing&#45;&gt;basic_behavior_moveAcYuttemp</title>
<path fill="none" stroke="#808080" d="M53.8998,-80.8939C55.2954,-74.414 56.8972,-66.9775 58.4077,-59.9645"/>
<polygon fill="#808080" stroke="#808080" points="61.1738,-60.4193 60.1211,-52.009 55.6994,-59.2401 61.1738,-60.4193"/>
</g>
</g>
</svg>
