<?xml version="1.0" encoding="UTF-8" standalone="no"?>
<!DOCTYPE svg PUBLIC "-//W3C//DTD SVG 1.1//EN"
 "http://www.w3.org/Graphics/SVG/1.1/DTD/svg11.dtd">
<!-- Generated by graphviz version 2.26.3 (20100126.1600)
 -->
<!-- Title: g Pages: 1 -->
<svg width="219pt" height="389pt"
 viewBox="0.00 0.00 219.00 389.00" xmlns="http://www.w3.org/2000/svg" xmlns:xlink="http://www.w3.org/1999/xlink">
<g id="graph1" class="graph" transform="scale(1 1) rotate(0) translate(4 385)">
<title>g</title>
<polygon fill="white" stroke="white" points="-4,5 -4,-385 216,-385 216,5 -4,5"/>
<g id="graph2" class="cluster"><title>cluster_option</title>
<polygon fill="#f4f4f4" stroke="black" points="8,-169 8,-373 113,-373 113,-169 8,-169"/>
<text text-anchor="middle" x="60.5" y="-358.2" font-family="Arial" font-size="12.00" fill="#005a9c">option checkpath</text>
</g>
<g id="graph7" class="cluster"><title>cluster_option_tree</title>
<polygon fill="none" stroke="#ffffff" points="9,-8 9,-125 203,-125 203,-8 9,-8"/>
</g>
<!-- state_pathfollow -->
<g id="node4" class="node"><title>state_pathfollow</title>
<a xlink:href="option.checkpath.html#state_pathfollow" xlink:title="pathfollow">
<ellipse fill="#ffffff" stroke="black" cx="51" cy="-307" rx="34.2278" ry="34.7311"/>
<polyline fill="none" stroke="black" points="73.4876,-332.875 28.5124,-332.875 "/>
<polyline fill="none" stroke="black" points="73.4876,-281.125 28.5124,-281.125 "/>
<text text-anchor="middle" x="51" y="-304.4" font-family="Arial" font-size="9.00" fill="#005a9c">pathfollow</text>
</a>
</g>
<!-- state_pathfollow&#45;&gt;state_pathfollow -->
<g id="edge7" class="edge"><title>state_pathfollow&#45;&gt;state_pathfollow</title>
<path fill="none" stroke="black" d="M80.3871,-324.561C94.5221,-326.729 107,-320.875 107,-307 107,-296.594 99.9812,-290.7 90.5086,-289.318"/>
<polygon fill="black" stroke="black" points="90.3441,-285.819 80.3871,-289.439 90.4285,-292.819 90.3441,-285.819"/>
</g>
<!-- state_ballfollow -->
<g id="node7" class="node"><title>state_ballfollow</title>
<a xlink:href="option.checkpath.html#state_ballfollow" xlink:title="ballfollow">
<ellipse fill="#ffffff" stroke="black" cx="51" cy="-210" rx="32.9651" ry="32.9651"/>
<text text-anchor="middle" x="51" y="-207.4" font-family="Arial" font-size="9.00" fill="#005a9c">ballfollow</text>
</a>
</g>
<!-- state_pathfollow&#45;&gt;state_ballfollow -->
<g id="edge9" class="edge"><title>state_pathfollow&#45;&gt;state_ballfollow</title>
<path fill="none" stroke="black" d="M43.1036,-273.346C42.7718,-266.582 42.6735,-259.391 42.8088,-252.374"/>
<polygon fill="black" stroke="black" points="46.3098,-252.407 43.1742,-242.287 39.3144,-252.154 46.3098,-252.407"/>
</g>
<!-- basic_behavior_doPathToWalk -->
<g id="node18" class="node"><title>basic_behavior_doPathToWalk</title>
<a xlink:href="basic-behaviors.myBasicBehaviors.html#doPathToWalk" xlink:title="doPathToWalk">
<ellipse fill="#ffffff" stroke="black" cx="151" cy="-99" rx="44.2357" ry="18"/>
<text text-anchor="middle" x="151" y="-96.4" font-family="Arial" font-size="9.00" fill="#005a9c">doPathToWalk</text>
</a>
</g>
<!-- state_pathfollow&#45;&gt;basic_behavior_doPathToWalk -->
<g id="edge21" class="edge"><title>state_pathfollow&#45;&gt;basic_behavior_doPathToWalk</title>
<path fill="none" stroke="#808080" stroke-dasharray="5,2" d="M77.8045,-285.117C90.155,-273.738 104.029,-258.898 113,-243 134.165,-205.495 143.875,-155.837 148.076,-125.716"/>
<polygon fill="#808080" stroke="#808080" points="150.903,-125.693 149.165,-117.397 145.35,-124.966 150.903,-125.693"/>
</g>
<!-- state_ballfollow&#45;&gt;state_pathfollow -->
<g id="edge11" class="edge"><title>state_ballfollow&#45;&gt;state_pathfollow</title>
<path fill="none" stroke="black" d="M58.8258,-242.287C59.1893,-248.991 59.3192,-256.162 59.2155,-263.2"/>
<polygon fill="black" stroke="black" points="55.7125,-263.241 58.8964,-273.346 62.7091,-263.461 55.7125,-263.241"/>
</g>
<!-- state_ballfollow&#45;&gt;state_ballfollow -->
<g id="edge13" class="edge"><title>state_ballfollow&#45;&gt;state_ballfollow</title>
<path fill="none" stroke="black" d="M82.0976,-221.523C95.034,-222.318 106,-218.477 106,-210 106,-203.907 100.335,-200.21 92.345,-198.907"/>
<polygon fill="black" stroke="black" points="92.2354,-195.399 82.0976,-198.477 91.9422,-202.393 92.2354,-195.399"/>
</g>
<!-- option_ballfollowing -->
<g id="node14" class="node"><title>option_ballfollowing</title>
<a xlink:href="option.ballfollowing.html" xlink:title="ballfollowing">
<polygon fill="#ffffff" stroke="black" points="85,-117 17,-117 17,-81 85,-81 85,-117"/>
<text text-anchor="middle" x="51" y="-96.4" font-family="Arial" font-size="9.00" fill="#005a9c">ballfollowing</text>
</a>
</g>
<!-- state_ballfollow&#45;&gt;option_ballfollowing -->
<g id="edge23" class="edge"><title>state_ballfollow&#45;&gt;option_ballfollowing</title>
<path fill="none" stroke="#808080" stroke-dasharray="5,2" d="M51,-176.997C51,-160.497 51,-140.804 51,-125.334"/>
<polygon fill="#808080" stroke="#808080" points="53.8001,-125.222 51,-117.222 48.2001,-125.222 53.8001,-125.222"/>
</g>
<!-- basic_behavior_moveAcYuttemp -->
<g id="node16" class="node"><title>basic_behavior_moveAcYuttemp</title>
<a xlink:href="basic-behaviors.myBasicBehaviors.html#moveAcYuttemp" xlink:title="moveAcYuttemp">
<ellipse fill="#ffffff" stroke="black" cx="65" cy="-34" rx="47.7727" ry="18"/>
<text text-anchor="middle" x="65" y="-31.4" font-family="Arial" font-size="9.00" fill="#005a9c">moveAcYuttemp</text>
</a>
</g>
<!-- option_ballfollowing&#45;&gt;basic_behavior_moveAcYuttemp -->
<g id="edge19" class="edge"><title>option_ballfollowing&#45;&gt;basic_behavior_moveAcYuttemp</title>
<path fill="none" stroke="#808080" d="M54.8998,-80.8939C56.2954,-74.414 57.8972,-66.9775 59.4077,-59.9645"/>
<polygon fill="#808080" stroke="#808080" points="62.1738,-60.4193 61.1211,-52.009 56.6994,-59.2401 62.1738,-60.4193"/>
</g>
</g>
</svg>
