<?xml version="1.0" encoding="UTF-8" standalone="no"?>
<!DOCTYPE svg PUBLIC "-//W3C//DTD SVG 1.1//EN"
 "http://www.w3.org/Graphics/SVG/1.1/DTD/svg11.dtd">
<!-- Generated by graphviz version 2.26.3 (20100126.1600)
 -->
<!-- Title: g Pages: 1 -->
<svg width="414pt" height="506pt"
 viewBox="0.00 0.00 414.00 506.00" xmlns="http://www.w3.org/2000/svg" xmlns:xlink="http://www.w3.org/1999/xlink">
<g id="graph1" class="graph" transform="scale(1 1) rotate(0) translate(4 502)">
<title>g</title>
<polygon fill="white" stroke="white" points="-4,5 -4,-502 411,-502 411,5 -4,5"/>
<g id="graph2" class="cluster"><title>cluster_option</title>
<polygon fill="#f4f4f4" stroke="black" points="8,-8 8,-490 398,-490 398,-8 8,-8"/>
<text text-anchor="middle" x="203" y="-475.2" font-family="Arial" font-size="12.00" fill="#005a9c">option ballfollowing</text>
</g>
<g id="graph3" class="cluster"><title>cluster_states</title>
<polygon fill="#f4f4f4" stroke="#f4f4f4" points="16,-16 16,-112 390,-112 390,-16 16,-16"/>
</g>
<g id="graph10" class="cluster"><title>cluster_decision_tree</title>
<polygon fill="#ffffff" stroke="black" points="61,-156 61,-459 203,-459 203,-156 61,-156"/>
<text text-anchor="middle" x="132" y="-444.2" font-family="Arial" font-size="12.00" fill="#005a9c">state left</text>
</g>
<!-- state_ballnotfound -->
<g id="node4" class="node"><title>state_ballnotfound</title>
<a xlink:href="option.ballfollowing.html#state_ballnotfound" xlink:title="ballnotfound">
<ellipse fill="#ffffff" stroke="black" cx="342" cy="-64" rx="40.0291" ry="40.0291"/>
<polyline fill="none" stroke="black" points="368.456,-94 315.544,-94 "/>
<polyline fill="none" stroke="black" points="368.456,-34 315.544,-34 "/>
<text text-anchor="middle" x="342" y="-61.4" font-family="Arial" font-size="9.00" fill="#005a9c">ballnotfound</text>
</a>
</g>
<!-- state_preparekick -->
<g id="node6" class="node"><title>state_preparekick</title>
<a xlink:href="option.ballfollowing.html#state_preparekick" xlink:title="preparekick">
<ellipse fill="#ffffff" stroke="black" cx="246" cy="-64" rx="37.7662" ry="38.2631"/>
<text text-anchor="middle" x="246" y="-61.4" font-family="Arial" font-size="9.00" fill="#005a9c">preparekick</text>
</a>
</g>
<!-- state_forward -->
<g id="node8" class="node"><title>state_forward</title>
<a xlink:href="option.ballfollowing.html#state_forward" xlink:title="forward">
<ellipse fill="#ffffff" stroke="black" cx="163" cy="-64" rx="27.1641" ry="27.6672"/>
<text text-anchor="middle" x="163" y="-61.4" font-family="Arial" font-size="9.00" fill="#005a9c">forward</text>
</a>
</g>
<!-- state_left -->
<g id="node10" class="node"><title>state_left</title>
<ellipse fill="none" stroke="black" stroke-dasharray="5,2" cx="100" cy="-64" rx="18" ry="18"/>
<text text-anchor="middle" x="100" y="-61.4" font-family="Arial" font-size="9.00" fill="#005a9c">left</text>
</g>
<!-- state_right -->
<g id="node12" class="node"><title>state_right</title>
<a xlink:href="option.ballfollowing.html#state_right" xlink:title="right">
<ellipse fill="#ffffff" stroke="black" cx="44" cy="-64" rx="20.1007" ry="20.6032"/>
<text text-anchor="middle" x="44" y="-61.4" font-family="Arial" font-size="9.00" fill="#005a9c">right</text>
</a>
</g>
<!-- start -->
<g id="node16" class="node"><title>start</title>
<ellipse fill="black" stroke="black" cx="168" cy="-426" rx="1.8" ry="1.8"/>
</g>
<!-- _0 -->
<g id="node18" class="node"><title>_0</title>
<a xlink:href="option.ballfollowing.html#state_left_pseudo-code_0" xlink:title="Ball not\nfound">
<polygon fill="#ffffff" stroke="black" points="195,-395 141,-395 141,-359 195,-359 195,-395"/>
<text text-anchor="middle" x="168" y="-379.9" font-family="Arial Italic" font-size="9.00">Ball not</text>
<text text-anchor="middle" x="168" y="-368.9" font-family="Arial Italic" font-size="9.00">found</text>
</a>
</g>
<!-- start&#45;&gt;_0 -->
<g id="edge15" class="edge"><title>start&#45;&gt;_0</title>
<path fill="none" stroke="black" stroke-dasharray="5,2" d="M168,-423.895C168,-420.481 168,-413.341 168,-405.638"/>
<polygon fill="black" stroke="black" points="171.5,-405.455 168,-395.455 164.5,-405.455 171.5,-405.455"/>
</g>
<!-- _0&#45;&gt;state_ballnotfound -->
<g id="edge13" class="edge"><title>_0&#45;&gt;state_ballnotfound</title>
<path fill="none" stroke="black" stroke-dasharray="5,2" d="M186.673,-358.623C208.595,-334.998 242,-291.668 242,-247 242,-247 242,-247 242,-182 242,-171.665 278.166,-131.085 306.999,-100.375"/>
<polygon fill="black" stroke="black" points="309.825,-102.479 314.144,-92.8045 304.735,-97.6741 309.825,-102.479"/>
<text text-anchor="middle" x="189.582" y="-346.956" font-family="Times Roman,serif" font-size="9.00">1</text>
</g>
<!-- _1_0 -->
<g id="node22" class="node"><title>_1_0</title>
<a xlink:href="option.ballfollowing.html#state_left_pseudo-code_1_0" xlink:title="Ball is\nin front">
<polygon fill="#ffffff" stroke="black" points="195,-330 141,-330 141,-294 195,-294 195,-330"/>
<text text-anchor="middle" x="168" y="-314.9" font-family="Arial Italic" font-size="9.00">Ball is</text>
<text text-anchor="middle" x="168" y="-303.9" font-family="Arial Italic" font-size="9.00">in front</text>
</a>
</g>
<!-- _0&#45;&gt;_1_0 -->
<g id="edge25" class="edge"><title>_0&#45;&gt;_1_0</title>
<path fill="none" stroke="black" stroke-dasharray="5,2" d="M168,-358.894C168,-353.118 168,-346.583 168,-340.265"/>
<polygon fill="black" stroke="black" points="171.5,-340.009 168,-330.009 164.5,-340.009 171.5,-340.009"/>
<text text-anchor="middle" x="163.774" y="-347.231" font-family="Arial Bold Italic" font-size="9.00">0</text>
</g>
<!-- _1_0_0 -->
<g id="node24" class="node"><title>_1_0_0</title>
<a xlink:href="option.ballfollowing.html#state_left_pseudo-code_1_0_0" xlink:title="Ball is\nnear">
<polygon fill="#ffffff" stroke="black" points="195,-265 141,-265 141,-229 195,-229 195,-265"/>
<text text-anchor="middle" x="168" y="-249.9" font-family="Arial Italic" font-size="9.00">Ball is</text>
<text text-anchor="middle" x="168" y="-238.9" font-family="Arial Italic" font-size="9.00">near</text>
</a>
</g>
<!-- _1_0&#45;&gt;_1_0_0 -->
<g id="edge21" class="edge"><title>_1_0&#45;&gt;_1_0_0</title>
<path fill="none" stroke="black" stroke-dasharray="5,2" d="M168,-293.894C168,-288.118 168,-281.583 168,-275.265"/>
<polygon fill="black" stroke="black" points="171.5,-275.009 168,-265.009 164.5,-275.009 171.5,-275.009"/>
<text text-anchor="middle" x="163.774" y="-282.231" font-family="Arial Bold Italic" font-size="9.00">1</text>
</g>
<!-- _1_1_0 -->
<g id="node30" class="node"><title>_1_1_0</title>
<a xlink:href="option.ballfollowing.html#state_left_pseudo-code_1_1_0" xlink:title="Ball is\nleft">
<polygon fill="#ffffff" stroke="black" points="123,-265 69,-265 69,-229 123,-229 123,-265"/>
<text text-anchor="middle" x="96" y="-249.9" font-family="Arial Italic" font-size="9.00">Ball is</text>
<text text-anchor="middle" x="96" y="-238.9" font-family="Arial Italic" font-size="9.00">left</text>
</a>
</g>
<!-- _1_0&#45;&gt;_1_1_0 -->
<g id="edge30" class="edge"><title>_1_0&#45;&gt;_1_1_0</title>
<path fill="none" stroke="black" stroke-dasharray="5,2" d="M147.944,-293.894C140.376,-287.062 131.63,-279.166 123.498,-271.825"/>
<polygon fill="black" stroke="black" points="125.717,-269.112 115.948,-265.009 121.026,-274.308 125.717,-269.112"/>
<text text-anchor="middle" x="138.385" y="-288.358" font-family="Arial Bold Italic" font-size="9.00">0</text>
</g>
<!-- _1_0_0&#45;&gt;state_preparekick -->
<g id="edge19" class="edge"><title>_1_0_0&#45;&gt;state_preparekick</title>
<path fill="none" stroke="black" stroke-dasharray="5,2" d="M175.764,-228.784C187.558,-201.114 210.349,-147.642 226.776,-109.102"/>
<polygon fill="black" stroke="black" points="230.103,-110.222 230.805,-99.6507 223.664,-107.478 230.103,-110.222"/>
<text text-anchor="middle" x="175.43" y="-216.69" font-family="Times Roman,serif" font-size="9.00">1</text>
</g>
<!-- _1_0_0&#45;&gt;state_forward -->
<g id="edge23" class="edge"><title>_1_0_0&#45;&gt;state_forward</title>
<path fill="none" stroke="black" stroke-dasharray="5,2" d="M167.502,-228.784C166.699,-199.366 165.098,-140.779 164.038,-101.984"/>
<polygon fill="black" stroke="black" points="167.526,-101.508 163.754,-91.6075 160.529,-101.699 167.526,-101.508"/>
<text text-anchor="middle" x="163.03" y="-217.74" font-family="Times Roman,serif" font-size="9.00">0</text>
</g>
<!-- _1_1_0&#45;&gt;state_left -->
<g id="edge28" class="edge"><title>_1_1_0&#45;&gt;state_left</title>
<path fill="none" stroke="black" stroke-dasharray="5,2" d="M114.611,-228.578C121.472,-220.521 128.436,-210.513 132,-200 144.886,-161.984 127.74,-116.286 114.005,-88.724"/>
<polygon fill="black" stroke="black" points="117.067,-87.0263 109.343,-79.7737 110.858,-90.2597 117.067,-87.0263"/>
<text text-anchor="middle" x="117.157" y="-216.808" font-family="Times Roman,serif" font-size="9.00">1</text>
</g>
<!-- _1_1_1_0 -->
<g id="node34" class="node"><title>_1_1_1_0</title>
<a xlink:href="option.ballfollowing.html#state_left_pseudo-code_1_1_1_0" xlink:title="Ball is\nright">
<polygon fill="#ffffff" stroke="black" points="123,-200 69,-200 69,-164 123,-164 123,-200"/>
<text text-anchor="middle" x="96" y="-184.9" font-family="Arial Italic" font-size="9.00">Ball is</text>
<text text-anchor="middle" x="96" y="-173.9" font-family="Arial Italic" font-size="9.00">right</text>
</a>
</g>
<!-- _1_1_0&#45;&gt;_1_1_1_0 -->
<g id="edge35" class="edge"><title>_1_1_0&#45;&gt;_1_1_1_0</title>
<path fill="none" stroke="black" stroke-dasharray="5,2" d="M96,-228.894C96,-223.118 96,-216.583 96,-210.265"/>
<polygon fill="black" stroke="black" points="99.5001,-210.009 96,-200.009 92.5001,-210.009 99.5001,-210.009"/>
<text text-anchor="middle" x="91.7738" y="-217.231" font-family="Arial Bold Italic" font-size="9.00">0</text>
</g>
<!-- _1_1_1_0&#45;&gt;state_left -->
<g id="edge37" class="edge"><title>_1_1_1_0&#45;&gt;state_left</title>
<path fill="none" stroke="black" d="M96.6162,-163.821C97.2641,-144.709 98.2919,-114.389 99.0449,-92.1751"/>
<polygon fill="black" stroke="black" points="102.549,-92.1188 99.3896,-82.0059 95.5528,-91.8816 102.549,-92.1188"/>
<text text-anchor="middle" x="92.6995" y="-152.52" font-family="Times Roman,serif" font-size="9.00">0</text>
</g>
<!-- _1_1_1_0&#45;&gt;state_right -->
<g id="edge33" class="edge"><title>_1_1_1_0&#45;&gt;state_right</title>
<path fill="none" stroke="black" stroke-dasharray="5,2" d="M87.989,-163.821C79.5513,-144.674 66.1559,-114.277 56.3619,-92.0519"/>
<polygon fill="black" stroke="black" points="59.5136,-90.5245 52.2782,-82.7851 53.108,-93.3474 59.5136,-90.5245"/>
<text text-anchor="middle" x="80.4669" y="-155.132" font-family="Times Roman,serif" font-size="9.00">1</text>
</g>
</g>
</svg>
